<svg width="20" height="20" viewBox="0 0 20 20" fill="none" xmlns="http://www.w3.org/2000/svg">
<path d="M15.8959 4.10807C17.4039 5.61611 18.3366 7.69944 18.3366 10.0006C18.3366 12.3018 17.4039 14.3852 15.8959 15.8932M13.2442 6.75944C14.0737 7.58886 14.5867 8.73469 14.5867 10.0003C14.5867 11.266 14.0737 12.4118 13.2442 13.2413M3.33666 6.66667H4.39991C4.78981 6.66667 5.16736 6.52997 5.46689 6.28037L8.63651 3.63902C9.17928 3.18671 10.0033 3.57267 10.0033 4.2792V15.7208C10.0033 16.4273 9.17928 16.8133 8.63651 16.361L5.46689 13.7196C5.16736 13.47 4.78981 13.3333 4.39991 13.3333H3.33666C2.41619 13.3333 1.67 12.5871 1.67 11.6667V8.33333C1.67 7.41286 2.41619 6.66667 3.33666 6.66667Z" stroke="currentColor" stroke-width="1.66667" stroke-linecap="round" stroke-linejoin="round"/>
</svg>
