<svg width="20" height="20" viewBox="0 0 20 20" fill="none" xmlns="http://www.w3.org/2000/svg">
<path d="M17.9167 8.33333L16.1489 10.1011M16.1489 10.1011L14.3811 11.8689M16.1489 10.1011L14.3811 8.33333M16.1489 10.1011L17.9167 11.8689M3.33332 6.66667H4.39657C4.78647 6.66667 5.16402 6.52997 5.46355 6.28037L8.63317 3.63902C9.17594 3.18671 9.99999 3.57267 9.99999 4.2792V15.7208C9.99999 16.4273 9.17594 16.8133 8.63317 16.361L5.46355 13.7196C5.16402 13.47 4.78647 13.3333 4.39657 13.3333H3.33332C2.41285 13.3333 1.66666 12.5871 1.66666 11.6667V8.33333C1.66666 7.41286 2.41285 6.66667 3.33332 6.66667Z" stroke="currentColor" stroke-width="1.66667" stroke-linecap="round"/>
</svg>
