<svg width="20" height="20" viewBox="0 0 20 20" fill="none" xmlns="http://www.w3.org/2000/svg">
<path d="M10.8333 14.7917C10.8333 14.3314 11.2064 13.9583 11.6667 13.9583C12.1269 13.9583 12.5 14.3314 12.5 14.7917C12.5 15.2519 12.1269 15.625 11.6667 15.625C11.2064 15.625 10.8333 15.2519 10.8333 14.7917Z" fill="currentColor"/>
<path d="M13.75 14.7917C13.75 14.3314 14.1231 13.9583 14.5833 13.9583C15.0436 13.9583 15.4167 14.3314 15.4167 14.7917C15.4167 15.2519 15.0436 15.625 14.5833 15.625C14.1231 15.625 13.75 15.2519 13.75 14.7917Z" fill="currentColor"/>
<path d="M10.8333 5.20834C10.8333 4.74811 11.2064 4.37501 11.6667 4.37501C12.1269 4.37501 12.5 4.74811 12.5 5.20834C12.5 5.66858 12.1269 6.04168 11.6667 6.04168C11.2064 6.04168 10.8333 5.66858 10.8333 5.20834Z" fill="currentColor"/>
<path d="M11.0417 17.2917C11.0417 16.9465 11.3215 16.6667 11.6667 16.6667C12.0118 16.6667 12.2917 16.9465 12.2917 17.2917C12.2917 17.6369 12.0118 17.9167 11.6667 17.9167C11.3215 17.9167 11.0417 17.6369 11.0417 17.2917Z" fill="currentColor"/>
<path d="M16.25 11.6667C16.25 11.3215 16.5298 11.0417 16.875 11.0417C17.2202 11.0417 17.5 11.3215 17.5 11.6667C17.5 12.0119 17.2202 12.2917 16.875 12.2917C16.5298 12.2917 16.25 12.0119 16.25 11.6667Z" fill="currentColor"/>
<path d="M16.25 8.33334C16.25 7.98817 16.5298 7.70834 16.875 7.70834C17.2202 7.70834 17.5 7.98817 17.5 8.33334C17.5 8.67852 17.2202 8.95834 16.875 8.95834C16.5298 8.95834 16.25 8.67852 16.25 8.33334Z" fill="currentColor"/>
<path d="M11.0417 2.70834C11.0417 2.36317 11.3215 2.08334 11.6667 2.08334C12.0118 2.08334 12.2917 2.36317 12.2917 2.70834C12.2917 3.05352 12.0118 3.33334 11.6667 3.33334C11.3215 3.33334 11.0417 3.05352 11.0417 2.70834Z" fill="currentColor"/>
<path d="M10.4167 11.6667C10.4167 10.9763 10.9763 10.4167 11.6667 10.4167C12.357 10.4167 12.9167 10.9763 12.9167 11.6667C12.9167 12.357 12.357 12.9167 11.6667 12.9167C10.9763 12.9167 10.4167 12.357 10.4167 11.6667Z" fill="currentColor"/>
<path d="M10.4167 8.33334C10.4167 7.64299 10.9763 7.08334 11.6667 7.08334C12.357 7.08334 12.9167 7.64299 12.9167 8.33334C12.9167 9.0237 12.357 9.58334 11.6667 9.58334C10.9763 9.58334 10.4167 9.0237 10.4167 8.33334Z" fill="currentColor"/>
<path d="M13.75 11.6667C13.75 11.2064 14.1231 10.8333 14.5833 10.8333C15.0436 10.8333 15.4167 11.2064 15.4167 11.6667C15.4167 12.1269 15.0436 12.5 14.5833 12.5C14.1231 12.5 13.75 12.1269 13.75 11.6667Z" fill="currentColor"/>
<path d="M13.75 8.33334C13.75 7.87311 14.1231 7.50001 14.5833 7.50001C15.0436 7.50001 15.4167 7.87311 15.4167 8.33334C15.4167 8.79358 15.0436 9.16668 14.5833 9.16668C14.1231 9.16668 13.75 8.79358 13.75 8.33334Z" fill="currentColor"/>
<path d="M13.75 5.20834C13.75 4.74811 14.1231 4.37501 14.5833 4.37501C15.0436 4.37501 15.4167 4.74811 15.4167 5.20834C15.4167 5.66858 15.0436 6.04168 14.5833 6.04168C14.1231 6.04168 13.75 5.66858 13.75 5.20834Z" fill="currentColor"/>
<path d="M9.16667 5.20834C9.16667 5.66858 8.79357 6.04168 8.33333 6.04168C7.8731 6.04168 7.5 5.66858 7.5 5.20834C7.5 4.74811 7.8731 4.37501 8.33333 4.37501C8.79357 4.37501 9.16667 4.74811 9.16667 5.20834Z" fill="currentColor"/>
<path d="M6.25 5.20834C6.25 5.66858 5.8769 6.04168 5.41667 6.04168C4.95643 6.04168 4.58333 5.66858 4.58333 5.20834C4.58333 4.74811 4.95643 4.37501 5.41667 4.37501C5.8769 4.37501 6.25 4.74811 6.25 5.20834Z" fill="currentColor"/>
<path d="M9.16667 14.7917C9.16667 15.2519 8.79357 15.625 8.33333 15.625C7.8731 15.625 7.5 15.2519 7.5 14.7917C7.5 14.3314 7.8731 13.9583 8.33333 13.9583C8.79357 13.9583 9.16667 14.3314 9.16667 14.7917Z" fill="currentColor"/>
<path d="M8.95833 2.70834C8.95833 3.05352 8.67851 3.33334 8.33333 3.33334C7.98816 3.33334 7.70833 3.05352 7.70833 2.70834C7.70833 2.36317 7.98816 2.08334 8.33333 2.08334C8.67851 2.08334 8.95833 2.36317 8.95833 2.70834Z" fill="currentColor"/>
<path d="M3.75 8.33334C3.75 8.67852 3.47018 8.95834 3.125 8.95834C2.77982 8.95834 2.5 8.67852 2.5 8.33334C2.5 7.98817 2.77982 7.70834 3.125 7.70834C3.47018 7.70834 3.75 7.98817 3.75 8.33334Z" fill="currentColor"/>
<path d="M3.75 11.6667C3.75 12.0119 3.47018 12.2917 3.125 12.2917C2.77982 12.2917 2.5 12.0119 2.5 11.6667C2.5 11.3215 2.77982 11.0417 3.125 11.0417C3.47018 11.0417 3.75 11.3215 3.75 11.6667Z" fill="currentColor"/>
<path d="M8.95833 17.2917C8.95833 17.6369 8.67851 17.9167 8.33333 17.9167C7.98816 17.9167 7.70833 17.6369 7.70833 17.2917C7.70833 16.9465 7.98816 16.6667 8.33333 16.6667C8.67851 16.6667 8.95833 16.9465 8.95833 17.2917Z" fill="currentColor"/>
<path d="M9.58333 8.33334C9.58333 9.0237 9.02369 9.58334 8.33333 9.58334C7.64298 9.58334 7.08333 9.0237 7.08333 8.33334C7.08333 7.64299 7.64298 7.08334 8.33333 7.08334C9.02369 7.08334 9.58333 7.64299 9.58333 8.33334Z" fill="currentColor"/>
<path d="M9.58333 11.6667C9.58333 12.357 9.02369 12.9167 8.33333 12.9167C7.64298 12.9167 7.08333 12.357 7.08333 11.6667C7.08333 10.9763 7.64298 10.4167 8.33333 10.4167C9.02369 10.4167 9.58333 10.9763 9.58333 11.6667Z" fill="currentColor"/>
<path d="M6.25 8.33334C6.25 8.79358 5.8769 9.16668 5.41667 9.16668C4.95643 9.16668 4.58333 8.79358 4.58333 8.33334C4.58333 7.87311 4.95643 7.50001 5.41667 7.50001C5.8769 7.50001 6.25 7.87311 6.25 8.33334Z" fill="currentColor"/>
<path d="M6.25 11.6667C6.25 12.1269 5.8769 12.5 5.41667 12.5C4.95643 12.5 4.58333 12.1269 4.58333 11.6667C4.58333 11.2064 4.95643 10.8333 5.41667 10.8333C5.8769 10.8333 6.25 11.2064 6.25 11.6667Z" fill="currentColor"/>
<path d="M6.25 14.7917C6.25 15.2519 5.8769 15.625 5.41667 15.625C4.95643 15.625 4.58333 15.2519 4.58333 14.7917C4.58333 14.3314 4.95643 13.9583 5.41667 13.9583C5.8769 13.9583 6.25 14.3314 6.25 14.7917Z" fill="currentColor"/>
</svg>
