<svg width="20" height="20" viewBox="0 0 20 20" fill="none" xmlns="http://www.w3.org/2000/svg">
<path d="M2.5 6.66666C2.5 5.28594 3.61929 4.16666 5 4.16666H10C11.3807 4.16666 12.5 5.28594 12.5 6.66666V13.3333C12.5 14.714 11.3807 15.8333 10 15.8333H5C3.61929 15.8333 2.5 14.714 2.5 13.3333V6.66666Z" stroke="currentColor" stroke-width="1.66667" stroke-linejoin="round"/>
<path d="M12.9607 8.103L16.294 6.43633C16.8481 6.15929 17.5 6.5622 17.5 7.18169V12.8183C17.5 13.4378 16.8481 13.8407 16.294 13.5637L12.9607 11.897C12.6783 11.7558 12.5 11.4673 12.5 11.1516V8.84835C12.5 8.53271 12.6783 8.24416 12.9607 8.103Z" stroke="currentColor" stroke-width="1.66667" stroke-linejoin="round"/>
</svg>
