<svg width="10" height="6" viewBox="0 0 10 6" fill="none" xmlns="http://www.w3.org/2000/svg">
<path d="M9.80763 1.18378L5.46126 5.79649C5.40069 5.861 5.32872 5.91218 5.24947 5.9471C5.17023 5.98202 5.08526 6 4.99946 6C4.91365 6 4.82869 5.98202 4.74944 5.9471C4.67019 5.91218 4.59822 5.861 4.53765 5.79649L0.191285 1.18378C0.0688072 1.0538 -1.82506e-09 0.877507 0 0.693683C1.82506e-09 0.50986 0.0688072 0.333566 0.191285 0.203583C0.313762 0.0736001 0.479877 0.000576714 0.653086 0.000576712C0.826296 0.00057671 0.992411 0.0736001 1.11489 0.203583L5 4.32677L8.88511 0.203007C9.00759 0.0730239 9.1737 0 9.34691 0C9.52012 0 9.68624 0.0730239 9.80871 0.203007C9.93119 0.332989 10 0.509284 10 0.693107C10 0.87693 9.93119 1.05322 9.80871 1.18321L9.80763 1.18378Z" fill="white"/>
</svg>
