<svg width="8" height="9" viewBox="0 0 8 9" fill="none" xmlns="http://www.w3.org/2000/svg">
<path d="M7.59709 7.33888C7.69785 7.43965 7.75447 7.57631 7.75447 7.7188C7.75447 7.8613 7.69785 7.99796 7.59709 8.09872C7.49632 8.19948 7.35965 8.25609 7.21715 8.25609C7.07464 8.25609 6.93797 8.19948 6.8372 8.09872L3.99926 5.26006L1.16042 8.09783C1.05966 8.19859 0.922989 8.2552 0.780483 8.2552C0.637977 8.2552 0.501308 8.19859 0.400541 8.09783C0.299774 7.99707 0.243164 7.86041 0.243164 7.71791C0.243164 7.57541 0.299774 7.43875 0.400541 7.33799L3.23938 4.50022L0.401435 1.66155C0.300668 1.56079 0.244058 1.42413 0.244058 1.28163C0.244058 1.13913 0.300668 1.00247 0.401435 0.901711C0.502202 0.80095 0.638871 0.744343 0.781377 0.744343C0.923883 0.744343 1.06055 0.80095 1.16132 0.901711L3.99926 3.74038L6.8381 0.901264C6.93886 0.800503 7.07553 0.743896 7.21804 0.743896C7.36055 0.743896 7.49721 0.800503 7.59798 0.901264C7.69875 1.00202 7.75536 1.13869 7.75536 1.28118C7.75536 1.42368 7.69875 1.56034 7.59798 1.6611L4.75915 4.50022L7.59709 7.33888Z" fill="white"/>
</svg>
