<svg width="124" height="119" viewBox="0 0 124 119" fill="none" xmlns="http://www.w3.org/2000/svg">
<path d="M119.04 49.5796H48.42L115.32 31.9207C115.954 31.7539 116.548 31.4634 117.068 31.0659C117.588 30.6684 118.025 30.1718 118.352 29.6047C118.68 29.0377 118.891 28.4115 118.975 27.7621C119.06 27.1128 119.014 26.4533 118.842 25.8217L113.783 7.22689C113.087 4.72519 111.433 2.59843 109.179 1.30722C106.926 0.0160012 104.254 -0.335719 101.743 0.328232L7.32875 25.2452C6.07164 25.5715 4.89225 26.1452 3.85965 26.9328C2.82705 27.7203 1.96198 28.706 1.31509 29.8319C0.664581 30.9441 0.244302 32.1756 0.0792245 33.4533C-0.0858532 34.7311 0.00763733 36.0289 0.354142 37.2698L4.96668 54.2654C4.96668 54.3522 4.96668 54.4452 4.96668 54.5382V109.083C4.96668 111.713 6.01176 114.235 7.87202 116.095C9.73228 117.955 12.2553 119 14.8861 119H114.081C116.711 119 119.234 117.955 121.095 116.095C122.955 114.235 124 111.713 124 109.083V54.5382C124 53.2231 123.477 51.9618 122.547 51.0319C121.617 50.102 120.356 49.5796 119.04 49.5796ZM104.26 9.91073L107.98 23.5903L87.1555 29.1253L69.7159 19.0346L104.26 9.91073ZM33.2061 28.6728L50.6395 38.7388L13.6896 48.4887L9.9698 34.8029L33.2061 28.6728Z" fill="white"/>
</svg>
