<svg
	width="16"
	height="16"
	viewBox="0 0 16 16"
	fill="none"
	xmlns="http://www.w3.org/2000/svg"
>
<path
		d="M15.4286 7.42857H14.8329C14.766 6.6137 14.5526 5.81759 14.2029 5.07857L14.7193 4.78071C14.8506 4.70494 14.9464 4.58011 14.9856 4.4337C15.0249 4.28729 15.0043 4.13128 14.9286 4C14.8528 3.86872 14.728 3.77291 14.5816 3.73367C14.4351 3.69442 14.2791 3.71494 14.1479 3.79071L13.63 4.09C13.1626 3.41972 12.5803 2.83742 11.91 2.37L12.2093 1.85214C12.2851 1.72086 12.3056 1.56485 12.2663 1.41844C12.2271 1.27203 12.1313 1.1472 12 1.07143C11.8687 0.995652 11.7127 0.975132 11.5663 1.01438C11.4199 1.05363 11.2951 1.14943 11.2193 1.28071L10.9214 1.79714C10.1824 1.44738 9.3863 1.23396 8.57143 1.16714V0.571429C8.57143 0.419876 8.51123 0.274531 8.40406 0.167368C8.2969 0.0602039 8.15155 0 8 0C7.84845 0 7.7031 0.0602039 7.59594 0.167368C7.48878 0.274531 7.42857 0.419876 7.42857 0.571429V1.16714C6.6137 1.23396 5.81759 1.44738 5.07857 1.79714L4.78071 1.28071C4.70494 1.14943 4.58011 1.05363 4.4337 1.01438C4.28729 0.975132 4.13128 0.995652 4 1.07143C3.86872 1.1472 3.77291 1.27203 3.73367 1.41844C3.69442 1.56485 3.71494 1.72086 3.79071 1.85214L4.09 2.37C3.41972 2.83742 2.83742 3.41972 2.37 4.09L1.85214 3.79071C1.78714 3.75319 1.71538 3.72884 1.64097 3.71906C1.56655 3.70927 1.49094 3.71423 1.41844 3.73367C1.27203 3.77291 1.1472 3.86872 1.07143 4C0.995652 4.13128 0.975132 4.28729 1.01438 4.4337C1.05363 4.58011 1.14943 4.70494 1.28071 4.78071L1.79714 5.07857C1.44738 5.81759 1.23396 6.6137 1.16714 7.42857H0.571429C0.419876 7.42857 0.274531 7.48878 0.167368 7.59594C0.0602039 7.7031 0 7.84845 0 8C0 8.15155 0.0602039 8.2969 0.167368 8.40406C0.274531 8.51123 0.419876 8.57143 0.571429 8.57143H1.16714C1.23396 9.3863 1.44738 10.1824 1.79714 10.9214L1.28071 11.2193C1.17171 11.2822 1.08651 11.3792 1.03833 11.4955C0.990146 11.6117 0.98168 11.7406 1.01424 11.8622C1.04681 11.9837 1.11858 12.0911 1.21842 12.1677C1.31827 12.2443 1.4406 12.2858 1.56643 12.2857C1.66676 12.286 1.76537 12.2596 1.85214 12.2093L2.37 11.91C2.83742 12.5803 3.41972 13.1626 4.09 13.63L3.79071 14.1479C3.71494 14.2791 3.69442 14.4351 3.73367 14.5816C3.77291 14.728 3.86872 14.8528 4 14.9286C4.13128 15.0043 4.28729 15.0249 4.4337 14.9856C4.58011 14.9464 4.70494 14.8506 4.78071 14.7193L5.07857 14.2029C5.81759 14.5526 6.6137 14.766 7.42857 14.8329V15.4286C7.42857 15.5801 7.48878 15.7255 7.59594 15.8326C7.7031 15.9398 7.84845 16 8 16C8.15155 16 8.2969 15.9398 8.40406 15.8326C8.51123 15.7255 8.57143 15.5801 8.57143 15.4286V14.8329C9.3863 14.766 10.1824 14.5526 10.9214 14.2029L11.2193 14.7193C11.2951 14.8506 11.4199 14.9464 11.5663 14.9856C11.7127 15.0249 11.8687 15.0043 12 14.9286C12.1313 14.8528 12.2271 14.728 12.2663 14.5816C12.3056 14.4351 12.2851 14.2791 12.2093 14.1479L11.91 13.63C12.5803 13.1626 13.1626 12.5803 13.63 11.91L14.1479 12.2093C14.2129 12.2468 14.2846 12.2712 14.359 12.281C14.4335 12.2908 14.5091 12.2858 14.5816 12.2664C14.6541 12.2469 14.722 12.2134 14.7816 12.1677C14.8411 12.122 14.8911 12.065 14.9286 12C15.0044 11.8688 15.0251 11.7129 14.986 11.5664C14.9469 11.42 14.8512 11.2952 14.72 11.2193L14.2036 10.9214C14.5533 10.1824 14.7668 9.3863 14.8336 8.57143H15.4286C15.5801 8.57143 15.7255 8.51123 15.8326 8.40406C15.9398 8.2969 16 8.15155 16 8C16 7.84845 15.9398 7.7031 15.8326 7.59594C15.7255 7.48878 15.5801 7.42857 15.4286 7.42857ZM4 8C3.99971 7.39465 4.13703 6.79716 4.4016 6.25268C4.66616 5.70821 5.05104 5.23101 5.52714 4.85714L7.34 8L5.52714 11.1429C5.05104 10.769 4.66616 10.2918 4.4016 9.74732C4.13703 9.20284 3.99971 8.60535 4 8ZM8 12C7.49152 12.0005 6.98766 11.9035 6.51571 11.7143L8.33 8.57143H11.9586C11.8199 9.5228 11.3437 10.3926 10.617 11.022C9.89027 11.6515 8.96142 11.9986 8 12ZM8.33 7.42857L6.51571 4.28571C7.0776 4.06125 7.68308 3.96718 8.28658 4.01058C8.89007 4.05398 9.47586 4.23373 9.99984 4.53629C10.5238 4.83885 10.9723 5.25634 11.3116 5.75732C11.6509 6.2583 11.8721 6.82973 11.9586 7.42857H8.33Z"
		fill="currentColor"
	/>
</svg>
