<svg width="20" height="20" viewBox="0 0 20 20" fill="none" xmlns="http://www.w3.org/2000/svg">
<path d="M7.50001 7.50001V5.41668C7.50001 4.26608 6.56727 3.33334 5.41668 3.33334C4.26608 3.33334 3.33334 4.26608 3.33334 5.41668C3.33334 6.56727 4.26608 7.50001 5.41668 7.50001H7.50001ZM7.50001 7.50001H12.5M7.50001 7.50001V12.5M12.5 7.50001V5.41668C12.5 4.26608 13.4328 3.33334 14.5833 3.33334C15.7339 3.33334 16.6667 4.26608 16.6667 5.41668C16.6667 6.56727 15.7339 7.50001 14.5833 7.50001H12.5ZM12.5 7.50001V12.5M12.5 12.5H7.50001M12.5 12.5V14.5833C12.5 15.7339 13.4328 16.6667 14.5833 16.6667C15.7339 16.6667 16.6667 15.7339 16.6667 14.5833C16.6667 13.4328 15.7339 12.5 14.5833 12.5H12.5ZM7.50001 12.5V14.5833C7.50001 15.7339 6.56727 16.6667 5.41668 16.6667C4.26608 16.6667 3.33334 15.7339 3.33334 14.5833C3.33334 13.4328 4.26608 12.5 5.41668 12.5H7.50001Z" stroke="currentColor" stroke-width="1.66667" stroke-linecap="square"/>
</svg>
