<svg width="20" height="20" viewBox="0 0 20 20" fill="none" xmlns="http://www.w3.org/2000/svg">
<path d="M13.3333 16.6667L8.43444 11.7678C7.45813 10.7915 5.87522 10.7915 4.89891 11.7678L3.33334 13.3333M5.83334 16.6667H14.1667C15.5474 16.6667 16.6667 15.5474 16.6667 14.1667V5.83334C16.6667 4.45263 15.5474 3.33334 14.1667 3.33334H5.83334C4.45263 3.33334 3.33334 4.45263 3.33334 5.83334V14.1667C3.33334 15.5474 4.45263 16.6667 5.83334 16.6667ZM13.75 7.91668C13.75 8.83715 13.0038 9.58334 12.0833 9.58334C11.1629 9.58334 10.4167 8.83715 10.4167 7.91668C10.4167 6.9962 11.1629 6.25001 12.0833 6.25001C13.0038 6.25001 13.75 6.9962 13.75 7.91668Z" stroke="currentColor" stroke-width="1.66667"/>
</svg>
