<svg width="20" height="20" viewBox="0 0 20 20" fill="none" xmlns="http://www.w3.org/2000/svg">
<path d="M16.6667 12.6667V7.33334C16.6667 5.93321 16.6667 5.23315 16.3942 4.69837C16.1545 4.22796 15.772 3.84551 15.3016 3.60583C14.7669 3.33334 14.0668 3.33334 12.6667 3.33334H7.33333C5.9332 3.33334 5.23313 3.33334 4.69835 3.60583C4.22795 3.84551 3.8455 4.22796 3.60581 4.69837C3.33333 5.23315 3.33333 5.93321 3.33333 7.33334V12.6667C3.33333 14.0668 3.33333 14.7669 3.60581 15.3017C3.8455 15.7721 4.22795 16.1545 4.69835 16.3942C5.23313 16.6667 5.9332 16.6667 7.33333 16.6667H12.6667C14.0668 16.6667 14.7669 16.6667 15.3016 16.3942C15.772 16.1545 16.1545 15.7721 16.3942 15.3017C16.6667 14.7669 16.6667 14.0668 16.6667 12.6667Z" stroke="currentColor" stroke-width="1.66667" stroke-linecap="round" stroke-linejoin="round"/>
</svg>
