<svg width="20" height="20" viewBox="0 0 20 20" fill="none" xmlns="http://www.w3.org/2000/svg">
<path d="M4.24334 16.485L4.62167 15.7425H4.62167L4.24334 16.485ZM3.51498 15.7567L4.25749 15.3783H4.25749L3.51498 15.7567ZM16.485 15.7567L15.7425 15.3783L15.7425 15.3783L16.485 15.7567ZM15.7566 16.485L15.3783 15.7425L15.3783 15.7425L15.7566 16.485ZM16.485 4.24336L15.7425 4.62168V4.62168L16.485 4.24336ZM15.7566 3.515L15.3783 4.2575L15.3783 4.2575L15.7566 3.515ZM3.51498 4.24336L2.77248 3.86503V3.86503L3.51498 4.24336ZM4.24334 3.515L3.86502 2.77249L4.24334 3.515ZM10.8333 3.33334V2.50001H9.16666V3.33334H10.8333ZM3.33333 7.50001H2.49999V9.16668H3.33333V7.50001ZM9.16666 16.6667V17.5H10.8333V16.6667H9.16666ZM16.6667 12.5H17.5V10.8333H16.6667V12.5ZM15.8333 6.00001V14H17.5V6.00001H15.8333ZM14 15.8333H5.99999V17.5H14V15.8333ZM4.16666 14V6.00001H2.49999V14H4.16666ZM5.99999 4.16668H14V2.50001H5.99999V4.16668ZM5.99999 15.8333C5.51953 15.8333 5.20931 15.8327 4.97319 15.8134C4.74681 15.7949 4.66287 15.7635 4.62167 15.7425L3.86502 17.2275C4.18033 17.3882 4.50802 17.4476 4.83747 17.4745C5.1572 17.5007 5.54704 17.5 5.99999 17.5V15.8333ZM2.49999 14C2.49999 14.453 2.49935 14.8428 2.52547 15.1625C2.55239 15.492 2.61182 15.8197 2.77248 16.135L4.25749 15.3783C4.2365 15.3371 4.2051 15.2532 4.1866 15.0268C4.16731 14.7907 4.16666 14.4805 4.16666 14H2.49999ZM4.62167 15.7425C4.46487 15.6626 4.33738 15.5351 4.25749 15.3783L2.77248 16.135C3.01216 16.6054 3.39461 16.9878 3.86502 17.2275L4.62167 15.7425ZM15.8333 14C15.8333 14.4805 15.8327 14.7907 15.8134 15.0268C15.7949 15.2532 15.7635 15.3371 15.7425 15.3783L17.2275 16.135C17.3882 15.8197 17.4476 15.492 17.4745 15.1625C17.5006 14.8428 17.5 14.453 17.5 14H15.8333ZM14 17.5C14.453 17.5 14.8428 17.5007 15.1625 17.4745C15.492 17.4476 15.8197 17.3882 16.135 17.2275L15.3783 15.7425C15.3371 15.7635 15.2532 15.7949 15.0268 15.8134C14.7907 15.8327 14.4805 15.8333 14 15.8333V17.5ZM15.7425 15.3783C15.6626 15.5351 15.5351 15.6626 15.3783 15.7425L16.135 17.2275C16.6054 16.9878 16.9878 16.6054 17.2275 16.135L15.7425 15.3783ZM17.5 6.00001C17.5 5.54705 17.5006 5.15721 17.4745 4.83749C17.4476 4.50803 17.3882 4.18035 17.2275 3.86503L15.7425 4.62168C15.7635 4.66289 15.7949 4.74682 15.8134 4.97321C15.8327 5.20932 15.8333 5.51955 15.8333 6.00001H17.5ZM14 4.16668C14.4805 4.16668 14.7907 4.16732 15.0268 4.18662C15.2532 4.20511 15.3371 4.23651 15.3783 4.2575L16.135 2.77249C15.8197 2.61183 15.492 2.5524 15.1625 2.52548C14.8428 2.49936 14.453 2.50001 14 2.50001V4.16668ZM17.2275 3.86503C16.9878 3.39463 16.6054 3.01218 16.135 2.77249L15.3783 4.2575C15.5351 4.3374 15.6626 4.46488 15.7425 4.62168L17.2275 3.86503ZM4.16666 6.00001C4.16666 5.51955 4.16731 5.20932 4.1866 4.97321C4.2051 4.74682 4.2365 4.66289 4.25749 4.62168L2.77248 3.86503C2.61182 4.18035 2.55239 4.50803 2.52547 4.83749C2.49935 5.15721 2.49999 5.54705 2.49999 6.00001H4.16666ZM5.99999 2.50001C5.54704 2.50001 5.1572 2.49936 4.83747 2.52548C4.50802 2.5524 4.18033 2.61183 3.86502 2.77249L4.62167 4.2575C4.66287 4.23651 4.74681 4.20511 4.97319 4.18662C5.20931 4.16732 5.51953 4.16668 5.99999 4.16668V2.50001ZM4.25749 4.62168C4.33738 4.46488 4.46487 4.3374 4.62167 4.2575L3.86502 2.77249C3.39461 3.01218 3.01216 3.39463 2.77248 3.86503L4.25749 4.62168ZM9.16666 3.33334V8.33334H10.8333V3.33334H9.16666ZM9.99999 7.50001H3.33333V9.16668H9.99999V7.50001ZM9.16666 8.33334V11.6667H10.8333V8.33334H9.16666ZM9.16666 11.6667V16.6667H10.8333V11.6667H9.16666ZM9.99999 12.5H16.6667V10.8333H9.99999V12.5Z" fill="currentColor"/>
</svg>
