<svg width="64" height="64" viewBox="0 0 64 64" fill="none" xmlns="http://www.w3.org/2000/svg">
<g id="Wrapper">
<path id="Vector" d="M32 64C49.6731 64 64 49.6731 64 32C64 14.3269 49.6731 0 32 0C14.3269 0 0 14.3269 0 32C0 49.6731 14.3269 64 32 64Z" fill="#4785FF"/>
<path id="Vector_2" d="M32.0001 58C46.3595 58 58 46.3595 58 32.0001C58 17.6405 46.3595 6 32.0001 6C17.6405 6 6 17.6408 6 32.0001C6 46.3595 17.6408 58 32.0001 58Z" fill="#ADC9FF"/>
<path id="Vector_3" d="M31.9999 52C43.0455 52 52 43.0455 52 31.9998C52 20.9542 43.0455 12 31.9999 12C20.9542 12 12 20.9542 12 31.9998C12 43.0455 20.9542 52 31.9999 52Z" fill="white"/>
</g>
</svg>
