<svg xmlns="http://www.w3.org/2000/svg" width="135" height="40" viewBox="0 0 135 40" fill="none">
<path d="M32 0.25H8C3.71979 0.25 0.25 3.71979 0.25 8V32C0.25 36.2802 3.71979 39.75 8 39.75H32C36.2802 39.75 39.75 36.2802 39.75 32V8C39.75 3.71979 36.2802 0.25 32 0.25Z" fill="white"/>
<path d="M32 0.25H8C3.71979 0.25 0.25 3.71979 0.25 8V32C0.25 36.2802 3.71979 39.75 8 39.75H32C36.2802 39.75 39.75 36.2802 39.75 32V8C39.75 3.71979 36.2802 0.25 32 0.25Z" stroke="#E7EAF0" stroke-width="0.5"/>
<path d="M20 36C28.8365 36 36 28.8365 36 20C36 11.1635 28.8365 4 20 4C11.1635 4 4 11.1635 4 20C4 28.8365 11.1635 36 20 36Z" fill="#12161F"/>
<path d="M20.0001 33C27.1797 33 33 27.1797 33 20.0001C33 12.8203 27.1797 7 20.0001 7C12.8203 7 7 12.8204 7 20.0001C7 27.1797 12.8204 33 20.0001 33Z" fill="#C9CEDB"/>
<path d="M20.0001 30.0002C25.5229 30.0002 30.0002 25.5229 30.0002 20.0001C30.0002 14.4773 25.5229 10.0002 20.0001 10.0002C14.4773 10.0002 10.0002 14.4773 10.0002 20.0001C10.0002 25.5229 14.4773 30.0002 20.0001 30.0002Z" fill="white"/>
<path d="M56.016 12.219C56.3447 11.9385 56.8521 12.1713 56.8509 12.6028L56.8479 23.8681C56.8476 24.3993 56.1311 24.5702 55.8899 24.0966L53.7669 19.9227C53.6603 19.7132 53.4232 19.604 53.1946 19.6601L48.6282 20.7812C48.1103 20.9079 47.7736 20.2522 48.179 19.9062L56.016 12.219ZM57.7484 12.6019C57.747 12.1701 58.2529 11.9355 58.5823 12.2148L66.437 18.8818C66.8434 19.2267 66.5081 19.8833 65.9897 19.7577L61.4202 18.6493C61.1915 18.5939 60.9549 18.7034 60.8489 18.913L58.7366 23.0927C58.4968 23.5669 57.7805 23.3982 57.7786 22.8672L57.7484 12.6019Z" fill="white"/>
<path d="M73.7964 24.6484H71.7983V12.2578H73.7964V24.6484ZM80.3931 15.5918C81.0241 15.5919 81.581 15.7239 82.063 15.9873C82.545 16.2508 82.9242 16.6234 83.1997 17.1045C83.4751 17.5856 83.6128 18.1415 83.6128 18.7715V24.6484H81.7358V19.1836C81.7358 18.6109 81.5696 18.1523 81.2368 17.8086C80.904 17.4535 80.4554 17.2765 79.8931 17.2764C79.3881 17.2764 78.9517 17.4137 78.5845 17.6885C78.2172 17.9634 77.9298 18.3586 77.7231 18.874C77.528 19.3896 77.4302 20.0087 77.4302 20.7305V24.6484H75.5532V15.7295H77.4302V17.2412C77.7516 16.7259 78.1655 16.3254 78.6704 16.0391C79.187 15.7413 79.7617 15.5918 80.3931 15.5918ZM88.7671 12C89.1916 12.0001 89.5711 12.04 89.9038 12.1201V13.7529C89.617 13.6728 89.3007 13.6329 88.9565 13.6328C88.6009 13.6328 88.302 13.753 88.061 13.9932C87.8314 14.2223 87.7163 14.5549 87.7163 14.9902V15.7295H89.9038V17.3105H87.7163V24.6484H85.856V17.3105H84.272V15.7295H85.856V14.8359C85.856 13.9194 86.1208 13.2205 86.6489 12.7393C87.1885 12.2468 87.8947 12 88.7671 12ZM92.5337 24.6484H90.6567V12.1201H92.5337V24.6484ZM96.1079 24.6484H94.231V15.7295H96.1079V24.6484ZM99.5806 17.2412C99.9019 16.7261 100.315 16.3254 100.82 16.0391C101.336 15.7413 101.911 15.5918 102.543 15.5918C103.174 15.5919 103.731 15.7239 104.213 15.9873C104.707 16.2508 105.085 16.6235 105.349 17.1045C105.625 17.5856 105.763 18.1415 105.763 18.7715V24.6484H103.903V19.1836C103.903 18.6224 103.73 18.1637 103.386 17.8086C103.054 17.4537 102.606 17.2766 102.044 17.2764C101.538 17.2764 101.101 17.4137 100.734 17.6885C100.367 17.9634 100.079 18.3647 99.8726 18.8916C99.6774 19.4071 99.5806 20.0202 99.5806 20.7305V24.6484H97.7026V12.1201H99.5806V17.2412ZM108.945 15.7295H111.115V17.3105H108.945V21.7959C108.945 22.2313 109.06 22.569 109.29 22.8096C109.519 23.0386 109.829 23.1533 110.22 23.1533C110.495 23.1533 110.794 23.1072 111.115 23.0156V24.6484C110.759 24.7401 110.397 24.7861 110.03 24.7861C109.112 24.7861 108.388 24.5455 107.86 24.0645C107.332 23.5833 107.068 22.8782 107.068 21.9502V17.3105H105.483V15.7295H107.068V13.0654H108.945V15.7295ZM121.473 15.5918C122.036 15.5919 122.559 15.7065 123.041 15.9355C123.523 16.1532 123.896 16.446 124.16 16.8125V15.7295H126.038V24.0986C126.038 24.9005 125.865 25.5944 125.521 26.1787C125.177 26.7742 124.688 27.2268 124.057 27.5361C123.426 27.8454 122.673 28 121.8 28C120.985 28 120.274 27.8791 119.665 27.6387C119.057 27.4096 118.569 27.0603 118.202 26.5908C117.846 26.1212 117.622 25.554 117.53 24.8896H119.424C119.493 25.3821 119.729 25.7661 120.13 26.041C120.544 26.3271 121.1 26.4707 121.8 26.4707C122.546 26.4706 123.126 26.2752 123.54 25.8857C123.953 25.5077 124.16 24.9692 124.16 24.2705V23.1016C123.942 23.4337 123.592 23.704 123.11 23.9102C122.639 24.1163 122.11 24.2187 121.525 24.2188C120.664 24.2187 119.918 24.0414 119.287 23.6865C118.655 23.32 118.167 22.81 117.823 22.1572C117.49 21.5042 117.323 20.7591 117.323 19.9229C117.323 19.0636 117.49 18.3125 117.823 17.6709C118.167 17.0182 118.649 16.5081 119.269 16.1416C119.9 15.7752 120.635 15.5918 121.473 15.5918ZM121.766 17.2246C121.261 17.2246 120.819 17.3332 120.44 17.5508C120.061 17.7684 119.769 18.0838 119.562 18.4961C119.355 18.9085 119.252 19.3844 119.252 19.9229C119.252 20.7362 119.476 21.3892 119.923 21.8818C120.382 22.3629 120.997 22.6035 121.766 22.6035C122.271 22.6034 122.713 22.4949 123.092 22.2773C123.471 22.0483 123.764 21.7328 123.97 21.332C124.177 20.9197 124.281 20.4497 124.281 19.9229C124.281 19.1095 124.05 18.4565 123.591 17.9639C123.144 17.4713 122.535 17.2247 121.766 17.2246ZM96.229 14.2344H94.145V12.1201H96.229V14.2344Z" fill="white"/>
</svg>
