<svg xmlns="http://www.w3.org/2000/svg" width="56" height="56" viewBox="0 0 56 56" fill="none">
<rect x="0.5" y="0.5" width="55" height="55" rx="11.5" fill="white"/>
<rect x="0.5" y="0.5" width="55" height="55" rx="11.5" stroke="#E7EAF0"/>
<path d="M24.1199 10.9131C25.1074 10.0685 26.6308 10.7699 26.6306 12.0693L26.6218 42.9854C26.6212 44.5857 24.4685 45.1005 23.7439 43.6738L17.364 31.1035C17.0438 30.4725 16.3314 30.1456 15.6443 30.3145L1.92163 33.6885C0.36448 34.0714 -0.649561 32.0969 0.569092 31.0547L24.1199 10.9131ZM29.3279 12.0625C29.324 10.763 30.8458 10.0564 31.8357 10.8984L55.4402 30.9775C56.6616 32.0165 55.6535 33.9937 54.0955 33.6152L40.364 30.2773C39.6764 30.1102 38.9638 30.4394 38.6453 31.0713L32.2996 43.6582C31.579 45.0875 29.4234 44.5782 29.4187 42.9775L29.3279 12.0625Z" fill="#4785FF"/>
</svg>
