<svg width="83" height="30" viewBox="0 0 83 30" fill="none" xmlns="http://www.w3.org/2000/svg">
<g clip-path="url(#clip0_604_2077)">
<path d="M14.4767 29C22.1979 29 28.4573 22.7319 28.4573 15C28.4573 7.26806 22.1979 1 14.4767 1C6.75546 1 0.496094 7.26806 0.496094 15C0.496094 22.7319 6.75546 29 14.4767 29Z" fill="#4785FF"/>
<path d="M14.4765 26.375C20.7499 26.375 25.8356 21.2822 25.8356 15.0001C25.8356 8.71776 20.7499 3.625 14.4765 3.625C8.20289 3.625 3.11719 8.71785 3.11719 15.0001C3.11719 21.2822 8.20297 26.375 14.4765 26.375Z" fill="#ADC9FF"/>
<path d="M14.4761 23.7501C19.3018 23.7501 23.214 19.8325 23.214 15C23.214 10.1676 19.3018 6.25012 14.4761 6.25012C9.65031 6.25012 5.73828 10.1676 5.73828 15C5.73828 19.8325 9.65031 23.7501 14.4761 23.7501Z" fill="white"/>
<path d="M44.9067 23.4209C40.1848 23.4209 36.8574 20.0399 36.8574 14.3559C36.8574 8.76994 40.0625 5.24194 44.9557 5.24194C49.384 5.24194 51.7572 7.56944 52.4912 11.5139L49.1638 11.6854C48.7479 9.40694 47.3533 8.01044 44.9557 8.01044C41.9953 8.01044 40.1603 10.4849 40.1603 14.3559C40.1603 18.2759 42.0442 20.6524 44.9312 20.6524C47.5001 20.6524 48.8702 19.1579 49.2617 16.6589L52.5891 16.8304C51.904 20.9219 49.3106 23.4209 44.9067 23.4209ZM59.0875 23.3229C56.3473 23.3229 54.5368 22.0244 54.5368 19.7459C54.5368 17.4919 55.9314 16.2914 58.7939 15.7279L63.1244 14.8704C63.1244 13.0329 62.2681 12.0774 60.6289 12.0774C59.0875 12.0774 58.2557 12.7879 57.9621 14.1109L54.757 13.9639C55.2708 11.2199 57.3749 9.65194 60.6289 9.65194C64.3477 9.65194 66.2561 11.6119 66.2561 15.0909V19.8439C66.2561 20.5544 66.5007 20.7504 66.99 20.7504H67.406V23.0289C67.2102 23.0779 66.6964 23.1269 66.2805 23.1269C64.8615 23.1269 63.8095 22.6124 63.5403 20.9954C62.9042 22.3919 61.2405 23.3229 59.0875 23.3229ZM59.7236 21.0444C61.8032 21.0444 63.1244 19.7214 63.1244 17.7369V17.0019L59.7481 17.6879C58.3535 17.9574 57.7908 18.5454 57.7908 19.4519C57.7908 20.4809 58.4759 21.0444 59.7236 21.0444ZM69.773 26.7039V9.94594H72.7824L72.8313 11.8814C73.5897 10.4359 75.0332 9.65194 76.7459 9.65194C80.4647 9.65194 82.2996 12.7144 82.2996 16.4874C82.2996 20.2604 80.4402 23.3229 76.7214 23.3229C75.0577 23.3229 73.6142 22.5144 72.9047 21.2404V26.7039H69.773ZM75.9874 20.7749C77.8958 20.7749 79.0457 19.1824 79.0457 16.4874C79.0457 13.7924 77.8958 12.1999 75.9874 12.1999C74.0791 12.1999 72.9047 13.6454 72.9047 16.4874C72.9047 19.3294 74.0546 20.7749 75.9874 20.7749Z" fill="black"/>
</g>
<defs>
<clipPath id="clip0_604_2077">
<rect width="83" height="29" fill="white" transform="translate(0 0.5)"/>
</clipPath>
</defs>
</svg>
