<svg width="20" height="20" viewBox="0 0 20 20" fill="none" xmlns="http://www.w3.org/2000/svg">
<path d="M5.00183 3.33334H15.0018C16.3825 3.33334 17.5018 4.45263 17.5018 5.83334V12.5C17.5018 13.8807 16.3825 15 15.0018 15H10.0018L5.83516 17.5V15H5.00183C3.62112 15 2.50183 13.8807 2.50183 12.5V5.83334C2.50183 4.45263 3.62112 3.33334 5.00183 3.33334Z" stroke="currentColor" stroke-width="1.66667" stroke-linecap="square" stroke-linejoin="round"/>
<path d="M5.52084 9.16667C5.52084 9.56937 5.84729 9.89583 6.25 9.89583C6.65271 9.89583 6.97917 9.56937 6.97917 9.16667C6.97917 8.76396 6.65271 8.4375 6.25 8.4375C5.84729 8.4375 5.52084 8.76396 5.52084 9.16667ZM9.27084 9.16667C9.27084 9.56937 9.59729 9.89583 10 9.89583C10.4027 9.89583 10.7292 9.56937 10.7292 9.16667C10.7292 8.76396 10.4027 8.4375 10 8.4375C9.59729 8.4375 9.27084 8.76396 9.27084 9.16667ZM13.0208 9.16667C13.0208 9.56937 13.3473 9.89583 13.75 9.89583C14.1527 9.89583 14.4792 9.56937 14.4792 9.16667C14.4792 8.76396 14.1527 8.4375 13.75 8.4375C13.3473 8.4375 13.0208 8.76396 13.0208 9.16667Z" fill="currentColor" stroke="currentColor" stroke-width="0.625" stroke-linecap="square"/>
</svg>
