<svg width="20" height="20" viewBox="0 0 20 20" fill="none" xmlns="http://www.w3.org/2000/svg">
<path d="M10 10.8333C10.4602 10.8333 10.8333 10.4602 10.8333 10C10.8333 9.53977 10.4602 9.16667 10 9.16667C9.53976 9.16667 9.16667 9.53977 9.16667 10C9.16667 10.4602 9.53976 10.8333 10 10.8333Z" stroke="currentColor" stroke-width="1.66667" stroke-linecap="round" stroke-linejoin="round"/>
<path d="M16.6667 10.8333C17.1269 10.8333 17.5 10.4602 17.5 10C17.5 9.53977 17.1269 9.16667 16.6667 9.16667C16.2064 9.16667 15.8333 9.53977 15.8333 10C15.8333 10.4602 16.2064 10.8333 16.6667 10.8333Z" stroke="currentColor" stroke-width="1.66667" stroke-linecap="round" stroke-linejoin="round"/>
<path d="M3.33333 10.8333C3.79357 10.8333 4.16667 10.4602 4.16667 10C4.16667 9.53977 3.79357 9.16667 3.33333 9.16667C2.8731 9.16667 2.5 9.53977 2.5 10C2.5 10.4602 2.8731 10.8333 3.33333 10.8333Z" stroke="currentColor" stroke-width="1.66667" stroke-linecap="round" stroke-linejoin="round"/>
</svg>
