<svg width="20" height="20" viewBox="0 0 20 20" fill="none" xmlns="http://www.w3.org/2000/svg">
<path d="M9.99999 4.16667C10.4602 4.16667 10.8333 3.79357 10.8333 3.33333C10.8333 2.8731 10.4602 2.5 9.99999 2.5C9.53975 2.5 9.16666 2.8731 9.16666 3.33333C9.16666 3.79357 9.53975 4.16667 9.99999 4.16667Z" stroke="currentColor" stroke-width="1.66667" stroke-linecap="round" stroke-linejoin="round"/>
<path d="M9.99999 10.8333C10.4602 10.8333 10.8333 10.4602 10.8333 10C10.8333 9.53976 10.4602 9.16667 9.99999 9.16667C9.53975 9.16667 9.16666 9.53976 9.16666 10C9.16666 10.4602 9.53975 10.8333 9.99999 10.8333Z" stroke="currentColor" stroke-width="1.66667" stroke-linecap="round" stroke-linejoin="round"/>
<path d="M9.99999 17.5C10.4602 17.5 10.8333 17.1269 10.8333 16.6667C10.8333 16.2064 10.4602 15.8333 9.99999 15.8333C9.53975 15.8333 9.16666 16.2064 9.16666 16.6667C9.16666 17.1269 9.53975 17.5 9.99999 17.5Z" stroke="currentColor" stroke-width="1.66667" stroke-linecap="round" stroke-linejoin="round"/>
</svg>
