<svg width="12" height="15" viewBox="0 0 12 15" fill="currentColor" xmlns="http://www.w3.org/2000/svg">
<path d="M12 0.900003V14.1C12 14.2591 11.9368 14.4117 11.8243 14.5243C11.7117 14.6368 11.5591 14.7 11.4 14.7C11.2409 14.7 11.0883 14.6368 10.9757 14.5243C10.8632 14.4117 10.8 14.2591 10.8 14.1V8.90775L1.83225 14.5163C1.65165 14.6296 1.44403 14.6927 1.23088 14.6988C1.01774 14.705 0.806815 14.6541 0.619954 14.5514C0.433093 14.4487 0.277086 14.2979 0.168086 14.1146C0.0590853 13.9313 0.00105403 13.7222 0 13.509V1.491C0.00105403 1.27777 0.0590853 1.06869 0.168086 0.885424C0.277086 0.702153 0.433093 0.551349 0.619954 0.448625C0.806815 0.345901 1.01774 0.294992 1.23088 0.301168C1.44403 0.307344 1.65165 0.370382 1.83225 0.483753L10.8 6.09225V0.900003C10.8 0.740873 10.8632 0.588261 10.9757 0.475739C11.0883 0.363217 11.2409 0.300003 11.4 0.300003C11.5591 0.300003 11.7117 0.363217 11.8243 0.475739C11.9368 0.588261 12 0.740873 12 0.900003Z" fill="currentColor"/>
</svg>
