<svg width="20" height="20" viewBox="0 0 20 20" fill="none" xmlns="http://www.w3.org/2000/svg">
<path fill-rule="evenodd" clip-rule="evenodd" d="M10 3.33334C6.31811 3.33334 3.33334 6.31811 3.33334 10C3.33334 13.6819 6.31811 16.6667 10 16.6667C13.6819 16.6667 16.6667 13.6819 16.6667 10C16.6667 6.31811 13.6819 3.33334 10 3.33334ZM1.66667 10C1.66667 5.39763 5.39763 1.66667 10 1.66667C14.6024 1.66667 18.3333 5.39763 18.3333 10C18.3333 14.6024 14.6024 18.3333 10 18.3333C5.39763 18.3333 1.66667 14.6024 1.66667 10Z" fill="currentColor"/>
<path d="M8 8.50001C8 8.08579 8.33579 7.75001 8.75 7.75001C9.16422 7.75001 9.5 8.08579 9.5 8.50001V11.5C9.5 11.9142 9.16422 12.25 8.75 12.25C8.33579 12.25 8 11.9142 8 11.5V8.50001Z" fill="currentColor"/>
<path d="M10.5 8.50001C10.5 8.08579 10.8358 7.75001 11.25 7.75001C11.6642 7.75001 12 8.08579 12 8.50001V11.5C12 11.9142 11.6642 12.25 11.25 12.25C10.8358 12.25 10.5 11.9142 10.5 11.5V8.50001Z" fill="currentColor"/>
</svg>
