<svg width="17" height="19" viewBox="0 0 17 19" fill="currentColor" xmlns="http://www.w3.org/2000/svg">
<path d="M16.6587 2.14536V17.1454C16.6587 17.5432 16.5007 17.9247 16.2194 18.206C15.938 18.4873 15.5565 18.6454 15.1587 18.6454H11.4087C11.0109 18.6454 10.6293 18.4873 10.348 18.206C10.0667 17.9247 9.90869 17.5432 9.90869 17.1454V2.14536C9.90869 1.74753 10.0667 1.366 10.348 1.08469C10.6293 0.80339 11.0109 0.645355 11.4087 0.645355H15.1587C15.5565 0.645355 15.938 0.80339 16.2194 1.08469C16.5007 1.366 16.6587 1.74753 16.6587 2.14536ZM5.40869 0.645355H1.65869C1.26087 0.645355 0.879336 0.80339 0.598031 1.08469C0.316727 1.366 0.158691 1.74753 0.158691 2.14536V17.1454C0.158691 17.5432 0.316727 17.9247 0.598031 18.206C0.879336 18.4873 1.26087 18.6454 1.65869 18.6454H5.40869C5.80652 18.6454 6.18805 18.4873 6.46935 18.206C6.75066 17.9247 6.90869 17.5432 6.90869 17.1454V2.14536C6.90869 1.74753 6.75066 1.366 6.46935 1.08469C6.18805 0.80339 5.80652 0.645355 5.40869 0.645355Z" fill="currentColor"/>
</svg>
