<svg width="10" height="11" viewBox="0 0 10 11" fill="currentColor" xmlns="http://www.w3.org/2000/svg">
<path d="M10 5.5C10.0004 5.63058 9.9608 5.75903 9.88513 5.87284C9.80946 5.98665 9.70027 6.08196 9.56818 6.14949L1.38182 10.3868C1.2438 10.4583 1.08572 10.4973 0.923908 10.4999C0.762096 10.5024 0.602417 10.4683 0.461364 10.4012C0.321653 10.3351 0.205271 10.2387 0.124184 10.122C0.0430974 10.0052 0.000233442 9.87225 0 9.73682V1.26318C0.000233442 1.12775 0.0430974 0.994814 0.124184 0.878045C0.205271 0.761275 0.321653 0.664887 0.461364 0.598793C0.602417 0.531656 0.762096 0.497596 0.923908 0.500132C1.08572 0.502667 1.2438 0.541706 1.38182 0.613215L9.56818 4.85051C9.70027 4.91804 9.80946 5.01335 9.88513 5.12716C9.9608 5.24097 10.0004 5.36942 10 5.5Z" fill="currentColor"/>
</svg>
