<svg width="20" height="20" viewBox="0 0 20 20" fill="none" xmlns="http://www.w3.org/2000/svg">
<path d="M8.33332 12.3366V7.6634C8.33332 7.32864 8.70813 7.13055 8.98471 7.31913L12.4117 9.65574C12.6543 9.82115 12.6543 10.1789 12.4117 10.3443L8.98471 12.6809C8.70813 12.8695 8.33332 12.6714 8.33332 12.3366Z" fill="currentColor"/>
<path fill-rule="evenodd" clip-rule="evenodd" d="M9.99999 3.33334C6.31809 3.33334 3.33332 6.31811 3.33332 10C3.33332 13.6819 6.31809 16.6667 9.99999 16.6667C13.6819 16.6667 16.6667 13.6819 16.6667 10C16.6667 6.31811 13.6819 3.33334 9.99999 3.33334ZM1.66666 10C1.66666 5.39763 5.39762 1.66667 9.99999 1.66667C14.6024 1.66667 18.3333 5.39763 18.3333 10C18.3333 14.6024 14.6024 18.3333 9.99999 18.3333C5.39762 18.3333 1.66666 14.6024 1.66666 10Z" fill="currentColor"/>
</svg>
