<svg width="20" height="20" viewBox="0 0 20 20" fill="none" xmlns="http://www.w3.org/2000/svg">
<path fill-rule="evenodd" clip-rule="evenodd" d="M13.7857 2.95241C14.6865 2.05167 16.1468 2.05167 17.0476 2.95241C17.9483 3.85314 17.9483 5.31352 17.0476 6.21425L6.21425 17.0476C5.31352 17.9483 3.85314 17.9483 2.95241 17.0476C2.05167 16.1468 2.05167 14.6865 2.95241 13.7857L13.7857 2.95241ZM15.8691 4.13092C15.6192 3.88106 15.2141 3.88106 14.9642 4.13092L13.4702 5.62499L14.375 6.52982L15.8691 5.03574C16.1189 4.78588 16.1189 4.38078 15.8691 4.13092ZM13.1965 7.70833L12.2917 6.80351L4.13092 14.9643C3.88106 15.2141 3.88106 15.6192 4.13092 15.8691C4.38078 16.1189 4.78588 16.1189 5.03574 15.8691L13.1965 7.70833Z" fill="currentColor"/>
<path d="M8.2084 1.72878C8.28903 1.68846 8.35442 1.62308 8.39474 1.54244L8.79328 0.745358C8.94683 0.438254 9.38508 0.438254 9.53863 0.745358L9.93718 1.54244C9.97749 1.62308 10.0429 1.68846 10.1235 1.72878L10.9206 2.12732C11.2277 2.28088 11.2277 2.71913 10.9206 2.87268L10.1235 3.27122C10.0429 3.31154 9.97749 3.37692 9.93718 3.45756L9.53863 4.25465C9.38508 4.56175 8.94683 4.56175 8.79328 4.25465L8.39474 3.45756C8.35442 3.37692 8.28903 3.31154 8.2084 3.27122L7.41131 2.87268C7.10421 2.71913 7.10421 2.28088 7.41131 2.12732L8.2084 1.72878Z" fill="currentColor"/>
<path d="M15.7084 10.8954C15.789 10.8551 15.8544 10.7897 15.8947 10.7091L16.2933 9.91202C16.4468 9.60492 16.8851 9.60492 17.0386 9.91202L17.4372 10.7091C17.4775 10.7897 17.5429 10.8551 17.6235 10.8954L18.4206 11.294C18.7277 11.4475 18.7277 11.8858 18.4206 12.0393L17.6235 12.4379C17.5429 12.4782 17.4775 12.5436 17.4372 12.6242L17.0386 13.4213C16.8851 13.7284 16.4468 13.7284 16.2933 13.4213L15.8947 12.6242C15.8544 12.5436 15.789 12.4782 15.7084 12.4379L14.9113 12.0393C14.6042 11.8858 14.6042 11.4475 14.9113 11.294L15.7084 10.8954Z" fill="currentColor"/>
<path d="M4.04173 5.89545C4.12237 5.85513 4.18775 5.78975 4.22807 5.70911L4.62661 4.91202C4.78016 4.60492 5.21842 4.60492 5.37197 4.91202L5.77051 5.70911C5.81083 5.78975 5.87621 5.85513 5.95685 5.89545L6.75393 6.29399C7.06104 6.44754 7.06104 6.88579 6.75393 7.03935L5.95685 7.43789C5.87621 7.47821 5.81083 7.54359 5.77051 7.62423L5.37197 8.42131C5.21842 8.72842 4.78016 8.72842 4.62661 8.42131L4.22807 7.62423C4.18775 7.54359 4.12237 7.47821 4.04173 7.43789L3.24465 7.03935C2.93754 6.88579 2.93754 6.44754 3.24465 6.29399L4.04173 5.89545Z" fill="currentColor"/>
</svg>
