<svg width="12" height="15" viewBox="0 0 12 15" fill="currentColor" xmlns="http://www.w3.org/2000/svg">
<path d="M12 1.491V13.509C11.9978 13.7218 11.939 13.9301 11.8297 14.1127C11.7205 14.2952 11.5646 14.4454 11.3782 14.5479C11.1917 14.6504 10.9814 14.7015 10.7687 14.696C10.556 14.6904 10.3486 14.6284 10.1678 14.5163L1.2 8.90775V14.1C1.2 14.2591 1.13679 14.4117 1.02426 14.5243C0.911742 14.6368 0.75913 14.7 0.6 14.7C0.44087 14.7 0.288258 14.6368 0.175736 14.5243C0.0632142 14.4117 0 14.2591 0 14.1V0.900003C0 0.740873 0.0632142 0.588261 0.175736 0.475739C0.288258 0.363217 0.44087 0.300003 0.6 0.300003C0.75913 0.300003 0.911742 0.363217 1.02426 0.475739C1.13679 0.588261 1.2 0.740873 1.2 0.900003V6.09225L10.1678 0.483753C10.3484 0.370382 10.556 0.307344 10.7691 0.301168C10.9823 0.294992 11.1932 0.345901 11.38 0.448625C11.5669 0.551349 11.7229 0.702153 11.8319 0.885424C11.9409 1.06869 11.9989 1.27777 12 1.491Z" fill="currentColor"/>
</svg>
