<svg width="20" height="20" viewBox="0 0 20 20" fill="none" xmlns="http://www.w3.org/2000/svg">
<path d="M12.357 12.357C11.0553 13.6588 8.94472 13.6588 7.64298 12.357M7.70833 7.91667V7.90834M12.2917 7.91667V7.90834M15.8333 1.66667V6.66667M13.3333 4.16667H18.3333M9.16667 2.54617C7.53366 2.72768 5.94888 3.44453 4.6967 4.6967C1.76777 7.62562 1.76777 12.3744 4.6967 15.3033C7.62562 18.2322 12.3743 18.2322 15.3033 15.3033C16.5555 14.0511 17.2723 12.4663 17.4538 10.8333M7.91667 7.91667C7.91667 8.14679 7.82339 8.33334 7.70833 8.33334C7.59327 8.33334 7.5 8.14679 7.5 7.91667C7.5 7.68655 7.59327 7.5 7.70833 7.5C7.82339 7.5 7.91667 7.68655 7.91667 7.91667ZM12.5 7.91667C12.5 8.14679 12.4067 8.33334 12.2917 8.33334C12.1766 8.33334 12.0833 8.14679 12.0833 7.91667C12.0833 7.68655 12.1766 7.5 12.2917 7.5C12.4067 7.5 12.5 7.68655 12.5 7.91667Z" stroke="currentColor" stroke-width="1.66667" stroke-linecap="round" stroke-linejoin="round"/>
</svg>
