<svg width="20" height="20" viewBox="0 0 20 20" fill="none" xmlns="http://www.w3.org/2000/svg">
<circle cx="10" cy="10" r="7.5" stroke="currentColor" stroke-width="1.66667"/>
<path d="M7.79267 10.1079C9.37413 8.85293 9.60558 7.65018 9.13701 6.91597C8.90951 6.5595 8.52575 6.34296 8.11545 6.32752C7.75421 6.31392 7.38721 6.45653 7.10059 6.76913C6.72434 6.57341 6.3307 6.56492 5.99589 6.70125C5.61561 6.8561 5.32906 7.19083 5.2372 7.60362C5.04801 8.45381 5.67688 9.50486 7.59219 10.1432C7.6607 10.1661 7.7361 10.1528 7.79267 10.1079Z" fill="currentColor"/>
<path d="M12.4079 10.1433C14.3232 9.50492 14.952 8.45387 14.7629 7.60368C14.671 7.19089 14.3844 6.85616 14.0042 6.70132C13.6694 6.56499 13.2757 6.57347 12.8995 6.7692C12.6128 6.45659 12.2458 6.31398 11.8846 6.32758C11.4743 6.34302 11.0905 6.55956 10.863 6.91604C10.3945 7.65025 10.6259 8.853 12.2074 10.1079C12.264 10.1528 12.3394 10.1661 12.4079 10.1433Z" fill="currentColor"/>
<path d="M9.99913 15C11.6838 15 13.0766 13.7502 13.3009 12.1273C13.3347 11.8826 13.1188 11.6889 12.8727 11.7109C10.9484 11.8824 9.04986 11.8824 7.12551 11.7109C6.87948 11.6889 6.66354 11.8826 6.69735 12.1273C6.92167 13.7502 8.31445 15 9.99913 15Z" fill="currentColor"/>
</svg>
