<svg width="20" height="20" viewBox="0 0 20 20" fill="none" xmlns="http://www.w3.org/2000/svg">
<path d="M6.39723 4.43782L6.08762 4.36637C5.60543 4.2551 5.09992 4.40008 4.75 4.75C4.40008 5.09992 4.2551 5.60543 4.36637 6.08762L4.43782 6.39723C4.62569 7.21131 4.29 8.05667 3.59485 8.5201L3.12404 8.83397C2.73417 9.09388 2.5 9.53144 2.5 10C2.5 10.4686 2.73417 10.9061 3.12404 11.166L3.59485 11.4799C4.29 11.9433 4.62569 12.7887 4.43782 13.6028L4.36637 13.9124C4.2551 14.3946 4.40008 14.9001 4.75 15.25C5.09992 15.5999 5.60543 15.7449 6.08762 15.6336L6.39723 15.5622C7.21131 15.3743 8.05667 15.71 8.5201 16.4052L8.83397 16.876C9.09388 17.2658 9.53144 17.5 10 17.5C10.4686 17.5 10.9061 17.2658 11.166 16.876L11.4799 16.4052C11.9433 15.71 12.7887 15.3743 13.6028 15.5622L13.9124 15.6336C14.3946 15.7449 14.9001 15.5999 15.25 15.25C15.5999 14.9001 15.7449 14.3946 15.6336 13.9124L15.5622 13.6028C15.3743 12.7887 15.71 11.9433 16.4052 11.4799L16.876 11.166C17.2658 10.9061 17.5 10.4686 17.5 10C17.5 9.53144 17.2658 9.09388 16.876 8.83397L16.4052 8.5201C15.71 8.05667 15.3743 7.21131 15.5622 6.39723L15.6336 6.08762C15.7449 5.60543 15.5999 5.09992 15.25 4.75C14.9001 4.40008 14.3946 4.2551 13.9124 4.36637L13.6028 4.43782C12.7887 4.62569 11.9433 4.29 11.4799 3.59485L11.166 3.12404C10.9061 2.73417 10.4686 2.5 10 2.5C9.53144 2.5 9.09388 2.73417 8.83397 3.12404L8.5201 3.59485C8.05667 4.29 7.21131 4.62569 6.39723 4.43782Z" stroke="currentColor" stroke-width="1.66667" stroke-linejoin="round"/>
<path d="M12.5 10C12.5 11.3807 11.3807 12.5 10 12.5C8.61929 12.5 7.5 11.3807 7.5 10C7.5 8.61929 8.61929 7.5 10 7.5C11.3807 7.5 12.5 8.61929 12.5 10Z" stroke="currentColor" stroke-width="1.66667" stroke-linejoin="round"/>
</svg>
