<svg width="20" height="20" viewBox="0 0 20 20" fill="none" xmlns="http://www.w3.org/2000/svg">
<path d="M9.16667 4.16666H5C3.61929 4.16666 2.5 5.28595 2.5 6.66666V13.3333C2.5 14.714 3.61929 15.8333 5 15.8333H9.16667M9.16667 4.16666H15C16.3807 4.16666 17.5 5.28595 17.5 6.66666V13.3333C17.5 14.714 16.3807 15.8333 15 15.8333H9.16667M9.16667 4.16666V15.8333" stroke="currentColor" stroke-width="1.66667" stroke-linecap="square" stroke-linejoin="round"/>
<path d="M5.10417 7.29167C5.10417 7.69437 5.43063 8.02083 5.83334 8.02083C6.23605 8.02083 6.56251 7.69437 6.56251 7.29167C6.56251 6.88896 6.23605 6.5625 5.83334 6.5625C5.43063 6.5625 5.10417 6.88896 5.10417 7.29167ZM5.10417 10C5.10417 10.4027 5.43063 10.7292 5.83334 10.7292C6.23605 10.7292 6.56251 10.4027 6.56251 10C6.56251 9.59729 6.23605 9.27083 5.83334 9.27083C5.43063 9.27083 5.10417 9.59729 5.10417 10ZM5.10417 12.7083C5.10417 13.111 5.43063 13.4375 5.83334 13.4375C6.23605 13.4375 6.56251 13.111 6.56251 12.7083C6.56251 12.3056 6.23605 11.9792 5.83334 11.9792C5.43063 11.9792 5.10417 12.3056 5.10417 12.7083Z" fill="currentColor" stroke="currentColor" stroke-width="0.625"/>
</svg>
