<svg width="20" height="20" viewBox="0 0 20 20" fill="none" xmlns="http://www.w3.org/2000/svg">
<path d="M9.16667 4.16666H5C3.61929 4.16666 2.5 5.28595 2.5 6.66666V13.3333C2.5 14.714 3.61929 15.8333 5 15.8333H9.16667M9.16667 4.16666H15C16.3807 4.16666 17.5 5.28595 17.5 6.66666V13.3333C17.5 14.714 16.3807 15.8333 15 15.8333H9.16667M9.16667 4.16666V15.8333" stroke="currentColor" stroke-width="1.66667" stroke-linecap="square" stroke-linejoin="round"/>
<path d="M5.10416 7.29167C5.10416 7.69437 5.43062 8.02083 5.83332 8.02083C6.23603 8.02083 6.56249 7.69437 6.56249 7.29167C6.56249 6.88896 6.23603 6.5625 5.83332 6.5625C5.43062 6.5625 5.10416 6.88896 5.10416 7.29167ZM5.10416 10C5.10416 10.4027 5.43062 10.7292 5.83332 10.7292C6.23603 10.7292 6.56249 10.4027 6.56249 10C6.56249 9.59729 6.23603 9.27083 5.83332 9.27083C5.43062 9.27083 5.10416 9.59729 5.10416 10ZM5.10416 12.7083C5.10416 13.111 5.43062 13.4375 5.83332 13.4375C6.23603 13.4375 6.56249 13.111 6.56249 12.7083C6.56249 12.3056 6.23603 11.9792 5.83332 11.9792C5.43062 11.9792 5.10416 12.3056 5.10416 12.7083Z" fill="currentColor" stroke="currentColor" stroke-width="0.625"/>
</svg>
