<svg width="20" height="20" viewBox="0 0 20 20" fill="none" xmlns="http://www.w3.org/2000/svg">
<path d="M16.6667 12.6667V7.33334C16.6667 5.9332 16.6667 5.23314 16.3942 4.69836C16.1545 4.22795 15.772 3.8455 15.3016 3.60582C14.7669 3.33334 14.0668 3.33334 12.6667 3.33334H7.33334C5.9332 3.33334 5.23314 3.33334 4.69836 3.60582C4.22795 3.8455 3.8455 4.22795 3.60582 4.69836C3.33334 5.23314 3.33334 5.9332 3.33334 7.33333V12.6667C3.33334 14.0668 3.33334 14.7669 3.60582 15.3016C3.8455 15.772 4.22795 16.1545 4.69836 16.3942C5.23314 16.6667 5.9332 16.6667 7.33333 16.6667H12.6667C14.0668 16.6667 14.7669 16.6667 15.3016 16.3942C15.772 16.1545 16.1545 15.772 16.3942 15.3016C16.6667 14.7669 16.6667 14.0668 16.6667 12.6667Z" stroke="currentColor" stroke-width="1.66667" stroke-linecap="round" stroke-linejoin="round"/>
</svg>
