<svg width="20" height="20" viewBox="0 0 20 20" fill="none" xmlns="http://www.w3.org/2000/svg">
<path d="M9.15892 2.192C9.49649 1.49155 10.5035 1.49155 10.8411 2.19201L12.5203 5.67636C12.6562 5.95825 12.9269 6.15296 13.2396 6.19378L17.1055 6.69833C17.8826 6.79976 18.1938 7.74802 17.6253 8.28235L14.7973 10.9403C14.5685 11.1554 14.4651 11.4704 14.5225 11.7776L15.2325 15.5737C15.3752 16.3369 14.5605 16.9229 13.8716 16.5527L10.4445 14.7111C10.1673 14.5621 9.83271 14.5621 9.55545 14.7111L6.12841 16.5527C5.43947 16.9229 4.62478 16.3369 4.76751 15.5737L5.47746 11.7776C5.5349 11.4704 5.43152 11.1554 5.20272 10.9403L2.37473 8.28235C1.80622 7.74801 2.1174 6.79976 2.89455 6.69833L6.76037 6.19378C7.07313 6.15296 7.34381 5.95825 7.47966 5.67636L9.15892 2.192Z" stroke="currentColor" stroke-width="1.66667" stroke-linecap="round" stroke-linejoin="round"/>
</svg>
