<svg width="20" height="20" viewBox="0 0 20 20" fill="none" xmlns="http://www.w3.org/2000/svg">
<path d="M7.77501 16.6667V11.6667H4.58334C3.89299 11.6667 3.33334 12.2263 3.33334 12.9167V15.4167C3.33334 16.107 3.89299 16.6667 4.58334 16.6667H7.77501ZM7.77501 16.6667H12.2167M7.77501 16.6667L7.77502 4.58333C7.77502 3.89298 8.33467 3.33333 9.02502 3.33333H10.9667C11.657 3.33333 12.2167 3.89298 12.2167 4.58333V16.6667M12.2167 16.6667L12.2167 7.5H15.4083C16.0987 7.5 16.6583 8.05964 16.6583 8.75V15.4167C16.6583 16.107 16.0987 16.6667 15.4083 16.6667H12.2167Z" stroke="currentColor" stroke-width="1.66667" stroke-linecap="square" stroke-linejoin="round"/>
</svg>
