<svg width="20" height="20" viewBox="0 0 20 20" fill="none" xmlns="http://www.w3.org/2000/svg">
<path d="M7.91666 8.75C7.91666 8.28976 8.28975 7.91667 8.74999 7.91667H11.25C11.7102 7.91667 12.0833 8.28976 12.0833 8.75V11.25C12.0833 11.7102 11.7102 12.0833 11.25 12.0833H8.74999C8.28975 12.0833 7.91666 11.7102 7.91666 11.25V8.75Z" fill="currentColor"/>
<path fill-rule="evenodd" clip-rule="evenodd" d="M9.99999 3.33333C6.31809 3.33333 3.33332 6.3181 3.33332 10C3.33332 13.6819 6.31809 16.6667 9.99999 16.6667C13.6819 16.6667 16.6667 13.6819 16.6667 10C16.6667 6.3181 13.6819 3.33333 9.99999 3.33333ZM1.66666 10C1.66666 5.39763 5.39762 1.66667 9.99999 1.66667C14.6024 1.66667 18.3333 5.39763 18.3333 10C18.3333 14.6024 14.6024 18.3333 9.99999 18.3333C5.39762 18.3333 1.66666 14.6024 1.66666 10Z" fill="currentColor"/>
</svg>
