<svg width="232" height="232" viewBox="0 0 232 232" fill="none" xmlns="http://www.w3.org/2000/svg">
<g filter="url(#filter0_d_756_2074)">
<path d="M223.407 205.838H171.165C193.928 191.516 210.746 169.467 218.527 143.747C226.308 118.028 224.528 90.3669 213.514 65.8536C202.5 41.3404 182.993 21.6233 158.581 10.3293C134.17 -0.964676 106.496 -3.07585 80.6497 4.38411C54.8036 11.8441 32.5241 28.3734 17.9095 50.9316C3.29494 73.4897 -2.67175 100.559 1.10705 127.161C4.88585 153.762 18.156 178.107 38.4764 195.715C58.7968 213.324 84.8006 223.013 111.705 223H223.407C225.686 223 227.872 222.096 229.483 220.487C231.095 218.877 232 216.695 232 214.419C232 212.143 231.095 209.96 229.483 208.351C227.872 206.742 225.686 205.838 223.407 205.838ZM60.1493 132.899C55.9007 132.899 51.7475 131.641 48.2149 129.284C44.6823 126.926 41.929 123.576 40.3031 119.656C38.6773 115.736 38.2519 111.423 39.0807 107.261C39.9096 103.1 41.9555 99.2773 44.9597 96.2771C47.9639 93.2769 51.7915 91.2337 55.9585 90.406C60.1255 89.5782 64.4447 90.0031 68.3699 91.6268C72.2951 93.2505 75.65 96.0001 78.0104 99.528C80.3708 103.056 81.6306 107.203 81.6306 111.446C81.6306 117.136 79.3674 122.593 75.3389 126.616C71.3104 130.639 65.8465 132.899 60.1493 132.899ZM111.705 184.385C107.456 184.385 103.303 183.127 99.7701 180.77C96.2375 178.413 93.4842 175.062 91.8583 171.142C90.2325 167.222 89.8071 162.909 90.6359 158.747C91.4648 154.586 93.5107 150.764 96.5149 147.763C99.5191 144.763 103.347 142.72 107.514 141.892C111.681 141.065 116 141.489 119.925 143.113C123.85 144.737 127.205 147.486 129.566 151.014C131.926 154.542 133.186 158.69 133.186 162.933C133.186 168.622 130.923 174.079 126.894 178.102C122.866 182.125 117.402 184.385 111.705 184.385ZM111.705 81.4127C107.456 81.4127 103.303 80.1546 99.7701 77.7973C96.2375 75.4401 93.4842 72.0896 91.8583 68.1697C90.2325 64.2497 89.8071 59.9363 90.6359 55.7749C91.4648 51.6135 93.5107 47.791 96.5149 44.7908C99.5191 41.7906 103.347 39.7475 107.514 38.9197C111.681 38.092 116 38.5168 119.925 40.1405C123.85 41.7642 127.205 44.5138 129.566 48.0417C131.926 51.5696 133.186 55.7172 133.186 59.9601C133.186 65.6497 130.923 71.1063 126.894 75.1294C122.866 79.1526 117.402 81.4127 111.705 81.4127ZM141.778 111.446C141.778 107.203 143.038 103.056 145.399 99.528C147.759 96.0001 151.114 93.2505 155.039 91.6268C158.964 90.0031 163.284 89.5782 167.451 90.406C171.617 91.2337 175.445 93.2769 178.449 96.2771C181.454 99.2773 183.499 103.1 184.328 107.261C185.157 111.423 184.732 115.736 183.106 119.656C181.48 123.576 178.727 126.926 175.194 129.284C171.662 131.641 167.508 132.899 163.26 132.899C157.563 132.899 152.099 130.639 148.07 126.616C144.042 122.593 141.778 117.136 141.778 111.446Z" fill="white"/>
</g>
<defs>
<filter id="filter0_d_756_2074" x="0" y="0" width="232" height="232" filterUnits="userSpaceOnUse" color-interpolation-filters="sRGB">
<feFlood flood-opacity="0" result="BackgroundImageFix"/>
<feColorMatrix in="SourceAlpha" type="matrix" values="0 0 0 0 0 0 0 0 0 0 0 0 0 0 0 0 0 0 127 0" result="hardAlpha"/>
<feOffset dy="9"/>
<feComposite in2="hardAlpha" operator="out"/>
<feColorMatrix type="matrix" values="0 0 0 0 1 0 0 0 0 1 0 0 0 0 1 0 0 0 0.5 0"/>
<feBlend mode="normal" in2="BackgroundImageFix" result="effect1_dropShadow_756_2074"/>
<feBlend mode="normal" in="SourceGraphic" in2="effect1_dropShadow_756_2074" result="shape"/>
</filter>
</defs>
</svg>
