<svg width="20" height="20" viewBox="0 0 20 20" fill="none" xmlns="http://www.w3.org/2000/svg">
<path d="M14.1667 11.2H15.4185C16.5691 11.2 17.5018 10.3046 17.5018 9.2V5.2C17.5018 4.09543 16.5691 3.2 15.4185 3.2H7.9185C6.7679 3.2 5.83516 4.09543 5.83516 5.2V6.4M12.0852 6.4H4.58516C3.43457 6.4 2.50183 7.29543 2.50183 8.4V12.4C2.50183 13.5046 3.43457 14.4 4.58516 14.4H5.00183V16.4L8.75183 14.4H12.0852C13.2358 14.4 14.1685 13.5046 14.1685 12.4V8.4C14.1685 7.29543 13.2358 6.4 12.0852 6.4Z" stroke="currentColor" stroke-width="1.6" stroke-linecap="round" stroke-linejoin="round"/>
</svg>
