<svg width="20" height="20" viewBox="0 0 20 20" fill="none" xmlns="http://www.w3.org/2000/svg">
<path d="M2.5 9.16667H17.5M5 15.8333H15C16.3807 15.8333 17.5 14.714 17.5 13.3333V6.66667C17.5 5.28596 16.3807 4.16667 15 4.16667H5C3.61929 4.16667 2.5 5.28596 2.5 6.66667V13.3333C2.5 14.714 3.61929 15.8333 5 15.8333Z" stroke="currentColor" stroke-width="1.66667"/>
<path d="M5 7.29167C5.34518 7.29167 5.625 7.01184 5.625 6.66667C5.625 6.32149 5.34518 6.04167 5 6.04167C4.65482 6.04167 4.375 6.32149 4.375 6.66667C4.375 7.01184 4.65482 7.29167 5 7.29167ZM7.5 7.29167C7.84518 7.29167 8.125 7.01184 8.125 6.66667C8.125 6.32149 7.84518 6.04167 7.5 6.04167C7.15482 6.04167 6.875 6.32149 6.875 6.66667C6.875 7.01184 7.15482 7.29167 7.5 7.29167ZM10 7.29167C10.3452 7.29167 10.625 7.01184 10.625 6.66667C10.625 6.32149 10.3452 6.04167 10 6.04167C9.65482 6.04167 9.375 6.32149 9.375 6.66667C9.375 7.01184 9.65482 7.29167 10 7.29167Z" fill="currentColor" stroke="currentColor" stroke-width="0.416667"/>
</svg>
