<svg width="9" height="9" viewBox="0 0 9 9" fill="none" xmlns="http://www.w3.org/2000/svg">
<path d="M8.49846 7.4817C8.60682 7.59004 8.66769 7.73699 8.66769 7.89022C8.66769 8.04345 8.60682 8.1904 8.49846 8.29875C8.39011 8.4071 8.24315 8.46797 8.08991 8.46797C7.93668 8.46797 7.78972 8.4071 7.68136 8.29875L4.62973 5.24634L1.57715 8.29779C1.46879 8.40613 1.32183 8.467 1.1686 8.467C1.01536 8.467 0.868401 8.40613 0.760047 8.29779C0.651693 8.18944 0.59082 8.04249 0.59082 7.88926C0.59082 7.73603 0.651693 7.58908 0.760047 7.48074L3.81264 4.42929L0.761008 1.37688C0.652654 1.26854 0.591782 1.12159 0.591782 0.96836C0.591782 0.815133 0.652654 0.668182 0.761008 0.559834C0.869363 0.451486 1.01632 0.390617 1.16956 0.390617C1.32279 0.390617 1.46975 0.451486 1.57811 0.559834L4.62973 3.61224L7.68232 0.559353C7.79068 0.451006 7.93764 0.390137 8.09087 0.390137C8.24411 0.390137 8.39107 0.451006 8.49942 0.559353C8.60778 0.667701 8.66865 0.814652 8.66865 0.967879C8.66865 1.12111 8.60778 1.26806 8.49942 1.3764L5.44683 4.42929L8.49846 7.4817Z" fill="black"/>
</svg>
