<svg width="80" height="93" viewBox="0 0 80 93" fill="none" xmlns="http://www.w3.org/2000/svg">
<path d="M76.4306 22.2805L78.6164 16.9219C78.6164 16.9219 75.8666 13.9606 72.4822 10.5762C69.0978 7.19181 61.9765 9.16603 61.9765 9.16603L53.8681 0H25.3124L17.2039 9.23654C17.2039 9.23654 10.0826 7.26232 6.69826 10.6467C3.31387 14.0311 0.564064 16.9924 0.564064 16.9924L2.74981 22.351L0 30.2479C0 30.2479 8.17892 61.1304 9.09553 64.9378C10.9992 72.3412 12.2684 75.232 17.627 79.0394C22.9856 82.8469 32.6452 89.3336 34.2669 90.3207C35.818 91.3078 37.8628 93 39.6255 93C41.3882 93 43.3624 91.3078 44.9841 90.3207C46.5353 89.3336 56.2654 82.7763 61.624 79.0394C66.9826 75.3025 68.2517 72.4117 70.1554 64.9378C71.1425 61.1304 79.251 30.2479 79.251 30.2479L76.4306 22.2805Z" fill="url(#paint0_linear_101_35)"/>
<path d="M59.7204 15.0887C59.7204 15.0887 70.1556 27.7096 70.1556 30.4594C70.1556 33.2093 68.8159 33.8438 67.4763 35.254C66.1366 36.6641 60.355 42.7983 59.6499 43.5739C58.8743 44.3495 57.3937 45.5481 58.2397 47.7339C59.1564 49.8491 60.496 52.5989 59.0153 55.4193C57.5347 58.1691 54.9964 60.0728 53.3747 59.7202C51.753 59.4382 47.8751 57.3935 46.4649 56.4769C45.0548 55.5603 40.6128 51.8939 40.6128 50.4837C40.6128 49.0735 45.2663 46.5353 46.1124 45.9712C46.9585 45.4071 50.8364 43.1509 50.9069 42.3048C50.9774 41.4587 50.9774 41.1767 49.7788 38.9909C48.6507 36.8052 46.5354 33.9143 46.888 32.0106C47.2405 30.1069 50.5544 29.1198 52.9517 28.2032C55.3489 27.2866 59.9319 25.5944 60.496 25.3124C61.0601 25.0303 60.9191 24.8188 59.1564 24.6073C57.3937 24.4663 52.5286 23.7612 50.2724 24.3958C48.0161 25.0303 44.2792 25.9469 43.9266 26.4405C43.6446 26.934 43.3626 26.934 43.6446 28.6967C43.9266 30.3889 45.6188 38.7089 45.7598 40.1895C45.9009 41.6702 46.2534 42.6573 44.6317 43.0099C43.0805 43.3624 40.4012 43.997 39.4846 43.997C38.568 43.997 35.8887 43.3624 34.3376 43.0099C32.7864 42.6573 33.0684 41.6702 33.2094 40.1895C33.3504 38.7089 34.9721 30.4594 35.3247 28.6967C35.6067 27.0046 35.3952 26.934 35.0426 26.4405C34.7606 25.9469 30.9532 25.0303 28.6969 24.3958C26.4407 23.7612 21.5756 24.3958 19.8129 24.6073C18.0502 24.7483 17.9092 25.0303 18.4733 25.3124C19.0373 25.5944 23.6203 27.2866 26.0176 28.2032C28.4149 29.1198 31.7288 30.1069 32.0813 32.0106C32.4338 33.9143 30.3891 36.8052 29.1905 38.9909C28.0623 41.1767 27.9918 41.3882 28.0623 42.3048C28.1329 43.1509 32.0108 45.4071 32.8569 45.9712C33.703 46.5353 38.3565 49.0735 38.3565 50.4837C38.3565 51.8939 33.9145 55.5603 32.5043 56.4769C31.0942 57.3935 27.2868 59.3677 25.5946 59.7202C23.9729 60.0023 21.4346 58.1691 19.9539 55.4193C18.4733 52.6695 19.8129 49.9196 20.7295 47.7339C21.6461 45.6187 20.0949 44.42 19.3194 43.5739C18.7553 42.7278 13.0441 36.5936 11.7045 35.254C10.3648 33.8438 9.0957 33.1387 9.0957 30.4594C9.0957 27.7801 19.5309 15.0887 19.5309 15.0887C19.5309 15.0887 28.3444 16.7809 29.543 16.7809C30.7416 16.7809 33.2799 15.7938 35.6772 15.0182C38.0745 14.2426 39.6257 14.2426 39.6257 14.2426C39.6257 14.2426 41.1768 14.2426 43.5741 15.0182C45.9714 15.7938 48.5097 16.7809 49.7083 16.7809C50.9069 16.7809 59.7204 15.0887 59.7204 15.0887Z" fill="white"/>
<path d="M51.894 63.3867C52.5286 63.8097 52.1761 64.5853 51.5415 64.9378C50.9774 65.3609 43.01 71.4951 42.3049 72.2002C41.5294 72.9052 40.4012 73.9629 39.6256 73.9629C38.8501 73.9629 37.7219 72.8347 36.9463 72.2002C36.1707 71.4951 28.2739 65.3609 27.7098 64.9378C27.1457 64.5148 26.7227 63.7392 27.3573 63.3867C27.9918 62.9636 30.0366 61.9765 32.7864 60.4958C35.6067 59.0152 39.0616 57.8165 39.6256 57.8165C40.1897 57.8165 43.6446 59.0152 46.4649 60.4958C49.2147 61.9765 51.1889 63.0341 51.894 63.3867Z" fill="white"/>
<path d="M61.9765 9.23654L53.8681 0H25.3123L17.2039 9.23654C17.2039 9.23654 10.0826 7.26232 6.69824 10.6467C6.69824 10.6467 16.2168 9.80061 19.4602 15.0887C19.4602 15.0887 28.2737 16.7809 29.4723 16.7809C30.6709 16.7809 33.2092 15.7938 35.6065 15.0182C38.0038 14.2426 39.555 14.2426 39.555 14.2426C39.555 14.2426 41.1061 14.2426 43.5034 15.0182C45.9007 15.7938 48.439 16.7809 49.6376 16.7809C50.8362 16.7809 59.6497 15.0887 59.6497 15.0887C62.8931 9.80061 72.4117 10.6467 72.4117 10.6467C69.0978 7.26232 61.9765 9.23654 61.9765 9.23654Z" fill="url(#paint1_linear_101_35)"/>
<defs>
<linearGradient id="paint0_linear_101_35" x1="-0.00065088" y1="46.4817" x2="79.1887" y2="46.4817" gradientUnits="userSpaceOnUse">
<stop stop-color="#FF5500"/>
<stop offset="0.4099" stop-color="#FF5500"/>
<stop offset="0.582" stop-color="#FF2000"/>
<stop offset="1" stop-color="#FF2000"/>
</linearGradient>
<linearGradient id="paint1_linear_101_35" x1="8.13858" y1="8.37495" x2="72.459" y2="8.37495" gradientUnits="userSpaceOnUse">
<stop stop-color="#FF452A"/>
<stop offset="1" stop-color="#FF2000"/>
</linearGradient>
</defs>
</svg>
