<svg width="93" height="93" viewBox="0 0 93 93" fill="none" xmlns="http://www.w3.org/2000/svg">
<path d="M89.2377 28.1903C89.2377 34.6915 81.0493 42.6787 70.27 42.6787C59.4907 42.6787 45.4775 36.0088 45.4775 29.5077C45.4775 23.0065 54.2154 17.7365 64.9947 17.7365C73.2291 17.7365 84.1764 25.3239 88.3548 26.1779C88.6824 26.8871 88.9208 27.3911 89.2377 28.1903Z" fill="url(#paint0_linear_101_181)"/>
<path d="M9.24105 19.0036C14.364 15.0173 23.8525 18.4868 30.462 27.0228C37.0716 35.5588 37.7832 48.2031 32.6607 52.1895C27.5377 56.1758 18.5205 49.9945 11.9109 41.4585C6.86119 34.9379 10.2349 24.3741 8.3457 20.5416C8.63017 20.0209 8.92873 19.508 9.24105 19.0036Z" fill="#2E5C91"/>
<path d="M88.357 26.175C85.4574 26.1614 63.0895 26.2953 43.8111 26.202C36.6239 28.3207 30.6933 31.7015 27.5997 38.2947C25.392 36.4108 10.7413 20.7851 9.22656 19.0327C22.214 1.75787 40.0622 0.135703 43.5326 0.135703C47.0031 0.135703 72.7612 -3.4446 88.357 26.175Z" fill="url(#paint1_radial_101_181)"/>
<path d="M41.6377 92.8316C36.4663 88.9083 35.6074 77.5104 42.1118 68.8931C48.6163 60.2771 59.0903 54.3981 64.2613 58.3214C69.4322 62.2448 67.3428 74.4838 60.8384 83.1003C55.8693 89.6827 46.1541 90.1037 42.9534 92.9283C42.4404 92.9092 42.1445 92.9034 41.6377 92.8316Z" fill="#699DD3"/>
<path d="M42.9531 92.928C44.4356 90.4298 54.8934 70.987 64.7538 54.3796C66.5792 47.0958 66.9665 40.4258 62.8675 34.4087C65.6073 33.4572 86.9636 28.6115 89.2384 28.1921C97.4992 48.1758 89.8383 64.4174 88.0774 67.4154C86.3177 70.4129 76.327 94.4817 42.9531 92.928Z" fill="url(#paint2_radial_101_181)"/>
<path d="M8.36122 20.5261C9.7965 23.0516 21.0727 42.4177 30.612 59.2126C36.0296 64.3993 42.0666 67.2944 49.3096 66.6922C48.7829 69.5508 42.4294 90.6456 41.6702 92.8356C20.2564 90.1724 9.94876 75.4758 8.21724 72.4608C6.48571 69.4458 -9.46209 48.8541 8.36122 20.5261Z" fill="url(#paint3_radial_101_181)"/>
<path d="M65.2983 46.3904C65.2983 56.9019 56.8339 65.423 46.3923 65.423C35.9506 65.423 27.4854 56.9019 27.4854 46.3904C27.4854 35.8788 35.9497 27.3574 46.3918 27.3574C56.8339 27.3574 65.2983 35.8788 65.2983 46.3904Z" fill="url(#paint4_linear_101_181)" stroke="url(#paint5_linear_101_181)" stroke-width="7.32792"/>
<path d="M60.8447 36.8073C68.5109 43.8991 67.4778 49.0667 65.0082 55.0572C63.7214 45.8286 64.0375 41.6075 60.8447 36.8073ZM35.1403 63.6609C25.7707 57.6579 22.8066 44.6979 31.494 37.5344C27.0057 45.7365 28.918 50.9722 35.1403 63.6609Z" fill="white"/>
<defs>
<linearGradient id="paint0_linear_101_181" x1="61.7183" y1="30.8188" x2="86.0024" y2="28.192" gradientUnits="userSpaceOnUse">
<stop stop-color="#B2CDE9"/>
<stop offset="1" stop-color="#C4DBEE"/>
</linearGradient>
<radialGradient id="paint1_radial_101_181" cx="0" cy="0" r="1" gradientTransform="matrix(-0.300696 22.1123 40.8115 0.555287 45.3644 5.9621)" gradientUnits="userSpaceOnUse">
<stop stop-color="#658DB6"/>
<stop offset="0.768" stop-color="#527FAB"/>
<stop offset="1" stop-color="#4071A0"/>
</radialGradient>
<radialGradient id="paint2_radial_101_181" cx="0" cy="0" r="1" gradientTransform="matrix(20.3418 42.6408 53.8485 -25.8183 47.6348 44.4376)" gradientUnits="userSpaceOnUse">
<stop stop-color="#D0E2F1"/>
<stop offset="0.856" stop-color="#CADEF0"/>
<stop offset="1" stop-color="#95BEE3"/>
</radialGradient>
<radialGradient id="paint3_radial_101_181" cx="0" cy="0" r="1" gradientTransform="matrix(-31.6113 -2.11889 -2.8141 42.2226 31.6301 45.1702)" gradientUnits="userSpaceOnUse">
<stop stop-color="#96D0E1"/>
<stop offset="0.678" stop-color="#89B7E1"/>
<stop offset="1" stop-color="#699DD3"/>
</radialGradient>
<linearGradient id="paint4_linear_101_181" x1="46.3587" y1="61.7674" x2="46.441" y2="30.2711" gradientUnits="userSpaceOnUse">
<stop stop-color="#3B79BC"/>
<stop offset="1" stop-color="#94B8E0"/>
</linearGradient>
<linearGradient id="paint5_linear_101_181" x1="-238.329" y1="193.725" x2="-238.06" y2="140.516" gradientUnits="userSpaceOnUse">
<stop stop-color="#D7DEF0"/>
<stop offset="0.5" stop-color="white"/>
<stop offset="1" stop-color="#D5DEF0"/>
</linearGradient>
</defs>
</svg>
