<svg width="93" height="93" viewBox="0 0 93 93" fill="none" xmlns="http://www.w3.org/2000/svg">
<path d="M46.2972 6.82935C68.0948 6.82935 85.7651 24.4997 85.7651 46.2973C85.7651 68.0946 68.0948 85.7649 46.2972 85.7649C24.5 85.7649 6.82959 68.0946 6.82959 46.2973C6.82959 24.4997 24.5 6.82935 46.2972 6.82935Z" fill="#DE5833"/>
<path d="M46.2966 92.5931C71.8654 92.5931 92.5931 71.8654 92.5931 46.2966C92.5931 20.7277 71.8654 0 46.2966 0C20.7277 0 0 20.7277 0 46.2966C0 71.8654 20.7277 92.5931 46.2966 92.5931ZM46.2966 88.7351C22.8584 88.7351 3.85805 69.7347 3.85805 46.2966C3.85805 22.8584 22.8584 3.85805 46.2966 3.85805C69.7347 3.85805 88.7351 22.8584 88.7351 46.2966C88.7351 69.7347 69.7347 88.7351 46.2966 88.7351Z" fill="#DE5833"/>
<path d="M27.0704 19.6492C27.0627 18.9854 27.5448 18.6138 28.1853 18.3533C27.8921 18.4013 27.6113 18.4747 27.3585 18.588C26.6907 18.8906 26.1916 20.0364 26.1963 20.5788C29.4379 20.2511 34.2314 20.4778 37.7367 21.524C37.9953 21.4877 38.254 21.4514 38.5166 21.4212C35.0204 19.8689 30.8638 19.2695 27.0704 19.6492Z" fill="#D5D7D8"/>
<path d="M27.7348 15.6603C27.8078 15.6472 27.8819 15.6381 27.9553 15.6258C27.256 15.7126 26.8872 15.9626 26.3623 16.0487C26.9323 16.0991 29.092 17.1073 30.4492 17.6616C30.6396 17.5893 30.811 17.509 30.9509 17.4142C30.2472 17.3103 28.4988 15.7301 27.7348 15.6603Z" fill="#D5D7D8"/>
<path d="M31.1053 23.5094C30.911 23.5842 30.7264 23.6623 30.5666 23.7463C25.2827 26.5301 22.9486 33.0325 24.3396 40.8241C25.6093 47.9146 30.8133 72.1408 33.196 83.5354C33.8917 83.7799 34.5957 84.007 35.3085 84.213C33.1866 73.9539 27.3948 47.0711 26.0434 39.521C24.6734 31.8402 26.0063 26.3288 31.1053 23.5094Z" fill="#D5D7D8"/>
<path d="M52.4872 79.4045C52.4 79.4627 52.2961 79.5172 52.1853 79.5702C52.1032 79.8884 51.9779 80.1297 51.7951 80.251C50.7038 80.975 47.6214 81.3398 45.9939 80.975C45.7138 80.9129 45.5016 80.8101 45.336 80.6688C42.5573 82.2116 38.5612 84.2656 37.7496 83.8028C36.4817 83.0759 36.2979 73.4671 36.4817 71.109C36.6158 69.3289 42.8686 72.2123 45.9103 73.7247C46.5828 73.0965 48.2303 72.6762 49.6885 72.5334C47.4852 67.1711 45.8602 61.0374 46.8563 56.6879C45.4795 55.7284 43.6547 53.5033 44.0347 51.1809C44.3275 49.4131 48.8954 46.0688 52.1297 45.8668C55.3713 45.6623 56.3816 45.7084 59.0822 45.0618C59.2173 45.0294 59.3659 44.9938 59.5214 44.9564C61.1838 39.1123 57.1968 28.9452 52.7495 24.496C51.2996 23.0462 49.0705 22.1336 46.5588 21.6519C45.5928 20.3263 44.0347 19.0588 41.8289 17.8851C37.7329 15.7105 32.6709 14.8251 27.9552 15.6258C27.8818 15.6382 27.8077 15.6472 27.7347 15.6603C28.4986 15.7301 30.2471 17.3103 30.9508 17.4142C30.8109 17.5091 30.6394 17.5893 30.4491 17.6616C29.7886 17.913 28.891 18.0656 28.1851 18.3533C27.5447 18.6138 27.0626 18.9854 27.0702 19.6491C30.8636 19.2695 35.0203 19.8689 38.5165 21.4212C38.2538 21.4514 37.9952 21.4877 37.7365 21.524C35.2571 21.8728 32.9783 22.5151 31.3319 23.3837C31.2545 23.424 31.1811 23.4676 31.1052 23.5094C26.0062 26.3288 24.6733 31.8401 26.0432 39.521C27.3946 47.0711 33.2242 74.3702 35.3461 84.6293C38.8347 85.6388 42.0966 86.4457 45.9103 86.4457C49.1479 86.4457 53.0419 85.7282 56.0532 84.9925C54.9956 82.9534 53.6352 80.6986 52.7967 79.0816C52.6848 79.2149 52.5965 79.3315 52.4872 79.4045ZM54.6207 40.6929C53.2388 40.6929 52.1116 39.5689 52.1116 38.179C52.1116 36.7957 53.2388 35.6713 54.6207 35.6713C56.0103 35.6713 57.1332 36.7957 57.1332 38.179C57.1332 39.5689 56.0103 40.6929 54.6207 40.6929ZM56.1324 31.2447C56.1324 31.2447 54.5495 30.3405 53.3213 30.3558C50.7972 30.3888 50.1099 31.5041 50.1099 31.5041C50.1099 31.5041 50.5335 28.8456 53.7612 29.3789C55.5111 29.6699 56.1324 31.2447 56.1324 31.2447ZM29.5202 34.5132C29.5202 34.5132 28.3835 31.98 31.4129 30.7387C34.4455 29.497 35.9223 31.4453 35.9223 31.4453C35.9223 31.4453 33.7201 30.4491 31.5789 31.7947C29.4413 33.1389 29.5202 34.5132 29.5202 34.5132ZM32.1685 39.9122C32.1685 38.2971 33.4745 36.99 35.0918 36.99C36.7048 36.99 38.0126 38.2971 38.0126 39.9122C38.0126 41.5278 36.7048 42.8334 35.0918 42.8334C33.4745 42.8341 32.1685 41.5278 32.1685 39.9122Z" fill="white"/>
<path d="M38.0126 39.9122C38.0126 38.2971 36.7047 36.99 35.0918 36.99C33.4745 36.99 32.1685 38.2971 32.1685 39.9122C32.1685 41.5277 33.4745 42.8341 35.0918 42.8334C36.7047 42.8334 38.0126 41.5277 38.0126 39.9122ZM36.3858 39.6975C35.9709 39.6986 35.6298 39.3575 35.6298 38.9383C35.6298 38.518 35.9698 38.1797 36.3858 38.1797C36.805 38.1797 37.145 38.518 37.145 38.9383C37.145 39.3575 36.805 39.6975 36.3858 39.6975Z" fill="#2D4F8E"/>
<path d="M36.3859 38.1797C35.9699 38.1797 35.6299 38.518 35.6299 38.9383C35.6299 39.3575 35.971 39.6986 36.3859 39.6975C36.8051 39.6975 37.1451 39.3575 37.1451 38.9383C37.1451 38.518 36.8051 38.1797 36.3859 38.1797Z" fill="white"/>
<path d="M54.621 35.6713C53.2391 35.6713 52.1118 36.7957 52.1118 38.1791C52.1118 39.569 53.2391 40.693 54.621 40.693C56.0106 40.693 57.1335 39.569 57.1335 38.1791C57.1335 36.7957 56.0106 35.6713 54.621 35.6713ZM55.7352 37.9941C55.381 37.9941 55.0885 37.7061 55.0885 37.3442C55.0885 36.9871 55.381 36.694 55.7352 36.694C56.1046 36.694 56.388 36.9871 56.388 37.3442C56.388 37.7061 56.1046 37.9941 55.7352 37.9941Z" fill="#2D4F8E"/>
<path d="M55.735 36.694C55.3808 36.694 55.0884 36.9871 55.0884 37.3442C55.0884 37.7061 55.3808 37.9942 55.735 37.9942C56.1045 37.9942 56.3878 37.7061 56.3878 37.3442C56.3878 36.9871 56.1045 36.694 55.735 36.694Z" fill="white"/>
<path d="M35.9226 31.4453C35.9226 31.4453 34.4458 29.497 31.4131 30.7387C28.3837 31.98 29.5204 34.5132 29.5204 34.5132C29.5204 34.5132 29.4416 33.1389 31.5792 31.7947C33.7203 30.4491 35.9226 31.4453 35.9226 31.4453Z" fill="url(#paint0_linear_103_16)"/>
<path d="M53.7612 29.3789C50.5335 28.8456 50.1099 31.5041 50.1099 31.5041C50.1099 31.5041 50.7972 30.3889 53.3213 30.3558C54.5495 30.3405 56.1323 31.2447 56.1323 31.2447C56.1323 31.2447 55.5111 29.6699 53.7612 29.3789Z" fill="url(#paint1_linear_103_16)"/>
<path d="M52.1298 45.8668C48.8956 46.0688 44.3277 49.4131 44.0349 51.1809C43.6549 53.5033 45.4796 55.7284 46.8565 56.6878C46.8601 56.6904 46.8641 56.6936 46.8677 56.6962C48.2442 57.6538 57.4094 60.7457 61.9566 60.66C66.5089 60.5713 73.9852 57.7835 73.1642 55.5497C72.3468 53.3151 64.9217 57.5212 57.1773 56.8034C51.4418 56.2704 50.4293 53.7009 51.6994 51.8242C53.2967 49.4654 56.2062 52.2718 61.0052 50.8357C65.8114 49.4037 72.5328 46.8404 75.0267 45.4446C80.7931 42.23 72.6138 40.8967 70.6819 41.7886C68.8506 42.6347 62.4765 44.2433 59.5215 44.9564C59.366 44.9938 59.2175 45.0294 59.0823 45.0617C56.3817 45.7084 55.3714 45.6622 52.1298 45.8668Z" fill="#FDD209"/>
<path d="M44.9064 75.1731C44.9064 74.8385 45.1756 74.5424 45.6028 74.29C45.6148 74.0869 45.7253 73.898 45.9105 73.7247C42.8688 72.2123 36.616 69.329 36.4819 71.1091C36.2981 73.4671 36.4819 83.0759 37.7498 83.8028C38.5614 84.2657 42.5574 82.2117 45.3362 80.6688C44.5344 79.9855 44.9064 78.3267 44.9064 75.1731Z" fill="#65BC46"/>
<path d="M52.7566 79.066C52.7697 79.0711 52.7838 79.0765 52.7969 79.0816C55.2868 80.0425 60.2435 81.8513 61.3199 81.4564C62.7712 80.9017 62.4079 69.3035 60.7789 68.9341C59.474 68.6445 54.4785 72.1644 52.5132 73.5983C52.8608 75.0663 53.2815 77.974 52.7566 79.066Z" fill="#65BC46"/>
<path d="M46.6858 80.1286C45.0529 79.7668 45.5985 78.1331 45.5985 74.3266C45.5985 74.3143 45.6022 74.3023 45.6029 74.2899C45.1757 74.5424 44.9065 74.8385 44.9065 75.1731C44.9065 78.3267 44.5345 79.9854 45.3363 80.6688C45.5019 80.8101 45.7141 80.9129 45.9942 80.975C47.6217 81.3398 50.7041 80.975 51.7954 80.251C51.9781 80.1297 52.1035 79.8884 52.1856 79.5702C50.9083 80.182 48.1807 80.4686 46.6858 80.1286Z" fill="#43A244"/>
<path d="M45.9104 73.7247C45.7251 73.898 45.6146 74.0869 45.6027 74.29C45.6019 74.3023 45.5983 74.3143 45.5983 74.3267C45.5983 78.1331 45.0527 79.7668 46.6856 80.1286C48.1805 80.4687 50.908 80.182 52.1853 79.5703C52.2961 79.5172 52.4 79.4627 52.4872 79.4046C52.5965 79.3316 52.6848 79.215 52.7564 79.066C53.2813 77.974 52.8607 75.0663 52.513 73.5983C52.4363 73.2753 52.3637 73.021 52.3052 72.8721C52.1552 72.5008 50.9996 72.4053 49.6885 72.5335C48.2303 72.6763 46.5828 73.0966 45.9104 73.7247Z" fill="#65BC46"/>
<defs>
<linearGradient id="paint0_linear_103_16" x1="34.0057" y1="34.5132" x2="29.3115" y2="34.5132" gradientUnits="userSpaceOnUse">
<stop stop-color="#394A9F"/>
<stop offset="1" stop-color="#6176B9"/>
</linearGradient>
<linearGradient id="paint1_linear_103_16" x1="54.3861" y1="31.5041" x2="50.1099" y2="31.5041" gradientUnits="userSpaceOnUse">
<stop stop-color="#394A9F"/>
<stop offset="1" stop-color="#6176B9"/>
</linearGradient>
</defs>
</svg>
