<svg width="94" height="93" viewBox="0 0 94 93" fill="none" xmlns="http://www.w3.org/2000/svg">
<path d="M84.0096 69.2118C82.7687 69.8602 81.4889 70.4316 80.1776 70.9227C76.0037 72.483 71.5821 73.278 67.1255 73.2692C49.9215 73.2692 34.9352 61.4457 34.9352 46.2732C34.9572 44.2382 35.5224 42.2459 36.5725 40.5021C37.6226 38.7582 39.1194 37.3259 40.9086 36.3531C25.3479 37.0069 21.3486 53.2074 21.3486 62.6989C21.3486 89.5351 46.104 92.2558 51.4375 92.2558C54.3134 92.2558 58.6507 91.4203 61.2539 90.5994L61.7302 90.4396C71.7474 86.9797 80.2871 80.2155 85.9438 71.2605C86.1171 70.9878 86.1944 70.6651 86.1636 70.3436C86.1329 70.022 85.9957 69.7199 85.7739 69.4849C85.552 69.2499 85.2581 69.0955 84.9386 69.046C84.6191 68.9966 84.2922 69.0549 84.0096 69.2118Z" fill="url(#paint0_linear_101_140)"/>
<path opacity="0.35" d="M84.0096 69.2118C82.7687 69.8602 81.4889 70.4316 80.1776 70.9227C76.0037 72.483 71.5821 73.278 67.1255 73.2692C49.9215 73.2692 34.9352 61.4457 34.9352 46.2732C34.9572 44.2382 35.5224 42.2459 36.5725 40.5021C37.6226 38.7582 39.1194 37.3259 40.9086 36.3531C25.3479 37.0069 21.3486 53.2074 21.3486 62.6989C21.3486 89.5351 46.104 92.2558 51.4375 92.2558C54.3134 92.2558 58.6507 91.4203 61.2539 90.5994L61.7302 90.4396C71.7474 86.9797 80.2871 80.2155 85.9438 71.2605C86.1171 70.9878 86.1944 70.6651 86.1636 70.3436C86.1329 70.022 85.9957 69.7199 85.7739 69.4849C85.552 69.2499 85.2581 69.0955 84.9386 69.046C84.6191 68.9966 84.2922 69.0549 84.0096 69.2118Z" fill="url(#paint1_radial_101_140)"/>
<path d="M38.4403 87.6935C35.1975 85.6826 32.3872 83.0477 30.1728 79.9419C27.6488 76.4871 25.912 72.5224 25.0841 68.3259C24.2562 64.1294 24.3573 59.8027 25.3803 55.6494C26.4033 51.4961 28.3234 47.6167 31.0059 44.2833C33.6885 40.9499 37.0685 38.2432 40.9089 36.3531C42.0433 35.8191 43.9811 34.8529 46.5588 34.9001C48.3749 34.9133 50.1632 35.3465 51.7836 36.1658C53.4041 36.9851 54.8126 38.1681 55.8989 39.6222C57.367 41.5808 58.1765 43.9536 58.2112 46.4003C58.2112 46.324 67.104 17.4864 29.1257 17.4864C13.165 17.4864 0.0402279 32.619 0.0402279 45.8954C-0.0227278 52.9185 1.48132 59.8673 4.44304 66.2369C9.28333 76.555 17.7477 84.7379 28.2287 89.2318C38.7098 93.7256 50.4777 94.2175 61.2979 90.6139C57.5093 91.8073 53.5067 92.1656 49.5662 91.6639C45.6257 91.1622 41.8409 89.8125 38.473 87.708L38.4403 87.6935Z" fill="url(#paint2_linear_101_140)"/>
<path opacity="0.41" d="M38.4403 87.6935C35.1975 85.6826 32.3872 83.0477 30.1728 79.9419C27.6488 76.4871 25.912 72.5224 25.0841 68.3259C24.2562 64.1294 24.3573 59.8027 25.3803 55.6494C26.4033 51.4961 28.3234 47.6167 31.0059 44.2833C33.6885 40.9499 37.0685 38.2432 40.9089 36.3531C42.0433 35.8191 43.9811 34.8529 46.5588 34.9001C48.3749 34.9133 50.1632 35.3465 51.7836 36.1658C53.4041 36.9851 54.8126 38.1681 55.8989 39.6222C57.367 41.5808 58.1765 43.9536 58.2112 46.4003C58.2112 46.324 67.104 17.4864 29.1257 17.4864C13.165 17.4864 0.0402279 32.619 0.0402279 45.8954C-0.0227278 52.9185 1.48132 59.8673 4.44304 66.2369C9.28333 76.555 17.7477 84.7379 28.2287 89.2318C38.7098 93.7256 50.4777 94.2175 61.2979 90.6139C57.5093 91.8073 53.5067 92.1656 49.5662 91.6639C45.6257 91.1622 41.8409 89.8125 38.473 87.708L38.4403 87.6935Z" fill="url(#paint3_radial_101_140)"/>
<path d="M55.3824 54.0719C55.0879 54.4533 54.1826 54.98 54.1826 56.1279C54.1826 57.0759 54.8007 57.9877 55.8986 58.7541C61.1268 62.3865 70.9831 61.907 71.0085 61.907C74.8825 61.8977 78.6829 60.8503 82.0138 58.874C85.3739 56.9138 88.1626 54.1099 90.1033 50.7405C92.044 47.3711 93.0692 43.5533 93.0771 39.6658C93.1717 31.5256 90.1686 26.1133 88.9543 23.716C81.2503 8.65965 64.6206 2.27622e-07 46.5368 2.27622e-07C34.307 -0.00120798 22.5683 4.80748 13.8595 13.386C5.15077 21.9646 0.171981 33.6234 0 45.8409C0.174513 32.5681 13.3793 21.8489 29.0855 21.8489C30.358 21.8489 37.6148 21.9724 44.3553 25.5067C50.296 28.6233 53.4082 32.3865 55.5714 36.117C57.8183 39.9928 58.2182 44.8892 58.2182 46.8398C58.2182 48.7904 57.222 51.6818 55.3824 54.0719Z" fill="url(#paint4_radial_101_140)"/>
<path d="M55.3824 54.0719C55.0879 54.4533 54.1826 54.98 54.1826 56.1279C54.1826 57.0759 54.8007 57.9877 55.8986 58.7541C61.1268 62.3865 70.9831 61.907 71.0085 61.907C74.8825 61.8977 78.6829 60.8503 82.0138 58.874C85.3739 56.9138 88.1626 54.1099 90.1033 50.7405C92.044 47.3711 93.0692 43.5533 93.0771 39.6658C93.1717 31.5256 90.1686 26.1133 88.9543 23.716C81.2503 8.65965 64.6206 2.27622e-07 46.5368 2.27622e-07C34.307 -0.00120798 22.5683 4.80748 13.8595 13.386C5.15077 21.9646 0.171981 33.6234 0 45.8409C0.174513 32.5681 13.3793 21.8489 29.0855 21.8489C30.358 21.8489 37.6148 21.9724 44.3553 25.5067C50.296 28.6233 53.4082 32.3865 55.5714 36.117C57.8183 39.9928 58.2182 44.8892 58.2182 46.8398C58.2182 48.7904 57.222 51.6818 55.3824 54.0719Z" fill="url(#paint5_radial_101_140)"/>
<defs>
<linearGradient id="paint0_linear_101_140" x1="21.3486" y1="64.3117" x2="86.1874" y2="64.3117" gradientUnits="userSpaceOnUse">
<stop stop-color="#0C59A4"/>
<stop offset="1" stop-color="#114A8B"/>
</linearGradient>
<radialGradient id="paint1_radial_101_140" cx="0" cy="0" r="1" gradientUnits="userSpaceOnUse" gradientTransform="translate(57.1601 64.8222) scale(34.6771 32.9136)">
<stop offset="0.72" stop-opacity="0"/>
<stop offset="0.95" stop-opacity="0.53"/>
<stop offset="1"/>
</radialGradient>
<linearGradient id="paint2_linear_101_140" x1="55.5317" y1="36.2114" x2="15.0735" y2="80.3198" gradientUnits="userSpaceOnUse">
<stop stop-color="#1B9DE2"/>
<stop offset="0.16" stop-color="#1595DF"/>
<stop offset="0.67" stop-color="#0680D7"/>
<stop offset="1" stop-color="#0078D4"/>
</linearGradient>
<radialGradient id="paint3_radial_101_140" cx="0" cy="0" r="1" gradientTransform="matrix(7.81163 -51.5102 -41.662 -6.24366 25.6662 72.2878)" gradientUnits="userSpaceOnUse">
<stop offset="0.76" stop-opacity="0"/>
<stop offset="0.95" stop-opacity="0.5"/>
<stop offset="1"/>
</radialGradient>
<radialGradient id="paint4_radial_101_140" cx="0" cy="0" r="1" gradientTransform="matrix(-2.94389 73.5307 156.762 5.88246 9.40278 17.2092)" gradientUnits="userSpaceOnUse">
<stop stop-color="#35C1F1"/>
<stop offset="0.11" stop-color="#34C1ED"/>
<stop offset="0.23" stop-color="#2FC2DF"/>
<stop offset="0.31" stop-color="#2BC3D2"/>
<stop offset="0.67" stop-color="#36C752"/>
</radialGradient>
<radialGradient id="paint5_radial_101_140" cx="0" cy="0" r="1" gradientTransform="matrix(9.90913 33.9435 27.604 -8.1323 87.2827 28.117)" gradientUnits="userSpaceOnUse">
<stop stop-color="#66EB6E"/>
<stop offset="1" stop-color="#66EB6E" stop-opacity="0"/>
</radialGradient>
</defs>
</svg>
