<svg width="91" height="93" viewBox="0 0 91 93" fill="none" xmlns="http://www.w3.org/2000/svg">
<path d="M86.7768 31.1991C84.8184 26.4867 80.8456 21.3987 77.7347 19.7903C79.9536 24.0877 81.4934 28.7028 82.2994 33.4716L82.3075 33.5472C77.2113 20.8416 68.5692 15.7187 61.5111 4.56343C61.1541 3.99938 60.797 3.43418 60.4493 2.83757C60.2504 2.49682 60.0911 2.18979 59.9527 1.90719C59.66 1.3403 59.4344 0.741189 59.2805 0.122013C59.2807 0.0934415 59.2704 0.0657935 59.2515 0.0443437C59.2327 0.0228939 59.2065 0.00914343 59.1782 0.00571546C59.1504 -0.00190515 59.1211 -0.00190515 59.0933 0.00571546C59.0875 0.00571546 59.0782 0.0161823 59.0712 0.0185082C59.0642 0.0208342 59.0491 0.031301 59.0386 0.0359529L59.0561 0.00571546C47.7345 6.6347 43.8931 18.9064 43.5396 25.0447C39.0183 25.3554 34.6956 27.0215 31.1353 29.8257C30.7638 29.511 30.3756 29.2167 29.9723 28.9441C28.9453 25.3493 28.9015 21.5447 29.8455 17.9272C25.6878 19.9414 21.9934 22.7967 18.9961 26.3123H18.9752C17.1888 24.048 17.3144 16.5817 17.4168 15.0221C16.8883 15.2345 16.3839 15.5023 15.9119 15.8211C14.3349 16.9466 12.8607 18.2094 11.5065 19.5949C9.96336 21.1595 8.55394 22.8506 7.29304 24.6504V24.6574V24.6492C4.39518 28.7575 2.33979 33.3991 1.24555 38.3061L1.18508 38.6038C1.10018 39.0004 0.794315 40.9868 0.74198 41.4182C0.74198 41.452 0.735003 41.4834 0.731514 41.5171C0.336959 43.5678 0.0924727 45.6446 0 47.7309L0 47.9635C0.00988197 59.2494 4.25304 70.1209 11.8909 78.4296C19.5287 86.7383 30.0055 91.8796 41.2507 92.8373C52.4959 93.795 63.6912 90.4995 72.6241 83.6021C81.5571 76.7048 87.5776 66.7073 89.4959 55.5856C89.5715 55.0042 89.6331 54.4285 89.7005 53.8412C90.6289 46.1681 89.6239 38.3847 86.7768 31.1991ZM34.8266 66.4816C35.0371 66.5828 35.2348 66.6921 35.4511 66.7886L35.4825 66.8084C35.2638 66.7037 35.0452 66.5948 34.8266 66.4816ZM82.311 33.5577V33.5146L82.3191 33.5623L82.311 33.5577Z" fill="url(#paint0_linear_101_132)"/>
<path d="M86.7768 31.1992C84.8184 26.4868 80.8456 21.3987 77.7347 19.7903C79.9536 24.0877 81.4934 28.7028 82.2994 33.4716V33.5147L82.3075 33.5623C85.7816 43.504 85.2791 54.4037 80.9049 63.9835C75.739 75.0679 63.2346 86.429 43.6617 85.8766C22.5129 85.2777 3.88784 69.5844 0.40588 49.03C-0.227944 45.7887 0.40588 44.1454 0.724536 41.5113C0.289846 43.5574 0.0472802 45.6397 0 47.7309L0 47.9635C0.00988197 59.2494 4.25304 70.121 11.8909 78.4297C19.5287 86.7384 30.0055 91.8796 41.2507 92.8373C52.4959 93.7951 63.6912 90.4996 72.6241 83.6022C81.5571 76.7048 87.5776 66.7073 89.4959 55.5857C89.5715 55.0042 89.6331 54.4285 89.7005 53.8412C90.6289 46.1681 89.6239 38.3847 86.7768 31.1992Z" fill="url(#paint1_radial_101_132)"/>
<path d="M86.7768 31.1992C84.8184 26.4868 80.8456 21.3987 77.7347 19.7903C79.9536 24.0877 81.4934 28.7028 82.2994 33.4716V33.5147L82.3075 33.5623C85.7816 43.504 85.2791 54.4037 80.9049 63.9835C75.739 75.0679 63.2346 86.429 43.6617 85.8766C22.5129 85.2777 3.88784 69.5844 0.40588 49.03C-0.227944 45.7887 0.40588 44.1454 0.724536 41.5113C0.289846 43.5574 0.0472802 45.6397 0 47.7309L0 47.9635C0.00988197 59.2494 4.25304 70.121 11.8909 78.4297C19.5287 86.7384 30.0055 91.8796 41.2507 92.8373C52.4959 93.7951 63.6912 90.4996 72.6241 83.6022C81.5571 76.7048 87.5776 66.7073 89.4959 55.5857C89.5715 55.0042 89.6331 54.4285 89.7005 53.8412C90.6289 46.1681 89.6239 38.3847 86.7768 31.1992Z" fill="url(#paint2_radial_101_132)"/>
<path d="M64.8732 36.4977C64.9709 36.5663 65.0616 36.6349 65.1535 36.7035C64.0213 34.6959 62.6119 32.8577 60.9668 31.2433C46.9575 17.2318 57.2953 0.862853 59.0386 0.0313228L59.056 0.0057373C47.7344 6.63472 43.8931 18.9065 43.5396 25.0447C44.0652 25.0086 44.5862 24.9644 45.1235 24.9644C49.1407 24.9718 53.0842 26.0428 56.5532 28.0686C60.0222 30.0944 62.8928 33.0026 64.8732 36.4977Z" fill="url(#paint3_radial_101_132)"/>
<path d="M45.1529 39.2958C45.0784 40.4169 41.1173 44.2838 39.7322 44.2838C26.915 44.2838 24.8345 52.0374 24.8345 52.0374C25.402 58.5664 29.9516 63.944 35.4513 66.7886C35.7025 66.9189 35.9572 67.0363 36.2119 67.1515C36.6531 67.3469 37.0942 67.5275 37.5354 67.6934C39.4228 68.3614 41.3998 68.7429 43.4003 68.825C65.8655 69.8787 70.2174 41.9602 54.0055 33.8589C57.83 33.3612 61.703 34.3016 64.8735 36.4977C62.8931 33.0026 60.0224 30.0944 56.5535 28.0686C53.0845 26.0428 49.1409 24.9718 45.1238 24.9644C44.5888 24.9644 44.0655 25.0086 43.5398 25.0447C39.0185 25.3555 34.6958 27.0216 31.1355 29.8257C31.8228 30.4072 32.5985 31.184 34.2325 32.7948C37.2911 35.808 45.1354 38.9295 45.1529 39.2958Z" fill="url(#paint4_radial_101_132)"/>
<path d="M45.1529 39.2958C45.0784 40.4169 41.1173 44.2838 39.7322 44.2838C26.915 44.2838 24.8345 52.0374 24.8345 52.0374C25.402 58.5664 29.9516 63.944 35.4513 66.7886C35.7025 66.9189 35.9572 67.0363 36.2119 67.1515C36.6531 67.3469 37.0942 67.5275 37.5354 67.6934C39.4228 68.3614 41.3998 68.7429 43.4003 68.825C65.8655 69.8787 70.2174 41.9602 54.0055 33.8589C57.83 33.3612 61.703 34.3016 64.8735 36.4977C62.8931 33.0026 60.0224 30.0944 56.5535 28.0686C53.0845 26.0428 49.1409 24.9718 45.1238 24.9644C44.5888 24.9644 44.0655 25.0086 43.5398 25.0447C39.0185 25.3555 34.6958 27.0216 31.1355 29.8257C31.8228 30.4072 32.5985 31.184 34.2325 32.7948C37.2911 35.808 45.1354 38.9295 45.1529 39.2958Z" fill="url(#paint5_radial_101_132)"/>
<path d="M29.0338 28.3266C29.399 28.5592 29.7002 28.7616 29.9642 28.9441C28.9372 25.3493 28.8934 21.5448 29.8375 17.9272C25.6797 19.9414 21.9853 22.7967 18.988 26.3123C19.2078 26.3065 25.7461 26.189 29.0338 28.3266Z" fill="url(#paint6_radial_101_132)"/>
<path d="M0.411776 49.03C3.89025 69.5844 22.5188 85.2777 43.6676 85.8766C63.2405 86.4302 75.7449 75.0679 80.9108 63.9835C85.285 54.4037 85.7875 43.504 82.3134 33.5623V33.5193C82.3134 33.4856 82.3064 33.4658 82.3134 33.4763L82.3215 33.5519C83.9206 43.9919 78.6105 54.1063 70.3091 60.9458L70.2835 61.004C54.1088 74.177 38.6296 68.9518 35.4965 66.8189C35.2779 66.7142 35.0592 66.6053 34.8406 66.4921C25.41 61.9844 21.514 53.3923 22.349 46.0237C20.1104 46.0567 17.9103 45.4398 16.0152 44.2477C14.12 43.0557 12.6113 41.3396 11.6717 39.3074C14.1473 37.7909 16.9699 36.9335 19.8708 36.817C22.7716 36.7006 25.6539 37.3289 28.243 38.6422C33.5809 41.0655 39.6551 41.3042 45.1667 39.3074C45.1493 38.9411 37.305 35.8185 34.2463 32.8064C32.6123 31.1957 31.8366 30.42 31.1493 29.8373C30.7779 29.5227 30.3896 29.2284 29.9863 28.9558C29.7188 28.7732 29.4176 28.5755 29.0559 28.3382C25.7682 26.2007 19.2299 26.3181 19.0136 26.324H18.9927C17.2064 24.0596 17.332 16.5933 17.4343 15.0338C16.9058 15.2461 16.4014 15.514 15.9294 15.8327C14.3525 16.9582 12.8782 18.2211 11.524 19.6066C9.97536 21.1668 8.5601 22.8539 7.29312 24.6504V24.6574V24.6493C4.39526 28.7576 2.33988 33.3992 1.24563 38.3061C1.22353 38.398 -0.377887 45.3991 0.411776 49.03Z" fill="url(#paint7_radial_101_132)"/>
<path d="M60.9694 31.2433C62.6149 32.8595 64.0243 34.6996 65.1561 36.7093C65.4038 36.8966 65.6353 37.0826 65.8318 37.2629C76.0509 46.683 70.6965 59.9991 70.2976 60.947C78.599 54.1075 83.9045 43.9931 82.31 33.553C77.2115 20.8416 68.5694 15.7187 61.5113 4.56343C61.1543 3.99938 60.7973 3.43418 60.4495 2.83757C60.2507 2.49682 60.0913 2.18979 59.9529 1.90719C59.6602 1.3403 59.4346 0.741188 59.2807 0.122013C59.2809 0.0934415 59.2706 0.0657935 59.2517 0.0443437C59.2329 0.0228939 59.2068 0.00914343 59.1784 0.00571546C59.1506 -0.00190515 59.1213 -0.00190515 59.0935 0.00571546C59.0877 0.00571546 59.0784 0.0161823 59.0714 0.0185082C59.0644 0.0208342 59.0493 0.031301 59.0388 0.0359529C57.2955 0.862831 46.9578 17.2318 60.9694 31.2433Z" fill="url(#paint8_radial_101_132)"/>
<path d="M65.8247 37.2571C65.6282 37.0768 65.3967 36.8908 65.149 36.7035C65.0571 36.6349 64.9664 36.5663 64.8687 36.4977C61.6983 34.3016 57.8252 33.3612 54.0007 33.8589C70.2126 41.9648 65.8631 69.8787 43.3955 68.825C41.395 68.7428 39.4181 68.3614 37.5306 67.6934C37.0894 67.5283 36.6483 67.3476 36.2071 67.1515C35.9524 67.0352 35.6977 66.9189 35.4465 66.7886L35.4779 66.8084C38.611 68.9471 54.0856 74.1724 70.265 60.9935L70.2905 60.9353C70.6941 59.9933 76.0484 46.6737 65.8247 37.2571Z" fill="url(#paint9_radial_101_132)"/>
<path d="M24.8343 52.0374C24.8343 52.0374 26.9148 44.2839 39.732 44.2839C41.1171 44.2839 45.0817 40.417 45.1527 39.2958C39.641 41.2926 33.5669 41.0539 28.229 38.6306C25.6399 37.3173 22.7576 36.689 19.8567 36.8054C16.9559 36.9219 14.1332 37.7793 11.6577 39.2958C12.5973 41.328 14.106 43.0441 16.0011 44.2361C17.8963 45.4282 20.0964 46.0451 22.335 46.012C21.5 53.3818 25.396 61.9739 34.8266 66.4805C35.0371 66.5817 35.2348 66.691 35.4511 66.7875C29.9467 63.944 25.4018 58.5664 24.8343 52.0374Z" fill="url(#paint10_radial_101_132)"/>
<path d="M86.7768 31.1991C84.8184 26.4867 80.8456 21.3987 77.7347 19.7903C79.9536 24.0877 81.4934 28.7028 82.2994 33.4716L82.3075 33.5472C77.2113 20.8416 68.5692 15.7187 61.5111 4.56343C61.1541 3.99938 60.797 3.43418 60.4493 2.83757C60.2504 2.49682 60.0911 2.18979 59.9527 1.90719C59.66 1.3403 59.4344 0.741189 59.2805 0.122013C59.2807 0.0934415 59.2704 0.0657935 59.2515 0.0443437C59.2327 0.0228939 59.2065 0.00914343 59.1782 0.00571546C59.1504 -0.00190515 59.1211 -0.00190515 59.0933 0.00571546C59.0875 0.00571546 59.0782 0.0161823 59.0712 0.0185082C59.0642 0.0208342 59.0491 0.031301 59.0386 0.0359529L59.0561 0.00571546C47.7345 6.6347 43.8931 18.9064 43.5396 25.0447C44.0653 25.0086 44.5863 24.9644 45.1236 24.9644C49.1407 24.9718 53.0843 26.0428 56.5532 28.0686C60.0222 30.0943 62.8929 33.0026 64.8733 36.4977C61.7028 34.3016 57.8298 33.3612 54.0052 33.8589C70.2172 41.9648 65.8676 69.8787 43.4 68.825C41.3995 68.7428 39.4226 68.3614 37.5351 67.6934C37.094 67.5283 36.6528 67.3476 36.2117 67.1515C35.957 67.0352 35.7023 66.9189 35.4511 66.7886L35.4825 66.8084C35.2638 66.7037 35.0452 66.5948 34.8266 66.4816C35.0371 66.5828 35.2348 66.6921 35.4511 66.7886C29.9467 63.944 25.4018 58.5664 24.8342 52.0374C24.8342 52.0374 26.9148 44.2838 39.732 44.2838C41.1171 44.2838 45.0817 40.4169 45.1527 39.2958C45.1352 38.9295 37.2909 35.8069 34.2323 32.7947C32.5983 31.184 31.8226 30.4083 31.1353 29.8257C30.7638 29.511 30.3756 29.2167 29.9723 28.9441C28.9453 25.3493 28.9015 21.5447 29.8455 17.9272C25.6878 19.9414 21.9934 22.7967 18.9961 26.3123H18.9752C17.1888 24.048 17.3144 16.5817 17.4168 15.0221C16.8883 15.2345 16.3839 15.5023 15.9119 15.8211C14.3349 16.9466 12.8607 18.2094 11.5065 19.5949C9.96336 21.1595 8.55394 22.8506 7.29304 24.6504V24.6574V24.6492C4.39518 28.7575 2.33979 33.3991 1.24555 38.3061L1.18508 38.6038C1.10018 39.0004 0.719884 41.0147 0.665224 41.4473C0.665224 41.4136 0.665224 41.4799 0.665224 41.4473C0.317389 43.5266 0.0952446 45.6249 0 47.7309L0 47.9635C0.00988197 59.2494 4.25304 70.1209 11.8909 78.4296C19.5287 86.7383 30.0055 91.8796 41.2507 92.8373C52.4959 93.795 63.6912 90.4995 72.6241 83.6021C81.5571 76.7048 87.5776 66.7073 89.4959 55.5856C89.5715 55.0042 89.6331 54.4285 89.7005 53.8412C90.6289 46.1681 89.6239 38.3847 86.7768 31.1991ZM82.3052 33.5146L82.3133 33.5623L82.3052 33.5146Z" fill="url(#paint11_linear_101_132)"/>
<defs>
<linearGradient id="paint0_linear_101_132" x1="80.8107" y1="14.408" x2="5.98584" y2="86.6" gradientUnits="userSpaceOnUse">
<stop offset="0.048" stop-color="#FFF44F"/>
<stop offset="0.111" stop-color="#FFE847"/>
<stop offset="0.225" stop-color="#FFC830"/>
<stop offset="0.368" stop-color="#FF980E"/>
<stop offset="0.401" stop-color="#FF8B16"/>
<stop offset="0.462" stop-color="#FF672A"/>
<stop offset="0.534" stop-color="#FF3647"/>
<stop offset="0.705" stop-color="#E31587"/>
</linearGradient>
<radialGradient id="paint1_radial_101_132" cx="0" cy="0" r="1" gradientUnits="userSpaceOnUse" gradientTransform="translate(77.3532 10.3211) scale(93.9652 93.9652)">
<stop offset="0.129" stop-color="#FFBD4F"/>
<stop offset="0.186" stop-color="#FFAC31"/>
<stop offset="0.247" stop-color="#FF9D17"/>
<stop offset="0.283" stop-color="#FF980E"/>
<stop offset="0.403" stop-color="#FF563B"/>
<stop offset="0.467" stop-color="#FF3750"/>
<stop offset="0.71" stop-color="#F5156C"/>
<stop offset="0.782" stop-color="#EB0878"/>
<stop offset="0.86" stop-color="#E50080"/>
</radialGradient>
<radialGradient id="paint2_radial_101_132" cx="0" cy="0" r="1" gradientUnits="userSpaceOnUse" gradientTransform="translate(43.0175 48.7369) scale(93.9652 93.9652)">
<stop offset="0.3" stop-color="#960E18"/>
<stop offset="0.351" stop-color="#B11927" stop-opacity="0.74"/>
<stop offset="0.435" stop-color="#DB293D" stop-opacity="0.343"/>
<stop offset="0.497" stop-color="#F5334B" stop-opacity="0.094"/>
<stop offset="0.53" stop-color="#FF3750" stop-opacity="0"/>
</radialGradient>
<radialGradient id="paint3_radial_101_132" cx="0" cy="0" r="1" gradientUnits="userSpaceOnUse" gradientTransform="translate(54.3457 -11.0031) scale(68.0738 68.0738)">
<stop offset="0.132" stop-color="#FFF44F"/>
<stop offset="0.252" stop-color="#FFDC3E"/>
<stop offset="0.506" stop-color="#FF9D12"/>
<stop offset="0.526" stop-color="#FF980E"/>
</radialGradient>
<radialGradient id="paint4_radial_101_132" cx="0" cy="0" r="1" gradientUnits="userSpaceOnUse" gradientTransform="translate(32.6242 73.281) scale(44.741 44.741)">
<stop offset="0.353" stop-color="#3A8EE6"/>
<stop offset="0.472" stop-color="#5C79F0"/>
<stop offset="0.669" stop-color="#9059FF"/>
<stop offset="1" stop-color="#C139E6"/>
</radialGradient>
<radialGradient id="paint5_radial_101_132" cx="0" cy="0" r="1" gradientTransform="matrix(23.0571 -5.5745 6.52335 26.9948 48.1524 41.0361)" gradientUnits="userSpaceOnUse">
<stop offset="0.206" stop-color="#9059FF" stop-opacity="0"/>
<stop offset="0.278" stop-color="#8C4FF3" stop-opacity="0.064"/>
<stop offset="0.747" stop-color="#7716A8" stop-opacity="0.45"/>
<stop offset="0.975" stop-color="#6E008B" stop-opacity="0.6"/>
</radialGradient>
<radialGradient id="paint6_radial_101_132" cx="0" cy="0" r="1" gradientUnits="userSpaceOnUse" gradientTransform="translate(41.8313 6.47667) scale(32.1866 32.1866)">
<stop stop-color="#FFE226"/>
<stop offset="0.121" stop-color="#FFDB27"/>
<stop offset="0.295" stop-color="#FFC82A"/>
<stop offset="0.502" stop-color="#FFA930"/>
<stop offset="0.732" stop-color="#FF7E37"/>
<stop offset="0.792" stop-color="#FF7139"/>
</radialGradient>
<radialGradient id="paint7_radial_101_132" cx="0" cy="0" r="1" gradientUnits="userSpaceOnUse" gradientTransform="translate(67.1306 -13.939) scale(137.326 137.326)">
<stop offset="0.113" stop-color="#FFF44F"/>
<stop offset="0.456" stop-color="#FF980E"/>
<stop offset="0.622" stop-color="#FF5634"/>
<stop offset="0.716" stop-color="#FF3647"/>
<stop offset="0.904" stop-color="#E31587"/>
</radialGradient>
<radialGradient id="paint8_radial_101_132" cx="0" cy="0" r="1" gradientTransform="matrix(10.5626 100.094 -65.6895 6.94116 55.5567 -6.30295)" gradientUnits="userSpaceOnUse">
<stop stop-color="#FFF44F"/>
<stop offset="0.06" stop-color="#FFE847"/>
<stop offset="0.168" stop-color="#FFC830"/>
<stop offset="0.304" stop-color="#FF980E"/>
<stop offset="0.356" stop-color="#FF8B16"/>
<stop offset="0.455" stop-color="#FF672A"/>
<stop offset="0.57" stop-color="#FF3647"/>
<stop offset="0.737" stop-color="#E31587"/>
</radialGradient>
<radialGradient id="paint9_radial_101_132" cx="0" cy="0" r="1" gradientUnits="userSpaceOnUse" gradientTransform="translate(41.0733 18.3983) scale(85.7348 85.7348)">
<stop offset="0.137" stop-color="#FFF44F"/>
<stop offset="0.48" stop-color="#FF980E"/>
<stop offset="0.592" stop-color="#FF5634"/>
<stop offset="0.655" stop-color="#FF3647"/>
<stop offset="0.904" stop-color="#E31587"/>
</radialGradient>
<radialGradient id="paint10_radial_101_132" cx="0" cy="0" r="1" gradientUnits="userSpaceOnUse" gradientTransform="translate(63.7046 23.4161) scale(93.8361 93.8361)">
<stop offset="0.094" stop-color="#FFF44F"/>
<stop offset="0.231" stop-color="#FFE141"/>
<stop offset="0.509" stop-color="#FFAF1E"/>
<stop offset="0.626" stop-color="#FF980E"/>
</radialGradient>
<linearGradient id="paint11_linear_101_132" x1="79.9118" y1="14.0219" x2="16.2433" y2="77.6892" gradientUnits="userSpaceOnUse">
<stop offset="0.167" stop-color="#FFF44F" stop-opacity="0.8"/>
<stop offset="0.266" stop-color="#FFF44F" stop-opacity="0.634"/>
<stop offset="0.489" stop-color="#FFF44F" stop-opacity="0.217"/>
<stop offset="0.6" stop-color="#FFF44F" stop-opacity="0"/>
</linearGradient>
</defs>
</svg>
