<svg width="93" height="93" viewBox="0 0 93 93" fill="none" xmlns="http://www.w3.org/2000/svg">
<path d="M46.2158 0.00823508C46.2158 0.00823508 73.5269 -1.21736 88.0066 26.2344H43.8919C43.8919 26.2344 35.5666 25.9661 28.4549 36.0659C26.4121 40.3051 24.2161 44.6719 26.6804 53.2779C23.1305 47.2638 7.83423 20.6293 7.83423 20.6293C7.83423 20.6293 18.6234 1.0935 46.2155 0.00823508H46.2158Z" fill="#EF3F36"/>
<path d="M86.5891 69.6978C86.5891 69.6978 73.9866 93.9703 42.9854 92.7701C46.8159 86.1432 65.0489 54.5673 65.0489 54.5673C65.0489 54.5673 69.4541 47.4937 64.2573 36.2831C61.6139 32.3888 58.9198 28.3157 50.2377 26.1448C57.2221 26.0814 87.93 26.1448 87.93 26.1448C87.93 26.1448 99.4339 45.2593 86.5891 69.6978Z" fill="#FCD900"/>
<path d="M6.03392 69.8893C6.03392 69.8893 -8.68801 46.8424 7.85961 20.5909C11.6774 27.2178 29.9104 58.7937 29.9104 58.7937C29.9104 58.7937 33.8432 66.1483 46.139 67.2459C50.8252 66.9015 55.7025 66.6078 61.9338 60.1854C58.4986 66.2633 43.087 92.8212 43.087 92.8212C43.087 92.8212 20.7682 93.2299 6.03356 69.8893H6.03392Z" fill="#61BC5B"/>
<path d="M42.9727 93L49.1778 67.106C49.1778 67.106 55.9962 66.5693 61.7166 60.3004C58.1667 66.5443 42.9727 93 42.9727 93Z" fill="#5AB055"/>
<path d="M25.429 46.7913C25.429 35.3766 34.6861 26.1194 46.1008 26.1194C57.5155 26.1194 66.7726 35.3766 66.7726 46.7913C66.7726 58.2063 57.5155 67.4631 46.1008 67.4631C34.6861 67.4504 25.429 58.2063 25.429 46.7913Z" fill="white"/>
<path d="M28.8889 46.7913C28.8889 37.2919 36.5884 29.5797 46.1008 29.5797C55.6002 29.5797 63.3124 37.2792 63.3124 46.7913C63.3124 56.291 55.6133 64.0032 46.1008 64.0032C36.6011 64.0032 28.8889 56.291 28.8889 46.7913Z" fill="url(#paint0_linear_101_332)"/>
<path d="M87.917 26.1579L62.3675 33.6528C62.3675 33.6528 58.5116 27.9963 50.2251 26.1579C57.4136 26.1195 87.917 26.1579 87.917 26.1579Z" fill="#EACA05"/>
<path d="M26.1825 52.3329C22.5942 46.1147 7.83423 20.6293 7.83423 20.6293L26.7569 39.3475C26.7569 39.3475 24.8159 43.3441 25.544 49.0641L26.1822 52.3329H26.1825Z" fill="#DF3A32"/>
<defs>
<linearGradient id="paint0_linear_101_332" x1="46.1" y1="29.8227" x2="46.1" y2="62.967" gradientUnits="userSpaceOnUse">
<stop stop-color="#86BBE5"/>
<stop offset="1" stop-color="#1072BA"/>
</linearGradient>
</defs>
</svg>
