<svg width="93" height="93" viewBox="0 0 93 93" fill="none" xmlns="http://www.w3.org/2000/svg">
<path opacity="0.6" d="M0 0H93V93H0V0Z" fill="black"/>
<path d="M0 0H93V93H0V0Z" fill="white"/>
<path d="M2.07934 77.4999C19.8476 68.4267 20.2257 68.4267 42.1525 64.6463C48.5793 60.8658 78.0671 72.2072 91.2989 75.9877V91.1097H1.32324L1.89032 77.4999H2.07934Z" fill="#A6D3FC"/>
<path d="M0 0H93V93H0V0ZM91.1098 75.9878C90.3537 75.9878 87.3293 76.7439 85.061 78.2561C85.061 79.7683 85.061 80.5244 84.3049 81.6585C81.2805 71.0732 71.0732 68.4268 63.5122 73.7195L64.6463 70.3171C49.5244 58.9756 34.4024 65.7805 26.4634 75.6098C26.4634 75.6098 26.0854 73.7195 28.3537 70.3171C23.439 68.0488 14.7439 71.4512 12.4756 74.4756L15.5 77.1219C10.9634 75.2317 5.29268 76.7439 1.89024 77.8781V91.1098H91.1098V76.3659V75.9878ZM31.7561 40.4512H61.622V64.6463L63.8902 66.1585H76.3659V38.561C76.3659 28.3537 66.1585 25.3293 61.2439 25.3293H17.0122V66.1585H31.7561V40.4512ZM54.061 62.378V48.0122H39.3171V62.378C43.0976 61.2439 49.1463 60.8659 54.061 62V62.378Z" fill="#0080F5"/>
</svg>
