<svg width="93" height="93" viewBox="0 0 93 93" fill="none" xmlns="http://www.w3.org/2000/svg">
<path d="M74.6663 77.7695C69.711 81.0214 64.046 82.7448 58.2684 82.7448C48.8106 82.7448 39.8436 78.1431 33.6659 70.1199C33.6439 70.0924 33.6229 70.067 33.6009 70.0395C28.8627 64.4461 26.033 56.2291 25.8379 47.5454L25.8368 45.5079C26.0329 36.7729 28.8626 28.5565 33.6648 22.8835C39.8433 14.8604 48.8116 10.2587 58.2689 10.2587C64.0473 10.2587 69.7133 11.9821 74.6716 15.2361C83.5188 23.2129 88.5932 34.5971 88.5932 46.5024C88.5932 58.4087 83.5179 69.7939 74.6684 77.7704L74.6663 77.7695ZM44.4943 88.545C22.0174 87.4905 4.40884 69.0232 4.40884 46.5018C4.40884 23.2923 23.291 4.40874 46.5422 4.40874C46.5522 4.40874 46.648 4.40985 46.659 4.40985C50.3406 4.42307 53.9703 4.91784 57.4655 5.85998C46.929 6.11122 37.0219 11.3024 30.2381 20.1145C24.8597 26.4628 21.6497 35.6826 21.4315 45.4572V47.5937C21.6497 57.2974 24.8464 66.4998 30.2049 72.8496C37.05 81.7157 46.9471 86.8915 57.4679 87.1427C53.2851 88.2711 48.8466 88.7515 44.4928 88.5444L44.4943 88.545ZM77.4922 11.8381C69.0098 4.248 58.0653 0.0452856 46.6264 0.00220392C46.6121 0.00110199 46.514 0 46.5008 0C20.8606 0 0 20.8609 0 46.5009C0 71.3806 19.4528 91.7833 44.2896 92.9471C45.0224 92.9813 45.7596 93 46.5011 93C57.9478 93 68.9506 88.8005 77.4785 81.173L77.4884 81.1663C87.346 72.3487 93 59.7139 93 46.5001C93 33.288 87.3471 20.6527 77.4918 11.837" fill="#FA1E4E"/>
<path d="M55.8 17.1693C63.9244 22.4926 69.5183 33.6233 69.5183 46.5C69.5183 59.3765 63.9244 70.5089 55.8 75.8308C66.1705 74.9539 74.4 62.1589 74.4 46.5C74.4 30.8408 66.1701 18.0463 55.8 17.1693Z" fill="#FA1E4E"/>
</svg>
