<svg width="94" height="94" viewBox="0 0 94 94" fill="none" xmlns="http://www.w3.org/2000/svg">
<path d="M93.377 46.877C93.377 59.2096 88.4779 71.0371 79.7574 79.7575C71.037 88.478 59.2095 93.3771 46.8769 93.3771C34.5443 93.377 22.7169 88.4779 13.9964 79.7575C5.27602 71.037 0.376953 59.2096 0.376953 46.877C0.376953 34.5445 5.27602 22.7171 13.9964 13.9966C22.7169 5.27617 34.5443 0.377054 46.8769 0.377014C59.2095 0.377014 71.037 5.27609 79.7574 13.9965C88.4779 22.717 93.377 34.5445 93.377 46.877Z" fill="url(#paint0_linear_101_205)" stroke="#CDCDCD" stroke-width="0.753985" stroke-linecap="round" stroke-linejoin="round"/>
<path d="M89.7332 46.877C89.7332 58.2432 85.2179 69.1439 77.1808 77.181C69.1437 85.2181 58.243 89.7334 46.8768 89.7334C35.5106 89.7333 24.6099 85.2181 16.5728 77.181C8.53569 69.1438 4.02051 58.2432 4.02051 46.877C4.02051 35.5108 8.53569 24.6101 16.5728 16.573C24.6099 8.5359 35.5106 4.02067 46.8768 4.02063C58.243 4.02063 69.1437 8.53585 77.1808 16.573C85.2179 24.6101 89.7332 35.5108 89.7332 46.877Z" fill="url(#paint1_radial_101_205)"/>
<path d="M46.8771 6.25568C46.7949 6.25548 46.7136 6.27151 46.6377 6.30285C46.5618 6.33419 46.4928 6.38021 46.4347 6.43828C46.3767 6.49635 46.3306 6.56532 46.2993 6.64123C46.268 6.71715 46.2519 6.7985 46.2521 6.88062V14.0877C46.2519 14.1698 46.268 14.2512 46.2993 14.3271C46.3306 14.403 46.3767 14.4719 46.4347 14.53C46.4928 14.5881 46.5618 14.6341 46.6377 14.6654C46.7136 14.6968 46.7949 14.7128 46.8771 14.7126C46.9592 14.7128 47.0405 14.6967 47.1164 14.6654C47.1922 14.634 47.2612 14.588 47.3192 14.5299C47.3773 14.4718 47.4233 14.4029 47.4546 14.327C47.4859 14.2511 47.5019 14.1698 47.5017 14.0877V6.88047C47.5019 6.79838 47.4859 6.71705 47.4545 6.64117C47.4232 6.56528 47.3772 6.49634 47.3191 6.43828C47.2611 6.38023 47.1921 6.33422 47.1162 6.30288C47.0403 6.27154 46.959 6.2555 46.8769 6.25568H46.8771ZM42.7894 6.51397C42.7472 6.50945 42.7045 6.50965 42.6623 6.51456C42.5807 6.5229 42.5014 6.54728 42.4292 6.58632C42.357 6.62536 42.2932 6.67828 42.2414 6.74204C42.1897 6.80581 42.1511 6.87916 42.1278 6.95789C42.1045 7.03662 42.097 7.11917 42.1057 7.20081L42.4207 10.216C42.429 10.2977 42.4534 10.3769 42.4924 10.4491C42.5315 10.5214 42.5844 10.5852 42.6481 10.6369C42.7119 10.6886 42.7853 10.7272 42.864 10.7505C42.9427 10.7738 43.0253 10.7813 43.1069 10.7726C43.1886 10.7643 43.2679 10.7399 43.3401 10.7009C43.4123 10.6618 43.4761 10.6089 43.5279 10.5451C43.5796 10.4813 43.6182 10.408 43.6415 10.3292C43.6648 10.2505 43.6723 10.1679 43.6636 10.0862L43.3489 7.07122C43.3343 6.92801 43.2706 6.79426 43.1685 6.69269C43.0665 6.59111 42.9325 6.52796 42.7892 6.51397H42.7894ZM50.9933 6.51694C50.85 6.53086 50.7159 6.59393 50.6139 6.69545C50.5118 6.79698 50.448 6.93069 50.4333 7.0739L50.1162 10.0888C50.1075 10.1704 50.115 10.253 50.1382 10.3318C50.1615 10.4105 50.2001 10.4839 50.2518 10.5478C50.3035 10.6116 50.3672 10.6645 50.4395 10.7036C50.5117 10.7428 50.5909 10.7672 50.6726 10.7756C50.7542 10.7844 50.8368 10.7769 50.9155 10.7537C50.9943 10.7305 51.0676 10.6919 51.1314 10.6402C51.1952 10.5886 51.2482 10.5248 51.2873 10.4526C51.3263 10.3804 51.3508 10.3012 51.3592 10.2195L51.6762 7.20438C51.685 7.12273 51.6775 7.04017 51.6542 6.96142C51.631 6.88268 51.5924 6.8093 51.5407 6.74551C51.489 6.68172 51.4252 6.62877 51.353 6.58969C51.2808 6.55062 51.2015 6.5262 51.1199 6.51783C51.0777 6.51352 51.0353 6.51327 50.9931 6.51709L50.9933 6.51694ZM38.5904 7.12288C38.4976 7.12312 38.406 7.14408 38.3223 7.18424C38.2386 7.2244 38.1649 7.28274 38.1066 7.35501C38.0484 7.42727 38.007 7.51163 37.9855 7.60194C37.964 7.69224 37.9629 7.7862 37.9824 7.87697L39.4748 14.9279C39.4916 15.0082 39.5242 15.0845 39.5706 15.1522C39.6169 15.22 39.6762 15.2779 39.7451 15.3227C39.8139 15.3674 39.8909 15.3982 39.9716 15.4131C40.0524 15.4281 40.1353 15.4269 40.2155 15.4097C40.2959 15.3929 40.3721 15.3604 40.4399 15.314C40.5076 15.2677 40.5655 15.2084 40.6103 15.1396C40.6551 15.0708 40.6859 14.9938 40.7008 14.9131C40.7158 14.8324 40.7147 14.7496 40.6975 14.6693L39.2049 7.61824C39.1755 7.47736 39.0982 7.35102 38.9862 7.26065C38.8741 7.17028 38.7343 7.12144 38.5904 7.12244V7.12288ZM55.192 7.12882C55.048 7.12759 54.9081 7.17625 54.796 7.26654C54.6839 7.35682 54.6066 7.48314 54.5771 7.62402L53.0793 14.6739C53.0621 14.7542 53.0609 14.837 53.0758 14.9178C53.0906 14.9985 53.1213 15.0756 53.1661 15.1444C53.2108 15.2133 53.2687 15.2726 53.3364 15.319C53.4041 15.3654 53.4804 15.398 53.5607 15.4149C53.641 15.4321 53.7239 15.4334 53.8046 15.4185C53.8853 15.4036 53.9624 15.3729 54.0312 15.3282C54.1001 15.2835 54.1594 15.2256 54.2058 15.1579C54.2523 15.0902 54.2848 15.014 54.3017 14.9337L55.7995 7.88365C55.819 7.7929 55.818 7.69894 55.7966 7.60863C55.7751 7.51832 55.7338 7.43395 55.6755 7.36165C55.6173 7.28936 55.5437 7.23099 55.46 7.19078C55.3764 7.15058 55.2848 7.12956 55.192 7.12926V7.12882ZM34.583 8.25283C34.4997 8.24527 34.4157 8.25508 34.3363 8.28163C34.2582 8.30682 34.1858 8.3472 34.1233 8.40044C34.0608 8.45368 34.0095 8.51874 33.9722 8.59188C33.9349 8.66502 33.9124 8.7448 33.9061 8.82665C33.8997 8.90849 33.9095 8.99079 33.9351 9.06882L34.8717 11.9522C34.897 12.0303 34.9373 12.1027 34.9906 12.1652C35.0439 12.2277 35.109 12.2791 35.1821 12.3164C35.2553 12.3537 35.3351 12.3761 35.417 12.3825C35.4989 12.3888 35.5812 12.379 35.6592 12.3534C35.7374 12.3282 35.8098 12.2878 35.8723 12.2345C35.9348 12.1813 35.9861 12.1162 36.0234 12.043C36.0607 11.9698 36.0831 11.89 36.0895 11.8082C36.0958 11.7263 36.0859 11.644 36.0603 11.5659L35.1235 8.68272C35.0858 8.56577 35.0144 8.46257 34.9182 8.38608C34.8221 8.30959 34.7055 8.26323 34.583 8.25283ZM59.1766 8.25431C59.0542 8.26474 58.9376 8.3111 58.8414 8.38759C58.7453 8.46407 58.6738 8.56726 58.6361 8.6842L57.6987 11.5673C57.6732 11.6453 57.6633 11.7276 57.6696 11.8094C57.676 11.8913 57.6984 11.9711 57.7357 12.0443C57.773 12.1174 57.8243 12.1825 57.8868 12.2357C57.9493 12.289 58.0217 12.3294 58.0998 12.3546C58.1778 12.3802 58.2601 12.39 58.342 12.3837C58.4238 12.3774 58.5036 12.3549 58.5768 12.3177C58.6499 12.2804 58.715 12.2291 58.7683 12.1666C58.8215 12.1042 58.8619 12.0318 58.8871 11.9537L59.8246 9.0703C59.8501 8.99229 59.86 8.90999 59.8537 8.82814C59.8473 8.74629 59.8249 8.6665 59.7876 8.59335C59.7504 8.52019 59.6991 8.45512 59.6366 8.40185C59.5741 8.34859 59.5017 8.30819 59.4236 8.28296C59.344 8.25703 59.26 8.24729 59.1766 8.25431ZM30.6202 9.70312C30.5366 9.70478 30.4541 9.72325 30.3778 9.75745C30.3027 9.79064 30.2349 9.83833 30.1783 9.89778C30.1217 9.95724 30.0774 10.0273 30.048 10.1039C30.0185 10.1805 30.0045 10.2622 30.0067 10.3442C30.0088 10.4263 30.0272 10.5071 30.0607 10.582L32.988 17.168C33.0212 17.2431 33.0689 17.3109 33.1283 17.3675C33.1878 17.4241 33.2578 17.4684 33.3344 17.4979C33.411 17.5273 33.4927 17.5414 33.5748 17.5392C33.6568 17.537 33.7377 17.5186 33.8126 17.4851C33.8877 17.4519 33.9555 17.4043 34.0121 17.3448C34.0688 17.2854 34.1131 17.2153 34.1426 17.1387C34.1721 17.0621 34.1861 16.9804 34.184 16.8983C34.1818 16.8163 34.1635 16.7354 34.13 16.6605L31.2025 10.0747C31.1529 9.96221 31.0712 9.86692 30.9675 9.80078C30.8639 9.73465 30.7431 9.70062 30.6202 9.70297V9.70312ZM63.1841 9.72509C63.0613 9.72273 62.9405 9.75665 62.8368 9.82261C62.7332 9.88856 62.6512 9.98362 62.6013 10.0959L59.6651 16.6779C59.6316 16.7528 59.6131 16.8336 59.6108 16.9156C59.6085 16.9977 59.6225 17.0794 59.6519 17.1561C59.6812 17.2327 59.7255 17.3028 59.782 17.3623C59.8385 17.4219 59.9063 17.4696 59.9813 17.5029C60.0562 17.5365 60.137 17.555 60.2191 17.5572C60.3012 17.5595 60.3829 17.5456 60.4595 17.5162C60.5362 17.4868 60.6063 17.4426 60.6658 17.386C60.7253 17.3295 60.7731 17.2618 60.8064 17.1867L63.7426 10.6051C63.7762 10.5301 63.7947 10.4493 63.797 10.3672C63.7993 10.2852 63.7853 10.2034 63.7559 10.1268C63.7266 10.0501 63.6823 9.97997 63.6258 9.92044C63.5692 9.86091 63.5015 9.81313 63.4264 9.77986C63.3501 9.74568 63.2677 9.72706 63.1841 9.72509ZM26.9419 11.6492C26.8176 11.6403 26.6935 11.6691 26.5859 11.732C26.5148 11.7729 26.4524 11.8275 26.4023 11.8926C26.3523 11.9577 26.3156 12.032 26.2943 12.1113C26.2731 12.1906 26.2677 12.2733 26.2785 12.3547C26.2893 12.4361 26.3161 12.5146 26.3573 12.5856L27.8731 15.2111C27.914 15.2823 27.9686 15.3447 28.0337 15.3947C28.0987 15.4448 28.1731 15.4815 28.2524 15.5027C28.3317 15.524 28.4144 15.5293 28.4958 15.5185C28.5772 15.5077 28.6556 15.4809 28.7266 15.4397C28.7978 15.3988 28.8602 15.3442 28.9103 15.2791C28.9603 15.2141 28.997 15.1397 29.0183 15.0604C29.0395 14.9811 29.0449 14.8984 29.0341 14.817C29.0232 14.7356 28.9965 14.6572 28.9552 14.5861L27.4396 11.9608C27.3887 11.872 27.3166 11.7971 27.2298 11.7428C27.143 11.6884 27.0442 11.6563 26.9421 11.6492H26.9419ZM66.8119 11.6492C66.7098 11.6562 66.611 11.6882 66.5242 11.7425C66.4375 11.7969 66.3655 11.8718 66.3146 11.9606L64.7986 14.5861C64.7574 14.6572 64.7306 14.7356 64.7198 14.817C64.709 14.8984 64.7144 14.9812 64.7357 15.0605C64.757 15.1398 64.7937 15.2141 64.8438 15.2792C64.8938 15.3443 64.9563 15.3988 65.0275 15.4397C65.0985 15.4809 65.177 15.5077 65.2583 15.5185C65.3397 15.5293 65.4225 15.524 65.5018 15.5027C65.5811 15.4815 65.6554 15.4448 65.7205 15.3947C65.7856 15.3447 65.8401 15.2823 65.881 15.2111L67.3968 12.5854C67.438 12.5144 67.4648 12.436 67.4756 12.3546C67.4864 12.2732 67.4811 12.1905 67.4598 12.1112C67.4386 12.0319 67.4019 11.9575 67.3518 11.8924C67.3018 11.8274 67.2394 11.7728 67.1682 11.7319C67.0604 11.6694 66.9363 11.6406 66.8119 11.6492ZM23.3701 13.8769C23.2456 13.8814 23.1253 13.9229 23.0245 13.9961C22.9579 14.0442 22.9015 14.1049 22.8585 14.1748C22.8155 14.2448 22.7867 14.3225 22.7738 14.4036C22.7609 14.4847 22.7641 14.5675 22.7834 14.6474C22.8026 14.7272 22.8373 14.8024 22.8857 14.8688L27.1177 20.7026C27.1658 20.7691 27.2265 20.8255 27.2965 20.8686C27.3664 20.9116 27.4442 20.9404 27.5253 20.9532C27.6064 20.9661 27.6892 20.9629 27.769 20.9437C27.8489 20.9245 27.9241 20.8897 27.9905 20.8414C28.0571 20.7933 28.1135 20.7326 28.1565 20.6627C28.1995 20.5927 28.2283 20.515 28.2412 20.4339C28.254 20.3529 28.2508 20.27 28.2316 20.1902C28.2124 20.1104 28.1777 20.0352 28.1293 19.9688L23.8972 14.135C23.8373 14.0521 23.7579 13.9851 23.666 13.9401C23.5741 13.8951 23.4725 13.8735 23.3702 13.877L23.3701 13.8769ZM70.4284 13.9087C70.3262 13.9049 70.2246 13.9264 70.1327 13.9713C70.0407 14.0161 69.9613 14.083 69.9013 14.1659L65.6613 19.9941C65.6129 20.0604 65.578 20.1356 65.5587 20.2154C65.5394 20.2952 65.5361 20.378 65.5489 20.4591C65.5617 20.5402 65.5904 20.618 65.6333 20.688C65.6763 20.758 65.7326 20.8188 65.7991 20.8669C65.8654 20.9154 65.9406 20.9502 66.0204 20.9695C66.1002 20.9889 66.183 20.9922 66.2641 20.9794C66.3452 20.9667 66.4229 20.938 66.4929 20.8951C66.5629 20.8522 66.6238 20.7959 66.672 20.7295L70.9116 14.9014C70.9601 14.8351 70.9949 14.7599 71.0142 14.6801C71.0335 14.6003 71.0368 14.5175 71.024 14.4364C71.0112 14.3553 70.9825 14.2775 70.9396 14.2076C70.8967 14.1376 70.8404 14.0768 70.7739 14.0286C70.6733 13.955 70.553 13.9132 70.4284 13.9087ZM20.1775 16.5544C20.0955 16.5499 20.0134 16.5618 19.936 16.5893C19.8587 16.6168 19.7875 16.6595 19.7267 16.7147C19.6656 16.7695 19.6159 16.8358 19.5804 16.9099C19.545 16.9839 19.5246 17.0642 19.5203 17.1462C19.516 17.2282 19.5279 17.3102 19.5554 17.3876C19.5828 17.4649 19.6253 17.5361 19.6804 17.597L21.7089 19.8504C21.7637 19.9115 21.83 19.9612 21.9041 19.9966C21.9781 20.0321 22.0584 20.0525 22.1404 20.0568C22.2224 20.0611 22.3044 20.0491 22.3818 20.0216C22.4592 19.9941 22.5303 19.9516 22.5912 19.8965C22.6523 19.8417 22.702 19.7754 22.7375 19.7013C22.7729 19.6272 22.7934 19.5469 22.7977 19.4649C22.802 19.3829 22.79 19.3009 22.7625 19.2235C22.7351 19.1461 22.6926 19.075 22.6375 19.014L20.6093 16.7608C20.5545 16.6997 20.4882 16.6499 20.4141 16.6145C20.34 16.5791 20.2597 16.5586 20.1777 16.5544H20.1775ZM73.5809 16.5588C73.4153 16.5677 73.26 16.642 73.1491 16.7654L71.1208 19.0182C71.0657 19.0791 71.0231 19.1503 70.9956 19.2276C70.9681 19.305 70.9561 19.3871 70.9604 19.4691C70.9646 19.5511 70.9851 19.6315 71.0205 19.7056C71.0559 19.7797 71.1057 19.846 71.1668 19.9008C71.2277 19.9559 71.2989 19.9984 71.3763 20.0259C71.4536 20.0534 71.5357 20.0654 71.6177 20.061C71.6997 20.0567 71.78 20.0363 71.8541 20.0008C71.9282 19.9654 71.9945 19.9157 72.0493 19.8545L74.0779 17.6018C74.133 17.5408 74.1755 17.4696 74.203 17.3923C74.2304 17.3149 74.2424 17.2328 74.2381 17.1508C74.2338 17.0688 74.2133 16.9885 74.1779 16.9144C74.1425 16.8403 74.0927 16.7739 74.0316 16.7191C73.9708 16.664 73.8997 16.6215 73.8223 16.594C73.745 16.5665 73.663 16.5545 73.5811 16.5588H73.5809ZM17.1177 19.4935C17.0357 19.4979 16.9554 19.5185 16.8813 19.5539C16.8073 19.5894 16.741 19.6391 16.6861 19.7002C16.6311 19.7611 16.5886 19.8322 16.5611 19.9096C16.5336 19.987 16.5216 20.069 16.5259 20.151C16.5302 20.233 16.5507 20.3134 16.5861 20.3874C16.6216 20.4615 16.6713 20.5278 16.7325 20.5826L22.089 25.4045C22.1499 25.4596 22.2211 25.5021 22.2984 25.5295C22.3758 25.557 22.4578 25.5689 22.5398 25.5646C22.6218 25.5603 22.7021 25.5399 22.7762 25.5045C22.8502 25.469 22.9166 25.4193 22.9714 25.3582C23.0264 25.2973 23.069 25.2262 23.0965 25.1488C23.124 25.0715 23.1359 24.9894 23.1316 24.9074C23.1273 24.8255 23.1069 24.7451 23.0715 24.6711C23.036 24.597 22.9863 24.5307 22.9252 24.4759L17.5685 19.654C17.5076 19.5989 17.4364 19.5563 17.359 19.5288C17.2816 19.5013 17.1995 19.4894 17.1175 19.4937L17.1177 19.4935ZM76.6556 19.5147C76.5736 19.5102 76.4914 19.5221 76.414 19.5495C76.3365 19.5769 76.2653 19.6195 76.2044 19.6746L70.8448 24.4928C70.7836 24.5475 70.7339 24.6138 70.6984 24.6878C70.6628 24.7619 70.6423 24.8422 70.6379 24.9241C70.6335 25.0061 70.6454 25.0882 70.6728 25.1656C70.7002 25.243 70.7426 25.3142 70.7976 25.3751C70.8524 25.4363 70.9187 25.4861 70.9928 25.5215C71.0669 25.557 71.1472 25.5775 71.2292 25.5819C71.3112 25.5863 71.3933 25.5744 71.4707 25.5469C71.5481 25.5195 71.6193 25.4771 71.6803 25.422L77.0402 20.6039C77.1014 20.5491 77.1512 20.4828 77.1867 20.4088C77.2221 20.3347 77.2426 20.2544 77.247 20.1724C77.2514 20.0905 77.2395 20.0084 77.212 19.931C77.1846 19.8537 77.1422 19.7825 77.0872 19.7215C77.0324 19.6603 76.9661 19.6106 76.892 19.5751C76.818 19.5396 76.7376 19.5191 76.6556 19.5147ZM14.573 22.7656C14.4708 22.7619 14.3692 22.7835 14.2772 22.8285C14.1853 22.8734 14.1058 22.9404 14.0459 23.0233C13.9975 23.0897 13.9626 23.1649 13.9434 23.2447C13.9241 23.3246 13.9208 23.4074 13.9337 23.4885C13.9465 23.5696 13.9753 23.6474 14.0183 23.7174C14.0613 23.7873 14.1177 23.8481 14.1843 23.8962L16.6369 25.6779C16.7031 25.7264 16.7784 25.7613 16.8582 25.7805C16.938 25.7998 17.0208 25.8032 17.1019 25.7903C17.183 25.7775 17.2608 25.7488 17.3307 25.7058C17.4007 25.6628 17.4614 25.6064 17.5096 25.5399C17.558 25.4736 17.5928 25.3984 17.6121 25.3185C17.6313 25.2387 17.6346 25.1559 17.6218 25.0748C17.609 24.9937 17.5803 24.9159 17.5373 24.846C17.4944 24.776 17.438 24.7152 17.3715 24.6671L14.9188 22.8851C14.8181 22.8117 14.6976 22.7701 14.573 22.7656ZM79.1977 22.7884C79.0732 22.7928 78.9529 22.8343 78.8521 22.9076L76.3984 24.6878C76.3318 24.7359 76.2754 24.7967 76.2324 24.8666C76.1893 24.9366 76.1605 25.0143 76.1476 25.0954C76.1347 25.1765 76.138 25.2593 76.1571 25.3392C76.1763 25.419 76.2111 25.4943 76.2594 25.5607C76.3075 25.6272 76.3683 25.6837 76.4382 25.7267C76.5081 25.7697 76.5859 25.7985 76.6669 25.8114C76.748 25.8243 76.8309 25.821 76.9107 25.8018C76.9905 25.7826 77.0658 25.7478 77.1321 25.6995L79.586 23.919C79.6526 23.871 79.709 23.8102 79.752 23.7403C79.795 23.6704 79.8237 23.5926 79.8366 23.5116C79.8495 23.4305 79.8462 23.3477 79.827 23.2679C79.8078 23.1881 79.773 23.1128 79.7247 23.0465C79.6648 22.9635 79.5854 22.8965 79.4935 22.8515C79.4016 22.8065 79.3 22.7848 79.1977 22.7884ZM12.1953 26.2557C12.0932 26.2626 11.9943 26.2947 11.9076 26.349C11.8208 26.4034 11.7488 26.4783 11.698 26.5671C11.6568 26.6381 11.63 26.7166 11.6192 26.798C11.6084 26.8794 11.6137 26.9621 11.635 27.0414C11.6562 27.1207 11.6929 27.195 11.743 27.2601C11.793 27.3252 11.8554 27.3798 11.9266 27.4207L18.1682 31.0243C18.2392 31.0655 18.3176 31.0923 18.399 31.1031C18.4804 31.1139 18.5631 31.1085 18.6425 31.0873C18.7218 31.066 18.7961 31.0294 18.8612 30.9793C18.9263 30.9293 18.9808 30.8669 19.0217 30.7957C19.063 30.7247 19.0897 30.6462 19.1006 30.5648C19.1114 30.4834 19.106 30.4007 19.0848 30.3214C19.0635 30.2421 19.0268 30.1678 18.9768 30.1027C18.9267 30.0376 18.8643 29.983 18.7931 29.9421L12.5516 26.3385C12.4437 26.276 12.3196 26.2471 12.1953 26.2557ZM81.5589 26.2557C81.4345 26.2468 81.3103 26.2756 81.2026 26.3385L74.9612 29.9421C74.89 29.983 74.8276 30.0376 74.7775 30.1027C74.7275 30.1678 74.6908 30.2421 74.6695 30.3214C74.6483 30.4007 74.6429 30.4834 74.6537 30.5648C74.6646 30.6462 74.6913 30.7247 74.7326 30.7957C74.7735 30.8669 74.828 30.9293 74.8931 30.9793C74.9582 31.0294 75.0325 31.066 75.1118 31.0873C75.1911 31.1085 75.2739 31.1139 75.3553 31.1031C75.4366 31.0923 75.5151 31.0655 75.5861 31.0243L81.8278 27.4208C81.899 27.3799 81.9614 27.3253 82.0115 27.2603C82.0615 27.1952 82.0982 27.1208 82.1195 27.0415C82.1407 26.9622 82.1461 26.8795 82.1352 26.7981C82.1244 26.7167 82.0976 26.6383 82.0564 26.5673C82.0054 26.4785 81.9334 26.4036 81.8466 26.3493C81.7598 26.295 81.661 26.2629 81.5589 26.2558V26.2557ZM10.3972 29.9758C10.2743 29.9731 10.1534 30.0069 10.0497 30.0729C9.94602 30.1388 9.86419 30.234 9.81456 30.3465C9.78094 30.4214 9.76245 30.5022 9.76015 30.5843C9.75785 30.6663 9.77178 30.7481 9.80114 30.8247C9.83051 30.9014 9.87473 30.9715 9.93126 31.0311C9.9878 31.0906 10.0555 31.1384 10.1306 31.1717L12.8995 32.4067C12.9744 32.4403 13.0552 32.4588 13.1373 32.4611C13.2194 32.4634 13.3011 32.4495 13.3778 32.4201C13.4544 32.3908 13.5245 32.3465 13.5841 32.29C13.6436 32.2335 13.6914 32.1657 13.7247 32.0907C13.7583 32.0158 13.7768 31.9349 13.7791 31.8529C13.7814 31.7708 13.7674 31.6891 13.7381 31.6124C13.7087 31.5357 13.6644 31.4656 13.6079 31.4061C13.5513 31.3465 13.4836 31.2988 13.4085 31.2655L10.6398 30.0304C10.5634 29.9962 10.4809 29.9776 10.3972 29.976V29.9758ZM83.3688 30.0016C83.2851 30.0034 83.2025 30.0219 83.1261 30.0561L80.3566 31.2891C80.2815 31.3223 80.2137 31.37 80.1571 31.4295C80.1005 31.489 80.0562 31.559 80.0268 31.6357C79.9973 31.7123 79.9833 31.7941 79.9855 31.8761C79.9877 31.9582 80.0061 32.039 80.0397 32.114C80.073 32.1891 80.1207 32.2569 80.1802 32.3135C80.2398 32.3701 80.3099 32.4143 80.3866 32.4438C80.4632 32.4732 80.545 32.4872 80.6271 32.485C80.7092 32.4827 80.7901 32.4643 80.865 32.4308L83.6344 31.1976C83.7094 31.1644 83.7772 31.1167 83.8338 31.0572C83.8904 30.9977 83.9346 30.9276 83.9641 30.851C83.9935 30.7743 84.0075 30.6926 84.0052 30.6106C84.003 30.5285 83.9846 30.4477 83.951 30.3728C83.9014 30.2604 83.8196 30.1652 83.716 30.0992C83.6124 30.0332 83.4916 29.9992 83.3688 30.0016ZM8.79491 33.8641C8.67251 33.8744 8.55588 33.9207 8.45969 33.9971C8.3635 34.0734 8.29204 34.1765 8.25428 34.2934C8.22867 34.3714 8.21872 34.4537 8.22499 34.5356C8.23127 34.6174 8.25365 34.6972 8.29084 34.7704C8.32804 34.8436 8.37933 34.9087 8.44175 34.962C8.50418 35.0153 8.57652 35.0558 8.65463 35.0811L15.5072 37.3139C15.5852 37.3396 15.6675 37.3495 15.7494 37.3433C15.8313 37.337 15.9111 37.3146 15.9843 37.2774C16.0575 37.2402 16.1226 37.1889 16.176 37.1264C16.2293 37.064 16.2697 36.9916 16.295 36.9134C16.3206 36.8354 16.3305 36.7531 16.3243 36.6713C16.318 36.5894 16.2956 36.5096 16.2584 36.4364C16.2212 36.3632 16.1699 36.2981 16.1074 36.2448C16.045 36.1915 15.9726 36.1511 15.8945 36.1258L9.04191 33.8928C8.96234 33.8667 8.87834 33.8569 8.79491 33.864V33.8641ZM84.9681 33.8909C84.8848 33.8833 84.8008 33.8931 84.7214 33.9196L77.8672 36.1476C77.7891 36.1728 77.7167 36.2133 77.6542 36.2665C77.5917 36.3198 77.5404 36.3849 77.5031 36.4581C77.4659 36.5312 77.4435 36.6111 77.4371 36.6929C77.4308 36.7748 77.4407 36.8571 77.4663 36.9351C77.4915 37.0132 77.5319 37.0856 77.5852 37.1481C77.6385 37.2105 77.7036 37.2619 77.7768 37.2991C77.8499 37.3363 77.9297 37.3588 78.0116 37.3651C78.0935 37.3714 78.1758 37.3615 78.2538 37.3359L85.1077 35.1081C85.1858 35.0829 85.2582 35.0425 85.3207 34.9892C85.3832 34.9359 85.4346 34.8709 85.4719 34.7977C85.5092 34.7245 85.5316 34.6447 85.538 34.5628C85.5443 34.481 85.5345 34.3986 85.5089 34.3206C85.4712 34.2036 85.3997 34.1004 85.3035 34.0239C85.2073 33.9475 85.0906 33.9011 84.9681 33.8907V33.8909ZM7.79663 37.9454C7.65266 37.9442 7.51272 37.9929 7.40058 38.0832C7.28845 38.1735 7.21103 38.2999 7.18148 38.4408C7.16424 38.521 7.16303 38.6039 7.17792 38.6847C7.1928 38.7654 7.22349 38.8424 7.26822 38.9113C7.31295 38.9802 7.37084 39.0395 7.43857 39.0859C7.5063 39.1323 7.58252 39.1649 7.66288 39.1818L10.6283 39.8121C10.7086 39.8293 10.7915 39.8305 10.8722 39.8157C10.953 39.8008 11.03 39.7701 11.0989 39.7253C11.1677 39.6806 11.227 39.6227 11.2735 39.555C11.3199 39.4873 11.3525 39.411 11.3694 39.3307C11.3866 39.2504 11.3878 39.1675 11.3729 39.0868C11.3581 39.0061 11.3274 38.9291 11.2827 38.8602C11.2379 38.7914 11.1801 38.732 11.1124 38.6856C11.0447 38.6392 10.9684 38.6066 10.8881 38.5897L7.9228 37.9594C7.88132 37.9506 7.83903 37.9461 7.79663 37.946V37.9454ZM85.9587 37.9514C85.9165 37.9523 85.8743 37.9568 85.8328 37.9647L82.8672 38.5947C82.7869 38.6116 82.7107 38.6442 82.643 38.6906C82.5753 38.737 82.5175 38.7963 82.4727 38.8651C82.428 38.9339 82.3973 39.0109 82.3825 39.0916C82.3676 39.1723 82.3688 39.2552 82.386 39.3354C82.4029 39.4158 82.4354 39.492 82.4819 39.5598C82.5283 39.6275 82.5876 39.6854 82.6565 39.7302C82.7253 39.7749 82.8023 39.8057 82.8831 39.8206C82.9638 39.8355 83.0467 39.8343 83.127 39.8171L86.0923 39.1871C86.1727 39.1702 86.2489 39.1376 86.3166 39.0912C86.3843 39.0448 86.4422 38.9855 86.4869 38.9166C86.5317 38.8478 86.5624 38.7708 86.5773 38.69C86.5922 38.6093 86.591 38.5264 86.5739 38.4461C86.5442 38.3052 86.4668 38.179 86.3547 38.0887C86.2425 37.9984 86.1027 37.9497 85.9587 37.9508V37.9514ZM7.0409 42.0509C6.89769 42.0647 6.76366 42.1276 6.66157 42.229C6.55948 42.3304 6.49562 42.464 6.48083 42.6071C6.47198 42.6888 6.47935 42.7714 6.50252 42.8501C6.52569 42.9289 6.56419 43.0024 6.61582 43.0662C6.66745 43.1301 6.73118 43.1831 6.80337 43.2223C6.87555 43.2614 6.95476 43.286 7.03645 43.2944L14.2036 44.0521C14.2852 44.0609 14.3678 44.0535 14.4466 44.0304C14.5254 44.0072 14.5989 43.9687 14.6627 43.917C14.7266 43.8654 14.7796 43.8016 14.8188 43.7294C14.8579 43.6572 14.8824 43.578 14.8909 43.4963C14.8997 43.4146 14.8923 43.332 14.8691 43.2533C14.8459 43.1745 14.8074 43.101 14.7557 43.0372C14.7041 42.9733 14.6403 42.9203 14.5681 42.8812C14.4959 42.8421 14.4166 42.8176 14.3349 42.8092L7.16767 42.0513C7.12553 42.047 7.08307 42.0469 7.0409 42.0509ZM86.7196 42.1048C86.6774 42.1002 86.6348 42.1004 86.5926 42.1052L79.4245 42.8534C79.3429 42.8617 79.2636 42.8861 79.1914 42.9251C79.1192 42.9642 79.0554 43.0171 79.0036 43.0809C78.9519 43.1446 78.9133 43.218 78.89 43.2967C78.8667 43.3754 78.8592 43.458 78.8679 43.5396C78.8762 43.6213 78.9006 43.7006 78.9397 43.7728C78.9787 43.8451 79.0316 43.9089 79.0954 43.9606C79.1592 44.0123 79.2326 44.0509 79.3113 44.0742C79.3901 44.0975 79.4726 44.105 79.5543 44.0963L86.7223 43.3481C86.804 43.3398 86.8832 43.3154 86.9554 43.2764C87.0277 43.2374 87.0915 43.1844 87.1432 43.1207C87.1949 43.0569 87.2335 42.9836 87.2568 42.9048C87.2801 42.8261 87.2877 42.7435 87.279 42.6619C87.2644 42.5187 87.2007 42.385 87.0988 42.2834C86.9968 42.1818 86.8629 42.1187 86.7196 42.1046V42.1048ZM6.91962 46.2533C6.8375 46.2531 6.75615 46.2692 6.68024 46.3005C6.60433 46.3318 6.53536 46.3779 6.47729 46.4359C6.41921 46.494 6.37319 46.563 6.34185 46.6389C6.31051 46.7148 6.29448 46.7961 6.29468 46.8783C6.29452 46.9604 6.31058 47.0417 6.34194 47.1176C6.37329 47.1934 6.41932 47.2624 6.47739 47.3204C6.53546 47.3785 6.60441 47.4245 6.68031 47.4558C6.7562 47.4871 6.83753 47.5031 6.91962 47.5029H9.95128C10.0334 47.5031 10.1147 47.4871 10.1906 47.4557C10.2665 47.4244 10.3355 47.3784 10.3935 47.3203C10.4516 47.2623 10.4976 47.1933 10.529 47.1174C10.5603 47.0416 10.5764 46.9602 10.5762 46.8781C10.5764 46.796 10.5604 46.7147 10.529 46.6388C10.4977 46.5629 10.4516 46.4939 10.3936 46.4358C10.3355 46.3778 10.2665 46.3317 10.1906 46.3004C10.1147 46.269 10.0334 46.253 9.95128 46.2532L6.91962 46.2533ZM83.8027 46.2533C83.7206 46.2531 83.6392 46.2692 83.5633 46.3005C83.4874 46.3318 83.4184 46.3779 83.3604 46.4359C83.3023 46.494 83.2563 46.563 83.2249 46.6389C83.1936 46.7148 83.1776 46.7961 83.1778 46.8783C83.1776 46.9604 83.1937 47.0417 83.225 47.1176C83.2564 47.1934 83.3024 47.2624 83.3605 47.3204C83.4186 47.3785 83.4875 47.4245 83.5634 47.4558C83.6393 47.4871 83.7206 47.5031 83.8027 47.5029H86.8344C86.9165 47.5031 86.9978 47.4871 87.0737 47.4557C87.1496 47.4244 87.2185 47.3784 87.2766 47.3203C87.3346 47.2623 87.3806 47.1933 87.412 47.1174C87.4433 47.0415 87.4593 46.9602 87.4592 46.8781C87.4594 46.796 87.4433 46.7146 87.412 46.6387C87.3807 46.5628 87.3346 46.4939 87.2766 46.4358C87.2185 46.3777 87.1495 46.3317 87.0736 46.3003C86.9977 46.269 86.9163 46.253 86.8342 46.2532L83.8027 46.2533ZM14.3265 49.6593C14.2843 49.6548 14.2418 49.655 14.1997 49.6599L7.0314 50.4079C6.94972 50.4163 6.87049 50.4407 6.79826 50.4797C6.72603 50.5187 6.66223 50.5717 6.6105 50.6354C6.55878 50.6992 6.52016 50.7725 6.49686 50.8513C6.47357 50.93 6.46605 51.0126 6.47474 51.0942C6.48308 51.1759 6.50746 51.2551 6.5465 51.3273C6.58554 51.3996 6.63846 51.4634 6.70222 51.5151C6.76599 51.5668 6.83934 51.6054 6.91807 51.6287C6.9968 51.652 7.07935 51.6595 7.16099 51.6509L14.3293 50.9027C14.411 50.8944 14.4902 50.87 14.5624 50.8309C14.6347 50.7919 14.6985 50.739 14.7502 50.6752C14.8019 50.6115 14.8405 50.5381 14.8638 50.4594C14.8871 50.3806 14.8947 50.2981 14.886 50.2165C14.8713 50.0733 14.8076 49.9396 14.7056 49.838C14.6036 49.7365 14.4696 49.6733 14.3263 49.6593H14.3265ZM79.4234 49.7036C79.2801 49.7174 79.1461 49.7804 79.044 49.8818C78.9419 49.9832 78.878 50.1168 78.8633 50.2599C78.8545 50.3416 78.8618 50.4241 78.885 50.5029C78.9082 50.5817 78.9467 50.6551 78.9983 50.7189C79.0499 50.7827 79.1136 50.8358 79.1858 50.8749C79.2579 50.9141 79.3371 50.9386 79.4187 50.9471L86.586 51.7047C86.6677 51.7136 86.7503 51.7062 86.829 51.683C86.9078 51.6598 86.9812 51.6213 87.0451 51.5696C87.1089 51.518 87.1619 51.4543 87.2011 51.3821C87.2402 51.3099 87.2647 51.2307 87.2732 51.149C87.282 51.0673 87.2746 50.9848 87.2514 50.906C87.2282 50.8272 87.1897 50.7538 87.138 50.69C87.0864 50.6262 87.0226 50.5732 86.9504 50.534C86.8783 50.4949 86.7991 50.4704 86.7174 50.462L79.5504 49.7042C79.5082 49.6998 79.4656 49.6996 79.4234 49.7036ZM10.7535 53.9249C10.7111 53.9251 10.6688 53.9296 10.6273 53.9382L7.66184 54.5682C7.58149 54.5851 7.50526 54.6177 7.43753 54.6641C7.3698 54.7105 7.31191 54.7698 7.26718 54.8387C7.22245 54.9076 7.19176 54.9846 7.17688 55.0653C7.16199 55.1461 7.1632 55.229 7.18044 55.3092C7.19732 55.3896 7.2299 55.4658 7.27632 55.5335C7.32274 55.6013 7.38208 55.6592 7.45094 55.7039C7.51979 55.7486 7.5968 55.7793 7.67755 55.7942C7.7583 55.8091 7.84119 55.8079 7.92147 55.7906L10.8871 55.1609C10.9674 55.144 11.0436 55.1114 11.1113 55.065C11.179 55.0186 11.2369 54.9592 11.2816 54.8904C11.3263 54.8215 11.357 54.7445 11.3719 54.6638C11.3868 54.5831 11.3856 54.5002 11.3683 54.4199C11.3388 54.279 11.2614 54.1527 11.1493 54.0624C11.0373 53.9721 10.8974 53.9233 10.7535 53.9244V53.9249ZM82.9996 53.9308C82.8557 53.9296 82.7158 53.9782 82.6038 54.0685C82.4917 54.1587 82.4143 54.285 82.3848 54.4258C82.3675 54.5061 82.3662 54.589 82.3811 54.6697C82.3959 54.7505 82.4266 54.8275 82.4713 54.8964C82.5159 54.9652 82.5738 55.0246 82.6415 55.0711C82.7092 55.1175 82.7854 55.1501 82.8657 55.167L85.8313 55.7972C85.9116 55.8144 85.9945 55.8157 86.0752 55.8009C86.156 55.786 86.233 55.7554 86.3019 55.7107C86.3707 55.666 86.4301 55.6082 86.4765 55.5405C86.523 55.4728 86.5556 55.3965 86.5725 55.3162C86.5898 55.2359 86.591 55.153 86.5761 55.0722C86.5613 54.9914 86.5306 54.9144 86.4858 54.8455C86.4411 54.7766 86.3832 54.7172 86.3155 54.6707C86.2477 54.6243 86.1715 54.5917 86.0911 54.5747L83.1258 53.9446C83.0843 53.9358 83.042 53.9313 82.9996 53.9312V53.9308ZM15.7471 56.3918C15.6637 56.3843 15.5797 56.3941 15.5004 56.4206L8.64617 58.6486C8.56804 58.6738 8.49567 58.7142 8.4332 58.7675C8.37073 58.8208 8.3194 58.8858 8.28215 58.959C8.24489 59.0321 8.22245 59.1119 8.21612 59.1938C8.20978 59.2756 8.21967 59.3579 8.24522 59.4359C8.27043 59.5141 8.31082 59.5865 8.36408 59.649C8.41734 59.7114 8.48241 59.7628 8.55557 59.8001C8.62872 59.8373 8.70852 59.8598 8.79038 59.8661C8.87223 59.8725 8.95454 59.8626 9.03256 59.837L15.8865 57.6089C15.9646 57.5837 16.037 57.5433 16.0995 57.4901C16.162 57.4368 16.2133 57.3717 16.2506 57.2986C16.2879 57.2254 16.3104 57.1456 16.3167 57.0638C16.3231 56.9819 16.3132 56.8996 16.2877 56.8216C16.25 56.7046 16.1785 56.6014 16.0823 56.525C15.9862 56.4485 15.8695 56.4021 15.7471 56.3917V56.3918ZM77.9998 56.4139C77.8774 56.4242 77.7608 56.4705 77.6646 56.5469C77.5684 56.6232 77.4969 56.7264 77.4592 56.8432C77.4335 56.9212 77.4236 57.0035 77.4299 57.0854C77.4362 57.1673 77.4586 57.2471 77.4958 57.3203C77.533 57.3934 77.5843 57.4586 77.6467 57.5119C77.7092 57.5652 77.7815 57.6056 77.8596 57.6309L84.7121 59.8638C84.7901 59.8894 84.8724 59.8993 84.9543 59.8931C85.0362 59.8868 85.116 59.8644 85.1892 59.8272C85.2624 59.79 85.3275 59.7387 85.3808 59.6762C85.4342 59.6138 85.4746 59.5414 85.4999 59.4633C85.5255 59.3853 85.5354 59.303 85.5291 59.2211C85.5228 59.1392 85.5005 59.0594 85.4632 58.9862C85.426 58.9131 85.3747 58.8479 85.3123 58.7946C85.2498 58.7413 85.1775 58.7009 85.0994 58.6756L78.2468 56.4427C78.1672 56.4167 78.0832 56.4069 77.9998 56.4139ZM13.1317 61.2717C13.048 61.2733 12.9655 61.2918 12.8891 61.3259L10.1193 62.559C10.0443 62.5923 9.97651 62.64 9.91995 62.6995C9.86339 62.759 9.81914 62.8291 9.78973 62.9058C9.76033 62.9824 9.74635 63.0641 9.7486 63.1461C9.75084 63.2282 9.76928 63.309 9.80283 63.3839C9.83607 63.459 9.8838 63.5268 9.94329 63.5833C10.0028 63.6399 10.0729 63.6842 10.1495 63.7136C10.2262 63.743 10.3079 63.757 10.3899 63.7548C10.472 63.7525 10.5528 63.7341 10.6277 63.7006L13.3975 62.4676C13.4726 62.4343 13.5403 62.3866 13.5969 62.3271C13.6535 62.2676 13.6977 62.1975 13.7271 62.1209C13.7565 62.0442 13.7705 61.9625 13.7682 61.8805C13.766 61.7984 13.7476 61.7176 13.714 61.6427C13.6643 61.5303 13.5825 61.4351 13.4788 61.3691C13.3752 61.3031 13.2544 61.2692 13.1315 61.2716L13.1317 61.2717ZM80.6121 61.2955C80.4892 61.2928 80.3683 61.3265 80.2645 61.3924C80.1608 61.4584 80.079 61.5536 80.0293 61.666C79.9957 61.7409 79.9772 61.8217 79.9749 61.9038C79.9726 61.9859 79.9866 62.0676 80.0159 62.1443C80.0453 62.221 80.0896 62.2911 80.1461 62.3506C80.2027 62.4101 80.2704 62.4579 80.3455 62.4912L83.1139 63.7262C83.1889 63.7599 83.2697 63.7784 83.3518 63.7807C83.4339 63.783 83.5156 63.7691 83.5923 63.7397C83.669 63.7103 83.7392 63.666 83.7987 63.6095C83.8582 63.5529 83.906 63.4851 83.9393 63.4101C83.9729 63.3352 83.9913 63.2543 83.9936 63.1723C83.9959 63.0902 83.9819 63.0085 83.9526 62.9319C83.9232 62.8552 83.879 62.7851 83.8224 62.7256C83.7659 62.6661 83.6982 62.6183 83.6231 62.585L80.8546 61.35C80.7783 61.3157 80.6958 61.2972 80.6121 61.2955ZM18.5242 62.6494C18.3998 62.6405 18.2756 62.6694 18.1679 62.7323L11.9265 66.3359C11.8553 66.3768 11.7929 66.4313 11.7428 66.4964C11.6928 66.5615 11.6561 66.6358 11.6348 66.7151C11.6136 66.7945 11.6082 66.8772 11.619 66.9586C11.6299 67.04 11.6566 67.1184 11.6979 67.1894C11.7388 67.2606 11.7933 67.323 11.8584 67.373C11.9235 67.423 11.9978 67.4597 12.0771 67.481C12.1564 67.5022 12.2391 67.5076 12.3204 67.4968C12.4018 67.486 12.4803 67.4592 12.5513 67.418L18.7927 63.8147C18.8639 63.7738 18.9263 63.7192 18.9763 63.6541C19.0263 63.589 19.063 63.5147 19.0843 63.4353C19.1055 63.356 19.1109 63.2733 19.1001 63.1919C19.0893 63.1105 19.0625 63.032 19.0213 62.961C18.9704 62.8722 18.8984 62.7974 18.8116 62.743C18.7249 62.6887 18.6261 62.6565 18.524 62.6494H18.5242ZM75.2298 62.6494C75.1277 62.6564 75.0288 62.6884 74.942 62.7428C74.8552 62.7971 74.7831 62.872 74.7323 62.9609C74.691 63.0319 74.6642 63.1104 74.6534 63.1918C74.6426 63.2732 74.648 63.3559 74.6692 63.4353C74.6905 63.5146 74.7271 63.589 74.7772 63.6541C74.8272 63.7192 74.8897 63.7738 74.9609 63.8147L81.2024 67.418C81.2735 67.4592 81.3519 67.486 81.4333 67.4968C81.5147 67.5076 81.5974 67.5022 81.6768 67.481C81.7561 67.4597 81.8304 67.4231 81.8955 67.373C81.9606 67.323 82.0152 67.2606 82.0561 67.1894C82.0974 67.1184 82.1241 67.04 82.135 66.9586C82.1458 66.8772 82.1404 66.7945 82.1192 66.7151C82.0979 66.6358 82.0612 66.5615 82.0112 66.4964C81.9611 66.4313 81.8987 66.3768 81.8275 66.3359L75.5858 62.7323C75.4781 62.6697 75.3541 62.6409 75.2298 62.6494ZM16.9674 67.9377C16.8428 67.9422 16.7224 67.9838 16.6216 68.0572L14.1678 69.8375C14.1012 69.8856 14.0448 69.9463 14.0018 70.0162C13.9588 70.0862 13.93 70.1639 13.9171 70.245C13.9042 70.3261 13.9074 70.4089 13.9266 70.4888C13.9459 70.5686 13.9806 70.6438 14.029 70.7102C14.0771 70.7767 14.1378 70.8331 14.2077 70.8761C14.2777 70.9191 14.3554 70.9479 14.4365 70.9608C14.5175 70.9737 14.6003 70.9705 14.6802 70.9513C14.76 70.9321 14.8352 70.8973 14.9016 70.849L17.3556 69.0686C17.4222 69.0205 17.4786 68.9598 17.5216 68.8899C17.5646 68.8199 17.5934 68.7422 17.6063 68.6611C17.6192 68.5801 17.616 68.4972 17.5968 68.4174C17.5776 68.3376 17.5429 68.2624 17.4946 68.196C17.4346 68.113 17.3552 68.046 17.2632 68.0009C17.1713 67.9559 17.0696 67.9342 16.9673 67.9377H16.9674ZM76.7714 67.9588C76.6691 67.9551 76.5675 67.9767 76.4756 68.0216C76.3836 68.0666 76.3042 68.1335 76.2443 68.2165C76.1959 68.2828 76.1611 68.3581 76.1418 68.4379C76.1226 68.5177 76.1192 68.6006 76.1321 68.6817C76.145 68.7628 76.1737 68.8405 76.2167 68.9105C76.2597 68.9804 76.3161 69.0412 76.3826 69.0893L78.8352 70.8714C78.9015 70.9198 78.9768 70.9546 79.0566 70.9739C79.1364 70.9931 79.2192 70.9964 79.3003 70.9836C79.3814 70.9707 79.4592 70.942 79.5291 70.899C79.5991 70.856 79.6598 70.7996 79.7079 70.733C79.7563 70.6667 79.7911 70.5915 79.8104 70.5118C79.8296 70.432 79.8329 70.3492 79.8201 70.2681C79.8073 70.187 79.7786 70.1093 79.7356 70.0393C79.6927 69.9694 79.6364 69.9086 79.5699 69.8605L77.1173 68.0784C77.0165 68.0049 76.8961 67.9631 76.7714 67.9586V67.9588ZM22.5247 68.1745C22.4427 68.17 22.3606 68.1818 22.2832 68.2093C22.2058 68.2367 22.1346 68.2792 22.0737 68.3344L16.7139 73.1525C16.6527 73.2073 16.603 73.2736 16.5675 73.3476C16.532 73.4216 16.5115 73.502 16.5071 73.5839C16.5028 73.6659 16.5147 73.748 16.5421 73.8253C16.5695 73.9027 16.612 73.9739 16.667 74.0349C16.7217 74.096 16.788 74.1458 16.8621 74.1813C16.9361 74.2167 17.0164 74.2372 17.0984 74.2416C17.1804 74.246 17.2624 74.2341 17.3398 74.2067C17.4172 74.1792 17.4884 74.1368 17.5493 74.0818L22.9092 69.2636C22.9703 69.2088 23.0201 69.1426 23.0556 69.0685C23.091 68.9945 23.1116 68.9142 23.1159 68.8322C23.1203 68.7502 23.1084 68.6682 23.081 68.5908C23.0535 68.5134 23.0111 68.4422 22.9561 68.3813C22.9013 68.3201 22.8351 68.2703 22.761 68.2348C22.687 68.1993 22.6067 68.1788 22.5247 68.1745ZM71.214 68.1917C71.0484 68.2006 70.8932 68.2749 70.7823 68.3982C70.7273 68.4591 70.6848 68.5303 70.6573 68.6076C70.6298 68.685 70.6178 68.7671 70.6221 68.8491C70.6264 68.9311 70.6469 69.0114 70.6823 69.0855C70.7178 69.1595 70.7675 69.2259 70.8286 69.2807L76.1852 74.1025C76.2461 74.1576 76.3173 74.2001 76.3947 74.2275C76.4721 74.255 76.5541 74.2669 76.6361 74.2626C76.7181 74.2583 76.7984 74.2379 76.8725 74.2025C76.9465 74.167 77.0129 74.1173 77.0677 74.0562C77.1228 73.9953 77.1653 73.9242 77.1927 73.8468C77.2202 73.7695 77.2321 73.6874 77.2278 73.6054C77.2235 73.5235 77.2031 73.4431 77.1676 73.3691C77.1322 73.295 77.0825 73.2287 77.0214 73.1739L71.6647 68.3519C71.6038 68.2968 71.5327 68.2543 71.4554 68.2268C71.3781 68.1993 71.2961 68.1874 71.2142 68.1917H71.214ZM27.6098 72.7689C27.5075 72.7651 27.4058 72.7866 27.3138 72.8315C27.2218 72.8764 27.1423 72.9433 27.0823 73.0262L22.8427 78.8542C22.7942 78.9205 22.7593 78.9957 22.74 79.0755C22.7207 79.1553 22.7173 79.2381 22.7301 79.3192C22.7428 79.4003 22.7715 79.4781 22.8144 79.5481C22.8573 79.618 22.9136 79.6789 22.9801 79.7271C23.0464 79.7755 23.1216 79.8104 23.2014 79.8297C23.2812 79.849 23.364 79.8524 23.4451 79.8396C23.5262 79.8269 23.604 79.7982 23.674 79.7553C23.744 79.7124 23.8048 79.6561 23.853 79.5896L28.0928 73.7614C28.1413 73.6952 28.1761 73.62 28.1955 73.5402C28.2148 73.4604 28.2182 73.3776 28.2054 73.2965C28.1926 73.2154 28.164 73.1376 28.121 73.0676C28.0781 72.9976 28.0218 72.9368 27.9553 72.8886C27.8547 72.815 27.7343 72.7733 27.6098 72.7689ZM66.1096 72.7951C65.9851 72.7994 65.8646 72.8409 65.7638 72.9143C65.6972 72.9623 65.6408 73.0231 65.5978 73.093C65.5548 73.1629 65.526 73.2406 65.5131 73.3217C65.5002 73.4028 65.5035 73.4856 65.5227 73.5654C65.5419 73.6452 65.5766 73.7205 65.625 73.7868L69.8568 79.6206C69.9049 79.6872 69.9656 79.7436 70.0355 79.7867C70.1054 79.8297 70.1832 79.8585 70.2643 79.8714C70.3454 79.8843 70.4282 79.8811 70.508 79.8619C70.5879 79.8427 70.6631 79.8079 70.7295 79.7596C70.7961 79.7115 70.8525 79.6508 70.8955 79.5808C70.9386 79.5109 70.9674 79.4332 70.9803 79.3521C70.9932 79.271 70.99 79.1882 70.9708 79.1083C70.9516 79.0285 70.9168 78.9532 70.8684 78.8869L66.6365 73.0531C66.5766 72.9701 66.4972 72.9032 66.4053 72.8582C66.3133 72.8132 66.2118 72.7915 66.1095 72.7951H66.1096ZM22.1367 73.6952C21.971 73.7041 21.8157 73.7784 21.7048 73.9017L19.6764 76.1549C19.6213 76.2158 19.5788 76.287 19.5513 76.3644C19.5238 76.4417 19.5119 76.5238 19.5162 76.6058C19.5205 76.6878 19.5409 76.7681 19.5763 76.8422C19.6117 76.9162 19.6614 76.9826 19.7225 77.0374C19.7834 77.0925 19.8546 77.135 19.932 77.1625C20.0093 77.1899 20.0914 77.2019 20.1734 77.1975C20.2554 77.1932 20.3357 77.1727 20.4097 77.1373C20.4838 77.1018 20.5501 77.0521 20.6049 76.991L22.6337 74.7382C22.6887 74.6773 22.7312 74.6061 22.7587 74.5287C22.7862 74.4513 22.7981 74.3692 22.7938 74.2872C22.7895 74.2052 22.7691 74.1249 22.7336 74.0508C22.6982 73.9767 22.6485 73.9104 22.5873 73.8555C22.5265 73.8005 22.4553 73.7579 22.378 73.7305C22.3007 73.703 22.2186 73.691 22.1367 73.6954V73.6952ZM71.6138 73.6982C71.5318 73.6937 71.4498 73.7056 71.3724 73.7331C71.2951 73.7606 71.224 73.8032 71.1632 73.8584C71.1021 73.9132 71.0524 73.9795 71.0169 74.0535C70.9815 74.1276 70.961 74.2079 70.9567 74.2899C70.9524 74.3719 70.9643 74.4539 70.9918 74.5313C71.0193 74.6086 71.0617 74.6798 71.1168 74.7407L73.145 76.9941C73.1997 77.0552 73.2661 77.1049 73.3401 77.1404C73.4142 77.1758 73.4945 77.1963 73.5765 77.2006C73.6585 77.2049 73.7405 77.1929 73.8179 77.1655C73.8952 77.138 73.9664 77.0955 74.0273 77.0404C74.0885 76.9856 74.1382 76.9192 74.1736 76.8451C74.2091 76.771 74.2295 76.6907 74.2338 76.6087C74.2381 76.5267 74.2262 76.4446 74.1987 76.3672C74.1712 76.2898 74.1287 76.2187 74.0736 76.1577L72.0454 73.9047C71.9906 73.8435 71.9243 73.7937 71.8502 73.7582C71.7761 73.7228 71.6957 73.7023 71.6136 73.698L71.6138 73.6982ZM33.5304 76.1974C33.4076 76.1947 33.2867 76.2284 33.183 76.2943C33.0793 76.3603 32.9975 76.4555 32.9479 76.5679L30.0114 83.1498C29.9778 83.2248 29.9594 83.3056 29.9571 83.3876C29.9548 83.4697 29.9688 83.5514 29.9981 83.6281C30.0275 83.7047 30.0717 83.7748 30.1283 83.8343C30.1848 83.8939 30.2526 83.9416 30.3276 83.9749C30.4025 84.0085 30.4833 84.027 30.5654 84.0293C30.6475 84.0316 30.7292 84.0177 30.8059 83.9883C30.8825 83.9589 30.9527 83.9147 31.0122 83.8582C31.0717 83.8017 31.1195 83.7339 31.1528 83.6589L34.0891 77.077C34.1228 77.0021 34.1412 76.9213 34.1435 76.8392C34.1458 76.7572 34.1319 76.6754 34.1025 76.5988C34.0731 76.5221 34.0289 76.452 33.9723 76.3924C33.9158 76.3329 33.848 76.2851 33.773 76.2519C33.6966 76.2176 33.6141 76.1991 33.5304 76.1974ZM60.1842 76.2155C60.1005 76.2171 60.018 76.2355 59.9415 76.2697C59.8664 76.3028 59.7986 76.3505 59.742 76.41C59.6854 76.4695 59.6411 76.5395 59.6116 76.6161C59.5821 76.6928 59.5681 76.7745 59.5702 76.8566C59.5724 76.9386 59.5908 77.0195 59.6243 77.0944L62.5516 83.6802C62.5848 83.7553 62.6326 83.8231 62.692 83.8797C62.7515 83.9363 62.8216 83.9806 62.8982 84.0101C62.9749 84.0395 63.0566 84.0536 63.1386 84.0514C63.2207 84.0492 63.3016 84.0308 63.3765 83.9973C63.4516 83.9641 63.5194 83.9164 63.576 83.857C63.6326 83.7975 63.6769 83.7275 63.7063 83.6509C63.7358 83.5742 63.7498 83.4926 63.7476 83.4105C63.7454 83.3285 63.7271 83.2477 63.6936 83.1727L60.7663 76.5869C60.7166 76.4745 60.6349 76.3794 60.5314 76.3133C60.4278 76.2472 60.3071 76.2132 60.1842 76.2155ZM28.3705 78.2324C28.2684 78.2393 28.1696 78.2714 28.0828 78.3257C27.9961 78.3801 27.9241 78.455 27.8732 78.5438L26.3575 81.1693C26.3163 81.2403 26.2895 81.3188 26.2787 81.4002C26.2679 81.4816 26.2732 81.5643 26.2945 81.6436C26.3157 81.7229 26.3524 81.7972 26.4025 81.8623C26.4525 81.9274 26.5149 81.982 26.5861 82.0229C26.6571 82.0641 26.7356 82.0909 26.8169 82.1017C26.8983 82.1125 26.9811 82.1071 27.0604 82.0859C27.1397 82.0647 27.214 82.028 27.2791 81.9779C27.3442 81.9279 27.3987 81.8655 27.4396 81.7943L28.9555 79.1686C28.9968 79.0976 29.0235 79.0191 29.0343 78.9377C29.0451 78.8563 29.0398 78.7736 29.0185 78.6943C28.9972 78.615 28.9605 78.5407 28.9105 78.4756C28.8604 78.4105 28.798 78.356 28.7268 78.3151C28.619 78.2526 28.4949 78.2238 28.3705 78.2324ZM65.3836 78.2324C65.2593 78.2235 65.1353 78.2524 65.0276 78.3152C64.9565 78.3561 64.8941 78.4107 64.844 78.4758C64.794 78.5409 64.7573 78.6152 64.736 78.6945C64.7148 78.7738 64.7094 78.8565 64.7202 78.9379C64.731 79.0193 64.7578 79.0978 64.799 79.1688L66.3148 81.7943C66.3557 81.8655 66.4103 81.9279 66.4753 81.9779C66.5404 82.028 66.6148 82.0647 66.6941 82.0859C66.7734 82.1071 66.8561 82.1125 66.9375 82.1017C67.0189 82.0909 67.0973 82.0641 67.1683 82.0229C67.2395 81.982 67.3019 81.9274 67.352 81.8623C67.402 81.7972 67.4387 81.7229 67.46 81.6436C67.4812 81.5643 67.4866 81.4816 67.4758 81.4002C67.4649 81.3188 67.4382 81.2403 67.3969 81.1693L65.8812 78.544C65.8302 78.4552 65.7582 78.3803 65.6714 78.3259C65.5846 78.2716 65.4858 78.2395 65.3836 78.2324ZM40.0674 78.3265C39.9235 78.3253 39.7836 78.3739 39.6715 78.4641C39.5594 78.5544 39.482 78.6807 39.4525 78.8215L37.9548 85.8716C37.9375 85.9518 37.9363 86.0347 37.9512 86.1155C37.9661 86.1962 37.9968 86.2732 38.0415 86.3421C38.0862 86.4109 38.1441 86.4703 38.2118 86.5167C38.2796 86.5631 38.3558 86.5957 38.4362 86.6126C38.5164 86.6298 38.5994 86.6311 38.6801 86.6162C38.7609 86.6013 38.8379 86.5706 38.9068 86.5259C38.9757 86.4812 39.035 86.4233 39.0814 86.3555C39.1279 86.2878 39.1605 86.2115 39.1773 86.1312L40.6751 79.0813C40.6946 78.9906 40.6936 78.8966 40.6721 78.8063C40.6507 78.716 40.6093 78.6316 40.5511 78.5593C40.4928 78.487 40.4192 78.4286 40.3355 78.3884C40.2518 78.3482 40.1602 78.3272 40.0674 78.3269V78.3265ZM53.6648 78.3309C53.572 78.3312 53.4804 78.3522 53.3968 78.3923C53.3132 78.4325 53.2395 78.4908 53.1813 78.563C53.1231 78.6353 53.0817 78.7196 53.0602 78.8098C53.0387 78.9001 53.0376 78.994 53.057 79.0847L54.5495 86.1358C54.5663 86.2162 54.5988 86.2924 54.6452 86.3602C54.6916 86.428 54.7509 86.4859 54.8197 86.5307C54.8885 86.5755 54.9655 86.6062 55.0463 86.6212C55.127 86.6361 55.2099 86.635 55.2902 86.6178C55.3706 86.601 55.4469 86.5684 55.5146 86.5221C55.5824 86.4757 55.6404 86.4164 55.6851 86.3476C55.7299 86.2787 55.7607 86.2017 55.7756 86.121C55.7906 86.0402 55.7894 85.9573 55.7722 85.877L54.2793 78.8264C54.2499 78.6856 54.1726 78.5592 54.0606 78.4689C53.9485 78.3785 53.8087 78.3297 53.6648 78.3307V78.3309ZM46.8771 79.042C46.795 79.0418 46.7136 79.0579 46.6377 79.0892C46.5618 79.1206 46.4929 79.1666 46.4348 79.2246C46.3768 79.2827 46.3308 79.3517 46.2994 79.4276C46.2681 79.5035 46.2521 79.5848 46.2523 79.6669V86.874C46.2521 86.9561 46.2681 87.0375 46.2994 87.1134C46.3308 87.1893 46.3768 87.2583 46.4349 87.3163C46.4929 87.3744 46.5619 87.4204 46.6378 87.4518C46.7137 87.4831 46.7951 87.4991 46.8772 87.4989C46.9593 87.4991 47.0406 87.483 47.1165 87.4517C47.1924 87.4203 47.2613 87.3743 47.3194 87.3162C47.3774 87.2581 47.4234 87.1892 47.4547 87.1133C47.486 87.0374 47.5021 86.9561 47.5019 86.874V79.6671C47.5021 79.585 47.486 79.5036 47.4547 79.4277C47.4234 79.3518 47.3774 79.2829 47.3193 79.2248C47.2613 79.1667 47.1923 79.1207 47.1164 79.0894C47.0405 79.058 46.9592 79.042 46.8771 79.0421V79.042ZM35.4076 81.3711C35.2852 81.3814 35.1685 81.4278 35.0723 81.5042C34.9761 81.5807 34.9046 81.6839 34.8668 81.8008L33.9297 84.684C33.9042 84.762 33.8943 84.8444 33.9006 84.9262C33.9069 85.0081 33.9294 85.0879 33.9666 85.1611C34.0039 85.2343 34.0553 85.2994 34.1178 85.3526C34.1803 85.4059 34.2527 85.4463 34.3308 85.4715C34.4089 85.497 34.4912 85.5069 34.573 85.5005C34.6549 85.4942 34.7347 85.4717 34.8078 85.4344C34.881 85.3971 34.946 85.3458 34.9993 85.2833C35.0526 85.2208 35.0929 85.1484 35.1182 85.0703L36.0553 82.1872C36.0808 82.1092 36.0907 82.0269 36.0844 81.945C36.078 81.8632 36.0556 81.7834 36.0184 81.7102C35.9811 81.6371 35.9298 81.572 35.8673 81.5187C35.8048 81.4655 35.7325 81.4251 35.6543 81.3999C35.5748 81.3739 35.491 81.3641 35.4076 81.3711ZM58.3418 81.3725C58.2584 81.365 58.1745 81.3747 58.0951 81.401C58.0169 81.4263 57.9445 81.4667 57.882 81.5199C57.8195 81.5732 57.7681 81.6383 57.7308 81.7114C57.6936 81.7846 57.6711 81.8644 57.6647 81.9463C57.6584 82.0282 57.6683 82.1105 57.6938 82.1885L58.6305 85.0717C58.6557 85.1499 58.6961 85.2223 58.7494 85.2848C58.8026 85.3473 58.8677 85.3987 58.9409 85.4359C59.0141 85.4732 59.0939 85.4956 59.1758 85.502C59.2576 85.5083 59.34 85.4984 59.418 85.4728C59.4961 85.4477 59.5685 85.4073 59.631 85.3541C59.6935 85.3008 59.7449 85.2358 59.7822 85.1626C59.8195 85.0895 59.842 85.0097 59.8484 84.9278C59.8547 84.846 59.8449 84.7637 59.8194 84.6856L58.8823 81.8023C58.8445 81.6854 58.7731 81.5823 58.677 81.5058C58.5809 81.4293 58.4643 81.383 58.3419 81.3725H58.3418ZM42.9551 82.9782C42.8118 82.9921 42.6777 83.0551 42.5757 83.1566C42.4736 83.2581 42.4097 83.3917 42.395 83.5349L42.0781 86.5501C42.0693 86.6317 42.0768 86.7143 42.1 86.793C42.1232 86.8717 42.1618 86.9451 42.2134 87.0089C42.2651 87.0727 42.3289 87.1256 42.4011 87.1647C42.4733 87.2038 42.5525 87.2282 42.6341 87.2366C42.7158 87.2454 42.7983 87.238 42.8771 87.2148C42.9559 87.1915 43.0293 87.153 43.0931 87.1013C43.1569 87.0496 43.2099 86.9859 43.249 86.9137C43.2881 86.8415 43.3126 86.7622 43.321 86.6806L43.6379 83.6657C43.6467 83.584 43.6392 83.5015 43.616 83.4227C43.5928 83.3439 43.5542 83.2705 43.5026 83.2067C43.4509 83.1429 43.3871 83.0899 43.3149 83.0508C43.2427 83.0117 43.1635 82.9873 43.0818 82.9788C43.0397 82.9745 42.9972 82.9743 42.9551 82.9782ZM50.7741 82.9812C50.7319 82.9767 50.6893 82.9769 50.6471 82.9818C50.5654 82.9902 50.4862 83.0145 50.4139 83.0536C50.3417 83.0926 50.2779 83.1455 50.2262 83.2093C50.1745 83.2731 50.1358 83.3464 50.1125 83.4251C50.0892 83.5039 50.0817 83.5864 50.0904 83.6681L50.4054 86.6835C50.4137 86.7652 50.4381 86.8444 50.4772 86.9166C50.5162 86.9888 50.5691 87.0526 50.6329 87.1043C50.6967 87.156 50.77 87.1946 50.8488 87.2179C50.9275 87.2411 51.01 87.2486 51.0917 87.2399C51.1734 87.2316 51.2526 87.2072 51.3248 87.1681C51.3971 87.1291 51.4609 87.0761 51.5126 87.0124C51.5643 86.9486 51.603 86.8752 51.6263 86.7965C51.6495 86.7177 51.657 86.6352 51.6483 86.5535L51.3336 83.5383C51.319 83.3951 51.2553 83.2614 51.1533 83.1599C51.0512 83.0583 50.9173 82.9952 50.774 82.9812H50.7741Z" fill="#F4F2F3"/>
<g opacity="0.409" filter="url(#filter0_f_101_205)">
<path d="M76.1617 21.884L41.9764 41.7457L20.3621 75.7729L51.9821 52.3523L76.1617 21.884Z" fill="black"/>
</g>
<path d="M51.7763 52.0077L41.9775 41.7463L76.7371 18.3636L51.7763 52.0077Z" fill="#FF5150"/>
<path d="M51.7765 52.0076L41.9778 41.7462L17.0171 75.3905L51.7765 52.0076Z" fill="#F1F1F1"/>
<path opacity="0.243" d="M17.0166 75.3905L51.776 52.0077L76.737 18.3636L17.0166 75.3905Z" fill="black"/>
<defs>
<filter id="filter0_f_101_205" x="14.903" y="16.425" width="66.7176" height="64.8069" filterUnits="userSpaceOnUse" color-interpolation-filters="sRGB">
<feFlood flood-opacity="0" result="BackgroundImageFix"/>
<feBlend mode="normal" in="SourceGraphic" in2="BackgroundImageFix" result="shape"/>
<feGaussianBlur stdDeviation="2.72951" result="effect1_foregroundBlur_101_205"/>
</filter>
<linearGradient id="paint0_linear_101_205" x1="46.8753" y1="93.3761" x2="46.8753" y2="0.37677" gradientUnits="userSpaceOnUse">
<stop stop-color="#BDBDBD"/>
<stop offset="1" stop-color="white"/>
</linearGradient>
<radialGradient id="paint1_radial_101_205" cx="0" cy="0" r="1" gradientUnits="userSpaceOnUse" gradientTransform="translate(47.07 40.6279) scale(46.4999 46.4999)">
<stop stop-color="#06C2E7"/>
<stop offset="0.25" stop-color="#0DB8EC"/>
<stop offset="0.5" stop-color="#12AEF1"/>
<stop offset="0.75" stop-color="#1F86F9"/>
<stop offset="1" stop-color="#107DDD"/>
</radialGradient>
</defs>
</svg>
