<svg width="61" height="93" viewBox="0 0 61 93" fill="none" xmlns="http://www.w3.org/2000/svg">
<path d="M34.8048 6.94242L32.3301 16.7712C35.8355 9.82931 41.4029 4.60563 47.7958 0C43.1217 5.43003 38.8603 10.8606 36.2482 16.2906C40.6475 10.1041 46.5587 6.66763 53.2258 4.39928C44.3588 12.304 37.3207 20.7865 31.9591 29.3093L27.6978 27.4536C28.4527 20.6491 31.024 13.679 34.8048 6.94242Z" fill="#ABCD03"/>
<path d="M23.425 25.6468L31.536 29.0118C31.536 31.0743 31.3684 37.365 32.6584 39.2206C46.1476 56.5938 43.8783 91.4186 29.9255 92.312C8.67797 92.312 0.574951 77.878 0.574951 64.6117C0.574951 52.5141 15.0778 44.472 23.739 37.3237C25.9384 35.3991 25.5564 31.1458 23.425 25.6468Z" fill="#FFFCDB"/>
<path d="M31.5381 28.8906L34.4612 30.3818C34.1864 32.3059 34.5986 36.5683 36.5227 37.6675C45.0465 42.9601 53.0881 48.7339 56.2503 54.5077C67.523 74.8538 48.3456 93.687 31.7802 91.8998C40.7846 85.2322 43.3967 71.5542 40.0286 56.6381C38.6541 50.7954 36.5227 45.5028 32.742 39.5226C31.1042 36.5874 31.676 32.9466 31.5381 28.8906Z" fill="#7D4698"/>
<path d="M30.1309 28.3883L36.1795 29.2132C34.3923 35.1243 39.6854 39.2483 41.4037 40.2111C45.2529 42.3421 48.9646 44.5415 51.9205 47.222C54.6739 49.7318 56.8727 52.7891 58.376 56.1981C59.8792 59.607 60.6538 63.2924 60.6501 67.018C60.6501 74.51 57.2131 81.7273 51.4393 86.5387C46.0093 91.0754 38.5173 93 31.2311 93C26.6944 93 22.6389 92.7942 18.2401 91.3502C8.20495 87.9822 0.71243 79.3905 0.0938825 69.0795C-0.456217 61.0374 1.33098 54.9199 7.58641 48.5275C10.8165 45.1595 17.3468 41.3103 21.815 38.2171C24.0149 36.7047 26.3517 32.4428 21.8835 24.4012L22.7773 23.7137L29.3991 28.1487L23.8085 25.8446C24.2897 26.5321 25.5957 29.6254 25.871 30.5187C26.4896 33.0618 26.2148 35.537 25.6647 36.6362C22.8468 41.723 18.0353 43.0975 14.5298 45.9844C8.34336 51.0707 1.60729 55.1262 2.36323 69.0795C2.70698 75.953 8.06856 84.3388 16.1102 88.257C20.6469 90.4569 25.871 91.3502 31.1637 91.625C35.9062 91.8314 44.9796 89.0129 49.9284 84.889C55.2211 80.4902 58.1769 73.8225 58.1769 67.018C58.1769 60.144 55.4274 53.6143 50.2722 49.0087C47.3164 46.3281 42.4364 43.0975 39.4121 41.3788C36.3879 39.6605 32.6071 34.849 33.8442 30.2439L30.1309 28.3883Z" fill="black"/>
<path d="M28.2752 38.5613C27.6567 41.7235 26.9692 47.4283 24.2197 49.5592C23.0511 50.3836 21.8824 51.209 20.6453 52.0334C15.6964 55.402 10.747 58.5632 8.47921 66.6742C7.99806 68.393 8.41076 70.2486 8.82346 71.9669C10.0606 76.9157 13.566 82.2773 16.3155 85.4395C16.3155 85.5769 16.8656 85.9207 16.8656 86.0581C19.1339 88.7391 19.8214 89.495 28.4131 91.4191L28.2068 92.3819C23.0516 91.0074 18.7902 89.7703 16.1091 86.6766C16.1091 86.6081 15.628 86.1265 15.628 86.1265C12.7411 82.8269 9.23515 77.3284 7.92961 72.1732C7.44846 70.1107 7.03627 68.5304 7.58586 66.3989C9.92265 58.0136 15.0094 54.714 20.1647 51.2085C21.3333 50.4526 22.7078 49.7646 23.8075 48.8712C25.9379 47.2909 27.1061 42.4789 28.2752 38.5613Z" fill="black"/>
<path d="M30.473 51.6208C30.5419 55.1952 30.1932 56.9879 31.0865 59.5315C31.6361 61.0434 33.4933 63.1059 34.0434 65.0995C34.7993 67.7805 35.6227 70.7359 35.5532 72.5231C35.5532 74.5855 35.4244 78.4327 34.531 82.5572C33.8496 85.9655 32.2798 88.8896 29.6395 90.547C26.9354 89.9903 23.7601 89.0396 21.8858 87.4331C18.243 84.2714 15.0164 78.9843 14.6037 74.3787C14.2604 70.599 17.7608 65.0235 22.6408 62.2055C26.7647 59.7998 27.724 57.0579 28.6174 52.6586C27.3803 56.5078 26.2182 59.7349 22.2316 61.7964C16.4578 64.8212 13.4954 69.8979 13.7702 74.7094C14.1824 80.8948 16.6596 85.0873 21.5395 88.4553C23.6015 89.8987 27.4537 91.4242 29.8595 91.8369V91.5224C31.6839 91.1806 34.0464 88.184 35.2231 84.13C36.2543 80.4872 36.6605 75.8247 36.591 72.8688C36.5221 71.1506 35.7641 67.4292 34.3891 64.0612C33.6332 62.2055 32.4721 60.3504 31.7156 59.0444C30.8917 57.7373 30.8857 54.9199 30.473 51.6208Z" fill="black"/>
<path d="M30.0647 65.0994C30.1332 67.5051 31.0995 70.5873 31.5117 73.7495C31.8559 76.0868 31.7065 78.4346 31.6375 80.4971C31.5696 82.8842 30.7744 87.1617 29.6872 89.2418C28.662 88.7718 28.2614 88.2352 27.5951 87.3701C26.7707 86.2014 26.211 85.0328 25.6609 83.6583C25.2482 82.6271 24.7665 81.4468 24.5597 80.0723C24.2849 78.0103 24.3619 74.7842 26.6987 71.4846C28.4859 68.8726 28.8956 68.6743 29.5141 65.65C28.6887 68.3305 28.0732 68.6038 26.1481 70.8716C24.0176 73.3463 23.6633 76.9912 23.6633 79.9465C23.6633 81.1841 24.1566 82.5571 24.6382 83.8626C25.1878 85.2376 25.6599 86.6066 26.4158 87.6373C27.5523 89.3088 29.0068 90.2595 29.7184 90.4371C29.7235 90.4382 29.7295 90.4361 29.734 90.4371C29.7491 90.4407 29.7668 90.4497 29.7814 90.4522V90.3742C31.1151 88.887 31.9178 87.4098 32.1876 85.9231C32.5314 84.1359 32.6104 82.3447 32.8167 80.2138C33.0231 78.4271 32.8736 76.0193 32.3924 73.5451C31.7054 70.4519 30.5454 67.2983 30.0647 65.0994Z" fill="black"/>
<path d="M30.2681 35.6744C30.3371 39.2483 30.6119 45.9164 31.5742 48.528C31.849 49.4213 34.3921 53.3395 36.1788 58.082C37.4164 61.3816 37.6912 64.4059 37.8975 65.2992C38.7224 69.2174 37.6912 75.816 36.3162 82.0709C35.6292 85.439 33.2919 89.6319 30.6114 91.2817L30.0618 92.244C31.5742 92.1751 35.2854 88.5322 36.5915 83.9955C38.7914 76.2972 39.6847 72.7228 38.654 64.1995C38.5166 63.3741 38.1728 60.5567 36.8668 57.5319C34.9422 52.9263 32.1927 48.5275 31.8495 47.6336C31.2304 46.1907 30.4055 39.9358 30.2681 35.6744Z" fill="black"/>
<path d="M31.5582 30.7864C31.3539 34.459 31.2996 35.8118 31.9866 38.4924C32.7425 41.4482 36.5922 45.7096 38.173 50.59C41.1973 59.9382 40.4414 72.1732 38.2415 81.7272C37.4171 85.0948 33.4984 89.9757 29.5808 91.5561L32.4677 92.2435C34.0485 92.1746 38.1036 88.3944 39.6849 84.064C42.2276 77.259 42.7092 69.1484 41.678 60.6252C41.609 59.8003 40.234 52.4457 38.9285 49.3524C37.0723 44.7473 33.7727 40.6228 33.4295 39.73C32.8115 38.2176 31.4531 35.0775 31.5582 30.7864Z" fill="black"/>
<path d="M29.373 28.2009H29.6499V91.6259H29.373V28.2009Z" fill="black"/>
</svg>
