<svg width="94" height="93" viewBox="0 0 94 93" fill="none" xmlns="http://www.w3.org/2000/svg">
<path d="M46.5945 93C67.0052 93 78.3467 93 85.7781 85.597C93.189 78.1939 93.189 66.8739 93.189 46.4898C93.189 26.1056 93.189 14.7857 85.7781 7.38258C78.3467 0 67.0052 0 46.5945 0C26.1838 0 14.8423 0 7.4109 7.40309C0 14.8062 0 26.1261 0 46.5103C0 66.8944 0 78.2144 7.4109 85.6175C14.8423 93 26.1838 93 46.5945 93Z" fill="#EF3939"/>
<path d="M76.8928 29.3048C72.4298 21.4915 64.9575 15.4009 55.5608 12.8785C36.9108 7.89527 17.7489 18.9281 12.7537 37.5282C10.2357 46.8794 11.7915 56.3743 16.3363 64.126C16.3978 64.2285 16.4592 64.3516 16.5411 64.4541L32.9597 92.8565C35.6825 92.9386 38.6304 92.9591 41.8036 92.9591H46.4303C55.4994 92.9591 62.7875 92.9591 68.7449 92.3028C76.1762 91.4826 81.499 89.6574 85.6139 85.556C91.6122 79.5679 92.7586 70.9959 92.9838 57.1125C83.4029 40.5427 76.9132 29.3253 76.8928 29.3048Z" fill="url(#paint0_linear_101_164)"/>
<path d="M71.1196 21.9017C57.5056 8.28496 35.4162 8.28496 21.7818 21.9017C8.1678 35.5185 8.1678 57.5842 21.7818 71.1804C35.3957 84.7972 57.4852 84.7972 71.1196 71.1804C84.7541 57.5637 84.7541 35.498 71.1196 21.9017ZM69.0315 37.9178C63.2788 47.9048 57.5261 57.8918 51.7734 67.8993C50.7089 69.7654 49.153 70.8728 47.0239 71.0369C44.6491 71.2009 42.7657 70.1961 41.5578 68.1454C37.9138 61.8907 34.3107 55.595 30.7076 49.3198C28.5171 45.5055 26.3061 41.6911 24.1156 37.8563C21.9046 34.0009 24.4022 29.3048 28.8242 29.0792C31.158 28.9562 32.9596 30.0431 34.1469 32.0733C35.7642 34.8417 37.3611 37.6512 38.9784 40.4402C40.1453 42.4499 41.2712 44.4801 42.4586 46.4488C44.1783 49.3403 46.7168 50.9604 50.0947 51.1654C54.8647 51.4525 59.3072 47.9868 59.8804 42.9216C59.9214 42.5524 59.9418 42.1628 59.9623 41.9782C59.9418 40.3377 59.6347 38.9432 58.9796 37.6512C57.1986 34.083 59.1025 30.0841 62.9717 29.2228C66.1244 28.5255 69.4 30.8428 69.8094 34.042C70.0141 35.4159 69.7275 36.7079 69.0315 37.9178Z" fill="white"/>
<defs>
<linearGradient id="paint0_linear_101_164" x1="29.1307" y1="16.3219" x2="73.4086" y2="93.4346" gradientUnits="userSpaceOnUse">
<stop stop-opacity="0.2"/>
<stop offset="0.7908" stop-opacity="0.05"/>
</linearGradient>
</defs>
</svg>
