<svg width="81" height="93" viewBox="0 0 81 93" fill="none" xmlns="http://www.w3.org/2000/svg">
<path d="M40.3948 11.2288C30.2453 11.2288 20.5114 15.2607 13.3347 22.4375C6.15786 29.6143 2.12598 39.3481 2.12598 49.4976C2.12598 59.6472 6.15786 69.381 13.3347 76.5578C20.5114 83.7346 30.2453 87.7665 40.3948 87.7665C50.5443 87.7665 60.2781 83.7346 67.4549 76.5578C74.6317 69.381 78.6636 59.6472 78.6636 49.4976C78.6636 39.3481 74.6317 29.6143 67.4549 22.4375C60.2781 15.2607 50.5443 11.2288 40.3948 11.2288Z" fill="#354358"/>
<path opacity="0.2" d="M44.8799 3.11023C43.8825 3.11654 41.9804 3.28372 41.0069 3.55337C37.7558 4.45429 34.7237 8.68569 33.6009 11.7643C33.432 12.2273 33.2148 12.6499 33.1152 12.6992C33.0156 12.7486 32.6266 12.8456 32.2532 12.9238C28.406 13.7291 23.7086 15.4937 20.4886 17.337C13.2482 21.4818 7.69401 27.3654 4.07999 34.7169C2.03888 38.8688 0.881811 42.6767 0.213078 47.4467C-0.0708067 49.4717 -0.071245 55.6005 0.213078 57.627C1.49608 66.7531 5.3208 74.5756 11.6074 80.9438C18.7698 88.1991 27.9657 92.3333 38.3662 92.9755C39.6587 93.0553 43.5714 92.9292 45.0923 92.757C49.3372 92.2765 53.8573 90.9812 57.7433 89.1329C70.4132 83.1068 79.0498 71.026 80.6412 57.1171C80.7197 56.4309 80.7863 54.5564 80.7869 52.9345C81.0334 48.3021 79.1309 43.7044 77.2235 40.32C75.2524 36.2362 74.8725 32.6967 74.5821 28.3441C74.6221 28.0782 74.617 27.8029 74.5759 27.737C69.3541 29.3427 64.8843 33.5618 62.1357 37.4656C60.2771 40.4314 59.0598 43.4613 59.0545 46.1294C59.3139 52.9381 65.1422 57.8405 65.2707 63.9889C65.2707 70.5158 61.3395 76.8265 56.6688 81.3384C55.729 82.2462 55.503 82.4126 55.4 82.3097C55.366 82.2756 55.5128 81.8755 55.7218 81.4173C58.9723 74.2844 58.2882 65.7349 53.2936 59.7456C52.5955 58.9085 49.8473 56.1921 49.457 55.9515C49.6361 56.8941 49.7276 57.8513 49.7302 58.8107C49.7302 67.3935 42.7725 74.3512 34.1897 74.3512C25.6069 74.3512 18.6492 67.3935 18.6492 58.8107C18.6492 50.2279 25.6069 43.2702 34.1897 43.2702C35.1698 43.2731 36.1475 43.3686 37.1096 43.5556C37.1598 43.5584 37.2112 43.5583 37.2614 43.5618C37.4062 43.4383 37.4981 43.3259 37.4981 43.2886C37.4981 43.0479 33.6725 39.2176 32.6114 38.3958C30.4539 36.7249 27.9979 34.7103 25.1629 33.9765C24.4037 33.7801 24.0034 33.6228 24.0034 33.5212C24.0034 33.2326 26.7 32.4298 29.6915 31.8275C33.3269 31.0956 35.6852 30.9165 42.7309 30.8441C45.6869 30.8136 48.6003 30.7375 49.2081 30.6741C56.8029 29.4502 62.9125 24.476 65.6334 18.9155C65.7096 18.6628 65.7012 18.6606 64.5225 18.6606C62.027 18.6606 59.5151 18.1422 57.1241 17.0883C54.0281 15.3317 51.3046 13.2968 47.988 12.5838C47.1326 12.4 44.8121 12.3675 43.514 12.1893C43.2095 9.58259 44.3664 5.80209 45.4808 4.124C45.7576 3.72802 45.9638 3.34496 45.9422 3.2802C45.9005 3.15558 45.4783 3.10665 44.8799 3.11023V3.11023Z" fill="black"/>
<path d="M44.8799 0.00231725C43.8825 0.00862669 41.9804 0.175811 41.0069 0.445464C37.7558 1.34638 34.7237 5.57778 33.6009 8.65641C33.432 9.11936 33.2148 9.542 33.1152 9.59126C33.0156 9.64074 32.6266 9.73773 32.2532 9.81587C28.406 10.6212 23.7086 12.3858 20.4886 14.2291C13.2482 18.3738 7.69401 24.2575 4.07999 31.609C2.03888 35.7609 0.881811 39.5688 0.213078 44.3388C-0.0708067 46.3638 -0.071245 52.4926 0.213078 54.5191C1.49608 63.6452 5.3208 71.4677 11.6074 77.8359C18.7698 85.0912 27.9657 89.2254 38.3662 89.8676C39.6587 89.9474 43.5714 89.8213 45.0923 89.6491C49.3372 89.1686 53.8573 87.8733 57.7433 86.025C70.4132 79.9989 79.0498 67.9181 80.6412 54.0092C80.7197 53.323 80.7863 51.4485 80.7869 49.8266C81.0334 45.1942 79.1309 40.5965 77.2235 37.2121C75.2524 33.1283 74.8725 29.5888 74.5821 25.2362C74.6221 24.9703 74.617 24.695 74.5759 24.6291C69.3541 26.2348 64.8843 30.4539 62.1357 34.3577C60.2771 37.3234 59.0598 40.3534 59.0545 43.0215C59.3139 49.8302 65.1422 54.7326 65.2707 60.881C65.2707 67.4079 61.3395 73.7186 56.6688 78.2305C55.729 79.1383 55.503 79.3047 55.4 79.2018C55.366 79.1677 55.5128 78.7676 55.7218 78.3094C58.9723 71.1765 58.2882 62.627 53.2936 56.6377C52.5955 55.8006 49.8473 53.0842 49.457 52.8436C49.6361 53.7862 49.7276 54.7434 49.7302 55.7028C49.7302 64.2856 42.7725 71.2433 34.1897 71.2433C25.6069 71.2433 18.6492 64.2856 18.6492 55.7028C18.6492 47.12 25.6069 40.1623 34.1897 40.1623C35.1698 40.1651 36.1475 40.2607 37.1096 40.4477C37.1598 40.4505 37.2112 40.4504 37.2614 40.4539C37.4062 40.3304 37.4981 40.218 37.4981 40.1807C37.4981 39.94 33.6725 36.1097 32.6114 35.2879C30.4539 33.617 27.9979 31.6024 25.1629 30.8685C24.4037 30.6721 24.0034 30.5149 24.0034 30.4133C24.0034 30.1247 26.7 29.3219 29.6915 28.7196C33.3269 27.9877 35.6852 27.8086 42.7309 27.7362C45.6869 27.7057 48.6003 27.6296 49.2081 27.5662C56.8029 26.3423 62.9125 21.3681 65.6334 15.8076C65.7096 15.5549 65.7012 15.5527 64.5225 15.5527C62.027 15.5527 59.5151 15.0343 57.1241 13.9804C54.0281 12.2238 51.3046 10.1889 47.988 9.47592C47.1326 9.29205 44.8121 9.25962 43.514 9.08134C43.2095 6.47468 44.3664 2.69418 45.4808 1.01609C45.7576 0.620106 45.9638 0.237047 45.9422 0.172291C45.9005 0.047666 45.4783 -0.00126491 44.8799 0.00231873V0.00231725Z" fill="#41A6CC"/>
<path opacity="0.2" d="M44.8796 0.000182498C43.8823 0.00649194 41.9801 0.173677 41.0066 0.443329C37.7555 1.34424 34.7234 5.5781 33.6006 8.65672C33.4318 9.11968 33.2145 9.54232 33.115 9.59158C33.0154 9.64105 32.6264 9.73805 32.253 9.81619C28.4058 10.6215 23.7084 12.3861 20.4883 14.2294C13.2479 18.3742 7.69378 24.2578 4.07976 31.6093C2.03865 35.7612 0.881581 39.5691 0.212847 44.3392C0.0275923 45.6606 0.0106338 48.4441 0.0671549 50.9803C0.0973215 49.631 0.114269 48.1504 0.212847 47.4473C0.881581 42.6772 2.03865 38.8693 4.07976 34.7174C7.69378 27.3659 13.2479 21.4823 20.4883 17.3375C23.7084 15.4942 28.4058 13.7296 32.253 12.9243C32.6264 12.8461 33.0154 12.7492 33.115 12.6997C33.2145 12.6504 33.4318 12.2278 33.6006 11.7648C34.7234 8.6862 37.7555 4.45234 41.0066 3.55143C41.8813 3.30915 43.4409 3.16704 44.485 3.13256C44.7954 2.29898 45.1328 1.53763 45.4806 1.01396C45.7574 0.617971 45.9636 0.234912 45.942 0.170157C45.9003 0.0455312 45.478 -0.00340114 44.8796 0.000182498ZM43.7202 9.09987C43.5249 10.1802 43.4051 11.2595 43.5138 12.1898C44.8118 12.368 47.1323 12.4005 47.9877 12.5843C51.3044 13.2973 54.0279 15.332 57.1238 17.0887C59.3099 18.0522 61.5971 18.5492 63.8803 18.6306C64.5495 17.7146 65.1609 16.776 65.6347 15.8078C65.7109 15.5551 65.7025 15.5528 64.5238 15.5528C62.0283 15.5528 59.5149 15.0344 57.1238 13.9806C54.0279 12.2239 51.3044 10.1892 47.9877 9.47624C47.1691 9.30027 45.0421 9.25903 43.7202 9.09987ZM74.5765 24.6282C69.3548 26.2339 64.8866 30.4554 62.1381 34.3592C60.2795 37.325 59.0596 40.3537 59.0543 43.0219C59.0724 43.4987 59.1735 43.9467 59.2424 44.4059C59.6275 42.1901 60.6676 39.8137 62.1381 37.4673C64.8866 33.5635 69.3548 29.342 74.5765 27.7363C74.6177 27.8022 74.6226 28.0775 74.5826 28.3434C74.873 32.696 75.2522 36.2367 77.2233 40.3205C78.85 43.2069 80.4607 46.9751 80.7502 50.8953C80.7581 50.4721 80.7865 50.2412 80.7867 49.8269C81.0332 45.1945 79.1306 40.5968 77.2233 37.2124C75.2522 33.1286 74.873 29.5879 74.5826 25.2353C74.6226 24.9694 74.6177 24.6941 74.5765 24.6282ZM28.1979 32.1921C25.9293 32.7216 24.0032 33.2873 24.0032 33.5215C24.0032 33.6232 24.4035 33.7804 25.1626 33.9768C27.9976 34.7106 30.4537 36.7252 32.6111 38.3961C32.9691 38.6734 33.7951 39.4842 34.5294 40.193C35.3949 40.2145 36.2592 40.2827 37.1094 40.448C37.1596 40.4508 37.211 40.4506 37.2611 40.454C37.4059 40.3306 37.4979 40.2181 37.4979 40.1809C37.4979 39.9401 33.6723 36.1099 32.6111 35.288C31.2681 34.2479 29.7918 33.1067 28.1979 32.1921ZM49.4568 52.8439C49.6359 53.7865 49.7274 54.7437 49.73 55.7031C49.73 55.8649 49.7106 56.0222 49.7057 56.1827C50.3522 56.7053 52.6434 58.9667 53.2934 59.7461C55.9155 62.8905 57.3151 66.7414 57.6156 70.7216C57.9729 65.6732 56.5953 60.5976 53.2934 56.638C52.5953 55.8009 49.8471 53.0846 49.4568 52.8439ZM18.7279 57.2572C18.6772 57.768 18.649 58.2871 18.649 58.8112C18.649 67.394 25.6067 74.3517 34.1895 74.3517C42.7722 74.3517 49.73 67.394 49.73 58.8112C49.7288 58.3915 49.6436 57.9785 49.6086 57.5607C48.6895 65.2666 42.1428 71.2436 34.1895 71.2436C26.1309 71.2436 19.5072 65.1108 18.7279 57.2572ZM65.1248 62.8724C64.4473 68.5577 61.0052 73.9447 56.9235 77.9698C56.6088 79.1421 56.231 80.2998 55.7215 81.4178C55.5126 81.876 55.3657 82.2761 55.3998 82.3102C55.5028 82.4132 55.7288 82.2467 56.6686 81.3389C61.3393 76.827 65.2705 70.5163 65.2705 63.9894C65.2625 63.6082 65.1739 63.2448 65.1248 62.8724Z" fill="white"/>
</svg>
