<svg width="93" height="93" viewBox="0 0 93 93" fill="none" xmlns="http://www.w3.org/2000/svg">
<path fill-rule="evenodd" clip-rule="evenodd" d="M93 46.5C93 72.1811 72.1811 93 46.5 93C20.8189 93 0 72.1811 0 46.5C0 20.8189 20.8189 0 46.5 0C72.1811 0 93 20.8189 93 46.5Z" fill="url(#paint0_linear_101_142)"/>
<path fill-rule="evenodd" clip-rule="evenodd" d="M90.7477 46.5C90.7477 70.9371 70.9372 90.7476 46.5001 90.7476C22.0628 90.7476 2.25244 70.9371 2.25244 46.5C2.25244 22.0627 22.0628 2.25232 46.5001 2.25232C70.9372 2.25232 90.7477 22.0627 90.7477 46.5Z" fill="white"/>
<path fill-rule="evenodd" clip-rule="evenodd" d="M76.4344 27.3187L51.5496 51.6586V81.9198C51.5496 82.4648 49.1883 82.9007 46.5 82.937C43.9207 82.9007 41.4504 82.4648 41.4504 81.9198V51.6586L16.5656 27.3187C16.166 26.9191 17.4375 25.03 19.3992 23.0683C21.361 21.1066 23.2863 19.8351 23.6496 20.2347L46.4636 42.5039L69.2777 20.2347C69.6774 19.8351 71.5664 21.1066 73.5281 23.0683C75.4899 25.03 76.7977 26.9191 76.4344 27.3187Z" fill="#EC1C24"/>
<defs>
<linearGradient id="paint0_linear_101_142" x1="46.5" y1="0" x2="46.5" y2="93" gradientUnits="userSpaceOnUse">
<stop stop-color="#F5F5F6"/>
<stop offset="1" stop-color="#EDEDEE"/>
</linearGradient>
</defs>
</svg>
