<?xml version="1.0" standalone="no"?>
<!DOCTYPE svg PUBLIC "-//W3C//DTD SVG 20010904//EN"
 "http://www.w3.org/TR/2001/REC-SVG-20010904/DTD/svg10.dtd">
<svg version="1.0" xmlns="http://www.w3.org/2000/svg"
 width="1040.000000pt" height="1040.000000pt" viewBox="0 0 1040.000000 1040.000000"
 preserveAspectRatio="xMidYMid meet">
<metadata>
Created by potrace 1.14, written by Peter Selinger 2001-2017
</metadata>
<g transform="translate(0.000000,1040.000000) scale(0.100000,-0.100000)"
fill="#000000" stroke="none">
<path d="M4795 9284 c-986 -97 -1929 -564 -2594 -1284 -570 -618 -923 -1342
-1056 -2164 -46 -289 -59 -719 -29 -1027 167 -1762 1458 -3227 3184 -3613 618
-138 1286 -129 1897 24 1503 377 2670 1572 3007 3080 138 618 129 1286 -24
1897 -221 882 -716 1648 -1435 2221 -618 492 -1362 791 -2159 867 -196 19
-596 18 -791 -1z m814 -778 c624 -83 1181 -317 1666 -702 128 -101 343 -310
455 -439 424 -494 689 -1092 777 -1760 21 -163 24 -609 5 -765 -80 -653 -313
-1217 -708 -1715 -102 -128 -310 -343 -439 -454 -494 -425 -1093 -690 -1760
-778 -163 -21 -609 -24 -765 -5 -653 80 -1217 313 -1715 708 -128 102 -343
310 -454 439 -425 494 -690 1093 -778 1760 -21 163 -24 609 -5 765 94 768 406
1427 926 1959 279 285 541 478 881 651 393 201 788 310 1275 354 95 8 530 -4
639 -18z"/>
</g>
</svg>
