<svg id="Layer_1" data-name="Layer 1" xmlns="http://www.w3.org/2000/svg" viewBox="0 0 767.40668 738.31421"><defs><style>.cls-1{fill:#e9500e;}</style></defs><circle class="cls-1" cx="109.02696" cy="348.09412" r="109.02696"/><circle class="cls-1" cx="563.08369" cy="109.02698" r="109.02698"/><path class="cls-1" d="M492.48194,1336.66577a265.52505,265.52505,0,0,1-181.0712-138.09814,156.94784,156.94784,0,0,1-93.21911,11.45825,354.93524,354.93524,0,0,0,255.53723,214.16455,359.20777,359.20777,0,0,0,77.41949,7.967,156.00313,156.00313,0,0,1-31.92236-91.15466C510.24622,1340.00525,501.27735,1338.548,492.48194,1336.66577Z" transform="translate(-137.56155 -707.97998)"/><circle class="cls-1" cx="538.52046" cy="629.28723" r="109.02698"/><path class="cls-1" d="M827.798,1297.22095A356.70056,356.70056,0,0,0,845.67283,878.702a157.14441,157.14441,0,0,1-61.30975,71.8031,267.293,267.293,0,0,1-8.73688,265.4884A156.34677,156.34677,0,0,1,827.798,1297.22095Z" transform="translate(-137.56155 -707.97998)"/><path class="cls-1" d="M238.17644,899.71906q4.1505-.22779,8.30533-.22553A157.34626,157.34626,0,0,1,329.16416,923.039,265.90653,265.90653,0,0,1,543.27238,808.52966a158.0877,158.0877,0,0,1,33.076-88.42022C439.24549,709.25177,306.02421,780.001,238.17644,899.71906Z" transform="translate(-137.56155 -707.97998)"/></svg>