<svg xmlns="http://www.w3.org/2000/svg" viewBox="0 0 128 128">
  <defs>
    <linearGradient id="cardGradient" x1="0%" y1="0%" x2="100%" y2="100%">
      <stop offset="0%" stop-color="#5865f2" />
      <stop offset="100%" stop-color="#3b47e0" />
    </linearGradient>
  </defs>
  <rect x="4" y="4" width="120" height="120" rx="24" fill="url(#cardGradient)" />
  <g fill="#ffffff" transform="translate(24 36)">
    <path d="M52.8 4.9C47.7 2.7 42.2 1.3 36.5 0.8L35 3.6C29.5 3.2 24 3.2 18.5 3.6L17 0.8C11.2 1.3 5.8 2.7 0.7 4.9C-6.9 16.1-8.4 27-7.6 37.7C0.6 45.9 8.5 50.4 16.2 53.4C18.5 50.2 20.6 46.8 22.4 43.2C19.7 42.1 17.1 40.6 14.7 38.7C15.2 38.3 15.7 37.9 16.2 37.5C23.7 41.0 31.5 42.8 39.3 42.8C47.1 42.8 54.9 41.0 62.4 37.5C62.9 37.9 63.4 38.3 63.9 38.7C61.5 40.6 58.9 42.1 56.2 43.2C58.0 46.8 60.1 50.2 62.4 53.4C70.1 50.4 78.0 45.9 86.2 37.7C87.1 27 85.6 16.1 78.0 4.9C72.9 2.7 67.4 1.3 61.6 0.8L60.1 3.6C54.6 3.2 49.1 3.2 43.6 3.6L42.1 0.8C58.5 0.6 52.8 4.9 52.8 4.9Z" transform="scale(0.55) translate(28 6)" />
  </g>
</svg>
