<?xml version="1.0" standalone="no"?>
<!DOCTYPE svg PUBLIC "-//W3C//DTD SVG 20010904//EN"
 "http://www.w3.org/TR/2001/REC-SVG-20010904/DTD/svg10.dtd">
<svg version="1.0" xmlns="http://www.w3.org/2000/svg"
 width="3938.000000pt" height="1472.000000pt" viewBox="0 0 3938.000000 1472.000000"
 preserveAspectRatio="xMidYMid meet">

<g transform="translate(0.000000,1472.000000) scale(0.100000,-0.100000)"
fill="#000000" stroke="none">
<path d="M0 7360 l0 -7360 7350 0 7350 0 0 7360 0 7360 -7350 0 -7350 0 0
-7360z m8130 6338 c58 -17 123 -27 207 -32 74 -4 147 -14 185 -26 35 -10 108
-26 163 -34 55 -8 119 -22 143 -30 23 -8 70 -20 105 -26 70 -12 110 -25 471
-145 143 -47 325 -114 405 -147 174 -73 623 -297 736 -367 44 -27 116 -71 160
-97 71 -42 215 -136 315 -205 102 -70 316 -236 390 -303 47 -42 128 -110 180
-153 116 -94 400 -379 493 -494 37 -46 110 -133 163 -194 87 -99 198 -240 263
-335 129 -188 308 -464 350 -540 8 -13 42 -74 76 -135 88 -157 234 -459 283
-585 12 -30 41 -104 65 -165 45 -112 101 -278 155 -460 71 -235 81 -273 92
-330 7 -33 20 -87 31 -120 11 -32 23 -96 29 -142 5 -45 19 -115 30 -154 13
-43 25 -121 30 -202 6 -88 17 -157 32 -207 l23 -75 0 -665 c0 -664 0 -665 -23
-735 -15 -48 -26 -115 -32 -210 -7 -88 -18 -164 -31 -204 -11 -35 -25 -103
-30 -150 -5 -47 -18 -113 -28 -146 -11 -33 -24 -87 -31 -120 -6 -33 -20 -87
-30 -120 -11 -33 -24 -82 -30 -110 -20 -94 -139 -440 -220 -640 -74 -183 -277
-610 -332 -696 -13 -20 -56 -93 -95 -161 -87 -150 -328 -513 -387 -583 -23
-27 -62 -77 -86 -110 -62 -83 -180 -222 -230 -270 -23 -22 -75 -80 -115 -130
-85 -104 -259 -279 -360 -361 -38 -31 -104 -88 -145 -128 -178 -168 -341 -288
-865 -631 -99 -65 -234 -138 -450 -245 -325 -159 -413 -197 -660 -283 -144
-51 -212 -73 -465 -152 -41 -13 -103 -29 -137 -35 -35 -6 -82 -18 -105 -26
-24 -8 -89 -22 -146 -30 -57 -9 -123 -22 -145 -31 -23 -8 -114 -21 -202 -29
-98 -8 -185 -21 -223 -34 -61 -19 -88 -20 -717 -20 -630 0 -655 1 -717 20 -39
13 -125 26 -223 35 -88 7 -179 20 -202 28 -22 9 -89 23 -148 31 -58 9 -134 25
-168 35 -34 11 -80 22 -102 26 -125 19 -697 212 -920 310 -250 110 -621 299
-745 380 -36 23 -92 59 -125 79 -33 20 -71 45 -85 56 -14 10 -56 39 -95 64
-116 76 -226 154 -295 210 -36 29 -89 69 -118 90 -76 55 -88 66 -251 221 -231
221 -586 582 -665 675 -66 78 -106 130 -240 309 -96 128 -285 418 -356 546
-40 72 -96 171 -126 221 -64 109 -189 366 -227 469 -8 22 -26 65 -40 95 -14
30 -32 73 -42 95 -18 44 -126 356 -155 450 -74 235 -92 299 -105 365 -9 41
-24 104 -35 140 -11 36 -24 108 -30 162 -6 53 -20 127 -31 165 -11 39 -24 124
-29 203 -5 74 -16 160 -25 190 -33 117 -36 188 -33 768 3 500 5 586 20 647 18
74 31 172 47 345 6 58 17 125 26 150 9 25 22 97 30 161 7 63 21 133 30 155 9
21 23 76 31 121 8 46 23 102 33 126 10 23 23 65 29 92 11 51 53 179 118 360
19 55 44 127 55 160 11 33 28 78 39 100 28 60 77 176 85 205 12 40 198 409
245 485 45 73 72 119 115 195 68 121 292 457 354 530 25 30 62 77 81 103 64
88 133 171 225 267 50 52 111 122 135 155 63 85 265 289 366 371 48 38 125
104 173 148 85 77 98 88 202 157 30 20 63 46 74 59 18 20 89 76 151 120 59 41
139 96 153 105 8 6 55 36 104 68 48 31 90 57 93 57 3 0 18 9 33 19 14 11 49
32 76 47 28 15 73 40 100 55 97 55 574 290 617 303 49 16 153 58 214 87 23 11
63 26 90 34 64 18 193 62 269 90 33 13 78 26 100 30 21 4 52 13 68 22 16 8 66
21 110 29 45 9 107 24 137 35 30 12 94 25 143 30 48 6 113 19 145 30 35 12
106 24 182 30 69 5 144 14 167 19 23 6 58 10 77 10 19 0 47 5 63 12 47 20 245
26 828 23 l560 -2 85 -25z"/>
<path d="M7031 12819 c-62 -5 -134 -15 -160 -24 -26 -8 -101 -19 -166 -24 -66
-6 -140 -17 -165 -26 -25 -9 -92 -23 -150 -31 -58 -8 -127 -23 -155 -33 -27
-10 -68 -21 -90 -25 -22 -4 -69 -17 -105 -30 -36 -13 -110 -37 -165 -55 -320
-103 -470 -169 -895 -394 -155 -82 -209 -114 -249 -149 -18 -16 -72 -55 -120
-87 -173 -115 -265 -183 -355 -264 -51 -45 -119 -102 -151 -127 -83 -64 -409
-392 -477 -481 -32 -41 -91 -111 -132 -156 -40 -44 -94 -112 -119 -150 -25
-37 -77 -113 -116 -168 -38 -55 -98 -147 -132 -205 -35 -58 -83 -136 -108
-175 -94 -146 -339 -650 -372 -765 -7 -25 -16 -50 -21 -56 -14 -19 -70 -176
-94 -264 -13 -47 -33 -114 -44 -150 -50 -157 -70 -229 -79 -286 -5 -33 -16
-77 -25 -98 -8 -20 -22 -87 -30 -149 -8 -62 -22 -132 -31 -157 -10 -27 -20
-105 -25 -195 -12 -178 -17 -216 -38 -264 -14 -31 -16 -93 -16 -466 0 -373 2
-436 16 -475 22 -61 26 -90 37 -265 6 -89 16 -168 26 -195 9 -25 22 -92 30
-150 8 -58 23 -130 33 -160 11 -30 22 -77 26 -105 6 -47 27 -122 76 -275 11
-36 30 -96 41 -134 11 -38 26 -80 33 -95 7 -14 18 -48 25 -74 6 -27 20 -68 30
-90 11 -23 25 -60 31 -82 34 -111 288 -634 358 -738 15 -23 54 -87 87 -142
139 -237 351 -525 522 -710 148 -159 498 -506 613 -607 47 -41 114 -95 150
-120 36 -26 98 -74 138 -108 71 -60 105 -82 222 -151 30 -18 84 -52 120 -75
168 -108 733 -384 787 -384 5 0 27 -9 49 -19 21 -11 64 -26 94 -35 57 -16 139
-43 250 -82 36 -13 83 -26 105 -30 22 -3 72 -17 110 -29 39 -13 104 -26 144
-30 41 -4 100 -16 130 -27 33 -11 107 -23 177 -29 67 -5 141 -16 164 -24 129
-46 891 -46 1019 0 24 8 103 19 176 25 72 5 154 17 181 25 27 8 90 22 139 30
50 9 113 24 140 34 28 10 70 22 95 25 66 10 288 83 461 152 48 19 91 34 96 34
5 0 33 11 61 25 29 14 54 25 58 25 7 0 400 197 479 239 32 18 95 56 140 85 44
29 114 72 155 96 41 24 104 67 140 95 36 28 94 71 128 94 35 24 94 70 130 103
37 34 108 91 157 129 102 76 465 438 516 513 18 28 72 96 120 151 94 109 115
138 323 450 145 217 203 321 357 634 106 216 139 291 165 368 8 27 24 67 34
89 23 50 56 140 77 209 9 28 24 73 34 100 10 28 25 83 34 122 8 40 21 89 30
109 8 19 21 72 29 117 8 45 22 102 30 126 9 25 21 76 27 115 6 39 19 103 30
141 10 39 23 125 29 191 5 65 14 133 19 149 48 143 52 1112 5 1224 -8 19 -19
96 -24 170 -5 75 -16 161 -25 191 -9 30 -22 100 -30 155 -9 55 -24 129 -35
165 -10 36 -22 83 -26 105 -4 22 -15 62 -26 89 -10 27 -26 81 -34 120 -8 39
-23 94 -33 121 -10 28 -25 73 -34 100 -22 71 -53 156 -80 217 -13 29 -32 76
-41 105 -30 95 -207 462 -341 708 -51 94 -254 401 -330 500 -34 44 -79 105
-100 135 -21 30 -64 85 -96 122 -31 36 -75 93 -97 125 -46 66 -369 389 -453
451 -31 23 -105 86 -165 139 -133 119 -562 417 -741 515 -139 75 -476 239
-563 272 -52 21 -122 48 -155 61 -151 59 -194 74 -231 80 -21 4 -82 20 -134
37 -196 61 -227 69 -307 83 -45 8 -106 21 -135 30 -29 8 -100 20 -158 25 -58
5 -136 16 -175 25 -145 32 -603 44 -884 24z"/>
<path d="M36470 12299 c-1057 -106 -1878 -708 -2391 -1753 -307 -625 -484
-1350 -539 -2211 -13 -206 -13 -824 0 -1030 53 -827 210 -1493 490 -2072 381
-790 944 -1302 1697 -1543 417 -133 950 -171 1431 -100 502 73 1066 303 1449
591 212 159 294 246 335 355 20 54 22 77 23 279 0 307 -21 370 -124 370 -66 0
-135 -38 -276 -151 -250 -200 -447 -330 -675 -443 -356 -176 -595 -244 -960
-272 -337 -25 -735 30 -1012 140 -638 254 -1084 773 -1348 1571 -126 377 -197
752 -242 1260 -17 197 -17 954 0 1165 29 347 78 665 147 945 314 1267 994
2011 1962 2146 166 23 557 15 728 -15 241 -42 454 -115 710 -246 201 -102 440
-264 617 -418 172 -149 235 -185 304 -174 46 8 77 36 103 96 59 137 51 498
-13 632 -83 175 -453 445 -836 612 -256 111 -585 206 -865 247 -162 25 -558
35 -715 19z"/>
<path d="M23046 12244 c-156 -35 -187 -69 -256 -281 -28 -87 -631 -1942 -1340
-4123 -709 -2181 -1294 -3987 -1300 -4015 -20 -89 3 -151 69 -184 92 -47 408
-54 542 -12 96 30 128 69 172 208 18 59 179 584 358 1166 l324 1057 1657 0
1657 0 55 -172 c30 -95 195 -613 365 -1150 171 -538 320 -996 331 -1017 44
-87 111 -111 335 -118 254 -8 368 15 402 81 41 79 114 -155 -1321 4261 -735
2261 -1343 4129 -1352 4152 -21 58 -89 116 -161 138 -83 25 -438 31 -537 9z
m932 -3194 c396 -1246 722 -2275 726 -2287 l7 -23 -1440 0 c-793 0 -1441 2
-1441 5 0 7 1408 4554 1416 4575 4 8 8 11 10 5 2 -5 327 -1029 722 -2275z"/>
<path d="M26633 12250 c-104 -21 -146 -70 -140 -165 2 -46 320 -1058 1316
-4190 722 -2271 1321 -4143 1330 -4160 28 -49 92 -91 173 -111 58 -15 110 -19
258 -19 265 0 377 30 438 119 13 20 560 1723 1338 4167 1014 3188 1316 4149
1320 4199 6 83 -7 108 -71 140 -47 23 -61 25 -241 28 -271 6 -386 -18 -425
-85 -9 -16 -533 -1737 -1165 -3826 -632 -2089 -1150 -3794 -1151 -3790 -58
207 -2363 7571 -2379 7599 -49 86 -117 104 -374 103 -102 -1 -204 -5 -227 -9z"/>
<path d="M16003 12191 c-90 -43 -146 -103 -175 -188 l-23 -68 -3 -4080 c-1
-2244 0 -4094 3 -4112 10 -55 49 -90 128 -115 62 -20 94 -23 232 -23 236 0
334 36 355 130 6 23 10 721 10 1676 l0 1637 643 5 c658 5 728 9 977 52 503 86
973 330 1306 677 376 392 605 898 691 1528 26 190 26 708 0 890 -49 346 -152
662 -305 933 -261 463 -719 830 -1205 966 -129 36 -311 74 -467 97 -101 16
-233 18 -1110 21 l-995 4 -62 -30z m2007 -724 c321 -47 500 -110 715 -252 468
-310 733 -980 675 -1710 -42 -534 -208 -934 -514 -1241 -139 -138 -260 -224
-436 -308 -143 -68 -241 -100 -395 -131 -201 -40 -308 -45 -932 -45 l-593 0 0
1856 0 1855 683 -4 c567 -3 701 -7 797 -20z"/>
</g>
</svg>
