<svg xmlns:rdf="http://www.w3.org/1999/02/22-rdf-syntax-ns#" xmlns="http://www.w3.org/2000/svg" xmlns:cc="http://creativecommons.org/ns#" xmlns:dc="http://purl.org/dc/elements/1.1/" xml:space="preserve" height="67.592" viewBox="0 0 215.125 67.591791" width="215.12" version="1.1"><g transform="matrix(1.25 0 0 -1.25 -320.94 394.8)"><path d="m274.77 314.89c-5.595 0-8.5792-0.37344-9.8852-0.37344-2.176 0-4.1032 0.0625-6.0312 0.0625-1.0565 0-1.243-0.0626-1.243-0.49765 0-0.7455 0.24837-0.8086 3.0469-0.8086 1.74 0 2.7359-0.55959 2.7359-5.4711v-28.6c0-0.9325-0.12515-1.057-2.9226-1.057-1.368 0-1.7414-0.12359-1.7414-0.74609 0-0.6215 0.43531-0.6836 1.0578-0.6836 1.989 0 3.357 0.24844 5.968 0.24844 2.7355 0 5.3471-0.62109 7.9586-0.62109 8.6425 0 14.425 3.2943 14.425 10.258 0 5.409-3.6694 7.5234-6.5914 9.0164-1.2435 0.6215-2.425 0.93225-2.425 1.0562 0 0.186 1.368 0.87041 2.55 1.6789 1.99 1.3675 4.6633 3.5446 4.6633 7.9586 0 4.4145-3.4821 8.5797-11.566 8.5797zm106.53-0.0711c-0.3245 0-2.3796-0.91935-6.5976-1.1898-0.919-0.054-1.3524 0.00057-1.3524-0.64843 0-0.5955 0.54135-0.70391 1.5148-0.70391 2.433 0 2.7578 0.00025 2.7578-3.4062v-29.797c0-0.9735-0.91972-0.91954-3.1367-0.91954-1.2985 0-1.3523-0.3254-1.3523-0.7039 0-0.4325 0.10784-0.54063 1.3523-0.54063 0.757 0 3.6237 0.10782 5.4617 0.10782 0.9745 0 2.164-0.10782 2.975-0.10782 1.9465 0 2.325 0.00013 2.325 0.54063 0 0.4335 0.10791 0.75781-2.5961 0.75781-0.973 0-1.3516 0.59481-1.3516 5.0828 0 1.569 0.27032 5.8405 0.27032 26.445 0 1.622 0.27031 3.5698 0.27031 4.2188 0 0.595-0.27063 0.86485-0.54063 0.86485zm-44.897-0.0539c-0.487 0-3.6781-1.1891-7.5711-1.1891-0.595 0-0.70313-0.21653-0.70313-0.75703 0-0.3795 0.21631-0.54219 2.4328-0.54219 1.46 0 1.893-0.48678 1.893-4.3258 0-11.411-0.1625-27.418-0.1625-28.986 0-0.811-0.4865-0.81094-2.325-0.81094-1.298 0-1.568-0.2704-1.568-0.7039 0-0.4865 0.32447-0.54063 1.568-0.54063 0.757 0 2.7582 0.10782 4.5977 0.10782 1.7305 0 4.2171-0.10782 5.0281-0.10782 1.1895 0 1.4602 0.00013 1.4602 0.54063 0 0.4335-0.21616 0.7039-1.4602 0.7039-3.3525 0-3.2438-0.00037-3.2438 2.5406v3.407c0 0.487 0.75688 0.86603 1.6219 1.407 0.919 0.595 1.6757 1.1352 1.8922 1.1352 0.3245 0 2.597-3.4076 4.868-6.0031s2.758-3.9476 3.732-3.9476c0.757 0 2.3791 0.0539 3.0281 0.0539 0.4865 0 1.1893-0.0539 1.8383-0.0539 1.1895 0 1.568 0.10822 1.568 0.48672 0 0.4325-0.43219 0.7039-1.7297 0.7039-1.8385 0-3.5691 2.6494-5.4086 4.8664-3.785 4.543-4.7578 5.57-4.7578 6.057 0 0.3785 3.3525 2.7573 6.057 5.4078 1.676 1.622 3.5141 3.9469 3.5141 4.4344 0 0.1625-0.21594 0.2164-0.64844 0.2164-0.6485 0-3.7861-0.16172-4.4891-0.16172-0.649 0-1.6759 0.16172-2.2164 0.16172-0.703 0-0.97344-0.1079-0.97344-0.5414 0-0.487 0.27025-0.59453 1.0812-0.59453 2.379 0 2.5414-0.10844 2.5414-0.97344 0-1.1355-0.48681-2.055-2.5953-4.0555-1.7305-1.623-7.3558-6.5977-8.7078-6.5977-0.162 0-0.21563 0.16241-0.21563 0.37891 0 8.8145 0.32344 14.871 0.32344 23.091 0 1.7305 0.1086 4.003 0.1086 4.7055 0 0.3245-0.10813 0.48672-0.37813 0.48672zm-63.499-1.3672c5.658 0 8.2695-5.9691 8.2695-9.0781 0-4.9115-2.0517-6.0929-3.8547-7.4609 0 0-2.6119 0.37344-6.4039 0.37344-1.493 0-2.3008-0.12391-2.3008 0.87109v13.491c0 1.2435 0.18684 1.8031 4.2898 1.8031zm27.266-13.991c-4.921 0-10.059-4.543-10.059-12.168 0-9.031 6.598-11.195 11.032-11.195 4.3805 0 8.9773 3.4081 8.9773 3.6781 0 0.1085-0.16231 0.43282-0.43281 0.43282-0.324 0-2.2708-1.2984-5.8398-1.2984-4.1105 0-9.8976 2.0011-9.8976 9.4641 0 1.2435 0.1629 1.514 1.0289 1.568 6.164 0.3785 11.572 1.5675 12.978 1.893 1.461 0.3245 2.218 0.54053 2.218 0.75703 0 0.4325-0.86594 1.7307-1.7859 2.8117-1.9465 2.2715-5.407 4.0562-8.2195 4.0562zm63.057 0c-4.9205 0-10.059-4.543-10.059-12.168 0-9.031 6.5975-11.195 11.032-11.195 4.38 0 8.9773 3.4081 8.9773 3.6781 0 0.1085-0.16281 0.43282-0.43281 0.43282-0.3245 0-2.2716-1.2984-5.8406-1.2984-4.11 0-9.8961 2.0011-9.8961 9.4641 0 1.2435 0.16234 1.514 1.0273 1.568 6.165 0.3785 11.572 1.5675 12.979 1.893 1.46 0.3245 2.2172 0.54053 2.2172 0.75703 0 0.4325-0.86488 1.7307-1.7844 2.8117-1.9475 2.2715-5.4078 4.0562-8.2203 4.0562zm31.192 0c-4.9215 0-10.059-4.543-10.059-12.168 0-9.031 6.5975-11.195 11.032-11.195 4.3805 0 8.9774 3.4081 8.9774 3.6781 0 0.1085-0.16282 0.43282-0.43282 0.43282-0.3245 0-2.2706-1.2984-5.8406-1.2984-4.1095 0-9.8961 2.0011-9.8961 9.4641 0 1.2435 0.16235 1.514 1.0274 1.568 6.165 0.3785 11.573 1.5675 12.979 1.893 1.46 0.3245 2.2172 0.54053 2.2172 0.75703 0 0.4325-0.86487 1.7307-1.7844 2.8117-1.9465 2.2715-5.408 4.0562-8.2195 4.0562zm-75.43-0.37813c-0.866 0-1.8936-0.27031-2.7586-0.27031-1.0815 0-2.1092 0.10859-3.9477 0.10859-0.92 0-0.86563-0.163-0.86563-0.8125 0-0.595-0.00028-0.54062 0.97422-0.54062 3.028 0 2.9195-0.10816 2.9195-3.7852v-14.818c0-0.757-0.1619-0.81093-2.3789-0.81093-1.2985 0-1.3524-0.10772-1.3524-0.64922 0-0.541 0.10785-0.54063 1.3524-0.54063 0.757 0 2.5959 0.27032 4.4344 0.27032 1.731 0 5.3539-0.27032 6.1109-0.27032 1.406 0 1.4602-0.0544 1.4602 0.54063 0 0.4875-0.0542 0.64922-1.4602 0.64922-4.0015 0-4.1633 0.0005-4.1633 2.65v11.141c0 2.271 1.189 3.5688 4.325 3.5688 2.7045 0 3.3539-2.2172 4.1109-2.2172 0.3245 0 1.1891 2.3793 1.1891 2.9203 0 1.4055-2.4872 2.5961-3.4617 2.5961-2.5415 0-5.082-2.8125-5.893-2.8125-0.2165 0-0.27031 0.37834-0.27031 0.86484 0 0.1625 0.10781 1.3522 0.10781 1.6227 0 0.4335-0.21631 0.59531-0.43281 0.59531zm107.98-0.0539c-0.757 0-2.2171-0.21641-3.0281-0.21641-1.461 0-2.4342 0.10781-3.8938 0.10781-0.9735 0-1.1359 0.00038-1.1359-0.70312 0-0.541 0.21647-0.54141 1.893-0.54141 1.838 0 1.8375-0.32409 1.8375-1.9461 0-0.757-1.9462-6.382-3.2438-10.275-0.865-2.5425-1.1895-3.2992-1.568-3.2992-0.2165 0-0.86572 0.91919-1.2992 2.0547-3.244 8.329-4.65 10.222-4.65 11.79 0 1.2435 0.32438 1.568 1.6219 1.568 1.1355 0 1.3523 0.0541 1.3523 0.54062 0 0.596-0.21684 0.81172-1.3523 0.81172-1.73 0-3.6235-0.16172-5.1375-0.16172-1.2975 0-1.6758 0.10782-3.1898 0.10782-0.9735 0-1.1352-0.27082-1.1352-0.75782 0-0.4865 0.0537-0.54062 1.1352-0.54062 0.973 0 1.3519-0.27084 2.7039-3.5148 2.9745-7.0305 7.3-17.035 7.3-17.63 0-1.622-4.6494-8.0029-6.5969-10.436-1.8385-2.326-4.3805-2.6505-4.3805-2.975 0-0.2705 0.54065-0.54062 1.4602-0.54062 1.1895 0 1.5678 0.43243 3.1898 0.64843 1.1905 0.1625 1.8394 0.21675 2.4344 1.4062 1.73 3.5695 4.1641 7.9502 7.5711 16.224 4.272 10.382 6.6519 16.872 7.8414 16.872 0.649 0 1.4055 0.27053 1.4055 0.75703 0 0.5955-0.27016 0.65-1.1352 0.65zm-127.34-0.70391c2.488 0 5.6781-4.0011 5.6781-5.3531 0-0.3245-0.0534-0.43263-0.64844-0.54063-4.056-0.649-6.9763-1.3531-9.7883-1.3531-0.6495 0-0.64922 0.0545-0.64922 0.325 0 0.758 1.2983 6.9219 5.4078 6.9219zm63.056 0c2.4885 0 5.6789-4.0011 5.6789-5.3531 0-0.3245-0.0542-0.43263-0.64922-0.54063-4.056-0.649-6.976-1.3531-9.7875-1.3531-0.649 0-0.64922 0.0545-0.64922 0.325 0 0.758 1.2975 6.9219 5.407 6.9219zm31.192 0c2.4875 0 5.6789-4.0011 5.6789-5.3531 0-0.3245-0.0542-0.43263-0.64922-0.54063-4.056-0.649-6.9758-1.3531-9.7883-1.3531-0.649 0-0.64922 0.0545-0.64922 0.325 0 0.758 1.2973 6.9219 5.4078 6.9219zm-123.02-2.2188c6.7765 0 11.377-4.3524 11.377-9.9484 0-5.409-3.4812-8.643-8.2062-8.643-1.99 0-3.9788 0.43554-4.6633 1.182-0.559 0.622-0.74609 4.1033-0.74609 4.6633v11.13c0 1.3675 0.49806 1.6164 2.2391 1.6164zm30.831-25.381c-1.2775 0-2.343-0.77066-2.343-2.0477 0-2.427 3.1977-1.9943 3.1977-3.3453 0-0.538-0.41181-1.0023-1.2453-1.0023-0.5595 0-1.2663 0.26306-1.8578 0.66406l-0.52734-0.92891c0.591-0.411 1.3927-0.80234 2.3852-0.80234 1.3825 0 2.5328 0.88772 2.5328 2.1117 0 2.4595-3.1977 1.7198-3.1977 3.3562 0 0.538 0.35897 0.92813 1.0555 0.92813 0.6225 0 1.1076-0.21116 1.6461-0.48516l0.45391 0.90781c-0.6115 0.3795-1.3405 0.64375-2.1 0.64375zm25.493 0c-2.174 0-3.1445-1.5518-3.1445-3.7258 0-2.0685 0.96003-3.7367 3.1445-3.7367s3.1453 1.6682 3.1453 3.7367c0 2.174-0.97131 3.7258-3.1453 3.7258zm16.947 0c-2.174 0-3.2406-1.5622-3.2406-3.7367 0-2.216 0.97194-3.7258 3.1984-3.7258 0.971 0 1.8787 0.40184 2.6172 1.0773l-0.64375 0.82266c-0.591-0.5385-1.2662-0.83281-1.9102-0.83281-1.3405 0-1.9742 0.95953-1.9742 2.6695 0 1.699 0.67612 2.6594 1.9531 2.6594 0.686 0 1.1926-0.24304 1.7516-0.70704l0.65468 0.84454c-0.76 0.623-1.5092 0.9289-2.4062 0.9289zm27.477 0c-2.1745 0-3.1445-1.5518-3.1445-3.7258 0-2.0685 0.96003-3.7367 3.1445-3.7367s3.1453 1.6682 3.1453 3.7367c0 2.174-0.97131 3.7258-3.1453 3.7258zm-100.99-0.10547-1.2141-0.12734v-7.1133h1.2562v4.8547h0.0211l3.05-4.8547h1.1188v7.2297h-1.2562v-4.75h-0.0312l-2.9445 4.7609zm16.112 0v-7.2406h4.3906l0.0953 1.0664h-3.2297v2.0469h2.7125v1.0664h-2.7125v1.9945h3.05v1.0664h-4.3062zm45.215 0v-7.2406h1.2555v3.1133h2.6602v1.0664h-2.6602v1.9945h2.9656v1.0664h-4.2211zm19.416 0-1.4664-0.11641-2.5438-7.1242h1.1719l0.60078 1.7422h2.9133l0.60156-1.7422h1.2883l-2.5656 7.2406zm12.071 0v-7.2406h1.2555v3.1133h2.6602v1.0664h-2.6602v1.9945h2.9664v1.0664h-4.2219zm19.775 0-1.2141-0.12734v-7.1133h1.2555v4.8547h0.0219l3.0492-4.8547h1.1188v7.2297h-1.2555v-4.75h-0.032l-2.9438 4.7609zm12.102 0-1.4672-0.11641-2.5438-7.1242h1.1719l0.60156 1.7422h2.9125l0.60157-1.7422h1.2883l-2.5648 7.2406zm-133-0.0109v-4.7172c0-1.6255 0.89681-2.6289 2.6703-2.6289 1.762 0 2.6594 1.0031 2.6594 2.6391v4.707h-1.2562v-4.7914c0-0.8975-0.37912-1.4875-1.4031-1.4875-1.0345 0-1.4148 0.59043-1.4148 1.4984v4.7805h-1.2555zm14.33 0v-7.2297h1.2555v7.2297h-1.2555zm2.4898 0 2.4906-7.2297h1.382l2.5016 7.2297h-1.2352l-1.382-4.0422s-0.1371-0.4111-0.4961-1.6461h-0.0633c-0.3485 1.235-0.48516 1.657-0.48516 1.657l-1.3828 4.0313h-1.3297zm13.749 0v-7.2297h1.2555v2.8922h0.60156c0.454 0 0.71791-0.42298 0.92891-0.85548l1.0023-2.0367h1.3828l-1.3828 2.607c-0.084 0.169-0.21097 0.35937-0.44296 0.49687v0.0203c0.9495 0.359 1.3617 1.0975 1.3617 1.9625 0 1.256-0.79193 2.143-2.3859 2.143h-2.3211zm12.451 0v-7.2297h1.2555v7.2297h-1.2555zm2.7008 0v-1.0766h1.9109v-6.1531h1.2555v6.1641h1.8258l0.0953 1.0656h-5.0875zm5.9094 0 2.2797-4.1367v-3.093h1.2555v3.093l2.2805 4.1367h-1.3836l-1.0234-2.0586s-0.12665-0.26312-0.48515-1.0656h-0.0312c-0.3805 0.8025-0.51797 1.0656-0.51797 1.0656l-0.96016 2.0586h-1.4141zm41.005 0v-7.2297h4.2742l0.0953 1.0664h-3.1133v6.1633h-1.2562zm5.5922 0v-7.2297h1.2555v7.2297h-1.2555zm15.3 0v-7.2297h1.2562v2.8922h0.60157c0.4535 0 0.7179-0.42298 0.9289-0.85548l1.0024-2.0367h1.3828l-1.3828 2.607c-0.084 0.169-0.21097 0.35937-0.44297 0.49687v0.0203c0.9495 0.359 1.3617 1.0975 1.3617 1.9625 0 1.256-0.79194 2.143-2.3859 2.143h-2.3219zm13.18 0v-7.2297h1.2555v7.2297h-1.2555zm-61.834-0.95c1.2455 0 1.8469-1.0869 1.8469-2.6594s-0.61137-2.6695-1.8469-2.6695c-1.245 0-1.857 1.0975-1.857 2.6805 0 1.5725 0.61203 2.6484 1.857 2.6484zm44.423 0c1.2455 0 1.8469-1.0869 1.8469-2.6594s-0.61187-2.6695-1.8469-2.6695c-1.2455 0-1.857 1.0975-1.857 2.6805 0 1.5725 0.61153 2.6484 1.857 2.6484zm-77.472-0.12657h1.0344c0.855 0 1.1297-0.40106 1.1297-1.0766 0-0.686-0.34859-1.1289-1.1086-1.1289h-1.0555v2.2055zm82.959 0h1.0344c0.855 0 1.1297-0.40106 1.1297-1.0766 0-0.686-0.3486-1.1289-1.1086-1.1289h-1.0555v2.2055zm-26.538-0.18984h0.0211c0.496-1.4985 0.58047-1.7305 0.58047-1.7305l0.55937-1.5938h-2.2906l0.55937 1.5938s0.0848 0.23197 0.57031 1.7305zm43.948 0h0.0211c0.496-1.4985 0.58124-1.7305 0.58124-1.7305l0.5586-1.5938h-2.2906l0.56016 1.5938s0.084 0.23197 0.56953 1.7305z" fill="#00326f"/></g></svg>