<svg width="800" height="143" viewBox="0 0 800 143" fill="none" xmlns="http://www.w3.org/2000/svg">
<path d="M161.467 39.9C132.4 39.9 109.7 61.9667 109.7 91.5C109.7 121.033 131.833 142.9 161.467 142.9C191.1 142.9 213.6 120.667 213.6 91.3333C213.6 62.1667 191.467 39.9 161.467 39.9ZM161.667 121.633C145.1 121.633 133 108.767 133 91.5C133 74.0667 144.9 61.2 161.467 61.2C178.2 61.2 190.333 74.2667 190.333 91.5333C190.333 108.767 178.2 121.633 161.667 121.633ZM219.967 62.3667H234.4V141.033H257.5V41.8H219.967V62.3667ZM51.5667 61.2C63.7 61.2 73.3333 68.6667 76.9667 79.8H101.433C97 56.0333 77.3667 39.9 51.7667 39.9C22.7 39.9 0 61.9667 0 91.5C0 121.067 22.1333 142.933 51.7667 142.933C76.7667 142.933 96.8 126.8 101.233 102.833H76.9667C75.3947 108.288 72.0806 113.079 67.5302 116.474C62.9799 119.869 57.4436 121.681 51.7667 121.633C35.0333 121.633 23.2667 108.767 23.2667 91.5C23.2667 74.0667 34.8 61.2 51.5667 61.2ZM658.733 81.9333L641.8 79.4333C633.733 78.2667 627.967 75.6 627.967 69.2667C627.967 62.3667 635.467 58.9333 645.633 58.9333C656.833 58.9333 663.967 63.7 665.467 71.5667H687.8C685.3 51.6 669.9 39.9 646.233 39.9C621.8 39.9 605.633 52.4 605.633 70.0333C605.633 86.9 616.2 96.7 637.567 99.7667L654.5 102.267C662.8 103.4 667.4 106.667 667.4 112.8C667.4 120.667 659.333 123.933 648.167 123.933C634.5 123.933 626.8 118.367 625.633 109.933H602.933C605.067 129.3 620.267 142.933 647.933 142.933C673.167 142.933 689.933 131.4 689.933 111.667C689.933 94 677.8 84.8 658.733 81.9333ZM245.933 0.966676C243.991 0.898364 242.055 1.22666 240.244 1.93151C238.433 2.63635 236.785 3.70294 235.4 5.06617C234.015 6.42941 232.922 8.06067 232.188 9.86032C231.455 11.66 231.096 13.5903 231.133 15.5333C231.133 24 237.467 30.1333 245.933 30.1333C247.881 30.2065 249.823 29.8807 251.641 29.1759C253.458 28.4711 255.112 27.4022 256.501 26.0349C257.89 24.6675 258.985 23.0307 259.719 21.2248C260.452 19.4189 260.809 17.4821 260.767 15.5333C260.804 13.5874 260.444 11.6542 259.709 9.85225C258.973 8.05028 257.878 6.41743 256.489 5.05371C255.1 3.68999 253.448 2.6241 251.633 1.92134C249.818 1.21857 247.878 0.893721 245.933 0.966676ZM584.833 75.8C584.833 54.3 571.767 39.9333 544.033 39.9333C517.867 39.9333 503.233 53.1667 500.367 73.5H523.267C524.433 65.6333 530.6 59.1 543.667 59.1C555.4 59.1 561.167 64.2667 561.167 70.6C561.167 78.8667 550.6 80.9667 537.5 82.3C519.8 84.2333 497.833 90.3667 497.833 113.4C497.833 131.233 511.167 142.733 532.3 142.733C548.867 142.733 559.267 135.833 564.467 124.9C565.233 134.667 572.533 141 582.733 141H596.2V120.467H584.867L584.833 75.8ZM562.167 100.733C562.167 113.967 550.6 123.733 536.533 123.733C527.867 123.733 520.533 120.067 520.533 112.4C520.533 102.633 532.3 99.9667 543.067 98.8C553.467 97.8667 559.233 95.5667 562.133 91.1333L562.167 100.733ZM439.533 39.9C426.667 39.9 415.867 45.3 408.2 54.3V0H385.1V141H407.767V127.967C415.5 137.367 426.433 142.933 439.533 142.933C467.267 142.933 488.233 121.067 488.233 91.5C488.233 61.9667 466.9 39.9 439.567 39.9H439.533ZM436.1 121.633C419.533 121.633 407.433 108.767 407.433 91.5C407.433 74.2667 419.733 61.2 436.267 61.2C453.033 61.2 464.767 74.0667 464.767 91.5333C464.767 108.767 452.633 121.633 436.1 121.633ZM329.867 39.9C314.867 39.9 305.033 46.0333 299.233 54.6667V41.8333H276.333V141H299.433V87.1C299.433 71.9333 309.067 61.2 323.3 61.2C336.567 61.2 344.867 70.6 344.867 84.2V141H367.933V82.5C367.933 57.5667 355.067 39.9 329.867 39.9ZM800 88.2333C800 59.8667 779.2 39.9 751.333 39.9C721.667 39.9 699.933 62.1667 699.933 91.5C699.933 122.4 723.2 142.933 751.7 142.933C775.767 142.933 794.6 128.733 799.433 108.6H775.367C771.9 117.4 763.433 122.4 752.067 122.4C737.233 122.4 726.067 113.2 723.6 97.0667H800V88.2333ZM724.933 80.5667C728.6 66.7667 739 60.0667 750.933 60.0667C764 60.0667 774.033 67.5333 776.333 80.5667H724.933Z" fill="black"/>
</svg>
