<svg width="1000" height="197" viewBox="0 0 1000 197" fill="none" xmlns="http://www.w3.org/2000/svg">
<g clip-path="url(#clip0_326_5843)">
<path d="M116 37L58 74L116 111L58 148L0 110.8L58 73.8L0 37L58 0L116 37ZM57.7 159.9L115.7 122.9L173.7 159.9L115.7 196.9L57.7 159.9ZM116 110.8L174 73.8L116 37L173.7 0L231.7 37L173.7 74L231.7 111L173.7 148L116 110.8Z" fill="black"/>
<path d="M277.2 36.9992H324.1C354 36.9992 378.7 54.2992 378.7 93.7992V102.099C378.7 141.899 355.6 159.799 325 159.799H277.2V36.9992ZM303.4 59.2992V137.399H323.5C340.5 137.399 351.9 126.299 351.9 101.599V95.0992C351.9 70.3992 339.9 59.2992 322.6 59.2992H303.4ZM392.6 60.4992H413.6L417 83.5992C421 67.8992 431.2 59.4992 449.7 59.4992H456.2V85.9992H445.4C424.1 85.9992 418.9 93.3992 418.9 114.399V160.099H393V60.4992H392.6ZM461.4 112.299V109.499C461.4 76.1992 482.7 57.9992 511.7 57.9992C541.3 57.9992 562 76.1992 562 109.499V112.299C562 144.999 541.9 162.599 511.7 162.599C479.6 162.299 461.4 145.099 461.4 112.299ZM535.5 111.999V109.499C535.5 90.9992 526.2 79.8992 511.4 79.8992C496.9 79.8992 487.3 90.0992 487.3 109.499V111.999C487.3 129.899 496.6 140.099 511.4 140.099C526.2 139.799 535.5 129.899 535.5 111.999ZM575.6 60.4992H597.2L599.7 79.2992C604.9 66.6992 616 57.9992 632.4 57.9992C657.7 57.9992 674.4 76.1992 674.4 109.899V112.699C674.4 145.399 655.9 162.699 632.4 162.699C616.7 162.699 605.9 155.599 600.6 144.199V194.499H575.3L575.6 60.4992ZM648.1 111.999V109.799C648.1 89.9992 637.9 80.1992 624.3 80.1992C609.8 80.1992 600.2 91.2992 600.2 109.799V111.699C600.2 129.299 609.5 140.399 624 140.399C638.9 140.099 648.1 130.599 648.1 111.999ZM712.7 141.699L710.5 159.899H688.3V27.1992H713.6V78.0992C719.2 65.0992 730.3 57.9992 746 57.9992C769.8 58.2992 787.4 74.6992 787.4 107.699V110.799C787.4 143.799 770.7 162.699 745.4 162.699C728.7 162.299 717.9 154.599 712.7 141.699ZM760.8 110.799V108.299C760.8 90.0992 750.9 79.8992 737 79.8992C722.8 79.8992 712.9 91.2992 712.9 108.599V110.799C712.9 129.299 722.5 140.099 736.7 140.099C751.9 140.099 760.8 130.599 760.8 110.799ZM798.5 112.299V109.499C798.5 76.1992 819.8 57.9992 848.8 57.9992C878.4 57.9992 899.1 76.1992 899.1 109.499V112.299C899.1 144.999 878.7 162.599 848.8 162.599C816.7 162.299 798.5 145.099 798.5 112.299ZM872.8 111.999V109.499C872.8 90.9992 863.5 79.8992 848.7 79.8992C834.2 79.8992 824.6 90.0992 824.6 109.499V111.999C824.6 129.899 833.9 140.099 848.7 140.099C863.6 139.799 872.8 129.899 872.8 111.999ZM933 108.299L898.1 60.4992H928L948.1 90.3992L968.5 60.4992H998.1L962.7 107.999L1000 159.899H970.7L947.9 126.899L925.7 159.899H895.1L933 108.299Z" fill="black"/>
</g>
<defs>
<clipPath id="clip0_326_5843">
<rect width="1000" height="196.9" fill="white"/>
</clipPath>
</defs>
</svg>
