<svg width="800" height="320" viewBox="0 0 800 320" fill="none" xmlns="http://www.w3.org/2000/svg">
<path d="M155.555 296.97V319.192H0V296.97H155.555ZM398.654 296.969C383.049 311.314 362.61 319.249 341.414 319.191L177.778 318.971V296.969H398.654ZM629.948 296.968L622.188 319.191L614.498 296.968H629.948ZM555.556 296.97V319.192H444.445V296.97H555.556ZM800 296.97V319.192H688.889V296.97H800ZM423.823 254.545C421.916 262.34 418.906 269.823 414.883 276.767H177.778V254.545H423.823ZM644.84 254.546L637.04 276.768H607.405L599.605 254.546H644.84ZM555.556 254.545V276.767H444.445V254.545H555.556ZM800 254.545V276.767H688.889V254.545H800ZM155.555 254.545V276.767H0V254.545H155.555ZM111.111 212.121V234.343H44.4443V212.121H111.111ZM288.889 212.121V234.343H222.222V212.121H288.889ZM423.29 212.121C425.259 219.364 426.259 226.837 426.263 234.343H351.515V212.121H423.29ZM659.735 212.121L651.932 234.343H592.513L584.71 212.121H659.735ZM555.556 212.121V234.343H488.889V212.121H555.556ZM755.555 212.121V234.343H688.889V212.121H755.555ZM111.111 169.697V191.919H44.4443V169.697H111.111ZM555.556 169.697V191.919H488.889V169.697H555.556ZM755.555 169.697V191.919H688.889V169.697H755.555ZM396.322 169.696C403.723 175.992 409.992 183.508 414.858 191.918H222.221V169.696H396.322ZM674.627 169.696L666.827 191.918H577.618L569.817 169.696H674.627ZM615.975 127.273L622.223 145.236L628.468 127.273H755.555V149.496H688.89V129.076L681.72 149.496H562.725L555.555 129.073V149.496H488.89V127.273H615.975ZM222.222 127.272L414.86 127.274C409.993 135.684 403.724 143.2 396.322 149.496H222.222V127.272ZM111.111 127.272V149.495H44.4443V127.272H111.111ZM111.111 84.8484V107.071H44.4443V84.8484H111.111ZM288.889 84.8484V107.071H222.222V84.8484H288.889ZM426.263 84.8486C426.259 92.3549 425.259 99.8275 423.29 107.071H351.515V84.8486H426.263ZM601.223 84.8484L608.95 107.071H488.89V84.8484H601.223ZM755.555 84.8484V107.071H635.495L643.223 84.8484H755.555ZM155.555 42.4242V64.6464H0V42.4242H155.555ZM414.883 42.4242C418.906 49.368 421.916 56.8508 423.823 64.6459H177.778V42.4242H414.883ZM800 42.4234V64.6459H650.247L657.975 42.4234H800ZM586.47 42.4234L594.198 64.6459H444.445V42.4234H586.47ZM155.555 0.000154018V22.2224H0V0.000154018H155.555ZM341.414 7.68015e-05C362.605 -0.0284709 383.033 7.9025 398.653 22.2222H177.778V7.68015e-05H341.414ZM800 0.000904018V22.2234H665L672.727 0.000904018H800ZM571.718 0.000904018L579.445 22.2234H444.445V0.000904018H571.718Z" fill="black"/>
</svg>
