<svg width="500" height="500" viewBox="0 0 500 500" fill="none" xmlns="http://www.w3.org/2000/svg">
<path d="M250 492.424C383.887 492.424 492.424 383.887 492.424 250C492.424 116.113 383.887 7.57574 250 7.57574C116.113 7.57574 7.57576 116.113 7.57576 250C7.57576 383.887 116.113 492.424 250 492.424Z" fill="#4785FF"/>
<path d="M250.001 446.97C358.784 446.97 446.97 358.784 446.97 250.001C446.97 141.216 358.784 53.0303 250.001 53.0303C141.216 53.0303 53.0303 141.218 53.0303 250.001C53.0303 358.784 141.218 446.97 250.001 446.97Z" fill="#ADC9FF"/>
<path d="M249.999 401.515C333.678 401.515 401.515 333.678 401.515 249.999C401.515 166.32 333.678 98.4849 249.999 98.4849C166.32 98.4849 98.4848 166.32 98.4848 249.999C98.4848 333.678 166.32 401.515 249.999 401.515Z" fill="white"/>
</svg>
