<svg width="500" height="500" viewBox="0 0 500 500" fill="none" xmlns="http://www.w3.org/2000/svg">
<path d="M500 222.214H353.786L480.429 149.107L452.607 100.893L326 174.036L399.071 47.3929L350.893 19.5714L277.857 146.179V0H222.143V146.214L149.071 19.5714L100.929 47.3929L174 174L47.3929 100.929L19.5714 149.071L146.214 222.179H0V277.786H146.179L19.5714 350.893L47.3929 399.107L174 326L100.893 452.607L149.107 480.429L222.179 353.786V500H277.786V353.786L350.893 480.429L399.071 452.607L325.964 325.964L452.571 399.071L480.393 350.893L353.786 277.821H499.964L500 222.214ZM250 325.643C229.862 325.643 210.55 317.643 196.31 303.404C182.071 289.165 174.071 269.852 174.071 249.714C174.071 229.577 182.071 210.264 196.31 196.025C210.55 181.785 229.862 173.786 250 173.786C270.138 173.786 289.45 181.785 303.69 196.025C317.929 210.264 325.929 229.577 325.929 249.714C325.929 269.852 317.929 289.165 303.69 303.404C289.45 317.643 270.138 325.643 250 325.643Z" fill="black"/>
</svg>
