<svg width="1707" height="366" viewBox="0 0 1707 366" fill="none" xmlns="http://www.w3.org/2000/svg">
<path d="M0 86.6673V173.334H86.6667H173.333V86.6673V0.000642002H86.6667H0V86.6673Z" fill="black"/>
<path d="M191.6 0.933975C191.067 1.33398 190.667 40.4006 190.667 87.6006V173.334H277.334H364V86.6673V0.000642002H278.267C231.067 0.000642002 192 0.400642 191.6 0.933975Z" fill="black"/>
<path d="M1582.67 58.668C1568.67 61.7347 1553.87 72.1347 1547.6 83.6014C1542.13 93.7347 1540 104.135 1540 120.268V134.535L1527.07 134.935L1514 135.335L1513.6 150.268L1513.2 165.335H1526.67H1540V228.668V292.001H1558.67H1577.33V228.668V165.335H1604.67H1632V205.601C1632.13 253.735 1633.07 262.801 1638.93 274.668C1643.87 284.268 1651.6 290.668 1661.73 293.468C1670.27 295.735 1688.8 295.335 1698.4 292.668L1706.67 290.268V275.335V260.401L1699.07 262.935C1686.8 267.068 1677.2 264.535 1672.4 255.601C1670.27 251.868 1670 246.401 1669.6 208.268L1669.2 165.335H1687.87H1706.67V150.001V134.668H1688H1669.33V111.868V89.068L1665.73 90.0014C1663.6 90.4014 1655.2 92.9347 1647.07 95.468L1632 100.135V117.735V135.335L1604.53 134.935L1577.07 134.535L1577.47 118.935C1578 101.868 1579.73 96.9347 1586.93 91.6014C1591.87 88.0014 1603.33 87.068 1611.2 89.7347L1617.33 91.868V76.0014C1617.33 62.5347 1617.07 60.1347 1615.07 59.468C1611.07 57.868 1588.8 57.468 1582.67 58.668Z" fill="black"/>
<path d="M752.533 71.8666C745.6 76.1333 742.267 81.9999 742.267 90.1333C742.267 103.2 752.133 111.6 766.4 110.4C778.533 109.333 786 101.6 786 89.9999C786 81.9999 783.333 77.3333 776 72.2666C770.267 68.3999 758.533 68.1333 752.533 71.8666Z" fill="black"/>
<path d="M473.333 182.668V292.001H491.333H509.333L509.066 208.001C508.8 161.735 509.066 124.001 509.466 124.001C509.866 124.001 525.333 161.868 544 208.001L577.866 292.135L591.2 291.735L604.533 291.335L637.466 208.268C655.6 162.535 670.8 124.801 671.2 124.401C671.6 123.868 672 161.468 672 207.735V292.001H690.666H709.333V182.668V73.3348H683.6H657.866L627.333 148.268C610.533 189.601 595.6 226.001 594.266 229.201L591.6 235.201L580 205.868C573.6 189.868 559.2 153.468 548 124.935L527.6 73.3348H500.4H473.333V182.668Z" fill="black"/>
<path d="M869.333 134C842.267 140.134 821.067 159.467 812 186.667C807.867 198.667 806.8 224.934 809.867 237.867C814.667 258 829.2 277.467 846 286.267C866.8 297.067 897.867 298.134 920.933 289.067L928.667 286L929.333 268.934C929.733 259.6 929.867 252 929.733 252C929.6 252 925.6 254.134 920.8 256.667C898.533 269.067 873.6 266.934 859.067 251.6C848.133 240.134 843.867 223.6 846.667 204.134C849.333 185.6 860 171.2 875.467 165.467C890 160 910.667 162.534 924 171.6C926.533 173.2 928.933 174.667 929.333 174.667C929.733 174.667 929.867 166.667 929.6 156.8L929.2 138.934L920.267 136C908.667 132.134 882.4 131.067 869.333 134Z" fill="black"/>
<path d="M1028 133.467C1014.93 135.333 1004.67 142.933 998.133 155.6L994.8 162L994.666 148.267V134.533L976.4 134.933L958 135.333L957.6 213.6L957.333 292H975.866H994.533L994.933 243.6L995.333 195.333L999.066 187.333C1004.93 174.933 1011.73 168.667 1021.87 166.8C1028.67 165.6 1039.73 167.067 1045.6 170.133L1049.33 172.133V154.133C1049.33 141.2 1048.8 135.867 1047.73 135.067C1044.93 133.467 1034.4 132.533 1028 133.467Z" fill="black"/>
<path d="M1110.8 134C1081.87 140.534 1061.33 160.8 1054 190C1050.93 202.134 1050.8 226.534 1053.87 239.2C1060.13 265.734 1080.13 285.867 1106.93 292.934C1118.4 295.867 1141.73 295.867 1154 292.667C1177.87 286.667 1197.2 269.867 1205.47 248.267C1210.27 235.067 1212.4 220.8 1211.47 206C1210.13 181.867 1203.73 166.267 1190.13 152.534C1181.6 144.134 1175.47 140.267 1162.67 135.734C1152.8 132.134 1123.2 131.2 1110.8 134ZM1150 165.867C1158.93 169.867 1166.93 179.2 1170.13 188.934C1172.13 195.067 1172.67 200.534 1172.67 214.667C1172.53 230.267 1172.13 233.734 1169.47 240.4C1165.6 250.267 1160 256.534 1151.47 260.934C1145.6 264 1142.93 264.4 1132.67 264.4C1119.47 264.4 1112.27 262.134 1104.27 255.467C1091.73 244.667 1086 218.934 1091.33 196.267C1095.07 180.8 1102 171.467 1114 165.867C1123.47 161.334 1140.53 161.334 1150 165.867Z" fill="black"/>
<path d="M1268.4 134C1252.67 138.4 1238.67 149.467 1233.2 161.733C1228.8 171.733 1228.8 189.867 1233.33 199.333C1238.8 210.533 1244.93 215.333 1268.53 226.667C1280.4 232.4 1291.2 238.4 1292.53 239.867C1296 243.733 1296.93 253.733 1294.13 258C1286.53 269.6 1258.27 268.4 1237.07 255.467L1229.33 250.8V268.8V286.667L1234.13 288.667C1248.93 294.8 1277.47 296.8 1293.07 292.8C1310.27 288.4 1322.93 279.067 1329.33 266C1332 260.4 1332.53 257.333 1332.53 246.667C1332.53 236.267 1332.13 233.067 1329.73 228.533C1323.07 215.867 1314.53 209.467 1290.53 198.667C1272.93 190.933 1268.13 186.8 1267.07 178.8C1264.53 160.533 1292.13 155.2 1319.07 168.8L1325.47 172.133L1325.07 155.067L1324.67 138.133L1316.67 135.6C1305.73 132.133 1278.13 131.2 1268.4 134Z" fill="black"/>
<path d="M1407.33 134.535C1388.53 139.202 1372.13 150.535 1362.53 165.468C1348.67 187.201 1345.6 222.668 1355.33 248.935C1367.33 281.068 1401.33 299.468 1439.87 294.668C1461.87 292.002 1473.87 286.535 1487.33 272.802C1503.6 256.402 1509.87 239.468 1509.87 212.002C1509.87 185.201 1503.6 167.602 1488.93 152.802C1479.07 143.068 1470.53 138.268 1456.53 134.668C1443.33 131.202 1420.67 131.202 1407.33 134.535ZM1450.13 166.268C1457.6 170.268 1464.53 178.268 1468.13 187.468C1470.67 194.135 1471.2 197.868 1471.2 212.668C1471.33 240.002 1465.73 252.802 1450.13 260.668C1443.07 264.135 1440.8 264.535 1430.8 264.535C1416.4 264.402 1407.47 260.935 1400 252.402C1391.33 242.402 1388.8 234.135 1388.67 214.668C1388.67 188.001 1394.67 174.935 1410.93 166.668C1418.93 162.668 1419.87 162.535 1432 162.935C1441.6 163.335 1446 164.135 1450.13 166.268Z" fill="black"/>
<path d="M745.333 213.333V292H764H782.666L782.4 213.6L782 135.333L763.733 134.933L745.333 134.533V213.333Z" fill="black"/>
<path d="M0 278.667V365.334H86.6667H173.333V278.667V192.001H86.6667H0V278.667Z" fill="black"/>
<path d="M190.934 278.267L191.334 364.667L277.734 365.067L364 365.334V278.667V192.001H277.334H190.667L190.934 278.267Z" fill="black"/>
</svg>
