<svg width="800" height="105" viewBox="0 0 800 105" fill="none" xmlns="http://www.w3.org/2000/svg">
<path d="M683.459 41.3348V104.198H703.552V62.2892H777.036V104.198H797.13V41.3348H683.459ZM701.256 20.9544H778.759C789.666 18.9451 797.417 9.1855 799.713 0H680.302C682.598 9.1855 690.635 18.6581 701.256 20.9544ZM622.318 104.198C632.365 99.8924 637.819 92.4291 640.115 83.8177H549.695V0.287047H529.315V104.198H622.318ZM378.615 20.6674H450.377C461.285 17.5099 470.183 9.1855 472.48 0.287047H358.809V61.7151H451.812V83.2436H378.902C367.42 86.4011 357.661 94.1514 352.781 104.198H471.905V41.3348H378.902L378.615 20.6674ZM201.794 20.9544H279.297C290.205 18.9451 298.242 9.1855 300.251 0H180.553C182.849 9.1855 190.886 18.6581 201.794 20.9544ZM201.794 62.0022H279.297C290.205 59.9928 298.242 50.2332 300.251 41.0477H180.553C182.849 50.2332 190.886 59.7058 201.794 62.0022ZM201.794 104.198H279.297C290.205 102.189 298.242 92.4291 300.251 83.2436H180.553C182.849 92.4291 190.886 102.189 201.794 104.198Z" fill="black"/>
<path d="M0 0.287047C2.29638 9.47255 10.3337 18.6581 20.9544 20.9544H53.6778L55.4001 21.5285V103.911H75.7804V21.5285L77.5027 20.9544H110.226C121.134 18.084 128.884 9.47255 131.18 0.287047V0L0 0.287047Z" fill="black"/>
</svg>
