<svg width="878" height="290" viewBox="0 0 878 290" fill="none" xmlns="http://www.w3.org/2000/svg">
<mask id="mask0_1580_3060" style="mask-type:alpha" maskUnits="userSpaceOnUse" x="0" y="0" width="878" height="290">
<rect width="878" height="290" fill="url(#paint0_radial_1580_3060)"/>
</mask>
<g mask="url(#mask0_1580_3060)">
<path opacity="0.46" d="M16 0.736328C24.5604 0.736328 31.5 7.67591 31.5 16.2363C31.5 24.7967 24.5604 31.7363 16 31.7363C7.43959 31.7363 0.5 24.7967 0.5 16.2363C0.5 7.67591 7.43959 0.736328 16 0.736328Z" fill="#F9F9F9" stroke="url(#paint1_linear_1580_3060)"/>
<path opacity="0.45" d="M58 0.736328C66.5604 0.736328 73.5 7.67591 73.5 16.2363C73.5 24.7967 66.5604 31.7363 58 31.7363C49.4396 31.7363 42.5 24.7967 42.5 16.2363C42.5 7.67591 49.4396 0.736328 58 0.736328Z" fill="#F9F9F9" stroke="url(#paint2_linear_1580_3060)"/>
<path opacity="0.54" d="M100 0.736328C108.56 0.736328 115.5 7.67591 115.5 16.2363C115.5 24.7967 108.56 31.7363 100 31.7363C91.4396 31.7363 84.5 24.7967 84.5 16.2363C84.5 7.67591 91.4396 0.736328 100 0.736328Z" fill="#F9F9F9" stroke="url(#paint3_linear_1580_3060)"/>
<path opacity="0.44" d="M142 0.736328C150.56 0.736328 157.5 7.67591 157.5 16.2363C157.5 24.7967 150.56 31.7363 142 31.7363C133.44 31.7363 126.5 24.7967 126.5 16.2363C126.5 7.67591 133.44 0.736328 142 0.736328Z" fill="#F9F9F9" stroke="url(#paint4_linear_1580_3060)"/>
<path opacity="0.42" d="M184 0.736328C192.56 0.736328 199.5 7.67591 199.5 16.2363C199.5 24.7967 192.56 31.7363 184 31.7363C175.44 31.7363 168.5 24.7967 168.5 16.2363C168.5 7.67591 175.44 0.736328 184 0.736328Z" fill="#F9F9F9" stroke="url(#paint5_linear_1580_3060)"/>
<path opacity="0.46" d="M226 0.736328C234.56 0.736328 241.5 7.67591 241.5 16.2363C241.5 24.7967 234.56 31.7363 226 31.7363C217.44 31.7363 210.5 24.7967 210.5 16.2363C210.5 7.67591 217.44 0.736328 226 0.736328Z" fill="#F9F9F9" stroke="url(#paint6_linear_1580_3060)"/>
<path opacity="0.56" d="M268 0.736328C276.56 0.736328 283.5 7.67591 283.5 16.2363C283.5 24.7967 276.56 31.7363 268 31.7363C259.44 31.7363 252.5 24.7967 252.5 16.2363C252.5 7.67591 259.44 0.736328 268 0.736328Z" fill="#F9F9F9" stroke="url(#paint7_linear_1580_3060)"/>
<path opacity="0.24" d="M310 0.736328C318.56 0.736328 325.5 7.67591 325.5 16.2363C325.5 24.7967 318.56 31.7363 310 31.7363C301.44 31.7363 294.5 24.7967 294.5 16.2363C294.5 7.67591 301.44 0.736328 310 0.736328Z" fill="#F9F9F9" stroke="url(#paint8_linear_1580_3060)"/>
<path opacity="0.56" d="M352 0.736328C360.56 0.736328 367.5 7.67591 367.5 16.2363C367.5 24.7967 360.56 31.7363 352 31.7363C343.44 31.7363 336.5 24.7967 336.5 16.2363C336.5 7.67591 343.44 0.736328 352 0.736328Z" fill="#F9F9F9" stroke="url(#paint9_linear_1580_3060)"/>
<path opacity="0.54" d="M394 0.736328C402.56 0.736328 409.5 7.67591 409.5 16.2363C409.5 24.7967 402.56 31.7363 394 31.7363C385.44 31.7363 378.5 24.7967 378.5 16.2363C378.5 7.67591 385.44 0.736328 394 0.736328Z" fill="#F9F9F9" stroke="url(#paint10_linear_1580_3060)"/>
<path opacity="0.2" d="M436 0.736328C444.56 0.736328 451.5 7.67591 451.5 16.2363C451.5 24.7967 444.56 31.7363 436 31.7363C427.44 31.7363 420.5 24.7967 420.5 16.2363C420.5 7.67591 427.44 0.736328 436 0.736328Z" fill="#F9F9F9" stroke="url(#paint11_linear_1580_3060)"/>
<path opacity="0.32" d="M478 0.736328C486.56 0.736328 493.5 7.67591 493.5 16.2363C493.5 24.7967 486.56 31.7363 478 31.7363C469.44 31.7363 462.5 24.7967 462.5 16.2363C462.5 7.67591 469.44 0.736328 478 0.736328Z" fill="#F9F9F9" stroke="url(#paint12_linear_1580_3060)"/>
<path opacity="0.56" d="M520 0.736328C528.56 0.736328 535.5 7.67591 535.5 16.2363C535.5 24.7967 528.56 31.7363 520 31.7363C511.44 31.7363 504.5 24.7967 504.5 16.2363C504.5 7.67591 511.44 0.736328 520 0.736328Z" fill="#F9F9F9" stroke="url(#paint13_linear_1580_3060)"/>
<path opacity="0.28" d="M562 0.736328C570.56 0.736328 577.5 7.67591 577.5 16.2363C577.5 24.7967 570.56 31.7363 562 31.7363C553.44 31.7363 546.5 24.7967 546.5 16.2363C546.5 7.67591 553.44 0.736328 562 0.736328Z" fill="#F9F9F9" stroke="url(#paint14_linear_1580_3060)"/>
<path opacity="0.44" d="M604 0.736328C612.56 0.736328 619.5 7.67591 619.5 16.2363C619.5 24.7967 612.56 31.7363 604 31.7363C595.44 31.7363 588.5 24.7967 588.5 16.2363C588.5 7.67591 595.44 0.736328 604 0.736328Z" fill="#F9F9F9" stroke="url(#paint15_linear_1580_3060)"/>
<path opacity="0.14" d="M646 0.736328C654.56 0.736328 661.5 7.67591 661.5 16.2363C661.5 24.7967 654.56 31.7363 646 31.7363C637.44 31.7363 630.5 24.7967 630.5 16.2363C630.5 7.67591 637.44 0.736328 646 0.736328Z" fill="#F9F9F9" stroke="url(#paint16_linear_1580_3060)"/>
<path opacity="0.33" d="M688 0.736328C696.56 0.736328 703.5 7.67591 703.5 16.2363C703.5 24.7967 696.56 31.7363 688 31.7363C679.44 31.7363 672.5 24.7967 672.5 16.2363C672.5 7.67591 679.44 0.736328 688 0.736328Z" fill="#F9F9F9" stroke="url(#paint17_linear_1580_3060)"/>
<path opacity="0.19" d="M730 0.736328C738.56 0.736328 745.5 7.67591 745.5 16.2363C745.5 24.7967 738.56 31.7363 730 31.7363C721.44 31.7363 714.5 24.7967 714.5 16.2363C714.5 7.67591 721.44 0.736328 730 0.736328Z" fill="#F9F9F9" stroke="url(#paint18_linear_1580_3060)"/>
<path opacity="0.49" d="M772 0.736328C780.56 0.736328 787.5 7.67591 787.5 16.2363C787.5 24.7967 780.56 31.7363 772 31.7363C763.44 31.7363 756.5 24.7967 756.5 16.2363C756.5 7.67591 763.44 0.736328 772 0.736328Z" fill="#F9F9F9" stroke="url(#paint19_linear_1580_3060)"/>
<path opacity="0.18" d="M814 0.736328C822.56 0.736328 829.5 7.67591 829.5 16.2363C829.5 24.7967 822.56 31.7363 814 31.7363C805.44 31.7363 798.5 24.7967 798.5 16.2363C798.5 7.67591 805.44 0.736328 814 0.736328Z" fill="#F9F9F9" stroke="url(#paint20_linear_1580_3060)"/>
<path opacity="0.53" d="M856 0.736328C864.56 0.736328 871.5 7.67591 871.5 16.2363C871.5 24.7967 864.56 31.7363 856 31.7363C847.44 31.7363 840.5 24.7967 840.5 16.2363C840.5 7.67591 847.44 0.736328 856 0.736328Z" fill="#F9F9F9" stroke="url(#paint21_linear_1580_3060)"/>
<path opacity="0.15" d="M16 42.7363C24.5604 42.7363 31.5 49.6759 31.5 58.2363C31.5 66.7967 24.5604 73.7363 16 73.7363C7.43959 73.7363 0.5 66.7967 0.5 58.2363C0.5 49.6759 7.43959 42.7363 16 42.7363Z" fill="#F9F9F9" stroke="url(#paint22_linear_1580_3060)"/>
<path opacity="0.52" d="M58 42.7363C66.5604 42.7363 73.5 49.6759 73.5 58.2363C73.5 66.7967 66.5604 73.7363 58 73.7363C49.4396 73.7363 42.5 66.7967 42.5 58.2363C42.5 49.6759 49.4396 42.7363 58 42.7363Z" fill="#F9F9F9" stroke="url(#paint23_linear_1580_3060)"/>
<path opacity="0.45" d="M100 42.7363C108.56 42.7363 115.5 49.6759 115.5 58.2363C115.5 66.7967 108.56 73.7363 100 73.7363C91.4396 73.7363 84.5 66.7967 84.5 58.2363C84.5 49.6759 91.4396 42.7363 100 42.7363Z" fill="#F9F9F9" stroke="url(#paint24_linear_1580_3060)"/>
<path opacity="0.27" d="M142 42.7363C150.56 42.7363 157.5 49.6759 157.5 58.2363C157.5 66.7967 150.56 73.7363 142 73.7363C133.44 73.7363 126.5 66.7967 126.5 58.2363C126.5 49.6759 133.44 42.7363 142 42.7363Z" fill="#F9F9F9" stroke="url(#paint25_linear_1580_3060)"/>
<path opacity="0.29" d="M184 42.7363C192.56 42.7363 199.5 49.6759 199.5 58.2363C199.5 66.7967 192.56 73.7363 184 73.7363C175.44 73.7363 168.5 66.7967 168.5 58.2363C168.5 49.6759 175.44 42.7363 184 42.7363Z" fill="#F9F9F9" stroke="url(#paint26_linear_1580_3060)"/>
<path opacity="0.49" d="M226 42.7363C234.56 42.7363 241.5 49.6759 241.5 58.2363C241.5 66.7967 234.56 73.7363 226 73.7363C217.44 73.7363 210.5 66.7967 210.5 58.2363C210.5 49.6759 217.44 42.7363 226 42.7363Z" fill="#F9F9F9" stroke="url(#paint27_linear_1580_3060)"/>
<path opacity="0.19" d="M268 42.7363C276.56 42.7363 283.5 49.6759 283.5 58.2363C283.5 66.7967 276.56 73.7363 268 73.7363C259.44 73.7363 252.5 66.7967 252.5 58.2363C252.5 49.6759 259.44 42.7363 268 42.7363Z" fill="#F9F9F9" stroke="url(#paint28_linear_1580_3060)"/>
<path opacity="0.42" d="M310 42.7363C318.56 42.7363 325.5 49.6759 325.5 58.2363C325.5 66.7967 318.56 73.7363 310 73.7363C301.44 73.7363 294.5 66.7967 294.5 58.2363C294.5 49.6759 301.44 42.7363 310 42.7363Z" fill="#F9F9F9" stroke="url(#paint29_linear_1580_3060)"/>
<path opacity="0.3" d="M352 42.7363C360.56 42.7363 367.5 49.6759 367.5 58.2363C367.5 66.7967 360.56 73.7363 352 73.7363C343.44 73.7363 336.5 66.7967 336.5 58.2363C336.5 49.6759 343.44 42.7363 352 42.7363Z" fill="#F9F9F9" stroke="url(#paint30_linear_1580_3060)"/>
<path opacity="0.33" d="M394 42.7363C402.56 42.7363 409.5 49.6759 409.5 58.2363C409.5 66.7967 402.56 73.7363 394 73.7363C385.44 73.7363 378.5 66.7967 378.5 58.2363C378.5 49.6759 385.44 42.7363 394 42.7363Z" fill="#F9F9F9" stroke="url(#paint31_linear_1580_3060)"/>
<path opacity="0.19" d="M436 42.7363C444.56 42.7363 451.5 49.6759 451.5 58.2363C451.5 66.7967 444.56 73.7363 436 73.7363C427.44 73.7363 420.5 66.7967 420.5 58.2363C420.5 49.6759 427.44 42.7363 436 42.7363Z" fill="#F9F9F9" stroke="url(#paint32_linear_1580_3060)"/>
<path opacity="0.11" d="M478 42.7363C486.56 42.7363 493.5 49.6759 493.5 58.2363C493.5 66.7967 486.56 73.7363 478 73.7363C469.44 73.7363 462.5 66.7967 462.5 58.2363C462.5 49.6759 469.44 42.7363 478 42.7363Z" fill="#F9F9F9" stroke="url(#paint33_linear_1580_3060)"/>
<path opacity="0.15" d="M520 42.7363C528.56 42.7363 535.5 49.6759 535.5 58.2363C535.5 66.7967 528.56 73.7363 520 73.7363C511.44 73.7363 504.5 66.7967 504.5 58.2363C504.5 49.6759 511.44 42.7363 520 42.7363Z" fill="#F9F9F9" stroke="url(#paint34_linear_1580_3060)"/>
<path opacity="0.55" d="M562 42.7363C570.56 42.7363 577.5 49.6759 577.5 58.2363C577.5 66.7967 570.56 73.7363 562 73.7363C553.44 73.7363 546.5 66.7967 546.5 58.2363C546.5 49.6759 553.44 42.7363 562 42.7363Z" fill="#F9F9F9" stroke="url(#paint35_linear_1580_3060)"/>
<path opacity="0.16" d="M604 42.7363C612.56 42.7363 619.5 49.6759 619.5 58.2363C619.5 66.7967 612.56 73.7363 604 73.7363C595.44 73.7363 588.5 66.7967 588.5 58.2363C588.5 49.6759 595.44 42.7363 604 42.7363Z" fill="#F9F9F9" stroke="url(#paint36_linear_1580_3060)"/>
<path opacity="0.37" d="M646 42.7363C654.56 42.7363 661.5 49.6759 661.5 58.2363C661.5 66.7967 654.56 73.7363 646 73.7363C637.44 73.7363 630.5 66.7967 630.5 58.2363C630.5 49.6759 637.44 42.7363 646 42.7363Z" fill="#F9F9F9" stroke="url(#paint37_linear_1580_3060)"/>
<path opacity="0.19" d="M688 42.7363C696.56 42.7363 703.5 49.6759 703.5 58.2363C703.5 66.7967 696.56 73.7363 688 73.7363C679.44 73.7363 672.5 66.7967 672.5 58.2363C672.5 49.6759 679.44 42.7363 688 42.7363Z" fill="#F9F9F9" stroke="url(#paint38_linear_1580_3060)"/>
<path opacity="0.3" d="M730 42.7363C738.56 42.7363 745.5 49.6759 745.5 58.2363C745.5 66.7967 738.56 73.7363 730 73.7363C721.44 73.7363 714.5 66.7967 714.5 58.2363C714.5 49.6759 721.44 42.7363 730 42.7363Z" fill="#F9F9F9" stroke="url(#paint39_linear_1580_3060)"/>
<path opacity="0.48" d="M772 42.7363C780.56 42.7363 787.5 49.6759 787.5 58.2363C787.5 66.7967 780.56 73.7363 772 73.7363C763.44 73.7363 756.5 66.7967 756.5 58.2363C756.5 49.6759 763.44 42.7363 772 42.7363Z" fill="#F9F9F9" stroke="url(#paint40_linear_1580_3060)"/>
<path opacity="0.4" d="M814 42.7363C822.56 42.7363 829.5 49.6759 829.5 58.2363C829.5 66.7967 822.56 73.7363 814 73.7363C805.44 73.7363 798.5 66.7967 798.5 58.2363C798.5 49.6759 805.44 42.7363 814 42.7363Z" fill="#F9F9F9" stroke="url(#paint41_linear_1580_3060)"/>
<path opacity="0.37" d="M856 42.7363C864.56 42.7363 871.5 49.6759 871.5 58.2363C871.5 66.7967 864.56 73.7363 856 73.7363C847.44 73.7363 840.5 66.7967 840.5 58.2363C840.5 49.6759 847.44 42.7363 856 42.7363Z" fill="#F9F9F9" stroke="url(#paint42_linear_1580_3060)"/>
<path opacity="0.18" d="M16 84.7363C24.5604 84.7363 31.5 91.6759 31.5 100.236C31.5 108.797 24.5604 115.736 16 115.736C7.43959 115.736 0.5 108.797 0.5 100.236C0.5 91.6759 7.43959 84.7363 16 84.7363Z" fill="#F9F9F9" stroke="url(#paint43_linear_1580_3060)"/>
<path opacity="0.23" d="M58 84.7363C66.5604 84.7363 73.5 91.6759 73.5 100.236C73.5 108.797 66.5604 115.736 58 115.736C49.4396 115.736 42.5 108.797 42.5 100.236C42.5 91.6759 49.4396 84.7363 58 84.7363Z" fill="#F9F9F9" stroke="url(#paint44_linear_1580_3060)"/>
<path opacity="0.3" d="M100 84.7363C108.56 84.7363 115.5 91.6759 115.5 100.236C115.5 108.797 108.56 115.736 100 115.736C91.4396 115.736 84.5 108.797 84.5 100.236C84.5 91.6759 91.4396 84.7363 100 84.7363Z" fill="#F9F9F9" stroke="url(#paint45_linear_1580_3060)"/>
<path opacity="0.43" d="M142 84.7363C150.56 84.7363 157.5 91.6759 157.5 100.236C157.5 108.797 150.56 115.736 142 115.736C133.44 115.736 126.5 108.797 126.5 100.236C126.5 91.6759 133.44 84.7363 142 84.7363Z" fill="#F9F9F9" stroke="url(#paint46_linear_1580_3060)"/>
<path opacity="0.46" d="M184 84.7363C192.56 84.7363 199.5 91.6759 199.5 100.236C199.5 108.797 192.56 115.736 184 115.736C175.44 115.736 168.5 108.797 168.5 100.236C168.5 91.6759 175.44 84.7363 184 84.7363Z" fill="#F9F9F9" stroke="url(#paint47_linear_1580_3060)"/>
<path opacity="0.29" d="M226 84.7363C234.56 84.7363 241.5 91.6759 241.5 100.236C241.5 108.797 234.56 115.736 226 115.736C217.44 115.736 210.5 108.797 210.5 100.236C210.5 91.6759 217.44 84.7363 226 84.7363Z" fill="#F9F9F9" stroke="url(#paint48_linear_1580_3060)"/>
<path opacity="0.11" d="M268 84.7363C276.56 84.7363 283.5 91.6759 283.5 100.236C283.5 108.797 276.56 115.736 268 115.736C259.44 115.736 252.5 108.797 252.5 100.236C252.5 91.6759 259.44 84.7363 268 84.7363Z" fill="#F9F9F9" stroke="url(#paint49_linear_1580_3060)"/>
<path opacity="0.25" d="M310 84.7363C318.56 84.7363 325.5 91.6759 325.5 100.236C325.5 108.797 318.56 115.736 310 115.736C301.44 115.736 294.5 108.797 294.5 100.236C294.5 91.6759 301.44 84.7363 310 84.7363Z" fill="#F9F9F9" stroke="url(#paint50_linear_1580_3060)"/>
<path opacity="0.52" d="M352 84.7363C360.56 84.7363 367.5 91.6759 367.5 100.236C367.5 108.797 360.56 115.736 352 115.736C343.44 115.736 336.5 108.797 336.5 100.236C336.5 91.6759 343.44 84.7363 352 84.7363Z" fill="#F9F9F9" stroke="url(#paint51_linear_1580_3060)"/>
<path opacity="0.57" d="M394 84.7363C402.56 84.7363 409.5 91.6759 409.5 100.236C409.5 108.797 402.56 115.736 394 115.736C385.44 115.736 378.5 108.797 378.5 100.236C378.5 91.6759 385.44 84.7363 394 84.7363Z" fill="#F9F9F9" stroke="url(#paint52_linear_1580_3060)"/>
<path opacity="0.35" d="M436 84.7363C444.56 84.7363 451.5 91.6759 451.5 100.236C451.5 108.797 444.56 115.736 436 115.736C427.44 115.736 420.5 108.797 420.5 100.236C420.5 91.6759 427.44 84.7363 436 84.7363Z" fill="#F9F9F9" stroke="url(#paint53_linear_1580_3060)"/>
<path opacity="0.49" d="M478 84.7363C486.56 84.7363 493.5 91.6759 493.5 100.236C493.5 108.797 486.56 115.736 478 115.736C469.44 115.736 462.5 108.797 462.5 100.236C462.5 91.6759 469.44 84.7363 478 84.7363Z" fill="#F9F9F9" stroke="url(#paint54_linear_1580_3060)"/>
<path opacity="0.37" d="M520 84.7363C528.56 84.7363 535.5 91.6759 535.5 100.236C535.5 108.797 528.56 115.736 520 115.736C511.44 115.736 504.5 108.797 504.5 100.236C504.5 91.6759 511.44 84.7363 520 84.7363Z" fill="#F9F9F9" stroke="url(#paint55_linear_1580_3060)"/>
<path opacity="0.19" d="M562 84.7363C570.56 84.7363 577.5 91.6759 577.5 100.236C577.5 108.797 570.56 115.736 562 115.736C553.44 115.736 546.5 108.797 546.5 100.236C546.5 91.6759 553.44 84.7363 562 84.7363Z" fill="#F9F9F9" stroke="url(#paint56_linear_1580_3060)"/>
<path opacity="0.56" d="M604 84.7363C612.56 84.7363 619.5 91.6759 619.5 100.236C619.5 108.797 612.56 115.736 604 115.736C595.44 115.736 588.5 108.797 588.5 100.236C588.5 91.6759 595.44 84.7363 604 84.7363Z" fill="#F9F9F9" stroke="url(#paint57_linear_1580_3060)"/>
<path opacity="0.51" d="M646 84.7363C654.56 84.7363 661.5 91.6759 661.5 100.236C661.5 108.797 654.56 115.736 646 115.736C637.44 115.736 630.5 108.797 630.5 100.236C630.5 91.6759 637.44 84.7363 646 84.7363Z" fill="#F9F9F9" stroke="url(#paint58_linear_1580_3060)"/>
<path opacity="0.43" d="M688 84.7363C696.56 84.7363 703.5 91.6759 703.5 100.236C703.5 108.797 696.56 115.736 688 115.736C679.44 115.736 672.5 108.797 672.5 100.236C672.5 91.6759 679.44 84.7363 688 84.7363Z" fill="#F9F9F9" stroke="url(#paint59_linear_1580_3060)"/>
<path opacity="0.5" d="M730 84.7363C738.56 84.7363 745.5 91.6759 745.5 100.236C745.5 108.797 738.56 115.736 730 115.736C721.44 115.736 714.5 108.797 714.5 100.236C714.5 91.6759 721.44 84.7363 730 84.7363Z" fill="#F9F9F9" stroke="url(#paint60_linear_1580_3060)"/>
<path opacity="0.15" d="M772 84.7363C780.56 84.7363 787.5 91.6759 787.5 100.236C787.5 108.797 780.56 115.736 772 115.736C763.44 115.736 756.5 108.797 756.5 100.236C756.5 91.6759 763.44 84.7363 772 84.7363Z" fill="#F9F9F9" stroke="url(#paint61_linear_1580_3060)"/>
<path opacity="0.3" d="M814 84.7363C822.56 84.7363 829.5 91.6759 829.5 100.236C829.5 108.797 822.56 115.736 814 115.736C805.44 115.736 798.5 108.797 798.5 100.236C798.5 91.6759 805.44 84.7363 814 84.7363Z" fill="#F9F9F9" stroke="url(#paint62_linear_1580_3060)"/>
<path opacity="0.44" d="M856 84.7363C864.56 84.7363 871.5 91.6759 871.5 100.236C871.5 108.797 864.56 115.736 856 115.736C847.44 115.736 840.5 108.797 840.5 100.236C840.5 91.6759 847.44 84.7363 856 84.7363Z" fill="#F9F9F9" stroke="url(#paint63_linear_1580_3060)"/>
<path opacity="0.59" d="M16 126.736C24.5604 126.736 31.5 133.676 31.5 142.236C31.5 150.797 24.5604 157.736 16 157.736C7.43959 157.736 0.5 150.797 0.5 142.236C0.5 133.676 7.43959 126.736 16 126.736Z" fill="#F9F9F9" stroke="url(#paint64_linear_1580_3060)"/>
<path opacity="0.23" d="M58 126.736C66.5604 126.736 73.5 133.676 73.5 142.236C73.5 150.797 66.5604 157.736 58 157.736C49.4396 157.736 42.5 150.797 42.5 142.236C42.5 133.676 49.4396 126.736 58 126.736Z" fill="#F9F9F9" stroke="url(#paint65_linear_1580_3060)"/>
<path opacity="0.24" d="M100 126.736C108.56 126.736 115.5 133.676 115.5 142.236C115.5 150.797 108.56 157.736 100 157.736C91.4396 157.736 84.5 150.797 84.5 142.236C84.5 133.676 91.4396 126.736 100 126.736Z" fill="#F9F9F9" stroke="url(#paint66_linear_1580_3060)"/>
<path opacity="0.6" d="M142 126.736C150.56 126.736 157.5 133.676 157.5 142.236C157.5 150.797 150.56 157.736 142 157.736C133.44 157.736 126.5 150.797 126.5 142.236C126.5 133.676 133.44 126.736 142 126.736Z" fill="#F9F9F9" stroke="url(#paint67_linear_1580_3060)"/>
<path opacity="0.22" d="M184 126.736C192.56 126.736 199.5 133.676 199.5 142.236C199.5 150.797 192.56 157.736 184 157.736C175.44 157.736 168.5 150.797 168.5 142.236C168.5 133.676 175.44 126.736 184 126.736Z" fill="#F9F9F9" stroke="url(#paint68_linear_1580_3060)"/>
<path opacity="0.55" d="M226 126.736C234.56 126.736 241.5 133.676 241.5 142.236C241.5 150.797 234.56 157.736 226 157.736C217.44 157.736 210.5 150.797 210.5 142.236C210.5 133.676 217.44 126.736 226 126.736Z" fill="#F9F9F9" stroke="url(#paint69_linear_1580_3060)"/>
<path opacity="0.41" d="M268 126.736C276.56 126.736 283.5 133.676 283.5 142.236C283.5 150.797 276.56 157.736 268 157.736C259.44 157.736 252.5 150.797 252.5 142.236C252.5 133.676 259.44 126.736 268 126.736Z" fill="#F9F9F9" stroke="url(#paint70_linear_1580_3060)"/>
<path opacity="0.11" d="M310 126.736C318.56 126.736 325.5 133.676 325.5 142.236C325.5 150.797 318.56 157.736 310 157.736C301.44 157.736 294.5 150.797 294.5 142.236C294.5 133.676 301.44 126.736 310 126.736Z" fill="#F9F9F9" stroke="url(#paint71_linear_1580_3060)"/>
<path opacity="0.34" d="M352 126.736C360.56 126.736 367.5 133.676 367.5 142.236C367.5 150.797 360.56 157.736 352 157.736C343.44 157.736 336.5 150.797 336.5 142.236C336.5 133.676 343.44 126.736 352 126.736Z" fill="#F9F9F9" stroke="url(#paint72_linear_1580_3060)"/>
<path opacity="0.54" d="M394 126.736C402.56 126.736 409.5 133.676 409.5 142.236C409.5 150.797 402.56 157.736 394 157.736C385.44 157.736 378.5 150.797 378.5 142.236C378.5 133.676 385.44 126.736 394 126.736Z" fill="#F9F9F9" stroke="url(#paint73_linear_1580_3060)"/>
<path opacity="0.19" d="M436 126.736C444.56 126.736 451.5 133.676 451.5 142.236C451.5 150.797 444.56 157.736 436 157.736C427.44 157.736 420.5 150.797 420.5 142.236C420.5 133.676 427.44 126.736 436 126.736Z" fill="#F9F9F9" stroke="url(#paint74_linear_1580_3060)"/>
<path opacity="0.35" d="M478 126.736C486.56 126.736 493.5 133.676 493.5 142.236C493.5 150.797 486.56 157.736 478 157.736C469.44 157.736 462.5 150.797 462.5 142.236C462.5 133.676 469.44 126.736 478 126.736Z" fill="#F9F9F9" stroke="url(#paint75_linear_1580_3060)"/>
<path opacity="0.28" d="M520 126.736C528.56 126.736 535.5 133.676 535.5 142.236C535.5 150.797 528.56 157.736 520 157.736C511.44 157.736 504.5 150.797 504.5 142.236C504.5 133.676 511.44 126.736 520 126.736Z" fill="#F9F9F9" stroke="url(#paint76_linear_1580_3060)"/>
<path opacity="0.12" d="M562 126.736C570.56 126.736 577.5 133.676 577.5 142.236C577.5 150.797 570.56 157.736 562 157.736C553.44 157.736 546.5 150.797 546.5 142.236C546.5 133.676 553.44 126.736 562 126.736Z" fill="#F9F9F9" stroke="url(#paint77_linear_1580_3060)"/>
<path opacity="0.37" d="M604 126.736C612.56 126.736 619.5 133.676 619.5 142.236C619.5 150.797 612.56 157.736 604 157.736C595.44 157.736 588.5 150.797 588.5 142.236C588.5 133.676 595.44 126.736 604 126.736Z" fill="#F9F9F9" stroke="url(#paint78_linear_1580_3060)"/>
<path opacity="0.36" d="M646 126.736C654.56 126.736 661.5 133.676 661.5 142.236C661.5 150.797 654.56 157.736 646 157.736C637.44 157.736 630.5 150.797 630.5 142.236C630.5 133.676 637.44 126.736 646 126.736Z" fill="#F9F9F9" stroke="url(#paint79_linear_1580_3060)"/>
<path opacity="0.57" d="M688 126.736C696.56 126.736 703.5 133.676 703.5 142.236C703.5 150.797 696.56 157.736 688 157.736C679.44 157.736 672.5 150.797 672.5 142.236C672.5 133.676 679.44 126.736 688 126.736Z" fill="#F9F9F9" stroke="url(#paint80_linear_1580_3060)"/>
<path opacity="0.45" d="M730 126.736C738.56 126.736 745.5 133.676 745.5 142.236C745.5 150.797 738.56 157.736 730 157.736C721.44 157.736 714.5 150.797 714.5 142.236C714.5 133.676 721.44 126.736 730 126.736Z" fill="#F9F9F9" stroke="url(#paint81_linear_1580_3060)"/>
<path opacity="0.1" d="M772 126.736C780.56 126.736 787.5 133.676 787.5 142.236C787.5 150.797 780.56 157.736 772 157.736C763.44 157.736 756.5 150.797 756.5 142.236C756.5 133.676 763.44 126.736 772 126.736Z" fill="#F9F9F9" stroke="url(#paint82_linear_1580_3060)"/>
<path opacity="0.33" d="M814 126.736C822.56 126.736 829.5 133.676 829.5 142.236C829.5 150.797 822.56 157.736 814 157.736C805.44 157.736 798.5 150.797 798.5 142.236C798.5 133.676 805.44 126.736 814 126.736Z" fill="#F9F9F9" stroke="url(#paint83_linear_1580_3060)"/>
<path opacity="0.4" d="M856 126.736C864.56 126.736 871.5 133.676 871.5 142.236C871.5 150.797 864.56 157.736 856 157.736C847.44 157.736 840.5 150.797 840.5 142.236C840.5 133.676 847.44 126.736 856 126.736Z" fill="#F9F9F9" stroke="url(#paint84_linear_1580_3060)"/>
<path opacity="0.19" d="M16 168.736C24.5604 168.736 31.5 175.676 31.5 184.236C31.5 192.797 24.5604 199.736 16 199.736C7.43959 199.736 0.5 192.797 0.5 184.236C0.5 175.676 7.43959 168.736 16 168.736Z" fill="#F9F9F9" stroke="url(#paint85_linear_1580_3060)"/>
<path opacity="0.42" d="M58 168.736C66.5604 168.736 73.5 175.676 73.5 184.236C73.5 192.797 66.5604 199.736 58 199.736C49.4396 199.736 42.5 192.797 42.5 184.236C42.5 175.676 49.4396 168.736 58 168.736Z" fill="#F9F9F9" stroke="url(#paint86_linear_1580_3060)"/>
<path opacity="0.49" d="M100 168.736C108.56 168.736 115.5 175.676 115.5 184.236C115.5 192.797 108.56 199.736 100 199.736C91.4396 199.736 84.5 192.797 84.5 184.236C84.5 175.676 91.4396 168.736 100 168.736Z" fill="#F9F9F9" stroke="url(#paint87_linear_1580_3060)"/>
<path opacity="0.47" d="M142 168.736C150.56 168.736 157.5 175.676 157.5 184.236C157.5 192.797 150.56 199.736 142 199.736C133.44 199.736 126.5 192.797 126.5 184.236C126.5 175.676 133.44 168.736 142 168.736Z" fill="#F9F9F9" stroke="url(#paint88_linear_1580_3060)"/>
<path opacity="0.42" d="M184 168.736C192.56 168.736 199.5 175.676 199.5 184.236C199.5 192.797 192.56 199.736 184 199.736C175.44 199.736 168.5 192.797 168.5 184.236C168.5 175.676 175.44 168.736 184 168.736Z" fill="#F9F9F9" stroke="url(#paint89_linear_1580_3060)"/>
<path opacity="0.26" d="M226 168.736C234.56 168.736 241.5 175.676 241.5 184.236C241.5 192.797 234.56 199.736 226 199.736C217.44 199.736 210.5 192.797 210.5 184.236C210.5 175.676 217.44 168.736 226 168.736Z" fill="#F9F9F9" stroke="url(#paint90_linear_1580_3060)"/>
<path opacity="0.53" d="M268 168.736C276.56 168.736 283.5 175.676 283.5 184.236C283.5 192.797 276.56 199.736 268 199.736C259.44 199.736 252.5 192.797 252.5 184.236C252.5 175.676 259.44 168.736 268 168.736Z" fill="#F9F9F9" stroke="url(#paint91_linear_1580_3060)"/>
<path opacity="0.58" d="M310 168.736C318.56 168.736 325.5 175.676 325.5 184.236C325.5 192.797 318.56 199.736 310 199.736C301.44 199.736 294.5 192.797 294.5 184.236C294.5 175.676 301.44 168.736 310 168.736Z" fill="#F9F9F9" stroke="url(#paint92_linear_1580_3060)"/>
<path opacity="0.35" d="M352 168.736C360.56 168.736 367.5 175.676 367.5 184.236C367.5 192.797 360.56 199.736 352 199.736C343.44 199.736 336.5 192.797 336.5 184.236C336.5 175.676 343.44 168.736 352 168.736Z" fill="#F9F9F9" stroke="url(#paint93_linear_1580_3060)"/>
<path opacity="0.55" d="M394 168.736C402.56 168.736 409.5 175.676 409.5 184.236C409.5 192.797 402.56 199.736 394 199.736C385.44 199.736 378.5 192.797 378.5 184.236C378.5 175.676 385.44 168.736 394 168.736Z" fill="#F9F9F9" stroke="url(#paint94_linear_1580_3060)"/>
<path opacity="0.2" d="M436 168.736C444.56 168.736 451.5 175.676 451.5 184.236C451.5 192.797 444.56 199.736 436 199.736C427.44 199.736 420.5 192.797 420.5 184.236C420.5 175.676 427.44 168.736 436 168.736Z" fill="#F9F9F9" stroke="url(#paint95_linear_1580_3060)"/>
<path opacity="0.12" d="M478 168.736C486.56 168.736 493.5 175.676 493.5 184.236C493.5 192.797 486.56 199.736 478 199.736C469.44 199.736 462.5 192.797 462.5 184.236C462.5 175.676 469.44 168.736 478 168.736Z" fill="#F9F9F9" stroke="url(#paint96_linear_1580_3060)"/>
<path opacity="0.52" d="M520 168.736C528.56 168.736 535.5 175.676 535.5 184.236C535.5 192.797 528.56 199.736 520 199.736C511.44 199.736 504.5 192.797 504.5 184.236C504.5 175.676 511.44 168.736 520 168.736Z" fill="#F9F9F9" stroke="url(#paint97_linear_1580_3060)"/>
<path opacity="0.27" d="M562 168.736C570.56 168.736 577.5 175.676 577.5 184.236C577.5 192.797 570.56 199.736 562 199.736C553.44 199.736 546.5 192.797 546.5 184.236C546.5 175.676 553.44 168.736 562 168.736Z" fill="#F9F9F9" stroke="url(#paint98_linear_1580_3060)"/>
<path opacity="0.58" d="M604 168.736C612.56 168.736 619.5 175.676 619.5 184.236C619.5 192.797 612.56 199.736 604 199.736C595.44 199.736 588.5 192.797 588.5 184.236C588.5 175.676 595.44 168.736 604 168.736Z" fill="#F9F9F9" stroke="url(#paint99_linear_1580_3060)"/>
<path opacity="0.47" d="M646 168.736C654.56 168.736 661.5 175.676 661.5 184.236C661.5 192.797 654.56 199.736 646 199.736C637.44 199.736 630.5 192.797 630.5 184.236C630.5 175.676 637.44 168.736 646 168.736Z" fill="#F9F9F9" stroke="url(#paint100_linear_1580_3060)"/>
<path opacity="0.21" d="M688 168.736C696.56 168.736 703.5 175.676 703.5 184.236C703.5 192.797 696.56 199.736 688 199.736C679.44 199.736 672.5 192.797 672.5 184.236C672.5 175.676 679.44 168.736 688 168.736Z" fill="#F9F9F9" stroke="url(#paint101_linear_1580_3060)"/>
<path opacity="0.1" d="M730 168.736C738.56 168.736 745.5 175.676 745.5 184.236C745.5 192.797 738.56 199.736 730 199.736C721.44 199.736 714.5 192.797 714.5 184.236C714.5 175.676 721.44 168.736 730 168.736Z" fill="#F9F9F9" stroke="url(#paint102_linear_1580_3060)"/>
<path opacity="0.41" d="M772 168.736C780.56 168.736 787.5 175.676 787.5 184.236C787.5 192.797 780.56 199.736 772 199.736C763.44 199.736 756.5 192.797 756.5 184.236C756.5 175.676 763.44 168.736 772 168.736Z" fill="#F9F9F9" stroke="url(#paint103_linear_1580_3060)"/>
<path opacity="0.34" d="M814 168.736C822.56 168.736 829.5 175.676 829.5 184.236C829.5 192.797 822.56 199.736 814 199.736C805.44 199.736 798.5 192.797 798.5 184.236C798.5 175.676 805.44 168.736 814 168.736Z" fill="#F9F9F9" stroke="url(#paint104_linear_1580_3060)"/>
<path opacity="0.5" d="M856 168.736C864.56 168.736 871.5 175.676 871.5 184.236C871.5 192.797 864.56 199.736 856 199.736C847.44 199.736 840.5 192.797 840.5 184.236C840.5 175.676 847.44 168.736 856 168.736Z" fill="#F9F9F9" stroke="url(#paint105_linear_1580_3060)"/>
<path opacity="0.23" d="M16 210.736C24.5604 210.736 31.5 217.676 31.5 226.236C31.5 234.797 24.5604 241.736 16 241.736C7.43959 241.736 0.5 234.797 0.5 226.236C0.5 217.676 7.43959 210.736 16 210.736Z" fill="#F9F9F9" stroke="url(#paint106_linear_1580_3060)"/>
<path opacity="0.15" d="M58 210.736C66.5604 210.736 73.5 217.676 73.5 226.236C73.5 234.797 66.5604 241.736 58 241.736C49.4396 241.736 42.5 234.797 42.5 226.236C42.5 217.676 49.4396 210.736 58 210.736Z" fill="#F9F9F9" stroke="url(#paint107_linear_1580_3060)"/>
<path opacity="0.19" d="M100 210.736C108.56 210.736 115.5 217.676 115.5 226.236C115.5 234.797 108.56 241.736 100 241.736C91.4396 241.736 84.5 234.797 84.5 226.236C84.5 217.676 91.4396 210.736 100 210.736Z" fill="#F9F9F9" stroke="url(#paint108_linear_1580_3060)"/>
<path opacity="0.23" d="M142 210.736C150.56 210.736 157.5 217.676 157.5 226.236C157.5 234.797 150.56 241.736 142 241.736C133.44 241.736 126.5 234.797 126.5 226.236C126.5 217.676 133.44 210.736 142 210.736Z" fill="#F9F9F9" stroke="url(#paint109_linear_1580_3060)"/>
<path opacity="0.35" d="M184 210.736C192.56 210.736 199.5 217.676 199.5 226.236C199.5 234.797 192.56 241.736 184 241.736C175.44 241.736 168.5 234.797 168.5 226.236C168.5 217.676 175.44 210.736 184 210.736Z" fill="#F9F9F9" stroke="url(#paint110_linear_1580_3060)"/>
<path opacity="0.15" d="M226 210.736C234.56 210.736 241.5 217.676 241.5 226.236C241.5 234.797 234.56 241.736 226 241.736C217.44 241.736 210.5 234.797 210.5 226.236C210.5 217.676 217.44 210.736 226 210.736Z" fill="#F9F9F9" stroke="url(#paint111_linear_1580_3060)"/>
<path opacity="0.34" d="M268 210.736C276.56 210.736 283.5 217.676 283.5 226.236C283.5 234.797 276.56 241.736 268 241.736C259.44 241.736 252.5 234.797 252.5 226.236C252.5 217.676 259.44 210.736 268 210.736Z" fill="#F9F9F9" stroke="url(#paint112_linear_1580_3060)"/>
<path opacity="0.17" d="M310 210.736C318.56 210.736 325.5 217.676 325.5 226.236C325.5 234.797 318.56 241.736 310 241.736C301.44 241.736 294.5 234.797 294.5 226.236C294.5 217.676 301.44 210.736 310 210.736Z" fill="#F9F9F9" stroke="url(#paint113_linear_1580_3060)"/>
<path opacity="0.53" d="M352 210.736C360.56 210.736 367.5 217.676 367.5 226.236C367.5 234.797 360.56 241.736 352 241.736C343.44 241.736 336.5 234.797 336.5 226.236C336.5 217.676 343.44 210.736 352 210.736Z" fill="#F9F9F9" stroke="url(#paint114_linear_1580_3060)"/>
<path opacity="0.34" d="M394 210.736C402.56 210.736 409.5 217.676 409.5 226.236C409.5 234.797 402.56 241.736 394 241.736C385.44 241.736 378.5 234.797 378.5 226.236C378.5 217.676 385.44 210.736 394 210.736Z" fill="#F9F9F9" stroke="url(#paint115_linear_1580_3060)"/>
<path opacity="0.24" d="M436 210.736C444.56 210.736 451.5 217.676 451.5 226.236C451.5 234.797 444.56 241.736 436 241.736C427.44 241.736 420.5 234.797 420.5 226.236C420.5 217.676 427.44 210.736 436 210.736Z" fill="#F9F9F9" stroke="url(#paint116_linear_1580_3060)"/>
<path opacity="0.14" d="M478 210.736C486.56 210.736 493.5 217.676 493.5 226.236C493.5 234.797 486.56 241.736 478 241.736C469.44 241.736 462.5 234.797 462.5 226.236C462.5 217.676 469.44 210.736 478 210.736Z" fill="#F9F9F9" stroke="url(#paint117_linear_1580_3060)"/>
<path opacity="0.4" d="M520 210.736C528.56 210.736 535.5 217.676 535.5 226.236C535.5 234.797 528.56 241.736 520 241.736C511.44 241.736 504.5 234.797 504.5 226.236C504.5 217.676 511.44 210.736 520 210.736Z" fill="#F9F9F9" stroke="url(#paint118_linear_1580_3060)"/>
<path opacity="0.45" d="M562 210.736C570.56 210.736 577.5 217.676 577.5 226.236C577.5 234.797 570.56 241.736 562 241.736C553.44 241.736 546.5 234.797 546.5 226.236C546.5 217.676 553.44 210.736 562 210.736Z" fill="#F9F9F9" stroke="url(#paint119_linear_1580_3060)"/>
<path opacity="0.17" d="M604 210.736C612.56 210.736 619.5 217.676 619.5 226.236C619.5 234.797 612.56 241.736 604 241.736C595.44 241.736 588.5 234.797 588.5 226.236C588.5 217.676 595.44 210.736 604 210.736Z" fill="#F9F9F9" stroke="url(#paint120_linear_1580_3060)"/>
<path opacity="0.12" d="M646 210.736C654.56 210.736 661.5 217.676 661.5 226.236C661.5 234.797 654.56 241.736 646 241.736C637.44 241.736 630.5 234.797 630.5 226.236C630.5 217.676 637.44 210.736 646 210.736Z" fill="#F9F9F9" stroke="url(#paint121_linear_1580_3060)"/>
<path opacity="0.2" d="M688 210.736C696.56 210.736 703.5 217.676 703.5 226.236C703.5 234.797 696.56 241.736 688 241.736C679.44 241.736 672.5 234.797 672.5 226.236C672.5 217.676 679.44 210.736 688 210.736Z" fill="#F9F9F9" stroke="url(#paint122_linear_1580_3060)"/>
<path opacity="0.47" d="M730 210.736C738.56 210.736 745.5 217.676 745.5 226.236C745.5 234.797 738.56 241.736 730 241.736C721.44 241.736 714.5 234.797 714.5 226.236C714.5 217.676 721.44 210.736 730 210.736Z" fill="#F9F9F9" stroke="url(#paint123_linear_1580_3060)"/>
<path opacity="0.6" d="M772 210.736C780.56 210.736 787.5 217.676 787.5 226.236C787.5 234.797 780.56 241.736 772 241.736C763.44 241.736 756.5 234.797 756.5 226.236C756.5 217.676 763.44 210.736 772 210.736Z" fill="#F9F9F9" stroke="url(#paint124_linear_1580_3060)"/>
<path opacity="0.32" d="M814 210.736C822.56 210.736 829.5 217.676 829.5 226.236C829.5 234.797 822.56 241.736 814 241.736C805.44 241.736 798.5 234.797 798.5 226.236C798.5 217.676 805.44 210.736 814 210.736Z" fill="#F9F9F9" stroke="url(#paint125_linear_1580_3060)"/>
<path opacity="0.48" d="M856 210.736C864.56 210.736 871.5 217.676 871.5 226.236C871.5 234.797 864.56 241.736 856 241.736C847.44 241.736 840.5 234.797 840.5 226.236C840.5 217.676 847.44 210.736 856 210.736Z" fill="#F9F9F9" stroke="url(#paint126_linear_1580_3060)"/>
<path opacity="0.12" d="M16 252.736C24.5604 252.736 31.5 259.676 31.5 268.236C31.5 276.797 24.5604 283.736 16 283.736C7.43959 283.736 0.5 276.797 0.5 268.236C0.5 259.676 7.43959 252.736 16 252.736Z" fill="#F9F9F9" stroke="url(#paint127_linear_1580_3060)"/>
<path opacity="0.42" d="M58 252.736C66.5604 252.736 73.5 259.676 73.5 268.236C73.5 276.797 66.5604 283.736 58 283.736C49.4396 283.736 42.5 276.797 42.5 268.236C42.5 259.676 49.4396 252.736 58 252.736Z" fill="#F9F9F9" stroke="url(#paint128_linear_1580_3060)"/>
<path opacity="0.27" d="M100 252.736C108.56 252.736 115.5 259.676 115.5 268.236C115.5 276.797 108.56 283.736 100 283.736C91.4396 283.736 84.5 276.797 84.5 268.236C84.5 259.676 91.4396 252.736 100 252.736Z" fill="#F9F9F9" stroke="url(#paint129_linear_1580_3060)"/>
<path opacity="0.31" d="M142 252.736C150.56 252.736 157.5 259.676 157.5 268.236C157.5 276.797 150.56 283.736 142 283.736C133.44 283.736 126.5 276.797 126.5 268.236C126.5 259.676 133.44 252.736 142 252.736Z" fill="#F9F9F9" stroke="url(#paint130_linear_1580_3060)"/>
<path opacity="0.5" d="M184 252.736C192.56 252.736 199.5 259.676 199.5 268.236C199.5 276.797 192.56 283.736 184 283.736C175.44 283.736 168.5 276.797 168.5 268.236C168.5 259.676 175.44 252.736 184 252.736Z" fill="#F9F9F9" stroke="url(#paint131_linear_1580_3060)"/>
<path opacity="0.22" d="M226 252.736C234.56 252.736 241.5 259.676 241.5 268.236C241.5 276.797 234.56 283.736 226 283.736C217.44 283.736 210.5 276.797 210.5 268.236C210.5 259.676 217.44 252.736 226 252.736Z" fill="#F9F9F9" stroke="url(#paint132_linear_1580_3060)"/>
<path opacity="0.25" d="M268 252.736C276.56 252.736 283.5 259.676 283.5 268.236C283.5 276.797 276.56 283.736 268 283.736C259.44 283.736 252.5 276.797 252.5 268.236C252.5 259.676 259.44 252.736 268 252.736Z" fill="#F9F9F9" stroke="url(#paint133_linear_1580_3060)"/>
<path opacity="0.2" d="M310 252.736C318.56 252.736 325.5 259.676 325.5 268.236C325.5 276.797 318.56 283.736 310 283.736C301.44 283.736 294.5 276.797 294.5 268.236C294.5 259.676 301.44 252.736 310 252.736Z" fill="#F9F9F9" stroke="url(#paint134_linear_1580_3060)"/>
<path opacity="0.17" d="M352 252.736C360.56 252.736 367.5 259.676 367.5 268.236C367.5 276.797 360.56 283.736 352 283.736C343.44 283.736 336.5 276.797 336.5 268.236C336.5 259.676 343.44 252.736 352 252.736Z" fill="#F9F9F9" stroke="url(#paint135_linear_1580_3060)"/>
<path opacity="0.19" d="M394 252.736C402.56 252.736 409.5 259.676 409.5 268.236C409.5 276.797 402.56 283.736 394 283.736C385.44 283.736 378.5 276.797 378.5 268.236C378.5 259.676 385.44 252.736 394 252.736Z" fill="#F9F9F9" stroke="url(#paint136_linear_1580_3060)"/>
<path opacity="0.57" d="M436 252.736C444.56 252.736 451.5 259.676 451.5 268.236C451.5 276.797 444.56 283.736 436 283.736C427.44 283.736 420.5 276.797 420.5 268.236C420.5 259.676 427.44 252.736 436 252.736Z" fill="#F9F9F9" stroke="url(#paint137_linear_1580_3060)"/>
<path opacity="0.32" d="M478 252.736C486.56 252.736 493.5 259.676 493.5 268.236C493.5 276.797 486.56 283.736 478 283.736C469.44 283.736 462.5 276.797 462.5 268.236C462.5 259.676 469.44 252.736 478 252.736Z" fill="#F9F9F9" stroke="url(#paint138_linear_1580_3060)"/>
<path opacity="0.56" d="M520 252.736C528.56 252.736 535.5 259.676 535.5 268.236C535.5 276.797 528.56 283.736 520 283.736C511.44 283.736 504.5 276.797 504.5 268.236C504.5 259.676 511.44 252.736 520 252.736Z" fill="#F9F9F9" stroke="url(#paint139_linear_1580_3060)"/>
<path opacity="0.36" d="M562 252.736C570.56 252.736 577.5 259.676 577.5 268.236C577.5 276.797 570.56 283.736 562 283.736C553.44 283.736 546.5 276.797 546.5 268.236C546.5 259.676 553.44 252.736 562 252.736Z" fill="#F9F9F9" stroke="url(#paint140_linear_1580_3060)"/>
<path opacity="0.6" d="M604 252.736C612.56 252.736 619.5 259.676 619.5 268.236C619.5 276.797 612.56 283.736 604 283.736C595.44 283.736 588.5 276.797 588.5 268.236C588.5 259.676 595.44 252.736 604 252.736Z" fill="#F9F9F9" stroke="url(#paint141_linear_1580_3060)"/>
<path opacity="0.23" d="M646 252.736C654.56 252.736 661.5 259.676 661.5 268.236C661.5 276.797 654.56 283.736 646 283.736C637.44 283.736 630.5 276.797 630.5 268.236C630.5 259.676 637.44 252.736 646 252.736Z" fill="#F9F9F9" stroke="url(#paint142_linear_1580_3060)"/>
<path opacity="0.31" d="M688 252.736C696.56 252.736 703.5 259.676 703.5 268.236C703.5 276.797 696.56 283.736 688 283.736C679.44 283.736 672.5 276.797 672.5 268.236C672.5 259.676 679.44 252.736 688 252.736Z" fill="#F9F9F9" stroke="url(#paint143_linear_1580_3060)"/>
<path opacity="0.23" d="M730 252.736C738.56 252.736 745.5 259.676 745.5 268.236C745.5 276.797 738.56 283.736 730 283.736C721.44 283.736 714.5 276.797 714.5 268.236C714.5 259.676 721.44 252.736 730 252.736Z" fill="#F9F9F9" stroke="url(#paint144_linear_1580_3060)"/>
<path opacity="0.5" d="M772 252.736C780.56 252.736 787.5 259.676 787.5 268.236C787.5 276.797 780.56 283.736 772 283.736C763.44 283.736 756.5 276.797 756.5 268.236C756.5 259.676 763.44 252.736 772 252.736Z" fill="#F9F9F9" stroke="url(#paint145_linear_1580_3060)"/>
<path opacity="0.52" d="M814 252.736C822.56 252.736 829.5 259.676 829.5 268.236C829.5 276.797 822.56 283.736 814 283.736C805.44 283.736 798.5 276.797 798.5 268.236C798.5 259.676 805.44 252.736 814 252.736Z" fill="#F9F9F9" stroke="url(#paint146_linear_1580_3060)"/>
<path opacity="0.23" d="M856 252.736C864.56 252.736 871.5 259.676 871.5 268.236C871.5 276.797 864.56 283.736 856 283.736C847.44 283.736 840.5 276.797 840.5 268.236C840.5 259.676 847.44 252.736 856 252.736Z" fill="#F9F9F9" stroke="url(#paint147_linear_1580_3060)"/>
</g>
<defs>
<radialGradient id="paint0_radial_1580_3060" cx="0" cy="0" r="1" gradientUnits="userSpaceOnUse" gradientTransform="translate(866.5 277.306) rotate(-162.506) scale(894.889 1681.04)">
<stop stop-color="#D9D9D9"/>
<stop offset="0.328924" stop-color="#CBCBCB" stop-opacity="0"/>
<stop offset="0.835591" stop-color="#BDBDBD" stop-opacity="0"/>
<stop offset="1" stop-color="#737373"/>
</radialGradient>
<linearGradient id="paint1_linear_1580_3060" x1="7.5" y1="1.73633" x2="21.5" y2="21.2363" gradientUnits="userSpaceOnUse">
<stop stop-color="#C3C3C3"/>
<stop offset="1" stop-color="#666666" stop-opacity="0"/>
</linearGradient>
<linearGradient id="paint2_linear_1580_3060" x1="49.5" y1="1.73633" x2="63.5" y2="21.2363" gradientUnits="userSpaceOnUse">
<stop stop-color="#C3C3C3"/>
<stop offset="1" stop-color="#666666" stop-opacity="0"/>
</linearGradient>
<linearGradient id="paint3_linear_1580_3060" x1="91.5" y1="1.73633" x2="105.5" y2="21.2363" gradientUnits="userSpaceOnUse">
<stop stop-color="#C3C3C3"/>
<stop offset="1" stop-color="#666666" stop-opacity="0"/>
</linearGradient>
<linearGradient id="paint4_linear_1580_3060" x1="133.5" y1="1.73633" x2="147.5" y2="21.2363" gradientUnits="userSpaceOnUse">
<stop stop-color="#C3C3C3"/>
<stop offset="1" stop-color="#666666" stop-opacity="0"/>
</linearGradient>
<linearGradient id="paint5_linear_1580_3060" x1="175.5" y1="1.73633" x2="189.5" y2="21.2363" gradientUnits="userSpaceOnUse">
<stop stop-color="#C3C3C3"/>
<stop offset="1" stop-color="#666666" stop-opacity="0"/>
</linearGradient>
<linearGradient id="paint6_linear_1580_3060" x1="217.5" y1="1.73633" x2="231.5" y2="21.2363" gradientUnits="userSpaceOnUse">
<stop stop-color="#C3C3C3"/>
<stop offset="1" stop-color="#666666" stop-opacity="0"/>
</linearGradient>
<linearGradient id="paint7_linear_1580_3060" x1="259.5" y1="1.73633" x2="273.5" y2="21.2363" gradientUnits="userSpaceOnUse">
<stop stop-color="#C3C3C3"/>
<stop offset="1" stop-color="#666666" stop-opacity="0"/>
</linearGradient>
<linearGradient id="paint8_linear_1580_3060" x1="301.5" y1="1.73633" x2="315.5" y2="21.2363" gradientUnits="userSpaceOnUse">
<stop stop-color="#C3C3C3"/>
<stop offset="1" stop-color="#666666" stop-opacity="0"/>
</linearGradient>
<linearGradient id="paint9_linear_1580_3060" x1="343.5" y1="1.73633" x2="357.5" y2="21.2363" gradientUnits="userSpaceOnUse">
<stop stop-color="#C3C3C3"/>
<stop offset="1" stop-color="#666666" stop-opacity="0"/>
</linearGradient>
<linearGradient id="paint10_linear_1580_3060" x1="385.5" y1="1.73633" x2="399.5" y2="21.2363" gradientUnits="userSpaceOnUse">
<stop stop-color="#C3C3C3"/>
<stop offset="1" stop-color="#666666" stop-opacity="0"/>
</linearGradient>
<linearGradient id="paint11_linear_1580_3060" x1="427.5" y1="1.73633" x2="441.5" y2="21.2363" gradientUnits="userSpaceOnUse">
<stop stop-color="#C3C3C3"/>
<stop offset="1" stop-color="#666666" stop-opacity="0"/>
</linearGradient>
<linearGradient id="paint12_linear_1580_3060" x1="469.5" y1="1.73633" x2="483.5" y2="21.2363" gradientUnits="userSpaceOnUse">
<stop stop-color="#C3C3C3"/>
<stop offset="1" stop-color="#666666" stop-opacity="0"/>
</linearGradient>
<linearGradient id="paint13_linear_1580_3060" x1="511.5" y1="1.73633" x2="525.5" y2="21.2363" gradientUnits="userSpaceOnUse">
<stop stop-color="#C3C3C3"/>
<stop offset="1" stop-color="#666666" stop-opacity="0"/>
</linearGradient>
<linearGradient id="paint14_linear_1580_3060" x1="553.5" y1="1.73633" x2="567.5" y2="21.2363" gradientUnits="userSpaceOnUse">
<stop stop-color="#C3C3C3"/>
<stop offset="1" stop-color="#666666" stop-opacity="0"/>
</linearGradient>
<linearGradient id="paint15_linear_1580_3060" x1="595.5" y1="1.73633" x2="609.5" y2="21.2363" gradientUnits="userSpaceOnUse">
<stop stop-color="#C3C3C3"/>
<stop offset="1" stop-color="#666666" stop-opacity="0"/>
</linearGradient>
<linearGradient id="paint16_linear_1580_3060" x1="637.5" y1="1.73633" x2="651.5" y2="21.2363" gradientUnits="userSpaceOnUse">
<stop stop-color="#C3C3C3"/>
<stop offset="1" stop-color="#666666" stop-opacity="0"/>
</linearGradient>
<linearGradient id="paint17_linear_1580_3060" x1="679.5" y1="1.73633" x2="693.5" y2="21.2363" gradientUnits="userSpaceOnUse">
<stop stop-color="#C3C3C3"/>
<stop offset="1" stop-color="#666666" stop-opacity="0"/>
</linearGradient>
<linearGradient id="paint18_linear_1580_3060" x1="721.5" y1="1.73633" x2="735.5" y2="21.2363" gradientUnits="userSpaceOnUse">
<stop stop-color="#C3C3C3"/>
<stop offset="1" stop-color="#666666" stop-opacity="0"/>
</linearGradient>
<linearGradient id="paint19_linear_1580_3060" x1="763.5" y1="1.73633" x2="777.5" y2="21.2363" gradientUnits="userSpaceOnUse">
<stop stop-color="#C3C3C3"/>
<stop offset="1" stop-color="#666666" stop-opacity="0"/>
</linearGradient>
<linearGradient id="paint20_linear_1580_3060" x1="805.5" y1="1.73633" x2="819.5" y2="21.2363" gradientUnits="userSpaceOnUse">
<stop stop-color="#C3C3C3"/>
<stop offset="1" stop-color="#666666" stop-opacity="0"/>
</linearGradient>
<linearGradient id="paint21_linear_1580_3060" x1="847.5" y1="1.73633" x2="861.5" y2="21.2363" gradientUnits="userSpaceOnUse">
<stop stop-color="#C3C3C3"/>
<stop offset="1" stop-color="#666666" stop-opacity="0"/>
</linearGradient>
<linearGradient id="paint22_linear_1580_3060" x1="7.5" y1="43.7363" x2="21.5" y2="63.2363" gradientUnits="userSpaceOnUse">
<stop stop-color="#C3C3C3"/>
<stop offset="1" stop-color="#666666" stop-opacity="0"/>
</linearGradient>
<linearGradient id="paint23_linear_1580_3060" x1="49.5" y1="43.7363" x2="63.5" y2="63.2363" gradientUnits="userSpaceOnUse">
<stop stop-color="#C3C3C3"/>
<stop offset="1" stop-color="#666666" stop-opacity="0"/>
</linearGradient>
<linearGradient id="paint24_linear_1580_3060" x1="91.5" y1="43.7363" x2="105.5" y2="63.2363" gradientUnits="userSpaceOnUse">
<stop stop-color="#C3C3C3"/>
<stop offset="1" stop-color="#666666" stop-opacity="0"/>
</linearGradient>
<linearGradient id="paint25_linear_1580_3060" x1="133.5" y1="43.7363" x2="147.5" y2="63.2363" gradientUnits="userSpaceOnUse">
<stop stop-color="#C3C3C3"/>
<stop offset="1" stop-color="#666666" stop-opacity="0"/>
</linearGradient>
<linearGradient id="paint26_linear_1580_3060" x1="175.5" y1="43.7363" x2="189.5" y2="63.2363" gradientUnits="userSpaceOnUse">
<stop stop-color="#C3C3C3"/>
<stop offset="1" stop-color="#666666" stop-opacity="0"/>
</linearGradient>
<linearGradient id="paint27_linear_1580_3060" x1="217.5" y1="43.7363" x2="231.5" y2="63.2363" gradientUnits="userSpaceOnUse">
<stop stop-color="#C3C3C3"/>
<stop offset="1" stop-color="#666666" stop-opacity="0"/>
</linearGradient>
<linearGradient id="paint28_linear_1580_3060" x1="259.5" y1="43.7363" x2="273.5" y2="63.2363" gradientUnits="userSpaceOnUse">
<stop stop-color="#C3C3C3"/>
<stop offset="1" stop-color="#666666" stop-opacity="0"/>
</linearGradient>
<linearGradient id="paint29_linear_1580_3060" x1="301.5" y1="43.7363" x2="315.5" y2="63.2363" gradientUnits="userSpaceOnUse">
<stop stop-color="#C3C3C3"/>
<stop offset="1" stop-color="#666666" stop-opacity="0"/>
</linearGradient>
<linearGradient id="paint30_linear_1580_3060" x1="343.5" y1="43.7363" x2="357.5" y2="63.2363" gradientUnits="userSpaceOnUse">
<stop stop-color="#C3C3C3"/>
<stop offset="1" stop-color="#666666" stop-opacity="0"/>
</linearGradient>
<linearGradient id="paint31_linear_1580_3060" x1="385.5" y1="43.7363" x2="399.5" y2="63.2363" gradientUnits="userSpaceOnUse">
<stop stop-color="#C3C3C3"/>
<stop offset="1" stop-color="#666666" stop-opacity="0"/>
</linearGradient>
<linearGradient id="paint32_linear_1580_3060" x1="427.5" y1="43.7363" x2="441.5" y2="63.2363" gradientUnits="userSpaceOnUse">
<stop stop-color="#C3C3C3"/>
<stop offset="1" stop-color="#666666" stop-opacity="0"/>
</linearGradient>
<linearGradient id="paint33_linear_1580_3060" x1="469.5" y1="43.7363" x2="483.5" y2="63.2363" gradientUnits="userSpaceOnUse">
<stop stop-color="#C3C3C3"/>
<stop offset="1" stop-color="#666666" stop-opacity="0"/>
</linearGradient>
<linearGradient id="paint34_linear_1580_3060" x1="511.5" y1="43.7363" x2="525.5" y2="63.2363" gradientUnits="userSpaceOnUse">
<stop stop-color="#C3C3C3"/>
<stop offset="1" stop-color="#666666" stop-opacity="0"/>
</linearGradient>
<linearGradient id="paint35_linear_1580_3060" x1="553.5" y1="43.7363" x2="567.5" y2="63.2363" gradientUnits="userSpaceOnUse">
<stop stop-color="#C3C3C3"/>
<stop offset="1" stop-color="#666666" stop-opacity="0"/>
</linearGradient>
<linearGradient id="paint36_linear_1580_3060" x1="595.5" y1="43.7363" x2="609.5" y2="63.2363" gradientUnits="userSpaceOnUse">
<stop stop-color="#C3C3C3"/>
<stop offset="1" stop-color="#666666" stop-opacity="0"/>
</linearGradient>
<linearGradient id="paint37_linear_1580_3060" x1="637.5" y1="43.7363" x2="651.5" y2="63.2363" gradientUnits="userSpaceOnUse">
<stop stop-color="#C3C3C3"/>
<stop offset="1" stop-color="#666666" stop-opacity="0"/>
</linearGradient>
<linearGradient id="paint38_linear_1580_3060" x1="679.5" y1="43.7363" x2="693.5" y2="63.2363" gradientUnits="userSpaceOnUse">
<stop stop-color="#C3C3C3"/>
<stop offset="1" stop-color="#666666" stop-opacity="0"/>
</linearGradient>
<linearGradient id="paint39_linear_1580_3060" x1="721.5" y1="43.7363" x2="735.5" y2="63.2363" gradientUnits="userSpaceOnUse">
<stop stop-color="#C3C3C3"/>
<stop offset="1" stop-color="#666666" stop-opacity="0"/>
</linearGradient>
<linearGradient id="paint40_linear_1580_3060" x1="763.5" y1="43.7363" x2="777.5" y2="63.2363" gradientUnits="userSpaceOnUse">
<stop stop-color="#C3C3C3"/>
<stop offset="1" stop-color="#666666" stop-opacity="0"/>
</linearGradient>
<linearGradient id="paint41_linear_1580_3060" x1="805.5" y1="43.7363" x2="819.5" y2="63.2363" gradientUnits="userSpaceOnUse">
<stop stop-color="#C3C3C3"/>
<stop offset="1" stop-color="#666666" stop-opacity="0"/>
</linearGradient>
<linearGradient id="paint42_linear_1580_3060" x1="847.5" y1="43.7363" x2="861.5" y2="63.2363" gradientUnits="userSpaceOnUse">
<stop stop-color="#C3C3C3"/>
<stop offset="1" stop-color="#666666" stop-opacity="0"/>
</linearGradient>
<linearGradient id="paint43_linear_1580_3060" x1="7.5" y1="85.7363" x2="21.5" y2="105.236" gradientUnits="userSpaceOnUse">
<stop stop-color="#C3C3C3"/>
<stop offset="1" stop-color="#666666" stop-opacity="0"/>
</linearGradient>
<linearGradient id="paint44_linear_1580_3060" x1="49.5" y1="85.7363" x2="63.5" y2="105.236" gradientUnits="userSpaceOnUse">
<stop stop-color="#C3C3C3"/>
<stop offset="1" stop-color="#666666" stop-opacity="0"/>
</linearGradient>
<linearGradient id="paint45_linear_1580_3060" x1="91.5" y1="85.7363" x2="105.5" y2="105.236" gradientUnits="userSpaceOnUse">
<stop stop-color="#C3C3C3"/>
<stop offset="1" stop-color="#666666" stop-opacity="0"/>
</linearGradient>
<linearGradient id="paint46_linear_1580_3060" x1="133.5" y1="85.7363" x2="147.5" y2="105.236" gradientUnits="userSpaceOnUse">
<stop stop-color="#C3C3C3"/>
<stop offset="1" stop-color="#666666" stop-opacity="0"/>
</linearGradient>
<linearGradient id="paint47_linear_1580_3060" x1="175.5" y1="85.7363" x2="189.5" y2="105.236" gradientUnits="userSpaceOnUse">
<stop stop-color="#C3C3C3"/>
<stop offset="1" stop-color="#666666" stop-opacity="0"/>
</linearGradient>
<linearGradient id="paint48_linear_1580_3060" x1="217.5" y1="85.7363" x2="231.5" y2="105.236" gradientUnits="userSpaceOnUse">
<stop stop-color="#C3C3C3"/>
<stop offset="1" stop-color="#666666" stop-opacity="0"/>
</linearGradient>
<linearGradient id="paint49_linear_1580_3060" x1="259.5" y1="85.7363" x2="273.5" y2="105.236" gradientUnits="userSpaceOnUse">
<stop stop-color="#C3C3C3"/>
<stop offset="1" stop-color="#666666" stop-opacity="0"/>
</linearGradient>
<linearGradient id="paint50_linear_1580_3060" x1="301.5" y1="85.7363" x2="315.5" y2="105.236" gradientUnits="userSpaceOnUse">
<stop stop-color="#C3C3C3"/>
<stop offset="1" stop-color="#666666" stop-opacity="0"/>
</linearGradient>
<linearGradient id="paint51_linear_1580_3060" x1="343.5" y1="85.7363" x2="357.5" y2="105.236" gradientUnits="userSpaceOnUse">
<stop stop-color="#C3C3C3"/>
<stop offset="1" stop-color="#666666" stop-opacity="0"/>
</linearGradient>
<linearGradient id="paint52_linear_1580_3060" x1="385.5" y1="85.7363" x2="399.5" y2="105.236" gradientUnits="userSpaceOnUse">
<stop stop-color="#C3C3C3"/>
<stop offset="1" stop-color="#666666" stop-opacity="0"/>
</linearGradient>
<linearGradient id="paint53_linear_1580_3060" x1="427.5" y1="85.7363" x2="441.5" y2="105.236" gradientUnits="userSpaceOnUse">
<stop stop-color="#C3C3C3"/>
<stop offset="1" stop-color="#666666" stop-opacity="0"/>
</linearGradient>
<linearGradient id="paint54_linear_1580_3060" x1="469.5" y1="85.7363" x2="483.5" y2="105.236" gradientUnits="userSpaceOnUse">
<stop stop-color="#C3C3C3"/>
<stop offset="1" stop-color="#666666" stop-opacity="0"/>
</linearGradient>
<linearGradient id="paint55_linear_1580_3060" x1="511.5" y1="85.7363" x2="525.5" y2="105.236" gradientUnits="userSpaceOnUse">
<stop stop-color="#C3C3C3"/>
<stop offset="1" stop-color="#666666" stop-opacity="0"/>
</linearGradient>
<linearGradient id="paint56_linear_1580_3060" x1="553.5" y1="85.7363" x2="567.5" y2="105.236" gradientUnits="userSpaceOnUse">
<stop stop-color="#C3C3C3"/>
<stop offset="1" stop-color="#666666" stop-opacity="0"/>
</linearGradient>
<linearGradient id="paint57_linear_1580_3060" x1="595.5" y1="85.7363" x2="609.5" y2="105.236" gradientUnits="userSpaceOnUse">
<stop stop-color="#C3C3C3"/>
<stop offset="1" stop-color="#666666" stop-opacity="0"/>
</linearGradient>
<linearGradient id="paint58_linear_1580_3060" x1="637.5" y1="85.7363" x2="651.5" y2="105.236" gradientUnits="userSpaceOnUse">
<stop stop-color="#C3C3C3"/>
<stop offset="1" stop-color="#666666" stop-opacity="0"/>
</linearGradient>
<linearGradient id="paint59_linear_1580_3060" x1="679.5" y1="85.7363" x2="693.5" y2="105.236" gradientUnits="userSpaceOnUse">
<stop stop-color="#C3C3C3"/>
<stop offset="1" stop-color="#666666" stop-opacity="0"/>
</linearGradient>
<linearGradient id="paint60_linear_1580_3060" x1="721.5" y1="85.7363" x2="735.5" y2="105.236" gradientUnits="userSpaceOnUse">
<stop stop-color="#C3C3C3"/>
<stop offset="1" stop-color="#666666" stop-opacity="0"/>
</linearGradient>
<linearGradient id="paint61_linear_1580_3060" x1="763.5" y1="85.7363" x2="777.5" y2="105.236" gradientUnits="userSpaceOnUse">
<stop stop-color="#C3C3C3"/>
<stop offset="1" stop-color="#666666" stop-opacity="0"/>
</linearGradient>
<linearGradient id="paint62_linear_1580_3060" x1="805.5" y1="85.7363" x2="819.5" y2="105.236" gradientUnits="userSpaceOnUse">
<stop stop-color="#C3C3C3"/>
<stop offset="1" stop-color="#666666" stop-opacity="0"/>
</linearGradient>
<linearGradient id="paint63_linear_1580_3060" x1="847.5" y1="85.7363" x2="861.5" y2="105.236" gradientUnits="userSpaceOnUse">
<stop stop-color="#C3C3C3"/>
<stop offset="1" stop-color="#666666" stop-opacity="0"/>
</linearGradient>
<linearGradient id="paint64_linear_1580_3060" x1="7.5" y1="127.736" x2="21.5" y2="147.236" gradientUnits="userSpaceOnUse">
<stop stop-color="#C3C3C3"/>
<stop offset="1" stop-color="#666666" stop-opacity="0"/>
</linearGradient>
<linearGradient id="paint65_linear_1580_3060" x1="49.5" y1="127.736" x2="63.5" y2="147.236" gradientUnits="userSpaceOnUse">
<stop stop-color="#C3C3C3"/>
<stop offset="1" stop-color="#666666" stop-opacity="0"/>
</linearGradient>
<linearGradient id="paint66_linear_1580_3060" x1="91.5" y1="127.736" x2="105.5" y2="147.236" gradientUnits="userSpaceOnUse">
<stop stop-color="#C3C3C3"/>
<stop offset="1" stop-color="#666666" stop-opacity="0"/>
</linearGradient>
<linearGradient id="paint67_linear_1580_3060" x1="133.5" y1="127.736" x2="147.5" y2="147.236" gradientUnits="userSpaceOnUse">
<stop stop-color="#C3C3C3"/>
<stop offset="1" stop-color="#666666" stop-opacity="0"/>
</linearGradient>
<linearGradient id="paint68_linear_1580_3060" x1="175.5" y1="127.736" x2="189.5" y2="147.236" gradientUnits="userSpaceOnUse">
<stop stop-color="#C3C3C3"/>
<stop offset="1" stop-color="#666666" stop-opacity="0"/>
</linearGradient>
<linearGradient id="paint69_linear_1580_3060" x1="217.5" y1="127.736" x2="231.5" y2="147.236" gradientUnits="userSpaceOnUse">
<stop stop-color="#C3C3C3"/>
<stop offset="1" stop-color="#666666" stop-opacity="0"/>
</linearGradient>
<linearGradient id="paint70_linear_1580_3060" x1="259.5" y1="127.736" x2="273.5" y2="147.236" gradientUnits="userSpaceOnUse">
<stop stop-color="#C3C3C3"/>
<stop offset="1" stop-color="#666666" stop-opacity="0"/>
</linearGradient>
<linearGradient id="paint71_linear_1580_3060" x1="301.5" y1="127.736" x2="315.5" y2="147.236" gradientUnits="userSpaceOnUse">
<stop stop-color="#C3C3C3"/>
<stop offset="1" stop-color="#666666" stop-opacity="0"/>
</linearGradient>
<linearGradient id="paint72_linear_1580_3060" x1="343.5" y1="127.736" x2="357.5" y2="147.236" gradientUnits="userSpaceOnUse">
<stop stop-color="#C3C3C3"/>
<stop offset="1" stop-color="#666666" stop-opacity="0"/>
</linearGradient>
<linearGradient id="paint73_linear_1580_3060" x1="385.5" y1="127.736" x2="399.5" y2="147.236" gradientUnits="userSpaceOnUse">
<stop stop-color="#C3C3C3"/>
<stop offset="1" stop-color="#666666" stop-opacity="0"/>
</linearGradient>
<linearGradient id="paint74_linear_1580_3060" x1="427.5" y1="127.736" x2="441.5" y2="147.236" gradientUnits="userSpaceOnUse">
<stop stop-color="#C3C3C3"/>
<stop offset="1" stop-color="#666666" stop-opacity="0"/>
</linearGradient>
<linearGradient id="paint75_linear_1580_3060" x1="469.5" y1="127.736" x2="483.5" y2="147.236" gradientUnits="userSpaceOnUse">
<stop stop-color="#C3C3C3"/>
<stop offset="1" stop-color="#666666" stop-opacity="0"/>
</linearGradient>
<linearGradient id="paint76_linear_1580_3060" x1="511.5" y1="127.736" x2="525.5" y2="147.236" gradientUnits="userSpaceOnUse">
<stop stop-color="#C3C3C3"/>
<stop offset="1" stop-color="#666666" stop-opacity="0"/>
</linearGradient>
<linearGradient id="paint77_linear_1580_3060" x1="553.5" y1="127.736" x2="567.5" y2="147.236" gradientUnits="userSpaceOnUse">
<stop stop-color="#C3C3C3"/>
<stop offset="1" stop-color="#666666" stop-opacity="0"/>
</linearGradient>
<linearGradient id="paint78_linear_1580_3060" x1="595.5" y1="127.736" x2="609.5" y2="147.236" gradientUnits="userSpaceOnUse">
<stop stop-color="#C3C3C3"/>
<stop offset="1" stop-color="#666666" stop-opacity="0"/>
</linearGradient>
<linearGradient id="paint79_linear_1580_3060" x1="637.5" y1="127.736" x2="651.5" y2="147.236" gradientUnits="userSpaceOnUse">
<stop stop-color="#C3C3C3"/>
<stop offset="1" stop-color="#666666" stop-opacity="0"/>
</linearGradient>
<linearGradient id="paint80_linear_1580_3060" x1="679.5" y1="127.736" x2="693.5" y2="147.236" gradientUnits="userSpaceOnUse">
<stop stop-color="#C3C3C3"/>
<stop offset="1" stop-color="#666666" stop-opacity="0"/>
</linearGradient>
<linearGradient id="paint81_linear_1580_3060" x1="721.5" y1="127.736" x2="735.5" y2="147.236" gradientUnits="userSpaceOnUse">
<stop stop-color="#C3C3C3"/>
<stop offset="1" stop-color="#666666" stop-opacity="0"/>
</linearGradient>
<linearGradient id="paint82_linear_1580_3060" x1="763.5" y1="127.736" x2="777.5" y2="147.236" gradientUnits="userSpaceOnUse">
<stop stop-color="#C3C3C3"/>
<stop offset="1" stop-color="#666666" stop-opacity="0"/>
</linearGradient>
<linearGradient id="paint83_linear_1580_3060" x1="805.5" y1="127.736" x2="819.5" y2="147.236" gradientUnits="userSpaceOnUse">
<stop stop-color="#C3C3C3"/>
<stop offset="1" stop-color="#666666" stop-opacity="0"/>
</linearGradient>
<linearGradient id="paint84_linear_1580_3060" x1="847.5" y1="127.736" x2="861.5" y2="147.236" gradientUnits="userSpaceOnUse">
<stop stop-color="#C3C3C3"/>
<stop offset="1" stop-color="#666666" stop-opacity="0"/>
</linearGradient>
<linearGradient id="paint85_linear_1580_3060" x1="7.5" y1="169.736" x2="21.5" y2="189.236" gradientUnits="userSpaceOnUse">
<stop stop-color="#C3C3C3"/>
<stop offset="1" stop-color="#666666" stop-opacity="0"/>
</linearGradient>
<linearGradient id="paint86_linear_1580_3060" x1="49.5" y1="169.736" x2="63.5" y2="189.236" gradientUnits="userSpaceOnUse">
<stop stop-color="#C3C3C3"/>
<stop offset="1" stop-color="#666666" stop-opacity="0"/>
</linearGradient>
<linearGradient id="paint87_linear_1580_3060" x1="91.5" y1="169.736" x2="105.5" y2="189.236" gradientUnits="userSpaceOnUse">
<stop stop-color="#C3C3C3"/>
<stop offset="1" stop-color="#666666" stop-opacity="0"/>
</linearGradient>
<linearGradient id="paint88_linear_1580_3060" x1="133.5" y1="169.736" x2="147.5" y2="189.236" gradientUnits="userSpaceOnUse">
<stop stop-color="#C3C3C3"/>
<stop offset="1" stop-color="#666666" stop-opacity="0"/>
</linearGradient>
<linearGradient id="paint89_linear_1580_3060" x1="175.5" y1="169.736" x2="189.5" y2="189.236" gradientUnits="userSpaceOnUse">
<stop stop-color="#C3C3C3"/>
<stop offset="1" stop-color="#666666" stop-opacity="0"/>
</linearGradient>
<linearGradient id="paint90_linear_1580_3060" x1="217.5" y1="169.736" x2="231.5" y2="189.236" gradientUnits="userSpaceOnUse">
<stop stop-color="#C3C3C3"/>
<stop offset="1" stop-color="#666666" stop-opacity="0"/>
</linearGradient>
<linearGradient id="paint91_linear_1580_3060" x1="259.5" y1="169.736" x2="273.5" y2="189.236" gradientUnits="userSpaceOnUse">
<stop stop-color="#C3C3C3"/>
<stop offset="1" stop-color="#666666" stop-opacity="0"/>
</linearGradient>
<linearGradient id="paint92_linear_1580_3060" x1="301.5" y1="169.736" x2="315.5" y2="189.236" gradientUnits="userSpaceOnUse">
<stop stop-color="#C3C3C3"/>
<stop offset="1" stop-color="#666666" stop-opacity="0"/>
</linearGradient>
<linearGradient id="paint93_linear_1580_3060" x1="343.5" y1="169.736" x2="357.5" y2="189.236" gradientUnits="userSpaceOnUse">
<stop stop-color="#C3C3C3"/>
<stop offset="1" stop-color="#666666" stop-opacity="0"/>
</linearGradient>
<linearGradient id="paint94_linear_1580_3060" x1="385.5" y1="169.736" x2="399.5" y2="189.236" gradientUnits="userSpaceOnUse">
<stop stop-color="#C3C3C3"/>
<stop offset="1" stop-color="#666666" stop-opacity="0"/>
</linearGradient>
<linearGradient id="paint95_linear_1580_3060" x1="427.5" y1="169.736" x2="441.5" y2="189.236" gradientUnits="userSpaceOnUse">
<stop stop-color="#C3C3C3"/>
<stop offset="1" stop-color="#666666" stop-opacity="0"/>
</linearGradient>
<linearGradient id="paint96_linear_1580_3060" x1="469.5" y1="169.736" x2="483.5" y2="189.236" gradientUnits="userSpaceOnUse">
<stop stop-color="#C3C3C3"/>
<stop offset="1" stop-color="#666666" stop-opacity="0"/>
</linearGradient>
<linearGradient id="paint97_linear_1580_3060" x1="511.5" y1="169.736" x2="525.5" y2="189.236" gradientUnits="userSpaceOnUse">
<stop stop-color="#C3C3C3"/>
<stop offset="1" stop-color="#666666" stop-opacity="0"/>
</linearGradient>
<linearGradient id="paint98_linear_1580_3060" x1="553.5" y1="169.736" x2="567.5" y2="189.236" gradientUnits="userSpaceOnUse">
<stop stop-color="#C3C3C3"/>
<stop offset="1" stop-color="#666666" stop-opacity="0"/>
</linearGradient>
<linearGradient id="paint99_linear_1580_3060" x1="595.5" y1="169.736" x2="609.5" y2="189.236" gradientUnits="userSpaceOnUse">
<stop stop-color="#C3C3C3"/>
<stop offset="1" stop-color="#666666" stop-opacity="0"/>
</linearGradient>
<linearGradient id="paint100_linear_1580_3060" x1="637.5" y1="169.736" x2="651.5" y2="189.236" gradientUnits="userSpaceOnUse">
<stop stop-color="#C3C3C3"/>
<stop offset="1" stop-color="#666666" stop-opacity="0"/>
</linearGradient>
<linearGradient id="paint101_linear_1580_3060" x1="679.5" y1="169.736" x2="693.5" y2="189.236" gradientUnits="userSpaceOnUse">
<stop stop-color="#C3C3C3"/>
<stop offset="1" stop-color="#666666" stop-opacity="0"/>
</linearGradient>
<linearGradient id="paint102_linear_1580_3060" x1="721.5" y1="169.736" x2="735.5" y2="189.236" gradientUnits="userSpaceOnUse">
<stop stop-color="#C3C3C3"/>
<stop offset="1" stop-color="#666666" stop-opacity="0"/>
</linearGradient>
<linearGradient id="paint103_linear_1580_3060" x1="763.5" y1="169.736" x2="777.5" y2="189.236" gradientUnits="userSpaceOnUse">
<stop stop-color="#C3C3C3"/>
<stop offset="1" stop-color="#666666" stop-opacity="0"/>
</linearGradient>
<linearGradient id="paint104_linear_1580_3060" x1="805.5" y1="169.736" x2="819.5" y2="189.236" gradientUnits="userSpaceOnUse">
<stop stop-color="#C3C3C3"/>
<stop offset="1" stop-color="#666666" stop-opacity="0"/>
</linearGradient>
<linearGradient id="paint105_linear_1580_3060" x1="847.5" y1="169.736" x2="861.5" y2="189.236" gradientUnits="userSpaceOnUse">
<stop stop-color="#C3C3C3"/>
<stop offset="1" stop-color="#666666" stop-opacity="0"/>
</linearGradient>
<linearGradient id="paint106_linear_1580_3060" x1="7.5" y1="211.736" x2="21.5" y2="231.236" gradientUnits="userSpaceOnUse">
<stop stop-color="#C3C3C3"/>
<stop offset="1" stop-color="#666666" stop-opacity="0"/>
</linearGradient>
<linearGradient id="paint107_linear_1580_3060" x1="49.5" y1="211.736" x2="63.5" y2="231.236" gradientUnits="userSpaceOnUse">
<stop stop-color="#C3C3C3"/>
<stop offset="1" stop-color="#666666" stop-opacity="0"/>
</linearGradient>
<linearGradient id="paint108_linear_1580_3060" x1="91.5" y1="211.736" x2="105.5" y2="231.236" gradientUnits="userSpaceOnUse">
<stop stop-color="#C3C3C3"/>
<stop offset="1" stop-color="#666666" stop-opacity="0"/>
</linearGradient>
<linearGradient id="paint109_linear_1580_3060" x1="133.5" y1="211.736" x2="147.5" y2="231.236" gradientUnits="userSpaceOnUse">
<stop stop-color="#C3C3C3"/>
<stop offset="1" stop-color="#666666" stop-opacity="0"/>
</linearGradient>
<linearGradient id="paint110_linear_1580_3060" x1="175.5" y1="211.736" x2="189.5" y2="231.236" gradientUnits="userSpaceOnUse">
<stop stop-color="#C3C3C3"/>
<stop offset="1" stop-color="#666666" stop-opacity="0"/>
</linearGradient>
<linearGradient id="paint111_linear_1580_3060" x1="217.5" y1="211.736" x2="231.5" y2="231.236" gradientUnits="userSpaceOnUse">
<stop stop-color="#C3C3C3"/>
<stop offset="1" stop-color="#666666" stop-opacity="0"/>
</linearGradient>
<linearGradient id="paint112_linear_1580_3060" x1="259.5" y1="211.736" x2="273.5" y2="231.236" gradientUnits="userSpaceOnUse">
<stop stop-color="#C3C3C3"/>
<stop offset="1" stop-color="#666666" stop-opacity="0"/>
</linearGradient>
<linearGradient id="paint113_linear_1580_3060" x1="301.5" y1="211.736" x2="315.5" y2="231.236" gradientUnits="userSpaceOnUse">
<stop stop-color="#C3C3C3"/>
<stop offset="1" stop-color="#666666" stop-opacity="0"/>
</linearGradient>
<linearGradient id="paint114_linear_1580_3060" x1="343.5" y1="211.736" x2="357.5" y2="231.236" gradientUnits="userSpaceOnUse">
<stop stop-color="#C3C3C3"/>
<stop offset="1" stop-color="#666666" stop-opacity="0"/>
</linearGradient>
<linearGradient id="paint115_linear_1580_3060" x1="385.5" y1="211.736" x2="399.5" y2="231.236" gradientUnits="userSpaceOnUse">
<stop stop-color="#C3C3C3"/>
<stop offset="1" stop-color="#666666" stop-opacity="0"/>
</linearGradient>
<linearGradient id="paint116_linear_1580_3060" x1="427.5" y1="211.736" x2="441.5" y2="231.236" gradientUnits="userSpaceOnUse">
<stop stop-color="#C3C3C3"/>
<stop offset="1" stop-color="#666666" stop-opacity="0"/>
</linearGradient>
<linearGradient id="paint117_linear_1580_3060" x1="469.5" y1="211.736" x2="483.5" y2="231.236" gradientUnits="userSpaceOnUse">
<stop stop-color="#C3C3C3"/>
<stop offset="1" stop-color="#666666" stop-opacity="0"/>
</linearGradient>
<linearGradient id="paint118_linear_1580_3060" x1="511.5" y1="211.736" x2="525.5" y2="231.236" gradientUnits="userSpaceOnUse">
<stop stop-color="#C3C3C3"/>
<stop offset="1" stop-color="#666666" stop-opacity="0"/>
</linearGradient>
<linearGradient id="paint119_linear_1580_3060" x1="553.5" y1="211.736" x2="567.5" y2="231.236" gradientUnits="userSpaceOnUse">
<stop stop-color="#C3C3C3"/>
<stop offset="1" stop-color="#666666" stop-opacity="0"/>
</linearGradient>
<linearGradient id="paint120_linear_1580_3060" x1="595.5" y1="211.736" x2="609.5" y2="231.236" gradientUnits="userSpaceOnUse">
<stop stop-color="#C3C3C3"/>
<stop offset="1" stop-color="#666666" stop-opacity="0"/>
</linearGradient>
<linearGradient id="paint121_linear_1580_3060" x1="637.5" y1="211.736" x2="651.5" y2="231.236" gradientUnits="userSpaceOnUse">
<stop stop-color="#C3C3C3"/>
<stop offset="1" stop-color="#666666" stop-opacity="0"/>
</linearGradient>
<linearGradient id="paint122_linear_1580_3060" x1="679.5" y1="211.736" x2="693.5" y2="231.236" gradientUnits="userSpaceOnUse">
<stop stop-color="#C3C3C3"/>
<stop offset="1" stop-color="#666666" stop-opacity="0"/>
</linearGradient>
<linearGradient id="paint123_linear_1580_3060" x1="721.5" y1="211.736" x2="735.5" y2="231.236" gradientUnits="userSpaceOnUse">
<stop stop-color="#C3C3C3"/>
<stop offset="1" stop-color="#666666" stop-opacity="0"/>
</linearGradient>
<linearGradient id="paint124_linear_1580_3060" x1="763.5" y1="211.736" x2="777.5" y2="231.236" gradientUnits="userSpaceOnUse">
<stop stop-color="#C3C3C3"/>
<stop offset="1" stop-color="#666666" stop-opacity="0"/>
</linearGradient>
<linearGradient id="paint125_linear_1580_3060" x1="805.5" y1="211.736" x2="819.5" y2="231.236" gradientUnits="userSpaceOnUse">
<stop stop-color="#C3C3C3"/>
<stop offset="1" stop-color="#666666" stop-opacity="0"/>
</linearGradient>
<linearGradient id="paint126_linear_1580_3060" x1="847.5" y1="211.736" x2="861.5" y2="231.236" gradientUnits="userSpaceOnUse">
<stop stop-color="#C3C3C3"/>
<stop offset="1" stop-color="#666666" stop-opacity="0"/>
</linearGradient>
<linearGradient id="paint127_linear_1580_3060" x1="7.5" y1="253.736" x2="21.5" y2="273.236" gradientUnits="userSpaceOnUse">
<stop stop-color="#C3C3C3"/>
<stop offset="1" stop-color="#666666" stop-opacity="0"/>
</linearGradient>
<linearGradient id="paint128_linear_1580_3060" x1="49.5" y1="253.736" x2="63.5" y2="273.236" gradientUnits="userSpaceOnUse">
<stop stop-color="#C3C3C3"/>
<stop offset="1" stop-color="#666666" stop-opacity="0"/>
</linearGradient>
<linearGradient id="paint129_linear_1580_3060" x1="91.5" y1="253.736" x2="105.5" y2="273.236" gradientUnits="userSpaceOnUse">
<stop stop-color="#C3C3C3"/>
<stop offset="1" stop-color="#666666" stop-opacity="0"/>
</linearGradient>
<linearGradient id="paint130_linear_1580_3060" x1="133.5" y1="253.736" x2="147.5" y2="273.236" gradientUnits="userSpaceOnUse">
<stop stop-color="#C3C3C3"/>
<stop offset="1" stop-color="#666666" stop-opacity="0"/>
</linearGradient>
<linearGradient id="paint131_linear_1580_3060" x1="175.5" y1="253.736" x2="189.5" y2="273.236" gradientUnits="userSpaceOnUse">
<stop stop-color="#C3C3C3"/>
<stop offset="1" stop-color="#666666" stop-opacity="0"/>
</linearGradient>
<linearGradient id="paint132_linear_1580_3060" x1="217.5" y1="253.736" x2="231.5" y2="273.236" gradientUnits="userSpaceOnUse">
<stop stop-color="#C3C3C3"/>
<stop offset="1" stop-color="#666666" stop-opacity="0"/>
</linearGradient>
<linearGradient id="paint133_linear_1580_3060" x1="259.5" y1="253.736" x2="273.5" y2="273.236" gradientUnits="userSpaceOnUse">
<stop stop-color="#C3C3C3"/>
<stop offset="1" stop-color="#666666" stop-opacity="0"/>
</linearGradient>
<linearGradient id="paint134_linear_1580_3060" x1="301.5" y1="253.736" x2="315.5" y2="273.236" gradientUnits="userSpaceOnUse">
<stop stop-color="#C3C3C3"/>
<stop offset="1" stop-color="#666666" stop-opacity="0"/>
</linearGradient>
<linearGradient id="paint135_linear_1580_3060" x1="343.5" y1="253.736" x2="357.5" y2="273.236" gradientUnits="userSpaceOnUse">
<stop stop-color="#C3C3C3"/>
<stop offset="1" stop-color="#666666" stop-opacity="0"/>
</linearGradient>
<linearGradient id="paint136_linear_1580_3060" x1="385.5" y1="253.736" x2="399.5" y2="273.236" gradientUnits="userSpaceOnUse">
<stop stop-color="#C3C3C3"/>
<stop offset="1" stop-color="#666666" stop-opacity="0"/>
</linearGradient>
<linearGradient id="paint137_linear_1580_3060" x1="427.5" y1="253.736" x2="441.5" y2="273.236" gradientUnits="userSpaceOnUse">
<stop stop-color="#C3C3C3"/>
<stop offset="1" stop-color="#666666" stop-opacity="0"/>
</linearGradient>
<linearGradient id="paint138_linear_1580_3060" x1="469.5" y1="253.736" x2="483.5" y2="273.236" gradientUnits="userSpaceOnUse">
<stop stop-color="#C3C3C3"/>
<stop offset="1" stop-color="#666666" stop-opacity="0"/>
</linearGradient>
<linearGradient id="paint139_linear_1580_3060" x1="511.5" y1="253.736" x2="525.5" y2="273.236" gradientUnits="userSpaceOnUse">
<stop stop-color="#C3C3C3"/>
<stop offset="1" stop-color="#666666" stop-opacity="0"/>
</linearGradient>
<linearGradient id="paint140_linear_1580_3060" x1="553.5" y1="253.736" x2="567.5" y2="273.236" gradientUnits="userSpaceOnUse">
<stop stop-color="#C3C3C3"/>
<stop offset="1" stop-color="#666666" stop-opacity="0"/>
</linearGradient>
<linearGradient id="paint141_linear_1580_3060" x1="595.5" y1="253.736" x2="609.5" y2="273.236" gradientUnits="userSpaceOnUse">
<stop stop-color="#C3C3C3"/>
<stop offset="1" stop-color="#666666" stop-opacity="0"/>
</linearGradient>
<linearGradient id="paint142_linear_1580_3060" x1="637.5" y1="253.736" x2="651.5" y2="273.236" gradientUnits="userSpaceOnUse">
<stop stop-color="#C3C3C3"/>
<stop offset="1" stop-color="#666666" stop-opacity="0"/>
</linearGradient>
<linearGradient id="paint143_linear_1580_3060" x1="679.5" y1="253.736" x2="693.5" y2="273.236" gradientUnits="userSpaceOnUse">
<stop stop-color="#C3C3C3"/>
<stop offset="1" stop-color="#666666" stop-opacity="0"/>
</linearGradient>
<linearGradient id="paint144_linear_1580_3060" x1="721.5" y1="253.736" x2="735.5" y2="273.236" gradientUnits="userSpaceOnUse">
<stop stop-color="#C3C3C3"/>
<stop offset="1" stop-color="#666666" stop-opacity="0"/>
</linearGradient>
<linearGradient id="paint145_linear_1580_3060" x1="763.5" y1="253.736" x2="777.5" y2="273.236" gradientUnits="userSpaceOnUse">
<stop stop-color="#C3C3C3"/>
<stop offset="1" stop-color="#666666" stop-opacity="0"/>
</linearGradient>
<linearGradient id="paint146_linear_1580_3060" x1="805.5" y1="253.736" x2="819.5" y2="273.236" gradientUnits="userSpaceOnUse">
<stop stop-color="#C3C3C3"/>
<stop offset="1" stop-color="#666666" stop-opacity="0"/>
</linearGradient>
<linearGradient id="paint147_linear_1580_3060" x1="847.5" y1="253.736" x2="861.5" y2="273.236" gradientUnits="userSpaceOnUse">
<stop stop-color="#C3C3C3"/>
<stop offset="1" stop-color="#666666" stop-opacity="0"/>
</linearGradient>
</defs>
</svg>
