<svg width="440" height="295" viewBox="0 0 440 295" fill="none" xmlns="http://www.w3.org/2000/svg">
<rect x="0.5" y="117.5" width="53" height="53" rx="26.5" fill="#F9F9F9"/>
<rect x="0.5" y="117.5" width="53" height="53" rx="26.5" stroke="#CECECE"/>
<path opacity="0.65" d="M31.125 143.25C31.125 144.066 30.8831 144.863 30.4298 145.542C29.9766 146.22 29.3323 146.749 28.5786 147.061C27.8248 147.373 26.9954 147.455 26.1953 147.296C25.3951 147.137 24.6601 146.744 24.0832 146.167C23.5063 145.59 23.1134 144.855 22.9543 144.055C22.7951 143.255 22.8768 142.425 23.189 141.671C23.5012 140.918 24.0299 140.273 24.7083 139.82C25.3866 139.367 26.1842 139.125 27 139.125C28.0936 139.126 29.1421 139.561 29.9154 140.335C30.6888 141.108 31.1238 142.156 31.125 143.25ZM36.75 144C36.75 145.928 36.1782 147.813 35.1068 149.417C34.0355 151.02 32.5127 152.27 30.7312 153.008C28.9496 153.746 26.9892 153.939 25.0979 153.563C23.2066 153.186 21.4693 152.258 20.1057 150.894C18.7422 149.531 17.8136 147.793 17.4373 145.902C17.0611 144.011 17.2542 142.05 17.9922 140.269C18.7301 138.487 19.9798 136.965 21.5832 135.893C23.1866 134.822 25.0716 134.25 27 134.25C29.585 134.253 32.0634 135.281 33.8913 137.109C35.7192 138.937 36.7473 141.415 36.75 144ZM35.25 144C35.2488 142.89 35.0237 141.791 34.5881 140.769C34.1525 139.748 33.5154 138.825 32.7148 138.055C31.9143 137.286 30.9668 136.685 29.929 136.291C28.8911 135.896 27.7843 135.714 26.6747 135.757C22.2591 135.927 18.7378 139.605 18.75 144.023C18.7542 146.035 19.4961 147.975 20.835 149.476C21.3803 148.685 22.0729 148.007 22.875 147.478C22.9434 147.433 23.0247 147.411 23.1065 147.417C23.1882 147.422 23.266 147.454 23.3278 147.508C24.347 148.39 25.6496 148.875 26.9972 148.875C28.3448 148.875 29.6473 148.39 30.6666 147.508C30.7284 147.454 30.8061 147.422 30.8879 147.417C30.9697 147.411 31.051 147.433 31.1194 147.478C31.9225 148.006 32.6161 148.685 33.1622 149.476C34.5077 147.969 35.251 146.02 35.25 144Z" fill="#4785FF"/>
<rect x="270.5" y="223.5" width="70" height="70" rx="35" fill="#F9F9F9"/>
<rect x="270.5" y="223.5" width="70" height="70" rx="35" stroke="#CECECE"/>
<path opacity="0.99" d="M309.625 257.75C309.625 258.566 309.383 259.363 308.93 260.042C308.477 260.72 307.832 261.249 307.079 261.561C306.325 261.873 305.495 261.955 304.695 261.796C303.895 261.637 303.16 261.244 302.583 260.667C302.006 260.09 301.613 259.355 301.454 258.555C301.295 257.755 301.377 256.925 301.689 256.171C302.001 255.418 302.53 254.773 303.208 254.32C303.887 253.867 304.684 253.625 305.5 253.625C306.594 253.626 307.642 254.061 308.415 254.835C309.189 255.608 309.624 256.656 309.625 257.75ZM315.25 258.5C315.25 260.428 314.678 262.313 313.607 263.917C312.535 265.52 311.013 266.77 309.231 267.508C307.45 268.246 305.489 268.439 303.598 268.063C301.707 267.686 299.969 266.758 298.606 265.394C297.242 264.031 296.314 262.293 295.937 260.402C295.561 258.511 295.754 256.55 296.492 254.769C297.23 252.987 298.48 251.465 300.083 250.393C301.687 249.322 303.572 248.75 305.5 248.75C308.085 248.753 310.563 249.781 312.391 251.609C314.219 253.437 315.247 255.915 315.25 258.5ZM313.75 258.5C313.749 257.39 313.524 256.291 313.088 255.269C312.652 254.248 312.015 253.325 311.215 252.555C310.414 251.786 309.467 251.185 308.429 250.791C307.391 250.396 306.284 250.214 305.175 250.257C300.759 250.427 297.238 254.105 297.25 258.523C297.254 260.535 297.996 262.475 299.335 263.976C299.88 263.185 300.573 262.507 301.375 261.978C301.443 261.933 301.525 261.911 301.606 261.917C301.688 261.922 301.766 261.954 301.828 262.008C302.847 262.89 304.15 263.375 305.497 263.375C306.845 263.375 308.147 262.89 309.167 262.008C309.228 261.954 309.306 261.922 309.388 261.917C309.47 261.911 309.551 261.933 309.619 261.978C310.422 262.506 311.116 263.185 311.662 263.976C313.008 262.469 313.751 260.52 313.75 258.5Z" fill="#4785FF"/>
<rect x="62" y="10" width="50" height="50" rx="25" fill="#F9F9F9"/>
<rect x="62" y="10" width="50" height="50" rx="25" stroke="#CECECE"/>
<path opacity="0.38" d="M91.125 34.25C91.125 35.0658 90.8831 35.8634 90.4298 36.5417C89.9766 37.2201 89.3323 37.7488 88.5786 38.061C87.8248 38.3732 86.9954 38.4549 86.1953 38.2957C85.3951 38.1366 84.6601 37.7437 84.0832 37.1668C83.5063 36.5899 83.1134 35.8549 82.9543 35.0547C82.7951 34.2546 82.8768 33.4252 83.189 32.6714C83.5012 31.9177 84.0299 31.2734 84.7083 30.8202C85.3866 30.3669 86.1842 30.125 87 30.125C88.0936 30.1262 89.1421 30.5612 89.9154 31.3346C90.6888 32.1079 91.1238 33.1564 91.125 34.25ZM96.75 35C96.75 36.9284 96.1782 38.8134 95.1068 40.4168C94.0355 42.0202 92.5127 43.2699 90.7312 44.0078C88.9496 44.7458 86.9892 44.9389 85.0979 44.5627C83.2066 44.1865 81.4693 43.2579 80.1057 41.8943C78.7422 40.5307 77.8136 38.7934 77.4373 36.9021C77.0611 35.0108 77.2542 33.0504 77.9922 31.2688C78.7301 29.4873 79.9798 27.9645 81.5832 26.8932C83.1866 25.8218 85.0716 25.25 87 25.25C89.585 25.2527 92.0634 26.2808 93.8913 28.1087C95.7192 29.9366 96.7473 32.415 96.75 35ZM95.25 35C95.2488 33.8896 95.0237 32.7908 94.5881 31.7693C94.1525 30.7479 93.5154 29.8248 92.7148 29.0553C91.9143 28.2857 90.9668 27.6855 89.929 27.2905C88.8911 26.8956 87.7843 26.714 86.6747 26.7566C82.2591 26.9272 78.7378 30.605 78.75 35.0234C78.7542 37.0349 79.4961 38.9749 80.835 40.4759C81.3803 39.6851 82.0729 39.0068 82.875 38.4781C82.9434 38.433 83.0247 38.4114 83.1065 38.4169C83.1882 38.4223 83.266 38.4543 83.3278 38.5081C84.347 39.3897 85.6496 39.8749 86.9972 39.8749C88.3448 39.8749 89.6473 39.3897 90.6666 38.5081C90.7284 38.4543 90.8061 38.4223 90.8879 38.4169C90.9697 38.4114 91.051 38.433 91.1194 38.4781C91.9225 39.0065 92.6161 39.6848 93.1622 40.4759C94.5077 38.9694 95.251 37.0199 95.25 35Z" fill="#4785FF"/>
<rect x="261.5" y="96.5" width="76" height="76" rx="38" fill="#F9F9F9"/>
<rect x="261.5" y="96.5" width="76" height="76" rx="38" stroke="#CECECE"/>
<path d="M304.577 133.577C304.577 134.581 304.279 135.563 303.721 136.398C303.163 137.232 302.371 137.883 301.443 138.267C300.515 138.652 299.494 138.752 298.51 138.556C297.525 138.36 296.62 137.877 295.91 137.167C295.2 136.457 294.717 135.552 294.521 134.567C294.325 133.583 294.425 132.562 294.81 131.634C295.194 130.706 295.845 129.913 296.679 129.356C297.514 128.798 298.496 128.5 299.5 128.5C300.846 128.502 302.136 129.037 303.088 129.989C304.04 130.94 304.575 132.231 304.577 133.577ZM311.5 134.5C311.5 136.873 310.796 139.193 309.478 141.167C308.159 143.14 306.285 144.678 304.092 145.587C301.899 146.495 299.487 146.732 297.159 146.269C294.831 145.806 292.693 144.664 291.015 142.985C289.336 141.307 288.194 139.169 287.731 136.841C287.268 134.513 287.505 132.101 288.413 129.908C289.322 127.715 290.86 125.841 292.833 124.522C294.807 123.204 297.127 122.5 299.5 122.5C302.682 122.503 305.732 123.769 307.982 126.018C310.231 128.268 311.497 131.318 311.5 134.5ZM309.654 134.5C309.652 133.133 309.375 131.781 308.839 130.524C308.303 129.267 307.519 128.131 306.534 127.183C305.548 126.236 304.382 125.498 303.105 125.011C301.828 124.525 300.465 124.302 299.1 124.354C293.665 124.564 289.331 129.091 289.346 134.529C289.351 137.004 290.264 139.392 291.912 141.24C292.583 140.266 293.436 139.431 294.423 138.781C294.507 138.725 294.607 138.699 294.708 138.705C294.809 138.712 294.904 138.751 294.98 138.818C296.235 139.903 297.838 140.5 299.497 140.5C301.155 140.5 302.758 139.903 304.013 138.818C304.089 138.751 304.184 138.712 304.285 138.705C304.386 138.699 304.486 138.725 304.57 138.781C305.558 139.431 306.412 140.266 307.084 141.24C308.74 139.385 309.655 136.986 309.654 134.5Z" fill="#4785FF"/>
<rect x="138.5" y="235.5" width="59" height="59" rx="29.5" fill="#F9F9F9"/>
<rect x="138.5" y="235.5" width="59" height="59" rx="29.5" stroke="#CECECE"/>
<path opacity="0.59" d="M172.125 264.25C172.125 265.066 171.883 265.863 171.43 266.542C170.977 267.22 170.332 267.749 169.579 268.061C168.825 268.373 167.995 268.455 167.195 268.296C166.395 268.137 165.66 267.744 165.083 267.167C164.506 266.59 164.113 265.855 163.954 265.055C163.795 264.255 163.877 263.425 164.189 262.671C164.501 261.918 165.03 261.273 165.708 260.82C166.387 260.367 167.184 260.125 168 260.125C169.094 260.126 170.142 260.561 170.915 261.335C171.689 262.108 172.124 263.156 172.125 264.25ZM177.75 265C177.75 266.928 177.178 268.813 176.107 270.417C175.035 272.02 173.513 273.27 171.731 274.008C169.95 274.746 167.989 274.939 166.098 274.563C164.207 274.186 162.469 273.258 161.106 271.894C159.742 270.531 158.814 268.793 158.437 266.902C158.061 265.011 158.254 263.05 158.992 261.269C159.73 259.487 160.98 257.965 162.583 256.893C164.187 255.822 166.072 255.25 168 255.25C170.585 255.253 173.063 256.281 174.891 258.109C176.719 259.937 177.747 262.415 177.75 265ZM176.25 265C176.249 263.89 176.024 262.791 175.588 261.769C175.152 260.748 174.515 259.825 173.715 259.055C172.914 258.286 171.967 257.685 170.929 257.291C169.891 256.896 168.784 256.714 167.675 256.757C163.259 256.927 159.738 260.605 159.75 265.023C159.754 267.035 160.496 268.975 161.835 270.476C162.38 269.685 163.073 269.007 163.875 268.478C163.943 268.433 164.025 268.411 164.106 268.417C164.188 268.422 164.266 268.454 164.328 268.508C165.347 269.39 166.65 269.875 167.997 269.875C169.345 269.875 170.647 269.39 171.667 268.508C171.728 268.454 171.806 268.422 171.888 268.417C171.97 268.411 172.051 268.433 172.119 268.478C172.922 269.006 173.616 269.685 174.162 270.476C175.508 268.969 176.251 267.02 176.25 265Z" fill="#4785FF"/>
<rect x="101" y="143" width="61" height="61" rx="30.5" fill="#F9F9F9"/>
<rect x="101" y="143" width="61" height="61" rx="30.5" stroke="#CECECE"/>
<path opacity="0.79" d="M135.625 172.75C135.625 173.566 135.383 174.363 134.93 175.042C134.477 175.72 133.832 176.249 133.079 176.561C132.325 176.873 131.495 176.955 130.695 176.796C129.895 176.637 129.16 176.244 128.583 175.667C128.006 175.09 127.613 174.355 127.454 173.555C127.295 172.755 127.377 171.925 127.689 171.171C128.001 170.418 128.53 169.773 129.208 169.32C129.887 168.867 130.684 168.625 131.5 168.625C132.594 168.626 133.642 169.061 134.415 169.835C135.189 170.608 135.624 171.656 135.625 172.75ZM141.25 173.5C141.25 175.428 140.678 177.313 139.607 178.917C138.535 180.52 137.013 181.77 135.231 182.508C133.45 183.246 131.489 183.439 129.598 183.063C127.707 182.686 125.969 181.758 124.606 180.394C123.242 179.031 122.314 177.293 121.937 175.402C121.561 173.511 121.754 171.55 122.492 169.769C123.23 167.987 124.48 166.465 126.083 165.393C127.687 164.322 129.572 163.75 131.5 163.75C134.085 163.753 136.563 164.781 138.391 166.609C140.219 168.437 141.247 170.915 141.25 173.5ZM139.75 173.5C139.749 172.39 139.524 171.291 139.088 170.269C138.652 169.248 138.015 168.325 137.215 167.555C136.414 166.786 135.467 166.185 134.429 165.791C133.391 165.396 132.284 165.214 131.175 165.257C126.759 165.427 123.238 169.105 123.25 173.523C123.254 175.535 123.996 177.475 125.335 178.976C125.88 178.185 126.573 177.507 127.375 176.978C127.443 176.933 127.525 176.911 127.606 176.917C127.688 176.922 127.766 176.954 127.828 177.008C128.847 177.89 130.15 178.375 131.497 178.375C132.845 178.375 134.147 177.89 135.167 177.008C135.228 176.954 135.306 176.922 135.388 176.917C135.47 176.911 135.551 176.933 135.619 176.978C136.422 177.506 137.116 178.185 137.662 178.976C139.008 177.469 139.751 175.52 139.75 173.5Z" fill="#4785FF"/>
<rect x="33" y="212" width="56" height="56" rx="28" fill="#F9F9F9"/>
<rect x="33" y="212" width="56" height="56" rx="28" stroke="#CECECE"/>
<path opacity="0.51" d="M65.125 239.25C65.125 240.066 64.8831 240.863 64.4298 241.542C63.9766 242.22 63.3323 242.749 62.5786 243.061C61.8248 243.373 60.9954 243.455 60.1953 243.296C59.3951 243.137 58.6601 242.744 58.0832 242.167C57.5063 241.59 57.1134 240.855 56.9543 240.055C56.7951 239.255 56.8768 238.425 57.189 237.671C57.5012 236.918 58.0299 236.273 58.7083 235.82C59.3866 235.367 60.1842 235.125 61 235.125C62.0936 235.126 63.1421 235.561 63.9154 236.335C64.6888 237.108 65.1238 238.156 65.125 239.25ZM70.75 240C70.75 241.928 70.1782 243.813 69.1068 245.417C68.0355 247.02 66.5127 248.27 64.7312 249.008C62.9496 249.746 60.9892 249.939 59.0979 249.563C57.2066 249.186 55.4693 248.258 54.1057 246.894C52.7422 245.531 51.8136 243.793 51.4373 241.902C51.0611 240.011 51.2542 238.05 51.9922 236.269C52.7301 234.487 53.9798 232.965 55.5832 231.893C57.1866 230.822 59.0716 230.25 61 230.25C63.585 230.253 66.0634 231.281 67.8913 233.109C69.7192 234.937 70.7473 237.415 70.75 240ZM69.25 240C69.2488 238.89 69.0237 237.791 68.5881 236.769C68.1525 235.748 67.5154 234.825 66.7148 234.055C65.9143 233.286 64.9668 232.685 63.929 232.291C62.8911 231.896 61.7843 231.714 60.6747 231.757C56.2591 231.927 52.7378 235.605 52.75 240.023C52.7542 242.035 53.4961 243.975 54.835 245.476C55.3803 244.685 56.0729 244.007 56.875 243.478C56.9434 243.433 57.0247 243.411 57.1065 243.417C57.1882 243.422 57.266 243.454 57.3278 243.508C58.347 244.39 59.6496 244.875 60.9972 244.875C62.3448 244.875 63.6473 244.39 64.6666 243.508C64.7284 243.454 64.8061 243.422 64.8879 243.417C64.9697 243.411 65.051 243.433 65.1194 243.478C65.9225 244.006 66.6161 244.685 67.1622 245.476C68.5077 243.969 69.251 242.02 69.25 240Z" fill="#4785FF"/>
<rect x="373" y="165" width="66" height="66" rx="33" fill="#F9F9F9"/>
<rect x="373" y="165" width="66" height="66" rx="33" stroke="#CECECE"/>
<path opacity="0.76" d="M410.125 197.25C410.125 198.066 409.883 198.863 409.43 199.542C408.977 200.22 408.332 200.749 407.579 201.061C406.825 201.373 405.995 201.455 405.195 201.296C404.395 201.137 403.66 200.744 403.083 200.167C402.506 199.59 402.113 198.855 401.954 198.055C401.795 197.255 401.877 196.425 402.189 195.671C402.501 194.918 403.03 194.273 403.708 193.82C404.387 193.367 405.184 193.125 406 193.125C407.094 193.126 408.142 193.561 408.915 194.335C409.689 195.108 410.124 196.156 410.125 197.25ZM415.75 198C415.75 199.928 415.178 201.813 414.107 203.417C413.035 205.02 411.513 206.27 409.731 207.008C407.95 207.746 405.989 207.939 404.098 207.563C402.207 207.186 400.469 206.258 399.106 204.894C397.742 203.531 396.814 201.793 396.437 199.902C396.061 198.011 396.254 196.05 396.992 194.269C397.73 192.487 398.98 190.965 400.583 189.893C402.187 188.822 404.072 188.25 406 188.25C408.585 188.253 411.063 189.281 412.891 191.109C414.719 192.937 415.747 195.415 415.75 198ZM414.25 198C414.249 196.89 414.024 195.791 413.588 194.769C413.152 193.748 412.515 192.825 411.715 192.055C410.914 191.286 409.967 190.685 408.929 190.291C407.891 189.896 406.784 189.714 405.675 189.757C401.259 189.927 397.738 193.605 397.75 198.023C397.754 200.035 398.496 201.975 399.835 203.476C400.38 202.685 401.073 202.007 401.875 201.478C401.943 201.433 402.025 201.411 402.106 201.417C402.188 201.422 402.266 201.454 402.328 201.508C403.347 202.39 404.65 202.875 405.997 202.875C407.345 202.875 408.647 202.39 409.667 201.508C409.728 201.454 409.806 201.422 409.888 201.417C409.97 201.411 410.051 201.433 410.119 201.478C410.922 202.006 411.616 202.685 412.162 203.476C413.508 201.969 414.251 200.02 414.25 198Z" fill="#4785FF"/>
<rect x="356.5" y="43.5" width="73" height="73" rx="36.5" fill="#F9F9F9"/>
<rect x="356.5" y="43.5" width="73" height="73" rx="36.5" stroke="#CECECE"/>
<path opacity="0.75" d="M397.125 79.25C397.125 80.0658 396.883 80.8634 396.43 81.5417C395.977 82.2201 395.332 82.7488 394.579 83.061C393.825 83.3732 392.995 83.4549 392.195 83.2957C391.395 83.1366 390.66 82.7437 390.083 82.1668C389.506 81.5899 389.113 80.8549 388.954 80.0547C388.795 79.2546 388.877 78.4252 389.189 77.6714C389.501 76.9177 390.03 76.2734 390.708 75.8202C391.387 75.3669 392.184 75.125 393 75.125C394.094 75.1262 395.142 75.5612 395.915 76.3346C396.689 77.1079 397.124 78.1564 397.125 79.25ZM402.75 80C402.75 81.9284 402.178 83.8134 401.107 85.4168C400.035 87.0202 398.513 88.2699 396.731 89.0078C394.95 89.7458 392.989 89.9389 391.098 89.5627C389.207 89.1865 387.469 88.2579 386.106 86.8943C384.742 85.5307 383.814 83.7934 383.437 81.9021C383.061 80.0108 383.254 78.0504 383.992 76.2688C384.73 74.4873 385.98 72.9645 387.583 71.8932C389.187 70.8218 391.072 70.25 393 70.25C395.585 70.2527 398.063 71.2808 399.891 73.1087C401.719 74.9366 402.747 77.415 402.75 80ZM401.25 80C401.249 78.8896 401.024 77.7908 400.588 76.7693C400.152 75.7479 399.515 74.8248 398.715 74.0553C397.914 73.2857 396.967 72.6855 395.929 72.2905C394.891 71.8956 393.784 71.714 392.675 71.7566C388.259 71.9272 384.738 75.605 384.75 80.0234C384.754 82.0349 385.496 83.9749 386.835 85.4759C387.38 84.6851 388.073 84.0068 388.875 83.4781C388.943 83.433 389.025 83.4114 389.106 83.4169C389.188 83.4223 389.266 83.4543 389.328 83.5081C390.347 84.3897 391.65 84.8749 392.997 84.8749C394.345 84.8749 395.647 84.3897 396.667 83.5081C396.728 83.4543 396.806 83.4223 396.888 83.4169C396.97 83.4114 397.051 83.433 397.119 83.4781C397.922 84.0065 398.616 84.6848 399.162 85.4759C400.508 83.9694 401.251 82.0199 401.25 80Z" fill="#4785FF"/>
<rect x="130.5" y="44.5" width="87" height="87" rx="43.5" fill="#F9F9F9"/>
<rect x="130.5" y="44.5" width="87" height="87" rx="43.5" stroke="#CECECE"/>
<path opacity="0.43" d="M181.192 86.6923C181.192 88.1148 180.77 89.5054 179.98 90.6881C179.19 91.8709 178.067 92.7928 176.752 93.3371C175.438 93.8815 173.992 94.0239 172.597 93.7464C171.202 93.4689 169.92 92.7839 168.914 91.778C167.908 90.7722 167.223 89.4906 166.946 88.0955C166.668 86.7003 166.811 85.2541 167.355 83.9399C167.9 82.6257 168.821 81.5024 170.004 80.7121C171.187 79.9218 172.578 79.5 174 79.5C175.907 79.5022 177.735 80.2606 179.083 81.609C180.432 82.9573 181.19 84.7854 181.192 86.6923ZM191 88C191 91.3623 190.003 94.6491 188.135 97.4447C186.267 100.24 183.612 102.419 180.506 103.706C177.399 104.993 173.981 105.329 170.683 104.673C167.386 104.017 164.357 102.398 161.979 100.021C159.602 97.6433 157.983 94.6142 157.327 91.3165C156.671 88.0189 157.007 84.6007 158.294 81.4944C159.581 78.388 161.76 75.733 164.555 73.865C167.351 71.997 170.638 71 174 71C178.507 71.0048 182.828 72.7974 186.016 75.9844C189.203 79.1715 190.995 83.4928 191 88ZM188.385 88C188.383 86.0638 187.99 84.148 187.23 82.367C186.471 80.5861 185.36 78.9766 183.964 77.6348C182.568 76.293 180.916 75.2465 179.107 74.5578C177.297 73.8692 175.368 73.5525 173.433 73.6268C165.734 73.9243 159.594 80.3369 159.615 88.0409C159.623 91.548 160.916 94.9306 163.251 97.5478C164.202 96.1688 165.409 94.9861 166.808 94.0644C166.927 93.9857 167.069 93.9481 167.211 93.9576C167.354 93.967 167.489 94.0229 167.597 94.1167C169.374 95.6538 171.645 96.4998 173.995 96.4998C176.345 96.4998 178.616 95.6538 180.393 94.1167C180.501 94.0229 180.636 93.967 180.779 93.9576C180.922 93.9481 181.063 93.9857 181.183 94.0644C182.583 94.9856 183.792 96.1684 184.744 97.5478C187.09 94.921 188.386 91.5219 188.385 88Z" fill="#4785FF"/>
<rect x="237" y="1" width="68" height="68" rx="34" fill="#F9F9F9"/>
<rect x="237" y="1" width="68" height="68" rx="34" stroke="#CECECE"/>
<path opacity="0.54" d="M275.125 34.25C275.125 35.0658 274.883 35.8634 274.43 36.5417C273.977 37.2201 273.332 37.7488 272.579 38.061C271.825 38.3732 270.995 38.4549 270.195 38.2957C269.395 38.1366 268.66 37.7437 268.083 37.1668C267.506 36.5899 267.113 35.8549 266.954 35.0547C266.795 34.2546 266.877 33.4252 267.189 32.6714C267.501 31.9177 268.03 31.2734 268.708 30.8202C269.387 30.3669 270.184 30.125 271 30.125C272.094 30.1262 273.142 30.5612 273.915 31.3346C274.689 32.1079 275.124 33.1564 275.125 34.25ZM280.75 35C280.75 36.9284 280.178 38.8134 279.107 40.4168C278.035 42.0202 276.513 43.2699 274.731 44.0078C272.95 44.7458 270.989 44.9389 269.098 44.5627C267.207 44.1865 265.469 43.2579 264.106 41.8943C262.742 40.5307 261.814 38.7934 261.437 36.9021C261.061 35.0108 261.254 33.0504 261.992 31.2688C262.73 29.4873 263.98 27.9645 265.583 26.8932C267.187 25.8218 269.072 25.25 271 25.25C273.585 25.2527 276.063 26.2808 277.891 28.1087C279.719 29.9366 280.747 32.415 280.75 35ZM279.25 35C279.249 33.8896 279.024 32.7908 278.588 31.7693C278.152 30.7479 277.515 29.8248 276.715 29.0553C275.914 28.2857 274.967 27.6855 273.929 27.2905C272.891 26.8956 271.784 26.714 270.675 26.7566C266.259 26.9272 262.738 30.605 262.75 35.0234C262.754 37.0349 263.496 38.9749 264.835 40.4759C265.38 39.6851 266.073 39.0068 266.875 38.4781C266.943 38.433 267.025 38.4114 267.106 38.4169C267.188 38.4223 267.266 38.4543 267.328 38.5081C268.347 39.3897 269.65 39.8749 270.997 39.8749C272.345 39.8749 273.647 39.3897 274.667 38.5081C274.728 38.4543 274.806 38.4223 274.888 38.4169C274.97 38.4114 275.051 38.433 275.119 38.4781C275.922 39.0065 276.616 39.6848 277.162 40.4759C278.508 38.9694 279.251 37.0199 279.25 35Z" fill="#4785FF"/>
<rect x="199.5" y="164.5" width="67" height="67" rx="33.5" fill="#F9F9F9"/>
<rect x="199.5" y="164.5" width="67" height="67" rx="33.5" stroke="#CECECE"/>
<path opacity="0.5" d="M237.125 197.25C237.125 198.066 236.883 198.863 236.43 199.542C235.977 200.22 235.332 200.749 234.579 201.061C233.825 201.373 232.995 201.455 232.195 201.296C231.395 201.137 230.66 200.744 230.083 200.167C229.506 199.59 229.113 198.855 228.954 198.055C228.795 197.255 228.877 196.425 229.189 195.671C229.501 194.918 230.03 194.273 230.708 193.82C231.387 193.367 232.184 193.125 233 193.125C234.094 193.126 235.142 193.561 235.915 194.335C236.689 195.108 237.124 196.156 237.125 197.25ZM242.75 198C242.75 199.928 242.178 201.813 241.107 203.417C240.035 205.02 238.513 206.27 236.731 207.008C234.95 207.746 232.989 207.939 231.098 207.563C229.207 207.186 227.469 206.258 226.106 204.894C224.742 203.531 223.814 201.793 223.437 199.902C223.061 198.011 223.254 196.05 223.992 194.269C224.73 192.487 225.98 190.965 227.583 189.893C229.187 188.822 231.072 188.25 233 188.25C235.585 188.253 238.063 189.281 239.891 191.109C241.719 192.937 242.747 195.415 242.75 198ZM241.25 198C241.249 196.89 241.024 195.791 240.588 194.769C240.152 193.748 239.515 192.825 238.715 192.055C237.914 191.286 236.967 190.685 235.929 190.291C234.891 189.896 233.784 189.714 232.675 189.757C228.259 189.927 224.738 193.605 224.75 198.023C224.754 200.035 225.496 201.975 226.835 203.476C227.38 202.685 228.073 202.007 228.875 201.478C228.943 201.433 229.025 201.411 229.106 201.417C229.188 201.422 229.266 201.454 229.328 201.508C230.347 202.39 231.65 202.875 232.997 202.875C234.345 202.875 235.647 202.39 236.667 201.508C236.728 201.454 236.806 201.422 236.888 201.417C236.97 201.411 237.051 201.433 237.119 201.478C237.922 202.006 238.616 202.685 239.162 203.476C240.508 201.969 241.251 200.02 241.25 198Z" fill="#4785FF"/>
</svg>
