<svg xmlns="http://www.w3.org/2000/svg" width="960" height="960" viewBox="0 0 960 960" fill="none">
<g clip-path="url(#clip0_510_1397)">
<path fill-rule="evenodd" clip-rule="evenodd" d="M408.631 350.549C409.611 359.869 419.081 451.679 413.721 460.509C408.351 469.369 406.601 466.149 406.441 465.819C406.435 465.81 406.432 465.799 406.431 465.789C406.431 465.789 400.001 465.809 389.151 466.349C386.381 466.489 383.321 466.659 380.001 466.879C356.501 468.409 320.181 472.099 282.981 480.969C282.981 480.969 268.081 465.789 274.431 449.209C276.245 444.395 279.124 440.053 282.852 436.509C286.58 432.964 291.061 430.308 295.961 428.739C295.961 428.739 272.311 402.429 282.901 375.879C293.491 349.329 321.721 338.029 321.721 338.029C321.721 338.029 300.551 292.849 315.721 275.909C330.891 258.969 364.081 262.499 364.081 262.499C364.081 262.499 347.491 210.969 395.841 198.969C444.191 186.969 452.591 218.379 452.591 218.379C452.591 218.379 461.801 193.319 495.171 199.679C528.541 206.039 541.251 253.679 541.251 253.679C541.251 253.679 573.721 246.619 575.841 273.439C577.961 300.259 554.661 338.029 554.661 338.029C554.661 338.029 590.311 335.539 592.431 367.139C594.551 398.739 568.431 411.089 568.431 411.089C568.431 411.089 594.551 413.209 594.191 431.909C593.831 450.609 577.611 456.369 577.611 456.369L577.591 456.769C545.641 455.399 515.461 457.829 493.691 460.509C489.471 461.029 485.571 461.559 482.031 462.069C468.331 464.049 460.081 465.789 460.081 465.789C460.081 465.789 449.491 462.969 455.141 454.259C455.908 453.076 458.209 450.976 461.495 447.977L461.495 447.977C482.394 428.904 543.152 373.454 502.901 285.969C501.511 291.869 498.641 297.709 492.841 299.679C479.721 304.149 469.961 292.849 469.961 292.849C469.961 292.849 474.901 308.849 462.901 317.789C450.901 326.729 435.771 319.909 435.771 319.909C435.771 319.909 440.551 329.319 431.611 341.789C426.091 349.479 415.751 350.729 408.631 350.549ZM466.304 212.019C471.02 207.221 479.191 202.913 492.967 204.063C507.123 205.245 517.302 217.144 523.831 228.222C527.128 233.816 529.572 239.33 531.19 243.44C532 245.497 532.605 247.207 533.009 248.406C533.211 249.006 533.362 249.478 533.464 249.802C533.515 249.965 533.554 250.09 533.579 250.176L533.609 250.274L533.617 250.301L533.619 250.308L533.62 250.31C533.62 250.311 533.62 250.312 532.181 250.734L533.62 250.312C533.854 251.107 533.398 251.94 532.603 252.173C531.808 252.407 530.975 251.951 530.742 251.156L530.742 251.156L530.74 251.152L530.734 251.132L530.709 251.046C530.685 250.969 530.65 250.853 530.602 250.7C530.506 250.394 530.361 249.942 530.166 249.363C529.776 248.205 529.188 246.543 528.399 244.539C526.819 240.527 524.441 235.165 521.246 229.745C514.791 218.793 505.3 208.104 492.717 207.053C479.754 205.97 472.483 210.012 468.443 214.122C466.398 216.202 465.135 218.347 464.385 219.965C464.011 220.774 463.766 221.447 463.617 221.909C463.542 222.14 463.492 222.318 463.461 222.433C463.454 222.46 463.448 222.484 463.443 222.504C463.437 222.526 463.433 222.544 463.43 222.557L463.424 222.581C463.246 223.389 462.447 223.9 461.638 223.723C460.829 223.546 460.317 222.747 460.494 221.937L461.959 222.258C460.494 221.937 460.494 221.936 460.494 221.935L460.495 221.933L460.496 221.926L460.5 221.908C460.504 221.893 460.508 221.874 460.514 221.851C460.52 221.826 460.527 221.797 460.536 221.763C460.543 221.732 460.553 221.698 460.563 221.659C460.606 221.498 460.671 221.271 460.762 220.989C460.944 220.424 461.232 219.636 461.663 218.704C462.526 216.842 463.97 214.393 466.304 212.019ZM570.773 266.904C567.21 260.964 560.386 259.133 554.874 258.681C552.073 258.452 549.49 258.567 547.612 258.738C546.671 258.823 545.901 258.924 545.363 259.003C545.094 259.043 544.882 259.077 544.736 259.102C544.662 259.115 544.605 259.125 544.565 259.132L544.518 259.141L544.505 259.144L544.5 259.144L544.499 259.145C544.498 259.145 544.498 259.145 544.781 260.618L544.498 259.145C543.684 259.301 543.152 260.088 543.308 260.901C543.465 261.715 544.251 262.247 545.064 262.091L545.064 262.091L545.065 262.091L545.071 262.09L545.103 262.084C545.133 262.078 545.179 262.07 545.242 262.059C545.367 262.038 545.556 262.007 545.801 261.971C546.292 261.899 547.005 261.805 547.884 261.726C549.646 261.565 552.048 261.46 554.629 261.671C559.883 262.101 565.412 263.799 568.201 268.448C568.803 269.451 569.151 270.945 569.185 272.945C569.218 274.925 568.94 277.269 568.418 279.861C567.372 285.045 565.385 291.036 563.176 296.753C560.972 302.461 558.568 307.846 556.714 311.808C555.787 313.788 554.998 315.41 554.442 316.536C554.164 317.098 553.944 317.537 553.794 317.834C553.719 317.983 553.661 318.096 553.623 318.172L553.579 318.257L553.569 318.278L553.566 318.282L553.566 318.284C553.565 318.284 553.565 318.284 554.899 318.97L553.565 318.284C553.186 319.02 553.476 319.925 554.213 320.304C554.95 320.683 555.854 320.393 556.233 319.656L554.899 318.97C556.233 319.656 556.233 319.656 556.234 319.655L556.234 319.654L556.238 319.648L556.25 319.624L556.296 319.534C556.336 319.455 556.395 319.338 556.472 319.186C556.626 318.882 556.849 318.436 557.131 317.865C557.696 316.723 558.493 315.082 559.431 313.08C561.304 309.079 563.738 303.627 565.975 297.834C568.208 292.052 570.264 285.881 571.358 280.454C571.905 277.742 572.222 275.168 572.184 272.895C572.147 270.643 571.76 268.548 570.773 266.904Z" fill="#171717"/>
<path d="M659.091 583.22L662.291 471.84C707.771 488.41 743.701 521.05 746.661 582.26C748.521 620.7 738.591 646.96 721.951 664.53C705.061 682.37 681.271 691.26 655.881 694.85L659.091 583.22Z" fill="url(#paint0_linear_510_1397)"/>
<path d="M654.812 732.15H654.902C694.922 732.15 727.372 741.73 727.372 753.56C727.372 765.39 694.922 774.97 654.902 774.97C614.882 774.97 582.432 765.38 582.432 753.56C582.432 741.74 614.832 732.16 654.812 732.15Z" fill="#171717"/>
<path d="M695.37 311.679V355.209C669.49 335.909 629.49 355.209 629.49 355.209V311.679C629.49 307.623 631.101 303.733 633.968 300.864C636.835 297.995 640.724 296.382 644.78 296.379H680.08C684.136 296.382 688.025 297.995 690.892 300.864C693.76 303.733 695.37 307.623 695.37 311.679V311.679Z" fill="#171717"/>
<path d="M659.091 583.219L655.881 694.849C593.021 703.779 520.431 680.239 518.951 679.749C536.211 678.149 551.841 674.829 551.841 668.029C551.841 657.329 517.111 655.579 496.621 655.479C518.401 654.829 556.781 652.169 556.781 641.559C556.781 635.349 541.991 633.669 524.791 633.799L528.571 587.859C530.551 587.939 532.601 588.009 534.721 588.089C582.611 589.799 631.921 585.939 659.091 583.219Z" fill="url(#paint1_linear_510_1397)"/>
<path d="M528.57 587.859L524.79 633.799C521.47 633.819 518.06 633.919 514.65 634.059L516.55 587.859L516.57 587.369C520.24 587.529 524.24 587.692 528.57 587.859Z" fill="#171717"/>
<path d="M493.69 460.51C493.69 460.51 509.84 531.44 435.66 543.79C361.48 556.14 379.999 466.88 379.999 466.88C383.319 466.66 386.379 466.49 389.149 466.35V466.36C389.149 466.36 384.549 539.91 436.429 530.74C488.309 521.57 482.029 462.07 482.029 462.07C485.57 461.56 489.47 461.03 493.69 460.51Z" fill="#171717"/>
<path d="M475.612 584.68C475.612 584.68 482.672 585.9 516.572 587.37L516.552 587.86L514.652 634.06C493.552 634.94 472.432 637.68 472.432 637.68C472.432 637.68 503.492 609.09 491.842 602.03C487.702 599.52 480.752 602.19 473.512 606.67L475.312 587.86L475.612 584.68Z" fill="url(#paint2_linear_510_1397)"/>
<path d="M163.431 661.029C151.221 645.759 143.721 627.019 143.141 604.149C141.291 532.029 213.661 497.499 282.981 480.969C320.181 472.099 356.501 468.409 380.001 466.879C380.001 466.879 361.471 556.149 435.661 543.789C509.851 531.429 493.691 460.509 493.691 460.509C515.461 457.829 545.641 455.399 577.591 456.769C605.971 457.969 635.761 462.169 662.291 471.839L659.091 583.219C631.921 585.939 582.611 589.799 534.721 588.089C532.601 588.009 530.551 587.939 528.571 587.859C524.238 587.699 520.238 587.536 516.571 587.369C482.671 585.899 475.611 584.679 475.611 584.679L475.311 587.859H475.301C475.301 587.859 447.141 556.379 437.021 565.319C427.101 574.079 443.501 587.309 444.171 587.849C442.741 587.509 378.001 571.739 376.451 585.319C374.871 599.059 394.111 599.629 394.111 599.629C389.471 599.499 384.621 599.369 379.631 599.219C379.671 600.119 382.321 655.739 372.891 722.839C310.161 725.969 206.931 715.479 163.431 661.029Z" fill="url(#paint3_linear_510_1397)"/>
<path d="M448.551 386.03C450.552 388.8 453.382 390.863 456.631 391.92C439.331 400.03 447.031 420.7 447.261 421.33C435.561 418.21 434.631 402.76 436.561 395.44C439.161 385.56 441.721 375.91 448.551 386.03Z" fill="#171717"/>
<path d="M446.332 628.869C446.772 652.709 440.902 686.949 430.592 704.779C428.182 708.949 425.532 712.219 422.662 714.259C418.682 717.079 407.032 719.789 390.602 721.499C390.712 720.359 399.422 627.419 394.112 599.629C417.042 600.289 434.962 600.879 439.612 603.439C443.962 605.829 446.092 615.779 446.332 628.869Z" fill="url(#paint4_linear_510_1397)"/>
<path d="M394.111 599.629C399.421 627.419 390.711 720.359 390.601 721.499C385.181 722.069 379.241 722.519 372.891 722.839C382.321 655.739 379.671 600.119 379.631 599.219C384.621 599.369 389.471 599.499 394.111 599.629Z" fill="#171717"/>
<path d="M518.931 679.749H518.951C520.431 680.239 593.021 703.779 655.881 694.849C681.271 691.259 705.061 682.369 721.951 664.529C738.591 646.959 748.521 620.699 746.661 582.259C743.701 521.049 707.771 488.409 662.291 471.839C635.761 462.169 605.971 457.969 577.591 456.769C545.641 455.399 515.461 457.829 493.691 460.509C489.471 461.029 485.571 461.559 482.031 462.069C468.331 464.049 460.081 465.789 460.081 465.789C460.081 465.789 460.081 497.559 437.491 500.319C415.241 503.049 406.691 466.899 406.441 465.819C406.436 465.81 406.432 465.8 406.431 465.789C406.431 465.789 400.001 465.809 389.151 466.349C386.381 466.489 383.321 466.659 380.001 466.879C356.501 468.409 320.181 472.099 282.981 480.969C213.661 497.499 141.291 532.029 143.141 604.149C143.721 627.019 151.221 645.759 163.431 661.029C206.931 715.479 310.161 725.969 372.891 722.839C379.241 722.519 385.181 722.069 390.601 721.499C407.031 719.789 418.681 717.079 422.661 714.259C425.531 712.219 428.181 708.949 430.591 704.779C440.901 686.949 446.771 652.709 446.331 628.869C446.091 615.779 443.961 605.829 439.611 603.439C434.961 600.879 417.041 600.289 394.111 599.629C389.471 599.499 384.621 599.369 379.631 599.219C334.491 597.829 278.161 594.889 261.721 578.029C248.311 564.259 265.251 553.679 265.251 553.679" stroke="#171717" stroke-width="3" stroke-linecap="round" stroke-linejoin="round"/>
<path d="M680.312 580.85C680.312 580.85 672.332 581.9 659.092 583.22C631.922 585.94 582.612 589.8 534.722 588.09C532.602 588.01 530.552 587.94 528.572 587.86C524.238 587.7 520.238 587.536 516.572 587.37C482.672 585.9 475.612 584.68 475.612 584.68L475.312 587.86L473.512 606.67V606.68" stroke="#171717" stroke-width="3" stroke-linecap="round" stroke-linejoin="round"/>
<path d="M379.631 599.209V599.219C379.671 600.119 382.321 655.739 372.891 722.839" stroke="#171717" stroke-width="3" stroke-linecap="round" stroke-linejoin="round"/>
<path d="M496.622 655.48C517.112 655.58 551.842 657.331 551.842 668.031C551.842 674.831 536.212 678.15 518.952 679.75C503.948 680.972 488.892 681.42 473.842 681.091C473.842 681.091 551.492 686.38 550.082 699.79C548.672 713.2 430.592 704.781 430.592 704.781" stroke="#171717" stroke-width="3" stroke-linecap="round" stroke-linejoin="round"/>
<path d="M496.621 655.479C487.981 655.739 481.961 655.679 481.961 655.679C481.961 655.679 488.041 655.429 496.621 655.479Z" stroke="#171717" stroke-width="3" stroke-linecap="round" stroke-linejoin="round"/>
<path d="M446.33 628.869C446.33 628.869 460.39 614.789 473.51 606.669C480.75 602.189 487.7 599.519 491.84 602.029C503.49 609.089 472.43 637.679 472.43 637.679C472.43 637.679 493.55 634.939 514.65 634.059C518.06 633.919 521.47 633.819 524.79 633.799C541.99 633.669 556.78 635.349 556.78 641.559C556.78 652.169 518.4 654.829 496.62 655.479" stroke="#171717" stroke-width="3" stroke-linecap="round" stroke-linejoin="round"/>
<path d="M524.791 633.799L528.571 587.859" stroke="#171717" stroke-width="3" stroke-linecap="round" stroke-linejoin="round"/>
<path d="M514.65 634.059L516.55 587.859" stroke="#171717" stroke-width="3" stroke-linecap="round" stroke-linejoin="round"/>
<path d="M444.192 587.859C444.184 587.858 444.177 587.855 444.172 587.849C442.742 587.509 378.002 571.739 376.452 585.319C374.872 599.059 394.112 599.629 394.112 599.629C399.422 627.419 390.712 720.359 390.602 721.499V721.509" stroke="#171717" stroke-width="3" stroke-linecap="round" stroke-linejoin="round"/>
<path d="M475.299 587.859C475.299 587.859 447.139 556.379 437.019 565.319C427.099 574.079 443.499 587.309 444.169 587.849" stroke="#171717" stroke-width="3" stroke-linecap="round" stroke-linejoin="round"/>
<path d="M389.151 466.36C389.151 466.36 384.551 539.91 436.431 530.74C488.311 521.57 482.031 462.07 482.031 462.07" stroke="#171717" stroke-width="3" stroke-linecap="round" stroke-linejoin="round"/>
<path d="M380 466.88C380 466.88 361.47 556.15 435.66 543.79C509.85 531.43 493.69 460.51 493.69 460.51" stroke="#171717" stroke-width="3" stroke-linecap="round" stroke-linejoin="round"/>
<path d="M406.432 465.789C406.433 465.8 406.436 465.81 406.442 465.819C406.602 466.149 408.352 469.369 413.722 460.509C419.082 451.679 409.612 359.869 408.632 350.549C408.582 350.049 408.552 349.789 408.552 349.789" stroke="#171717" stroke-width="3" stroke-linecap="round" stroke-linejoin="round"/>
<path d="M460.082 465.789C460.082 465.789 449.492 462.969 455.142 454.259C460.792 445.549 549.482 387.209 502.902 285.969" stroke="#171717" stroke-width="3" stroke-linecap="round" stroke-linejoin="round"/>
<path d="M447.271 421.339C451.361 422.429 456.771 422.009 463.841 419.209" stroke="#171717" stroke-width="3" stroke-linecap="round" stroke-linejoin="round"/>
<path d="M474.661 393.56C474.661 393.56 464.761 394.89 456.631 391.92C453.382 390.863 450.552 388.8 448.551 386.03C441.721 375.91 439.161 385.56 436.561 395.44C434.631 402.76 435.561 418.21 447.261 421.33" stroke="#171717" stroke-width="3" stroke-linecap="round" stroke-linejoin="round"/>
<path d="M447.272 421.34L447.262 421.33C447.032 420.7 439.332 400.03 456.632 391.92" stroke="#171717" stroke-width="3" stroke-linecap="round" stroke-linejoin="round"/>
<path d="M474.66 359.679C474.66 359.679 492.55 355.679 489.49 368.849C486.43 382.019 474.66 370.499 474.66 370.499" stroke="#171717" stroke-width="3" stroke-linecap="round" stroke-linejoin="round"/>
<path d="M479.961 333.319C479.961 333.319 482.661 319.679 491.611 320.849C500.561 322.019 502.901 333.319 502.901 333.319" stroke="#171717" stroke-width="3" stroke-linecap="round" stroke-linejoin="round"/>
<path d="M479.961 314.029C479.961 314.029 487.141 305.789 505.721 312.849" stroke="#171717" stroke-width="3" stroke-linecap="round" stroke-linejoin="round"/>
<path d="M455.221 338.03C455.221 338.03 449.961 328.85 441.961 329.79" stroke="#171717" stroke-width="3" stroke-linecap="round" stroke-linejoin="round"/>
<path d="M401.021 349.789C403.533 350.25 406.078 350.504 408.632 350.549C415.752 350.729 426.091 349.479 431.611 341.789C440.551 329.319 435.771 319.909 435.771 319.909C435.771 319.909 450.901 326.739 462.901 317.789C474.901 308.839 469.961 292.849 469.961 292.849C469.961 292.849 479.721 304.149 492.841 299.679C498.641 297.709 501.511 291.869 502.901 285.969V285.959C503.973 281.039 504.369 275.996 504.081 270.969" stroke="#171717" stroke-width="3" stroke-linecap="round" stroke-linejoin="round"/>
<path d="M282.981 480.969C282.981 480.969 268.081 465.789 274.431 449.209C276.245 444.395 279.124 440.053 282.852 436.509C286.58 432.964 291.061 430.308 295.961 428.739C295.961 428.739 272.311 402.429 282.901 375.879C293.491 349.329 321.721 338.029 321.721 338.029C321.721 338.029 300.551 292.849 315.721 275.909C330.891 258.969 364.081 262.499 364.081 262.499C364.081 262.499 347.491 210.969 395.841 198.969C444.191 186.969 452.591 218.379 452.591 218.379C452.591 218.379 461.801 193.319 495.171 199.679C528.541 206.039 541.251 253.679 541.251 253.679C541.251 253.679 573.721 246.619 575.841 273.439C577.961 300.259 554.661 338.029 554.661 338.029C554.661 338.029 590.311 335.539 592.431 367.139C594.551 398.739 568.431 411.089 568.431 411.089C568.431 411.089 594.551 413.209 594.191 431.909C593.831 450.609 577.611 456.369 577.611 456.369" stroke="#171717" stroke-width="3" stroke-linecap="round" stroke-linejoin="round"/>
<path d="M39.9609 668.029L163.431 661.029H163.441" stroke="#171717" stroke-width="3" stroke-linecap="round" stroke-linejoin="round"/>
<path d="M721.951 664.529H919.961" stroke="#171717" stroke-width="3" stroke-linecap="round" stroke-linejoin="round"/>
<path d="M654.191 753.789L654.811 732.149L655.881 694.849L659.091 583.219L662.291 471.839L663.051 445.309L663.721 421.889" stroke="#171717" stroke-width="3" stroke-linecap="round" stroke-linejoin="round"/>
<path d="M613.25 333.32C613.25 333.32 591.44 448.13 663.05 445.31C734.66 442.49 710.66 333.88 710.66 333.88" stroke="#171717" stroke-width="3" stroke-linecap="round" stroke-linejoin="round"/>
<path d="M695.37 355.209V406.039C695.37 410.095 693.76 413.985 690.892 416.854C688.025 419.723 684.136 421.336 680.08 421.339H644.78C640.724 421.336 636.835 419.723 633.968 416.854C631.101 413.985 629.49 410.095 629.49 406.039V311.679C629.49 307.623 631.101 303.733 633.968 300.864C636.835 297.995 640.724 296.382 644.78 296.379H680.08C684.136 296.382 688.025 297.995 690.892 300.864C693.76 303.733 695.37 307.623 695.37 311.679V355.209Z" stroke="#171717" stroke-width="3" stroke-linecap="round" stroke-linejoin="round"/>
<path d="M629.49 355.209C629.49 355.209 669.49 335.909 695.37 355.209" stroke="#171717" stroke-width="3" stroke-linecap="round" stroke-linejoin="round"/>
<path d="M727.372 753.56C727.372 765.38 694.922 774.97 654.902 774.97C614.882 774.97 582.432 765.38 582.432 753.56C582.432 741.74 614.832 732.16 654.812 732.15H654.902C694.922 732.15 727.372 741.73 727.372 753.56Z" stroke="#171717" stroke-width="3" stroke-linecap="round" stroke-linejoin="round"/>
<path d="M390.365 473.361C393.178 471.891 396.132 470.384 399.306 470.374C402.48 470.364 405.906 472.38 406.345 475.524C406.718 478.185 404.899 480.69 402.768 482.324C400.637 483.958 398.117 485.068 396.113 486.86C395.502 487.319 395.003 487.911 394.655 488.591C394.307 489.271 394.119 490.022 394.105 490.786C394.311 493.149 397.205 494.44 399.537 493.997C401.869 493.554 403.787 491.977 405.8 490.722C407.813 489.467 410.309 488.482 412.516 489.352C415.185 490.404 416.228 493.844 415.538 496.628C414.848 499.412 412.887 501.68 410.984 503.828C408.498 506.628 405.922 509.573 404.984 513.2C404.046 516.827 405.339 521.33 408.799 522.766C412.599 524.343 416.913 521.559 419.183 518.128C421.453 514.697 422.555 510.569 425.013 507.269C427.471 503.969 432.213 501.669 435.698 503.854C438.191 505.419 439.029 508.572 440.015 511.345C441.257 514.834 443.126 518.239 446.103 520.445C449.08 522.651 453.339 523.392 456.538 521.524C460.821 519.024 461.65 513.049 460.483 508.224C459.316 503.399 456.683 499.005 455.765 494.131C454.847 489.257 456.35 483.27 460.965 481.443C465.237 479.75 470.218 482.317 474.612 480.973C475.63 480.661 476.575 480.148 477.391 479.464C478.207 478.78 478.878 477.939 479.362 476.991C479.847 476.043 480.136 475.008 480.213 473.946C480.29 472.884 480.153 471.817 479.81 470.809C479.466 469.801 478.924 468.873 478.215 468.078C477.506 467.284 476.645 466.64 475.682 466.185C474.72 465.73 473.676 465.473 472.612 465.429C471.548 465.385 470.486 465.555 469.489 465.929" stroke="#171717" stroke-width="3" stroke-linecap="round" stroke-linejoin="round"/>
<path d="M266.211 409.786C262.746 403.065 261.016 395.584 261.176 388.024C261.337 380.464 263.384 373.064 267.131 366.496" stroke="#171717" stroke-width="3" stroke-linecap="round" stroke-linejoin="round"/>
<path d="M121.917 626.662C117.908 615.788 116.632 604.096 118.199 592.613C119.766 581.131 124.13 570.209 130.906 560.807" stroke="#171717" stroke-width="3" stroke-linecap="round" stroke-linejoin="round"/>
<path d="M768.818 629.737C774.136 617.819 778.848 605.337 779.483 592.307C780.118 579.277 776.137 565.468 766.406 556.773" stroke="#171717" stroke-width="3" stroke-linecap="round" stroke-linejoin="round"/>
<path d="M692.738 277.851L702.038 263.109" stroke="#171717" stroke-width="3" stroke-linecap="round" stroke-linejoin="round"/>
<path d="M667.016 274.507L670.299 222.256" stroke="#171717" stroke-width="3" stroke-linecap="round" stroke-linejoin="round"/>
<path d="M643.608 276.617L634.432 263.205" stroke="#171717" stroke-width="3" stroke-linecap="round" stroke-linejoin="round"/>
<path d="M172.587 275.025C183.895 279.28 194.152 285.924 202.658 294.505C211.164 303.085 217.719 313.4 221.876 324.744C227.526 340.492 228.186 358.299 222.016 373.851C215.846 389.403 202.459 402.31 186.2 406.275C169.941 410.24 151.29 404.354 141.507 390.782C137.114 384.687 134.683 376.053 138.82 369.782C141.703 365.411 147.22 363.288 152.452 363.426C157.684 363.564 162.682 365.662 167.235 368.247C181.83 376.607 192.907 389.965 198.421 405.855C202.588 418.019 202.329 433.542 192.148 441.395C182.288 449.001 168.138 445.979 156.071 449.055C148.065 451.096 140.671 456.224 136.905 463.58C133.139 470.936 133.515 480.511 138.683 486.957C143.851 493.403 153.893 495.73 160.921 491.384" stroke="#171717" stroke-width="3" stroke-linecap="round" stroke-linejoin="round"/>
<path d="M718.453 186.188C771.439 202.846 813.783 249.639 825.081 304.02C827.699 316.62 828.735 329.845 825.381 342.269C822.027 354.693 813.743 366.25 801.855 371.18C789.967 376.11 774.565 372.998 767.25 362.41C759.935 351.821 763.835 334.61 775.83 329.95C786.049 325.978 797.902 331.657 804.848 340.14C808.588 344.708 811.322 350.012 812.872 355.708C814.422 361.403 814.753 367.362 813.843 373.194C812.934 379.026 810.805 384.601 807.595 389.554C804.384 394.508 800.165 398.728 795.213 401.941C787.658 406.841 778.621 409.254 771.455 414.708C762.218 421.738 757.091 433.315 756.307 444.896C755.523 456.477 758.725 468.049 763.701 478.536C767.653 486.866 772.874 494.809 780.201 500.409C787.528 506.009 797.193 509.018 806.165 506.893C815.137 504.768 822.865 496.831 823.258 487.62C823.449 483.106 821.489 478.083 817.297 476.398C813.105 474.713 807.322 478.556 808.523 482.911" stroke="#171717" stroke-width="3" stroke-linecap="round" stroke-linejoin="round"/>
<path d="M776.324 296.372L766.09 286.135" stroke="#171717" stroke-width="3" stroke-linecap="round" stroke-linejoin="round"/>
<path d="M765.625 297.706L777.949 283.877" stroke="#171717" stroke-width="3" stroke-linecap="round" stroke-linejoin="round"/>
<path d="M834.199 510.969L841.963 505.322" stroke="#171717" stroke-width="3" stroke-linecap="round" stroke-linejoin="round"/>
<path d="M841.284 515.191L834.229 501.072" stroke="#171717" stroke-width="3" stroke-linecap="round" stroke-linejoin="round"/>
<path d="M220.784 451.675C224.83 449.047 229.413 447.359 234.196 446.734" stroke="#171717" stroke-width="3" stroke-linecap="round" stroke-linejoin="round"/>
<path d="M228.89 457.226L224.142 440.426" stroke="#171717" stroke-width="3" stroke-linecap="round" stroke-linejoin="round"/>
<path d="M151.4 342.2L154.728 332.25" stroke="#171717" stroke-width="3" stroke-linecap="round" stroke-linejoin="round"/>
<path d="M157.278 339.292C153.365 338.673 149.663 337.106 146.495 334.727" stroke="#171717" stroke-width="3" stroke-linecap="round" stroke-linejoin="round"/>
<path d="M251.583 259.604L246.973 253.621" stroke="#171717" stroke-width="3" stroke-linecap="round" stroke-linejoin="round"/>
<path d="M245.217 260.469L253.111 253.197" stroke="#171717" stroke-width="3" stroke-linecap="round" stroke-linejoin="round"/>
<path d="M815.883 208.856L817.283 195.443" stroke="#171717" stroke-width="3" stroke-linecap="round" stroke-linejoin="round"/>
<path d="M808.775 202.326L823.602 201.68" stroke="#171717" stroke-width="3" stroke-linecap="round" stroke-linejoin="round"/>
<path d="M368.246 477.335C366.58 488.854 365.499 500.607 367.305 512.106C369.111 523.605 374.06 534.936 382.823 542.597C394.262 552.597 410.369 555.06 425.551 555.685C439.936 556.277 454.833 555.485 467.824 549.285C480.855 543.058 491.005 531.703 497.524 518.818C504.843 504.291 507.841 487.969 506.164 471.789" stroke="#171717" stroke-width="3" stroke-linecap="round" stroke-linejoin="round"/>
<path d="M632.261 502.181L624.973 491.158" stroke="#171717" stroke-width="3" stroke-linecap="round" stroke-linejoin="round"/>
<path d="M561.365 530.728L568.921 523.107" stroke="#171717" stroke-width="3" stroke-linecap="round" stroke-linejoin="round"/>
<path d="M539.18 489.031C536.487 487.016 534.126 484.594 532.18 481.852" stroke="#171717" stroke-width="3" stroke-linecap="round" stroke-linejoin="round"/>
<path d="M633.767 568.446C631.325 566.549 629.162 564.316 627.344 561.814" stroke="#171717" stroke-width="3" stroke-linecap="round" stroke-linejoin="round"/>
<path d="M685.277 538.166L694.596 527.348" stroke="#171717" stroke-width="3" stroke-linecap="round" stroke-linejoin="round"/>
<path d="M727.561 585.855L718.754 579.127" stroke="#171717" stroke-width="3" stroke-linecap="round" stroke-linejoin="round"/>
<path d="M690.184 634.843L697.159 625.602" stroke="#171717" stroke-width="3" stroke-linecap="round" stroke-linejoin="round"/>
<path d="M639.732 618.962L632.318 610.494" stroke="#171717" stroke-width="3" stroke-linecap="round" stroke-linejoin="round"/>
<path d="M605.811 673.999L617.138 662.738" stroke="#171717" stroke-width="3" stroke-linecap="round" stroke-linejoin="round"/>
<path d="M573.364 626.742L565.697 619.23" stroke="#171717" stroke-width="3" stroke-linecap="round" stroke-linejoin="round"/>
<path d="M525.114 562.193L518.473 553.293" stroke="#171717" stroke-width="3" stroke-linecap="round" stroke-linejoin="round"/>
<path d="M352.186 579.091L360.42 569.891" stroke="#171717" stroke-width="3" stroke-linecap="round" stroke-linejoin="round"/>
<path d="M343.414 532.564L334.473 525.506" stroke="#171717" stroke-width="3" stroke-linecap="round" stroke-linejoin="round"/>
<path d="M283.508 560.767C286.012 557.793 288.236 554.594 290.153 551.211" stroke="#171717" stroke-width="3" stroke-linecap="round" stroke-linejoin="round"/>
<path d="M269.447 511.518L260.029 506.354" stroke="#171717" stroke-width="3" stroke-linecap="round" stroke-linejoin="round"/>
<path d="M226.665 551.439L231.842 542.498" stroke="#171717" stroke-width="3" stroke-linecap="round" stroke-linejoin="round"/>
<path d="M183.221 586.947L175.797 581.623" stroke="#171717" stroke-width="3" stroke-linecap="round" stroke-linejoin="round"/>
<path d="M232.027 610.588L239.74 595.623" stroke="#171717" stroke-width="3" stroke-linecap="round" stroke-linejoin="round"/>
<path d="M209.718 669.099L200.779 663.92" stroke="#171717" stroke-width="3" stroke-linecap="round" stroke-linejoin="round"/>
<path d="M290.642 624.432L281.707 620.182" stroke="#171717" stroke-width="3" stroke-linecap="round" stroke-linejoin="round"/>
<path d="M266.586 680.337L273.186 668.582" stroke="#171717" stroke-width="3" stroke-linecap="round" stroke-linejoin="round"/>
<path d="M344.234 643.166L351.377 628.619" stroke="#171717" stroke-width="3" stroke-linecap="round" stroke-linejoin="round"/>
<path d="M333.019 687.44C329.707 686.181 326.785 684.071 324.549 681.322" stroke="#171717" stroke-width="3" stroke-linecap="round" stroke-linejoin="round"/>
<path d="M414.475 627.251L421.994 620.18" stroke="#171717" stroke-width="3" stroke-linecap="round" stroke-linejoin="round"/>
<path d="M424.534 673.183L420.676 667.125" stroke="#171717" stroke-width="3" stroke-linecap="round" stroke-linejoin="round"/>
<path d="M323.143 498.268L329.732 490.268" stroke="#171717" stroke-width="3" stroke-linecap="round" stroke-linejoin="round"/>
<path d="M615.041 234.552L610.828 240.86C610.701 241.05 610.519 241.197 610.306 241.28C610.092 241.364 609.859 241.38 609.636 241.327C609.414 241.273 609.213 241.153 609.061 240.983C608.909 240.812 608.812 240.598 608.785 240.371L607.885 232.839C607.859 232.619 607.768 232.412 607.624 232.244C607.48 232.076 607.289 231.954 607.076 231.894L599.776 229.837C599.556 229.775 599.359 229.647 599.214 229.47C599.069 229.293 598.981 229.076 598.963 228.848C598.944 228.62 598.997 228.391 599.112 228.193C599.228 227.996 599.401 227.838 599.609 227.742L606.494 224.557C606.695 224.464 606.864 224.314 606.98 224.125C607.095 223.936 607.153 223.717 607.144 223.496L606.844 215.917C606.835 215.688 606.896 215.462 607.019 215.269C607.143 215.076 607.322 214.925 607.534 214.838C607.745 214.75 607.979 214.729 608.202 214.778C608.426 214.827 608.63 214.943 608.785 215.111L613.941 220.675C614.092 220.837 614.287 220.951 614.502 221.003C614.717 221.055 614.943 221.041 615.15 220.965L622.266 218.337C622.481 218.257 622.716 218.245 622.938 218.303C623.16 218.36 623.359 218.485 623.508 218.66C623.658 218.834 623.749 219.05 623.771 219.279C623.794 219.507 623.745 219.737 623.632 219.937L619.932 226.56C619.824 226.754 619.776 226.975 619.794 227.195C619.812 227.416 619.895 227.626 620.032 227.8L624.732 233.756C624.875 233.936 624.958 234.155 624.972 234.385C624.986 234.614 624.929 234.841 624.809 235.037C624.689 235.233 624.512 235.387 624.301 235.478C624.091 235.57 623.857 235.595 623.632 235.549L616.19 234.078C615.973 234.035 615.748 234.057 615.544 234.141C615.339 234.225 615.164 234.368 615.041 234.552V234.552Z" fill="#171717"/>
<path d="M320.868 236.954L315.099 245.6C314.925 245.861 314.675 246.062 314.383 246.176C314.091 246.291 313.771 246.313 313.466 246.24C313.161 246.167 312.886 246.002 312.677 245.768C312.468 245.534 312.337 245.242 312.299 244.93L311.066 234.613C311.03 234.312 310.905 234.029 310.708 233.799C310.511 233.568 310.25 233.402 309.958 233.319L299.958 230.501C299.656 230.416 299.388 230.241 299.189 229.999C298.99 229.756 298.87 229.459 298.845 229.146C298.82 228.834 298.891 228.521 299.05 228.25C299.208 227.98 299.445 227.764 299.73 227.632L309.16 223.271C309.435 223.144 309.667 222.938 309.825 222.68C309.983 222.421 310.061 222.121 310.049 221.818L309.638 211.436C309.627 211.123 309.711 210.814 309.881 210.551C310.05 210.287 310.296 210.082 310.585 209.962C310.875 209.843 311.194 209.814 311.5 209.881C311.806 209.948 312.084 210.107 312.297 210.336L319.359 217.957C319.565 218.18 319.832 218.338 320.126 218.409C320.421 218.48 320.73 218.462 321.015 218.357L330.762 214.757C331.056 214.649 331.377 214.633 331.68 214.712C331.984 214.791 332.256 214.961 332.46 215.199C332.663 215.437 332.789 215.732 332.82 216.044C332.851 216.357 332.786 216.671 332.633 216.944L327.567 226.016C327.419 226.281 327.353 226.584 327.377 226.887C327.401 227.189 327.514 227.478 327.702 227.716L334.137 235.873C334.331 236.12 334.445 236.419 334.463 236.732C334.482 237.045 334.404 237.356 334.241 237.623C334.078 237.89 333.836 238.101 333.55 238.228C333.263 238.354 332.945 238.389 332.637 238.329L322.441 236.3C322.144 236.242 321.835 236.272 321.555 236.389C321.275 236.505 321.036 236.702 320.868 236.954V236.954Z" fill="#171717"/>
<g opacity="0.1">
<path d="M498.849 292.435C494.307 299.173 483.829 299.479 478.606 293.544C473.877 288.172 463.87 293.832 466.357 300.674C470.957 313.319 457.831 322.949 447.107 314.862C441.207 310.411 433.153 317.755 435.027 324.148C438.212 335.012 429.441 345.92 417.915 343.272C412.801 342.097 406.636 345.743 407.015 351.572C408.9 380.59 410.963 409.597 412.874 438.613C413.201 443.583 414.095 449.413 411.937 454.113C410.17 457.965 406.248 459.813 402.373 460.895C392.227 463.739 381.12 462.547 370.713 462.933C317.697 464.861 265.716 478.174 218.3 501.968C196.495 512.951 175.01 526.194 160 545.858C146.289 563.817 139.857 586.952 141.6 609.445C143.414 632.895 153.253 654.845 170.363 671.12C187.973 687.872 210.698 697.987 233.581 705.32C292.34 724.143 355.248 728.42 416.173 719.463C420.962 718.763 423.595 712.701 422.427 708.45C421.014 703.311 416.217 701.498 411.413 702.196C358.73 709.774 305.051 706.419 253.721 692.343C231.581 686.272 208.838 678.6 190.441 664.406C173.917 651.657 162.841 633.498 160.258 612.669C157.774 592.614 162.774 571.631 175.296 555.621C189.771 537.114 211.447 525.232 232.182 515.096C278.153 492.658 328.515 480.656 379.665 479.949C391.191 479.811 403.177 479.959 413.826 474.893C425.893 469.152 430.705 457.273 430.383 444.443C430.007 429.471 428.424 414.443 427.435 399.499C426.378 383.525 425.35 367.549 424.246 351.578L413.346 359.878C437.046 365.219 458.846 343.551 450.894 319.778L438.815 329.064C443.853 332.565 449.894 334.331 456.024 334.096C462.154 333.862 468.042 331.639 472.798 327.764C477.107 324.014 480.157 319.029 481.534 313.485C482.912 307.941 482.55 302.108 480.498 296.777L468.249 303.907C479.237 315.479 501.396 312.967 507.922 297.733C510.539 291.625 502.722 286.697 498.856 292.433L498.849 292.435Z" fill="#171717"/>
</g>
<g opacity="0.1">
<path d="M630.144 358.88C623.36 377.264 628.788 400.165 636.405 417.39C640.405 426.44 654.205 418.613 649.843 409.535C646.209 401.949 643.714 393.869 642.437 385.555C641.151 377.176 641.825 368.818 641.412 360.405C641.086 353.767 632.373 352.84 630.144 358.88Z" fill="#171717"/>
</g>
</g>
<defs>
<linearGradient id="paint0_linear_510_1397" x1="701.382" y1="471.84" x2="699.975" y2="693.627" gradientUnits="userSpaceOnUse">
<stop stop-color="#B7B7B7"/>
<stop offset="1" stop-color="#6F6F6F"/>
</linearGradient>
<linearGradient id="paint1_linear_510_1397" x1="577.856" y1="583.219" x2="577.651" y2="696.25" gradientUnits="userSpaceOnUse">
<stop stop-color="#B7B7B7"/>
<stop offset="1" stop-color="#6F6F6F"/>
</linearGradient>
<linearGradient id="paint2_linear_510_1397" x1="494.502" y1="584.68" x2="494.338" y2="637.391" gradientUnits="userSpaceOnUse">
<stop stop-color="#B7B7B7"/>
<stop offset="1" stop-color="#6F6F6F"/>
</linearGradient>
<linearGradient id="paint3_linear_510_1397" x1="402.699" y1="456.375" x2="402.345" y2="721.886" gradientUnits="userSpaceOnUse">
<stop stop-color="#B7B7B7"/>
<stop offset="1" stop-color="#6F6F6F"/>
</linearGradient>
<linearGradient id="paint4_linear_510_1397" x1="418.478" y1="599.629" x2="417.792" y2="720.831" gradientUnits="userSpaceOnUse">
<stop stop-color="#B7B7B7"/>
<stop offset="1" stop-color="#6F6F6F"/>
</linearGradient>
<clipPath id="clip0_510_1397">
<rect width="884" height="593" fill="white" transform="translate(38 184)"/>
</clipPath>
</defs>
</svg>