<svg width="527" height="348" viewBox="0 0 527 348" fill="none" xmlns="http://www.w3.org/2000/svg">
<mask id="mask0_1634_2315" style="mask-type:alpha" maskUnits="userSpaceOnUse" x="0" y="0" width="527" height="348">
<rect width="527" height="348" rx="20" fill="url(#paint0_linear_1634_2315)"/>
</mask>
<g mask="url(#mask0_1634_2315)">
<g opacity="0.8">
<g filter="url(#filter0_d_1634_2315)">
<rect x="19.5" y="34" width="68" height="68" rx="34" fill="white"/>
<rect x="20" y="34.5" width="67" height="67" rx="33.5" stroke="#EBEBEB"/>
<g clip-path="url(#clip0_1634_2315)">
<path d="M53.6452 85.1382C62.987 85.1382 70.56 77.6003 70.56 68.302C70.56 59.0037 62.987 51.4658 53.6452 51.4658C44.3035 51.4658 36.7305 59.0037 36.7305 68.302C36.7305 77.6003 44.3035 85.1382 53.6452 85.1382Z" fill="#4785FF"/>
<path d="M53.6438 81.8537C61.2338 81.8537 67.3869 75.6515 67.3869 68.0007C67.3869 60.3497 61.2338 54.1475 53.6438 54.1475C46.0535 54.1475 39.9004 60.3498 39.9004 68.0007C39.9004 75.6515 46.0536 81.8537 53.6438 81.8537Z" fill="#ADC9FF"/>
<path d="M53.6439 78.6562C59.4825 78.6562 64.2157 73.8851 64.2157 67.9999C64.2157 62.1147 59.4825 57.3437 53.6439 57.3437C47.8053 57.3437 43.0723 62.1147 43.0723 67.9999C43.0723 73.8851 47.8053 78.6562 53.6439 78.6562Z" fill="white"/>
</g>
</g>
<g filter="url(#filter1_d_1634_2315)">
<rect x="103.5" y="34" width="68" height="68" rx="34" fill="white"/>
<rect x="104" y="34.5" width="67" height="67" rx="33.5" stroke="#EBEBEB"/>
<g clip-path="url(#clip1_1634_2315)">
<path d="M137.645 85.1382C146.987 85.1382 154.56 77.6003 154.56 68.302C154.56 59.0037 146.987 51.4658 137.645 51.4658C128.304 51.4658 120.73 59.0037 120.73 68.302C120.73 77.6003 128.304 85.1382 137.645 85.1382Z" fill="#4785FF"/>
<path d="M137.644 81.8537C145.234 81.8537 151.387 75.6515 151.387 68.0007C151.387 60.3497 145.234 54.1475 137.644 54.1475C130.053 54.1475 123.9 60.3498 123.9 68.0007C123.9 75.6515 130.054 81.8537 137.644 81.8537Z" fill="#ADC9FF"/>
<path d="M137.644 78.6562C143.482 78.6562 148.216 73.8851 148.216 67.9999C148.216 62.1147 143.482 57.3437 137.644 57.3437C131.805 57.3437 127.072 62.1147 127.072 67.9999C127.072 73.8851 131.805 78.6562 137.644 78.6562Z" fill="white"/>
</g>
</g>
<g filter="url(#filter2_d_1634_2315)">
<rect x="187.5" y="34" width="68" height="68" rx="34" fill="white"/>
<rect x="188" y="34.5" width="67" height="67" rx="33.5" stroke="#EBEBEB"/>
</g>
<g filter="url(#filter3_d_1634_2315)">
<rect x="271.5" y="34" width="68" height="68" rx="34" fill="white"/>
<rect x="272" y="34.5" width="67" height="67" rx="33.5" stroke="#EBEBEB"/>
<g clip-path="url(#clip2_1634_2315)">
<path d="M305.645 85.1382C314.987 85.1382 322.56 77.6003 322.56 68.302C322.56 59.0037 314.987 51.4658 305.645 51.4658C296.304 51.4658 288.73 59.0037 288.73 68.302C288.73 77.6003 296.304 85.1382 305.645 85.1382Z" fill="#4785FF"/>
<path d="M305.644 81.8537C313.234 81.8537 319.387 75.6515 319.387 68.0007C319.387 60.3497 313.234 54.1475 305.644 54.1475C298.053 54.1475 291.9 60.3498 291.9 68.0007C291.9 75.6515 298.054 81.8537 305.644 81.8537Z" fill="#ADC9FF"/>
<path d="M305.644 78.6562C311.482 78.6562 316.216 73.8851 316.216 67.9999C316.216 62.1147 311.482 57.3437 305.644 57.3437C299.805 57.3437 295.072 62.1147 295.072 67.9999C295.072 73.8851 299.805 78.6562 305.644 78.6562Z" fill="white"/>
</g>
</g>
<g filter="url(#filter4_d_1634_2315)">
<rect x="355.5" y="34" width="68" height="68" rx="34" fill="white"/>
<rect x="356" y="34.5" width="67" height="67" rx="33.5" stroke="#EBEBEB"/>
</g>
<g filter="url(#filter5_d_1634_2315)">
<rect x="439.5" y="34" width="68" height="68" rx="34" fill="white"/>
<rect x="440" y="34.5" width="67" height="67" rx="33.5" stroke="#EBEBEB"/>
<g clip-path="url(#clip3_1634_2315)">
<path d="M473.645 85.1382C482.987 85.1382 490.56 77.6003 490.56 68.302C490.56 59.0037 482.987 51.4658 473.645 51.4658C464.304 51.4658 456.73 59.0037 456.73 68.302C456.73 77.6003 464.304 85.1382 473.645 85.1382Z" fill="#4785FF"/>
<path d="M473.644 81.8537C481.234 81.8537 487.387 75.6515 487.387 68.0007C487.387 60.3497 481.234 54.1475 473.644 54.1475C466.053 54.1475 459.9 60.3498 459.9 68.0007C459.9 75.6515 466.054 81.8537 473.644 81.8537Z" fill="#ADC9FF"/>
<path d="M473.644 78.6562C479.482 78.6562 484.216 73.8851 484.216 67.9999C484.216 62.1147 479.482 57.3437 473.644 57.3437C467.805 57.3437 463.072 62.1147 463.072 67.9999C463.072 73.8851 467.805 78.6562 473.644 78.6562Z" fill="white"/>
</g>
</g>
<g filter="url(#filter6_d_1634_2315)">
<rect x="19.5" y="118" width="68" height="68" rx="34" fill="white"/>
<rect x="20" y="118.5" width="67" height="67" rx="33.5" stroke="#EBEBEB"/>
</g>
<g filter="url(#filter7_d_1634_2315)">
<rect x="103.5" y="118" width="68" height="68" rx="34" fill="white"/>
<rect x="104" y="118.5" width="67" height="67" rx="33.5" stroke="#EBEBEB"/>
<g opacity="0.5" clip-path="url(#clip4_1634_2315)">
<path d="M137.645 169.138C146.987 169.138 154.56 161.6 154.56 152.302C154.56 143.004 146.987 135.466 137.645 135.466C128.304 135.466 120.73 143.004 120.73 152.302C120.73 161.6 128.304 169.138 137.645 169.138Z" fill="#4785FF"/>
<path d="M137.644 165.854C145.234 165.854 151.387 159.651 151.387 152.001C151.387 144.35 145.234 138.147 137.644 138.147C130.053 138.147 123.9 144.35 123.9 152.001C123.9 159.651 130.054 165.854 137.644 165.854Z" fill="#ADC9FF"/>
<path d="M137.644 162.656C143.482 162.656 148.216 157.885 148.216 152C148.216 146.115 143.482 141.344 137.644 141.344C131.805 141.344 127.072 146.115 127.072 152C127.072 157.885 131.805 162.656 137.644 162.656Z" fill="white"/>
</g>
</g>
<g filter="url(#filter8_d_1634_2315)">
<rect x="187.5" y="118" width="68" height="68" rx="34" fill="white"/>
<rect x="188" y="118.5" width="67" height="67" rx="33.5" stroke="#EBEBEB"/>
</g>
<g filter="url(#filter9_d_1634_2315)">
<rect x="271.5" y="118" width="68" height="68" rx="34" fill="white"/>
<rect x="272" y="118.5" width="67" height="67" rx="33.5" stroke="#EBEBEB"/>
</g>
<g filter="url(#filter10_d_1634_2315)">
<rect x="355.5" y="118" width="68" height="68" rx="34" fill="white"/>
<rect x="356" y="118.5" width="67" height="67" rx="33.5" stroke="#EBEBEB"/>
</g>
<g filter="url(#filter11_d_1634_2315)">
<rect x="439.5" y="118" width="68" height="68" rx="34" fill="white"/>
<rect x="440" y="118.5" width="67" height="67" rx="33.5" stroke="#EBEBEB"/>
</g>
<g filter="url(#filter12_d_1634_2315)">
<rect x="19.5" y="202" width="68" height="68" rx="34" fill="white"/>
<rect x="20" y="202.5" width="67" height="67" rx="33.5" stroke="#EBEBEB"/>
</g>
<g filter="url(#filter13_d_1634_2315)">
<rect x="103.5" y="202" width="68" height="68" rx="34" fill="white"/>
<rect x="104" y="202.5" width="67" height="67" rx="33.5" stroke="#EBEBEB"/>
</g>
<g filter="url(#filter14_d_1634_2315)">
<rect x="187.5" y="202" width="68" height="68" rx="34" fill="white"/>
<rect x="188" y="202.5" width="67" height="67" rx="33.5" stroke="#EBEBEB"/>
</g>
<g filter="url(#filter15_d_1634_2315)">
<rect x="271.5" y="202" width="68" height="68" rx="34" fill="white"/>
<rect x="272" y="202.5" width="67" height="67" rx="33.5" stroke="#EBEBEB"/>
</g>
<g filter="url(#filter16_d_1634_2315)">
<rect x="355.5" y="202" width="68" height="68" rx="34" fill="white"/>
<rect x="356" y="202.5" width="67" height="67" rx="33.5" stroke="#EBEBEB"/>
</g>
<g filter="url(#filter17_d_1634_2315)">
<rect x="439.5" y="202" width="68" height="68" rx="34" fill="white"/>
<rect x="440" y="202.5" width="67" height="67" rx="33.5" stroke="#EBEBEB"/>
</g>
<g filter="url(#filter18_d_1634_2315)">
<rect x="19.5" y="286" width="68" height="68" rx="34" fill="white"/>
<rect x="20" y="286.5" width="67" height="67" rx="33.5" stroke="#EBEBEB"/>
</g>
<g filter="url(#filter19_d_1634_2315)">
<rect x="103.5" y="286" width="68" height="68" rx="34" fill="white"/>
<rect x="104" y="286.5" width="67" height="67" rx="33.5" stroke="#EBEBEB"/>
<g clip-path="url(#clip5_1634_2315)">
<path d="M137.645 337.138C146.987 337.138 154.56 329.6 154.56 320.302C154.56 311.004 146.987 303.466 137.645 303.466C128.304 303.466 120.73 311.004 120.73 320.302C120.73 329.6 128.304 337.138 137.645 337.138Z" fill="#4785FF"/>
<path d="M137.644 333.854C145.234 333.854 151.387 327.651 151.387 320.001C151.387 312.35 145.234 306.147 137.644 306.147C130.053 306.147 123.9 312.35 123.9 320.001C123.9 327.651 130.054 333.854 137.644 333.854Z" fill="#ADC9FF"/>
<path d="M137.644 330.656C143.482 330.656 148.216 325.885 148.216 320C148.216 314.115 143.482 309.344 137.644 309.344C131.805 309.344 127.072 314.115 127.072 320C127.072 325.885 131.805 330.656 137.644 330.656Z" fill="white"/>
</g>
</g>
<g filter="url(#filter20_d_1634_2315)">
<rect x="187.5" y="286" width="68" height="68" rx="34" fill="white"/>
<rect x="188" y="286.5" width="67" height="67" rx="33.5" stroke="#EBEBEB"/>
</g>
<g filter="url(#filter21_d_1634_2315)">
<rect x="271.5" y="286" width="68" height="68" rx="34" fill="white"/>
<rect x="272" y="286.5" width="67" height="67" rx="33.5" stroke="#EBEBEB"/>
</g>
<g filter="url(#filter22_d_1634_2315)">
<rect x="355.5" y="286" width="68" height="68" rx="34" fill="white"/>
<rect x="356" y="286.5" width="67" height="67" rx="33.5" stroke="#EBEBEB"/>
<g clip-path="url(#clip6_1634_2315)">
<path d="M389.645 337.138C398.987 337.138 406.56 329.6 406.56 320.302C406.56 311.004 398.987 303.466 389.645 303.466C380.304 303.466 372.73 311.004 372.73 320.302C372.73 329.6 380.304 337.138 389.645 337.138Z" fill="#4785FF"/>
<path d="M389.644 333.854C397.234 333.854 403.387 327.651 403.387 320.001C403.387 312.35 397.234 306.147 389.644 306.147C382.053 306.147 375.9 312.35 375.9 320.001C375.9 327.651 382.054 333.854 389.644 333.854Z" fill="#ADC9FF"/>
<path d="M389.644 330.656C395.482 330.656 400.216 325.885 400.216 320C400.216 314.115 395.482 309.344 389.644 309.344C383.805 309.344 379.072 314.115 379.072 320C379.072 325.885 383.805 330.656 389.644 330.656Z" fill="white"/>
</g>
</g>
<g filter="url(#filter23_d_1634_2315)">
<rect x="439.5" y="286" width="68" height="68" rx="34" fill="white"/>
<rect x="440" y="286.5" width="67" height="67" rx="33.5" stroke="#EBEBEB"/>
</g>
</g>
</g>
<g filter="url(#filter24_d_1634_2315)">
<rect x="234.559" y="85" width="57.9476" height="119.2" rx="28.9738" stroke="#C5C5C5" stroke-width="14"/>
<path d="M197 135.863H330.063C340.833 135.863 349.563 144.594 349.563 155.363V248.565C349.563 259.335 340.833 268.065 330.063 268.065H197C186.23 268.065 177.5 259.335 177.5 248.565V155.363C177.5 144.594 186.23 135.863 197 135.863Z" fill="#FDFDFD" stroke="#C5C5C5"/>
<mask id="path-73-inside-1_1634_2315" fill="white">
<path d="M263.952 163.476C275.839 163.476 285.476 173.113 285.476 185C285.475 193.958 280.003 201.636 272.219 204.877V232.189C272.219 236.76 268.514 240.465 263.943 240.465C259.373 240.465 255.668 236.76 255.668 232.189V204.87C247.893 201.625 242.428 193.951 242.428 185C242.428 173.113 252.065 163.476 263.952 163.476Z"/>
</mask>
<path d="M263.952 163.476C275.839 163.476 285.476 173.113 285.476 185C285.475 193.958 280.003 201.636 272.219 204.877V232.189C272.219 236.76 268.514 240.465 263.943 240.465C259.373 240.465 255.668 236.76 255.668 232.189V204.87C247.893 201.625 242.428 193.951 242.428 185C242.428 173.113 252.065 163.476 263.952 163.476Z" fill="white"/>
<path d="M263.952 163.476L263.952 162.476H263.952V163.476ZM285.476 185L286.476 185V185H285.476ZM272.219 204.877L271.834 203.954L271.219 204.21V204.877H272.219ZM272.219 232.189H273.219H272.219ZM263.943 240.465L263.943 241.465H263.943V240.465ZM255.668 232.189H254.668H255.668ZM255.668 204.87H256.668V204.204L256.053 203.947L255.668 204.87ZM242.428 185H241.428V185L242.428 185ZM263.952 163.476L263.952 164.476C275.287 164.476 284.476 173.665 284.476 185H285.476H286.476C286.476 172.56 276.392 162.476 263.952 162.476L263.952 163.476ZM285.476 185L284.476 185C284.475 193.54 279.259 200.862 271.834 203.954L272.219 204.877L272.603 205.8C280.747 202.409 286.475 194.376 286.476 185L285.476 185ZM272.219 204.877H271.219V232.189H272.219H273.219V204.877H272.219ZM272.219 232.189H271.219C271.219 236.208 267.962 239.465 263.943 239.465V240.465V241.465C269.066 241.465 273.219 237.312 273.219 232.189H272.219ZM263.943 240.465L263.943 239.465C259.925 239.465 256.668 236.208 256.668 232.189H255.668H254.668C254.668 237.312 258.821 241.465 263.943 241.465L263.943 240.465ZM255.668 232.189H256.668V204.87H255.668H254.668V232.189H255.668ZM255.668 204.87L256.053 203.947C248.637 200.852 243.428 193.534 243.428 185L242.428 185L241.428 185C241.428 194.369 247.149 202.398 255.283 205.793L255.668 204.87ZM242.428 185H243.428C243.428 173.665 252.617 164.476 263.952 164.476V163.476V162.476C251.512 162.476 241.428 172.56 241.428 185H242.428Z" fill="#C5C5C5" mask="url(#path-73-inside-1_1634_2315)"/>
</g>
<defs>
<filter id="filter0_d_1634_2315" x="17.5" y="34" width="72" height="98" filterUnits="userSpaceOnUse" color-interpolation-filters="sRGB">
<feFlood flood-opacity="0" result="BackgroundImageFix"/>
<feColorMatrix in="SourceAlpha" type="matrix" values="0 0 0 0 0 0 0 0 0 0 0 0 0 0 0 0 0 0 127 0" result="hardAlpha"/>
<feMorphology radius="38" operator="erode" in="SourceAlpha" result="effect1_dropShadow_1634_2315"/>
<feOffset dy="28"/>
<feGaussianBlur stdDeviation="20"/>
<feColorMatrix type="matrix" values="0 0 0 0 0 0 0 0 0 0 0 0 0 0 0 0 0 0 0.5 0"/>
<feBlend mode="normal" in2="BackgroundImageFix" result="effect1_dropShadow_1634_2315"/>
<feBlend mode="normal" in="SourceGraphic" in2="effect1_dropShadow_1634_2315" result="shape"/>
</filter>
<filter id="filter1_d_1634_2315" x="101.5" y="34" width="72" height="98" filterUnits="userSpaceOnUse" color-interpolation-filters="sRGB">
<feFlood flood-opacity="0" result="BackgroundImageFix"/>
<feColorMatrix in="SourceAlpha" type="matrix" values="0 0 0 0 0 0 0 0 0 0 0 0 0 0 0 0 0 0 127 0" result="hardAlpha"/>
<feMorphology radius="38" operator="erode" in="SourceAlpha" result="effect1_dropShadow_1634_2315"/>
<feOffset dy="28"/>
<feGaussianBlur stdDeviation="20"/>
<feColorMatrix type="matrix" values="0 0 0 0 0 0 0 0 0 0 0 0 0 0 0 0 0 0 0.5 0"/>
<feBlend mode="normal" in2="BackgroundImageFix" result="effect1_dropShadow_1634_2315"/>
<feBlend mode="normal" in="SourceGraphic" in2="effect1_dropShadow_1634_2315" result="shape"/>
</filter>
<filter id="filter2_d_1634_2315" x="185.5" y="34" width="72" height="98" filterUnits="userSpaceOnUse" color-interpolation-filters="sRGB">
<feFlood flood-opacity="0" result="BackgroundImageFix"/>
<feColorMatrix in="SourceAlpha" type="matrix" values="0 0 0 0 0 0 0 0 0 0 0 0 0 0 0 0 0 0 127 0" result="hardAlpha"/>
<feMorphology radius="38" operator="erode" in="SourceAlpha" result="effect1_dropShadow_1634_2315"/>
<feOffset dy="28"/>
<feGaussianBlur stdDeviation="20"/>
<feColorMatrix type="matrix" values="0 0 0 0 0 0 0 0 0 0 0 0 0 0 0 0 0 0 0.5 0"/>
<feBlend mode="normal" in2="BackgroundImageFix" result="effect1_dropShadow_1634_2315"/>
<feBlend mode="normal" in="SourceGraphic" in2="effect1_dropShadow_1634_2315" result="shape"/>
</filter>
<filter id="filter3_d_1634_2315" x="269.5" y="34" width="72" height="98" filterUnits="userSpaceOnUse" color-interpolation-filters="sRGB">
<feFlood flood-opacity="0" result="BackgroundImageFix"/>
<feColorMatrix in="SourceAlpha" type="matrix" values="0 0 0 0 0 0 0 0 0 0 0 0 0 0 0 0 0 0 127 0" result="hardAlpha"/>
<feMorphology radius="38" operator="erode" in="SourceAlpha" result="effect1_dropShadow_1634_2315"/>
<feOffset dy="28"/>
<feGaussianBlur stdDeviation="20"/>
<feColorMatrix type="matrix" values="0 0 0 0 0 0 0 0 0 0 0 0 0 0 0 0 0 0 0.5 0"/>
<feBlend mode="normal" in2="BackgroundImageFix" result="effect1_dropShadow_1634_2315"/>
<feBlend mode="normal" in="SourceGraphic" in2="effect1_dropShadow_1634_2315" result="shape"/>
</filter>
<filter id="filter4_d_1634_2315" x="353.5" y="34" width="72" height="98" filterUnits="userSpaceOnUse" color-interpolation-filters="sRGB">
<feFlood flood-opacity="0" result="BackgroundImageFix"/>
<feColorMatrix in="SourceAlpha" type="matrix" values="0 0 0 0 0 0 0 0 0 0 0 0 0 0 0 0 0 0 127 0" result="hardAlpha"/>
<feMorphology radius="38" operator="erode" in="SourceAlpha" result="effect1_dropShadow_1634_2315"/>
<feOffset dy="28"/>
<feGaussianBlur stdDeviation="20"/>
<feColorMatrix type="matrix" values="0 0 0 0 0 0 0 0 0 0 0 0 0 0 0 0 0 0 0.5 0"/>
<feBlend mode="normal" in2="BackgroundImageFix" result="effect1_dropShadow_1634_2315"/>
<feBlend mode="normal" in="SourceGraphic" in2="effect1_dropShadow_1634_2315" result="shape"/>
</filter>
<filter id="filter5_d_1634_2315" x="437.5" y="34" width="72" height="98" filterUnits="userSpaceOnUse" color-interpolation-filters="sRGB">
<feFlood flood-opacity="0" result="BackgroundImageFix"/>
<feColorMatrix in="SourceAlpha" type="matrix" values="0 0 0 0 0 0 0 0 0 0 0 0 0 0 0 0 0 0 127 0" result="hardAlpha"/>
<feMorphology radius="38" operator="erode" in="SourceAlpha" result="effect1_dropShadow_1634_2315"/>
<feOffset dy="28"/>
<feGaussianBlur stdDeviation="20"/>
<feColorMatrix type="matrix" values="0 0 0 0 0 0 0 0 0 0 0 0 0 0 0 0 0 0 0.5 0"/>
<feBlend mode="normal" in2="BackgroundImageFix" result="effect1_dropShadow_1634_2315"/>
<feBlend mode="normal" in="SourceGraphic" in2="effect1_dropShadow_1634_2315" result="shape"/>
</filter>
<filter id="filter6_d_1634_2315" x="17.5" y="118" width="72" height="98" filterUnits="userSpaceOnUse" color-interpolation-filters="sRGB">
<feFlood flood-opacity="0" result="BackgroundImageFix"/>
<feColorMatrix in="SourceAlpha" type="matrix" values="0 0 0 0 0 0 0 0 0 0 0 0 0 0 0 0 0 0 127 0" result="hardAlpha"/>
<feMorphology radius="38" operator="erode" in="SourceAlpha" result="effect1_dropShadow_1634_2315"/>
<feOffset dy="28"/>
<feGaussianBlur stdDeviation="20"/>
<feColorMatrix type="matrix" values="0 0 0 0 0 0 0 0 0 0 0 0 0 0 0 0 0 0 0.5 0"/>
<feBlend mode="normal" in2="BackgroundImageFix" result="effect1_dropShadow_1634_2315"/>
<feBlend mode="normal" in="SourceGraphic" in2="effect1_dropShadow_1634_2315" result="shape"/>
</filter>
<filter id="filter7_d_1634_2315" x="101.5" y="118" width="72" height="98" filterUnits="userSpaceOnUse" color-interpolation-filters="sRGB">
<feFlood flood-opacity="0" result="BackgroundImageFix"/>
<feColorMatrix in="SourceAlpha" type="matrix" values="0 0 0 0 0 0 0 0 0 0 0 0 0 0 0 0 0 0 127 0" result="hardAlpha"/>
<feMorphology radius="38" operator="erode" in="SourceAlpha" result="effect1_dropShadow_1634_2315"/>
<feOffset dy="28"/>
<feGaussianBlur stdDeviation="20"/>
<feColorMatrix type="matrix" values="0 0 0 0 0 0 0 0 0 0 0 0 0 0 0 0 0 0 0.5 0"/>
<feBlend mode="normal" in2="BackgroundImageFix" result="effect1_dropShadow_1634_2315"/>
<feBlend mode="normal" in="SourceGraphic" in2="effect1_dropShadow_1634_2315" result="shape"/>
</filter>
<filter id="filter8_d_1634_2315" x="185.5" y="118" width="72" height="98" filterUnits="userSpaceOnUse" color-interpolation-filters="sRGB">
<feFlood flood-opacity="0" result="BackgroundImageFix"/>
<feColorMatrix in="SourceAlpha" type="matrix" values="0 0 0 0 0 0 0 0 0 0 0 0 0 0 0 0 0 0 127 0" result="hardAlpha"/>
<feMorphology radius="38" operator="erode" in="SourceAlpha" result="effect1_dropShadow_1634_2315"/>
<feOffset dy="28"/>
<feGaussianBlur stdDeviation="20"/>
<feColorMatrix type="matrix" values="0 0 0 0 0 0 0 0 0 0 0 0 0 0 0 0 0 0 0.5 0"/>
<feBlend mode="normal" in2="BackgroundImageFix" result="effect1_dropShadow_1634_2315"/>
<feBlend mode="normal" in="SourceGraphic" in2="effect1_dropShadow_1634_2315" result="shape"/>
</filter>
<filter id="filter9_d_1634_2315" x="269.5" y="118" width="72" height="98" filterUnits="userSpaceOnUse" color-interpolation-filters="sRGB">
<feFlood flood-opacity="0" result="BackgroundImageFix"/>
<feColorMatrix in="SourceAlpha" type="matrix" values="0 0 0 0 0 0 0 0 0 0 0 0 0 0 0 0 0 0 127 0" result="hardAlpha"/>
<feMorphology radius="38" operator="erode" in="SourceAlpha" result="effect1_dropShadow_1634_2315"/>
<feOffset dy="28"/>
<feGaussianBlur stdDeviation="20"/>
<feColorMatrix type="matrix" values="0 0 0 0 0 0 0 0 0 0 0 0 0 0 0 0 0 0 0.5 0"/>
<feBlend mode="normal" in2="BackgroundImageFix" result="effect1_dropShadow_1634_2315"/>
<feBlend mode="normal" in="SourceGraphic" in2="effect1_dropShadow_1634_2315" result="shape"/>
</filter>
<filter id="filter10_d_1634_2315" x="353.5" y="118" width="72" height="98" filterUnits="userSpaceOnUse" color-interpolation-filters="sRGB">
<feFlood flood-opacity="0" result="BackgroundImageFix"/>
<feColorMatrix in="SourceAlpha" type="matrix" values="0 0 0 0 0 0 0 0 0 0 0 0 0 0 0 0 0 0 127 0" result="hardAlpha"/>
<feMorphology radius="38" operator="erode" in="SourceAlpha" result="effect1_dropShadow_1634_2315"/>
<feOffset dy="28"/>
<feGaussianBlur stdDeviation="20"/>
<feColorMatrix type="matrix" values="0 0 0 0 0 0 0 0 0 0 0 0 0 0 0 0 0 0 0.5 0"/>
<feBlend mode="normal" in2="BackgroundImageFix" result="effect1_dropShadow_1634_2315"/>
<feBlend mode="normal" in="SourceGraphic" in2="effect1_dropShadow_1634_2315" result="shape"/>
</filter>
<filter id="filter11_d_1634_2315" x="437.5" y="118" width="72" height="98" filterUnits="userSpaceOnUse" color-interpolation-filters="sRGB">
<feFlood flood-opacity="0" result="BackgroundImageFix"/>
<feColorMatrix in="SourceAlpha" type="matrix" values="0 0 0 0 0 0 0 0 0 0 0 0 0 0 0 0 0 0 127 0" result="hardAlpha"/>
<feMorphology radius="38" operator="erode" in="SourceAlpha" result="effect1_dropShadow_1634_2315"/>
<feOffset dy="28"/>
<feGaussianBlur stdDeviation="20"/>
<feColorMatrix type="matrix" values="0 0 0 0 0 0 0 0 0 0 0 0 0 0 0 0 0 0 0.5 0"/>
<feBlend mode="normal" in2="BackgroundImageFix" result="effect1_dropShadow_1634_2315"/>
<feBlend mode="normal" in="SourceGraphic" in2="effect1_dropShadow_1634_2315" result="shape"/>
</filter>
<filter id="filter12_d_1634_2315" x="17.5" y="202" width="72" height="98" filterUnits="userSpaceOnUse" color-interpolation-filters="sRGB">
<feFlood flood-opacity="0" result="BackgroundImageFix"/>
<feColorMatrix in="SourceAlpha" type="matrix" values="0 0 0 0 0 0 0 0 0 0 0 0 0 0 0 0 0 0 127 0" result="hardAlpha"/>
<feMorphology radius="38" operator="erode" in="SourceAlpha" result="effect1_dropShadow_1634_2315"/>
<feOffset dy="28"/>
<feGaussianBlur stdDeviation="20"/>
<feColorMatrix type="matrix" values="0 0 0 0 0 0 0 0 0 0 0 0 0 0 0 0 0 0 0.5 0"/>
<feBlend mode="normal" in2="BackgroundImageFix" result="effect1_dropShadow_1634_2315"/>
<feBlend mode="normal" in="SourceGraphic" in2="effect1_dropShadow_1634_2315" result="shape"/>
</filter>
<filter id="filter13_d_1634_2315" x="101.5" y="202" width="72" height="98" filterUnits="userSpaceOnUse" color-interpolation-filters="sRGB">
<feFlood flood-opacity="0" result="BackgroundImageFix"/>
<feColorMatrix in="SourceAlpha" type="matrix" values="0 0 0 0 0 0 0 0 0 0 0 0 0 0 0 0 0 0 127 0" result="hardAlpha"/>
<feMorphology radius="38" operator="erode" in="SourceAlpha" result="effect1_dropShadow_1634_2315"/>
<feOffset dy="28"/>
<feGaussianBlur stdDeviation="20"/>
<feColorMatrix type="matrix" values="0 0 0 0 0 0 0 0 0 0 0 0 0 0 0 0 0 0 0.5 0"/>
<feBlend mode="normal" in2="BackgroundImageFix" result="effect1_dropShadow_1634_2315"/>
<feBlend mode="normal" in="SourceGraphic" in2="effect1_dropShadow_1634_2315" result="shape"/>
</filter>
<filter id="filter14_d_1634_2315" x="185.5" y="202" width="72" height="98" filterUnits="userSpaceOnUse" color-interpolation-filters="sRGB">
<feFlood flood-opacity="0" result="BackgroundImageFix"/>
<feColorMatrix in="SourceAlpha" type="matrix" values="0 0 0 0 0 0 0 0 0 0 0 0 0 0 0 0 0 0 127 0" result="hardAlpha"/>
<feMorphology radius="38" operator="erode" in="SourceAlpha" result="effect1_dropShadow_1634_2315"/>
<feOffset dy="28"/>
<feGaussianBlur stdDeviation="20"/>
<feColorMatrix type="matrix" values="0 0 0 0 0 0 0 0 0 0 0 0 0 0 0 0 0 0 0.5 0"/>
<feBlend mode="normal" in2="BackgroundImageFix" result="effect1_dropShadow_1634_2315"/>
<feBlend mode="normal" in="SourceGraphic" in2="effect1_dropShadow_1634_2315" result="shape"/>
</filter>
<filter id="filter15_d_1634_2315" x="269.5" y="202" width="72" height="98" filterUnits="userSpaceOnUse" color-interpolation-filters="sRGB">
<feFlood flood-opacity="0" result="BackgroundImageFix"/>
<feColorMatrix in="SourceAlpha" type="matrix" values="0 0 0 0 0 0 0 0 0 0 0 0 0 0 0 0 0 0 127 0" result="hardAlpha"/>
<feMorphology radius="38" operator="erode" in="SourceAlpha" result="effect1_dropShadow_1634_2315"/>
<feOffset dy="28"/>
<feGaussianBlur stdDeviation="20"/>
<feColorMatrix type="matrix" values="0 0 0 0 0 0 0 0 0 0 0 0 0 0 0 0 0 0 0.5 0"/>
<feBlend mode="normal" in2="BackgroundImageFix" result="effect1_dropShadow_1634_2315"/>
<feBlend mode="normal" in="SourceGraphic" in2="effect1_dropShadow_1634_2315" result="shape"/>
</filter>
<filter id="filter16_d_1634_2315" x="353.5" y="202" width="72" height="98" filterUnits="userSpaceOnUse" color-interpolation-filters="sRGB">
<feFlood flood-opacity="0" result="BackgroundImageFix"/>
<feColorMatrix in="SourceAlpha" type="matrix" values="0 0 0 0 0 0 0 0 0 0 0 0 0 0 0 0 0 0 127 0" result="hardAlpha"/>
<feMorphology radius="38" operator="erode" in="SourceAlpha" result="effect1_dropShadow_1634_2315"/>
<feOffset dy="28"/>
<feGaussianBlur stdDeviation="20"/>
<feColorMatrix type="matrix" values="0 0 0 0 0 0 0 0 0 0 0 0 0 0 0 0 0 0 0.5 0"/>
<feBlend mode="normal" in2="BackgroundImageFix" result="effect1_dropShadow_1634_2315"/>
<feBlend mode="normal" in="SourceGraphic" in2="effect1_dropShadow_1634_2315" result="shape"/>
</filter>
<filter id="filter17_d_1634_2315" x="437.5" y="202" width="72" height="98" filterUnits="userSpaceOnUse" color-interpolation-filters="sRGB">
<feFlood flood-opacity="0" result="BackgroundImageFix"/>
<feColorMatrix in="SourceAlpha" type="matrix" values="0 0 0 0 0 0 0 0 0 0 0 0 0 0 0 0 0 0 127 0" result="hardAlpha"/>
<feMorphology radius="38" operator="erode" in="SourceAlpha" result="effect1_dropShadow_1634_2315"/>
<feOffset dy="28"/>
<feGaussianBlur stdDeviation="20"/>
<feColorMatrix type="matrix" values="0 0 0 0 0 0 0 0 0 0 0 0 0 0 0 0 0 0 0.5 0"/>
<feBlend mode="normal" in2="BackgroundImageFix" result="effect1_dropShadow_1634_2315"/>
<feBlend mode="normal" in="SourceGraphic" in2="effect1_dropShadow_1634_2315" result="shape"/>
</filter>
<filter id="filter18_d_1634_2315" x="17.5" y="286" width="72" height="98" filterUnits="userSpaceOnUse" color-interpolation-filters="sRGB">
<feFlood flood-opacity="0" result="BackgroundImageFix"/>
<feColorMatrix in="SourceAlpha" type="matrix" values="0 0 0 0 0 0 0 0 0 0 0 0 0 0 0 0 0 0 127 0" result="hardAlpha"/>
<feMorphology radius="38" operator="erode" in="SourceAlpha" result="effect1_dropShadow_1634_2315"/>
<feOffset dy="28"/>
<feGaussianBlur stdDeviation="20"/>
<feColorMatrix type="matrix" values="0 0 0 0 0 0 0 0 0 0 0 0 0 0 0 0 0 0 0.5 0"/>
<feBlend mode="normal" in2="BackgroundImageFix" result="effect1_dropShadow_1634_2315"/>
<feBlend mode="normal" in="SourceGraphic" in2="effect1_dropShadow_1634_2315" result="shape"/>
</filter>
<filter id="filter19_d_1634_2315" x="101.5" y="286" width="72" height="98" filterUnits="userSpaceOnUse" color-interpolation-filters="sRGB">
<feFlood flood-opacity="0" result="BackgroundImageFix"/>
<feColorMatrix in="SourceAlpha" type="matrix" values="0 0 0 0 0 0 0 0 0 0 0 0 0 0 0 0 0 0 127 0" result="hardAlpha"/>
<feMorphology radius="38" operator="erode" in="SourceAlpha" result="effect1_dropShadow_1634_2315"/>
<feOffset dy="28"/>
<feGaussianBlur stdDeviation="20"/>
<feColorMatrix type="matrix" values="0 0 0 0 0 0 0 0 0 0 0 0 0 0 0 0 0 0 0.5 0"/>
<feBlend mode="normal" in2="BackgroundImageFix" result="effect1_dropShadow_1634_2315"/>
<feBlend mode="normal" in="SourceGraphic" in2="effect1_dropShadow_1634_2315" result="shape"/>
</filter>
<filter id="filter20_d_1634_2315" x="185.5" y="286" width="72" height="98" filterUnits="userSpaceOnUse" color-interpolation-filters="sRGB">
<feFlood flood-opacity="0" result="BackgroundImageFix"/>
<feColorMatrix in="SourceAlpha" type="matrix" values="0 0 0 0 0 0 0 0 0 0 0 0 0 0 0 0 0 0 127 0" result="hardAlpha"/>
<feMorphology radius="38" operator="erode" in="SourceAlpha" result="effect1_dropShadow_1634_2315"/>
<feOffset dy="28"/>
<feGaussianBlur stdDeviation="20"/>
<feColorMatrix type="matrix" values="0 0 0 0 0 0 0 0 0 0 0 0 0 0 0 0 0 0 0.5 0"/>
<feBlend mode="normal" in2="BackgroundImageFix" result="effect1_dropShadow_1634_2315"/>
<feBlend mode="normal" in="SourceGraphic" in2="effect1_dropShadow_1634_2315" result="shape"/>
</filter>
<filter id="filter21_d_1634_2315" x="269.5" y="286" width="72" height="98" filterUnits="userSpaceOnUse" color-interpolation-filters="sRGB">
<feFlood flood-opacity="0" result="BackgroundImageFix"/>
<feColorMatrix in="SourceAlpha" type="matrix" values="0 0 0 0 0 0 0 0 0 0 0 0 0 0 0 0 0 0 127 0" result="hardAlpha"/>
<feMorphology radius="38" operator="erode" in="SourceAlpha" result="effect1_dropShadow_1634_2315"/>
<feOffset dy="28"/>
<feGaussianBlur stdDeviation="20"/>
<feColorMatrix type="matrix" values="0 0 0 0 0 0 0 0 0 0 0 0 0 0 0 0 0 0 0.5 0"/>
<feBlend mode="normal" in2="BackgroundImageFix" result="effect1_dropShadow_1634_2315"/>
<feBlend mode="normal" in="SourceGraphic" in2="effect1_dropShadow_1634_2315" result="shape"/>
</filter>
<filter id="filter22_d_1634_2315" x="353.5" y="286" width="72" height="98" filterUnits="userSpaceOnUse" color-interpolation-filters="sRGB">
<feFlood flood-opacity="0" result="BackgroundImageFix"/>
<feColorMatrix in="SourceAlpha" type="matrix" values="0 0 0 0 0 0 0 0 0 0 0 0 0 0 0 0 0 0 127 0" result="hardAlpha"/>
<feMorphology radius="38" operator="erode" in="SourceAlpha" result="effect1_dropShadow_1634_2315"/>
<feOffset dy="28"/>
<feGaussianBlur stdDeviation="20"/>
<feColorMatrix type="matrix" values="0 0 0 0 0 0 0 0 0 0 0 0 0 0 0 0 0 0 0.5 0"/>
<feBlend mode="normal" in2="BackgroundImageFix" result="effect1_dropShadow_1634_2315"/>
<feBlend mode="normal" in="SourceGraphic" in2="effect1_dropShadow_1634_2315" result="shape"/>
</filter>
<filter id="filter23_d_1634_2315" x="437.5" y="286" width="72" height="98" filterUnits="userSpaceOnUse" color-interpolation-filters="sRGB">
<feFlood flood-opacity="0" result="BackgroundImageFix"/>
<feColorMatrix in="SourceAlpha" type="matrix" values="0 0 0 0 0 0 0 0 0 0 0 0 0 0 0 0 0 0 127 0" result="hardAlpha"/>
<feMorphology radius="38" operator="erode" in="SourceAlpha" result="effect1_dropShadow_1634_2315"/>
<feOffset dy="28"/>
<feGaussianBlur stdDeviation="20"/>
<feColorMatrix type="matrix" values="0 0 0 0 0 0 0 0 0 0 0 0 0 0 0 0 0 0 0.5 0"/>
<feBlend mode="normal" in2="BackgroundImageFix" result="effect1_dropShadow_1634_2315"/>
<feBlend mode="normal" in="SourceGraphic" in2="effect1_dropShadow_1634_2315" result="shape"/>
</filter>
<filter id="filter24_d_1634_2315" x="141.5" y="46.5" width="244.062" height="261.565" filterUnits="userSpaceOnUse" color-interpolation-filters="sRGB">
<feFlood flood-opacity="0" result="BackgroundImageFix"/>
<feColorMatrix in="SourceAlpha" type="matrix" values="0 0 0 0 0 0 0 0 0 0 0 0 0 0 0 0 0 0 127 0" result="hardAlpha"/>
<feOffset dy="4"/>
<feGaussianBlur stdDeviation="17.75"/>
<feColorMatrix type="matrix" values="0 0 0 0 1 0 0 0 0 1 0 0 0 0 1 0 0 0 1 0"/>
<feBlend mode="normal" in2="BackgroundImageFix" result="effect1_dropShadow_1634_2315"/>
<feBlend mode="normal" in="SourceGraphic" in2="effect1_dropShadow_1634_2315" result="shape"/>
</filter>
<linearGradient id="paint0_linear_1634_2315" x1="258.596" y1="24" x2="255.231" y2="331.992" gradientUnits="userSpaceOnUse">
<stop stop-opacity="0"/>
<stop offset="0.530668" stop-color="white"/>
<stop offset="1" stop-opacity="0"/>
</linearGradient>
<clipPath id="clip0_1634_2315">
<rect width="42" height="44" fill="white" transform="translate(32.5 46)"/>
</clipPath>
<clipPath id="clip1_1634_2315">
<rect width="42" height="44" fill="white" transform="translate(116.5 46)"/>
</clipPath>
<clipPath id="clip2_1634_2315">
<rect width="42" height="44" fill="white" transform="translate(284.5 46)"/>
</clipPath>
<clipPath id="clip3_1634_2315">
<rect width="42" height="44" fill="white" transform="translate(452.5 46)"/>
</clipPath>
<clipPath id="clip4_1634_2315">
<rect width="42" height="44" fill="white" transform="translate(116.5 130)"/>
</clipPath>
<clipPath id="clip5_1634_2315">
<rect width="42" height="44" fill="white" transform="translate(116.5 298)"/>
</clipPath>
<clipPath id="clip6_1634_2315">
<rect width="42" height="44" fill="white" transform="translate(368.5 298)"/>
</clipPath>
</defs>
</svg>
