<svg width="365" height="226" viewBox="0 0 365 226" fill="none" xmlns="http://www.w3.org/2000/svg">
<path d="M249.137 47.7466L228.178 90.2136C227.051 92.4961 226.857 95.1272 227.635 97.5506C228.666 100.758 231.27 103.211 234.533 104.048L307.019 122.638C311.6 123.813 316.377 121.618 318.47 117.377L327.454 99.1748C329.898 94.2223 327.865 88.226 322.912 85.7818L311.914 80.3535L286.524 67.8229C284.096 66.6244 282.257 64.4923 281.429 61.9141L279.143 54.7984C278.315 52.2202 276.476 50.0881 274.048 48.8897L262.53 43.205C257.577 40.7608 251.581 42.7941 249.137 47.7466Z" fill="#82B6FF"/>
<g clip-path="url(#clip0_1558_2367)">
<path d="M280.164 82.1181C294.054 82.1181 305.314 70.9103 305.314 57.0849C305.314 43.2596 294.054 32.0518 280.164 32.0518C266.274 32.0518 255.014 43.2596 255.014 57.0849C255.014 70.9103 266.274 82.1181 280.164 82.1181Z" fill="#4785FF"/>
<path d="M280.163 77.424C291.448 77.424 300.597 68.3178 300.597 57.0847C300.597 45.8514 291.448 36.7451 280.163 36.7451C268.877 36.7451 259.729 45.8516 259.729 57.0847C259.729 68.3178 268.877 77.424 280.163 77.424Z" fill="#ADC9FF"/>
<path d="M280.164 72.73C288.845 72.73 295.883 65.7249 295.883 57.0841C295.883 48.4432 288.845 41.4385 280.164 41.4385C271.483 41.4385 264.445 48.4432 264.445 57.0841C264.445 65.7249 271.483 72.73 280.164 72.73Z" fill="white"/>
</g>
<g clip-path="url(#clip1_1558_2367)">
<path d="M295.236 114.42C309.126 114.42 320.386 103.212 320.386 89.3867C320.386 75.5613 309.126 64.3535 295.236 64.3535C281.346 64.3535 270.086 75.5613 270.086 89.3867C270.086 103.212 281.346 114.42 295.236 114.42Z" fill="#4785FF"/>
<path d="M295.235 109.726C306.521 109.726 315.67 100.62 315.67 89.3865C315.67 78.1532 306.521 69.0469 295.235 69.0469C283.95 69.0469 274.801 78.1533 274.801 89.3865C274.801 100.62 283.95 109.726 295.235 109.726Z" fill="#ADC9FF"/>
<path d="M295.236 105.032C303.917 105.032 310.955 98.0266 310.955 89.3858C310.955 80.745 303.917 73.7402 295.236 73.7402C286.555 73.7402 279.518 80.745 279.518 89.3858C279.518 98.0266 286.555 105.032 295.236 105.032Z" fill="white"/>
</g>
<rect x="245.078" y="55.9746" width="92.9902" height="62.313" rx="10" transform="rotate(26.268 245.078 55.9746)" fill="#B2D2FF"/>
<path d="M24.9983 79.143L40.7112 120.848C41.5649 123.114 43.2666 124.959 45.4562 125.993C48.3541 127.362 51.7515 127.147 54.4535 125.423L114.144 87.3551C118.131 84.8121 119.792 79.8236 118.124 75.3981L111.627 58.152C109.68 52.9838 103.911 50.3726 98.7432 52.3198L88.2791 56.2622L63.2657 65.6863C60.7316 66.641 57.9187 66.5272 55.47 65.3709L49.4132 62.5108C46.9645 61.3544 44.1516 61.2406 41.6175 62.1954L30.8305 66.2595C25.6623 68.2067 23.0512 73.9748 24.9983 79.143Z" fill="#82B6FF"/>
<g clip-path="url(#clip2_1558_2367)">
<path d="M66.9645 96.1162C80.8543 96.1162 92.1145 84.9083 92.1145 71.083C92.1145 57.2576 80.8543 46.0498 66.9645 46.0498C53.0746 46.0498 41.8145 57.2576 41.8145 71.083C41.8145 84.9083 53.0746 96.1162 66.9645 96.1162Z" fill="#4785FF"/>
<path d="M66.9638 91.4221C78.2493 91.4221 87.3981 82.3158 87.3981 71.0828C87.3981 59.8495 78.2493 50.7432 66.9638 50.7432C55.6781 50.7432 46.5293 59.8496 46.5293 71.0828C46.5293 82.3158 55.6782 91.4221 66.9638 91.4221Z" fill="#ADC9FF"/>
<path d="M66.9647 86.728C75.6458 86.728 82.6836 79.7229 82.6836 71.0821C82.6836 62.4413 75.6458 55.4365 66.9647 55.4365C58.2835 55.4365 51.2461 62.4413 51.2461 71.0821C51.2461 79.7229 58.2835 86.728 66.9647 86.728Z" fill="white"/>
</g>
<rect x="27.9023" y="86.8545" width="88.4664" height="59.2816" rx="10" transform="rotate(-20.6444 27.9023 86.8545)" fill="#B2D2FF"/>
<mask id="path-14-inside-1_1558_2367" fill="white">
<path d="M193.443 40.9355C219.31 40.9355 240.28 61.9046 240.28 87.7715C240.28 113.638 219.31 134.608 193.443 134.608C190.308 134.608 187.246 134.296 184.283 133.709C175.094 144.641 161.321 151.593 145.922 151.593C118.255 151.593 95.8262 129.163 95.8262 101.496C95.8263 73.8291 118.255 51.4005 145.922 51.4004C151.258 51.4004 156.4 52.235 161.223 53.7803C169.618 45.8194 180.96 40.9356 193.443 40.9355Z"/>
</mask>
<path d="M193.443 40.9355C219.31 40.9355 240.28 61.9046 240.28 87.7715C240.28 113.638 219.31 134.608 193.443 134.608C190.308 134.608 187.246 134.296 184.283 133.709C175.094 144.641 161.321 151.593 145.922 151.593C118.255 151.593 95.8262 129.163 95.8262 101.496C95.8263 73.8291 118.255 51.4005 145.922 51.4004C151.258 51.4004 156.4 52.235 161.223 53.7803C169.618 45.8194 180.96 40.9356 193.443 40.9355Z" fill="white"/>
<path d="M193.443 40.9355V39.9355H193.443L193.443 40.9355ZM240.28 87.7715H241.28V87.7715L240.28 87.7715ZM193.443 134.608L193.443 135.608H193.443V134.608ZM184.283 133.709L184.478 132.728L183.898 132.613L183.518 133.066L184.283 133.709ZM145.922 151.593L145.922 152.593H145.922V151.593ZM95.8262 101.496L94.8262 101.496V101.496H95.8262ZM145.922 51.4004V50.4004H145.922L145.922 51.4004ZM161.223 53.7803L160.918 54.7326L161.481 54.9132L161.911 54.5059L161.223 53.7803ZM193.443 40.9355V41.9355C218.758 41.9355 239.28 62.457 239.28 87.7715L240.28 87.7715L241.28 87.7715C241.28 61.3523 219.862 39.9355 193.443 39.9355V40.9355ZM240.28 87.7715H239.28C239.28 113.086 218.758 133.608 193.443 133.608V134.608V135.608C219.863 135.608 241.28 114.191 241.28 87.7715H240.28ZM193.443 134.608L193.443 133.608C190.375 133.608 187.377 133.303 184.478 132.728L184.283 133.709L184.089 134.69C187.114 135.29 190.242 135.608 193.443 135.608L193.443 134.608ZM184.283 133.709L183.518 133.066C174.51 143.781 161.013 150.593 145.922 150.593V151.593V152.593C161.629 152.593 175.677 145.501 185.049 134.352L184.283 133.709ZM145.922 151.593L145.922 150.593C118.807 150.593 96.8262 128.611 96.8262 101.496H95.8262H94.8262C94.8262 129.716 117.702 152.593 145.922 152.593L145.922 151.593ZM95.8262 101.496L96.8262 101.496C96.8263 74.3813 118.807 52.4005 145.922 52.4004L145.922 51.4004L145.922 50.4004C117.703 50.4005 94.8263 73.2768 94.8262 101.496L95.8262 101.496ZM145.922 51.4004V52.4004C151.153 52.4004 156.192 53.2185 160.918 54.7326L161.223 53.7803L161.528 52.828C156.607 51.2514 151.363 50.4004 145.922 50.4004V51.4004ZM161.223 53.7803L161.911 54.5059C170.128 46.7142 181.226 41.9356 193.443 41.9355L193.443 40.9355L193.443 39.9355C180.694 39.9356 169.108 44.9247 160.535 53.0546L161.223 53.7803Z" fill="#C5C5C5" mask="url(#path-14-inside-1_1558_2367)"/>
<mask id="path-16-inside-2_1558_2367" fill="white">
<path d="M97.6172 225.885C123.484 225.885 144.454 204.916 144.454 179.049C144.454 160.965 134.203 145.277 119.197 137.473C119.404 136.009 119.514 134.514 119.514 132.993C119.514 115.451 105.293 101.231 87.751 101.23C76.3116 101.23 66.2863 107.279 60.6943 116.352C57.278 115.616 53.7321 115.228 50.0957 115.228C22.4286 115.228 0 137.656 0 165.323C2.68011e-05 192.99 22.4286 215.419 50.0957 215.419C55.4319 215.419 60.5734 214.584 65.3965 213.039C73.792 221 85.1339 225.885 97.6172 225.885Z"/>
</mask>
<path d="M97.6172 225.885C123.484 225.885 144.454 204.916 144.454 179.049C144.454 160.965 134.203 145.277 119.197 137.473C119.404 136.009 119.514 134.514 119.514 132.993C119.514 115.451 105.293 101.231 87.751 101.23C76.3116 101.23 66.2863 107.279 60.6943 116.352C57.278 115.616 53.7321 115.228 50.0957 115.228C22.4286 115.228 0 137.656 0 165.323C2.68011e-05 192.99 22.4286 215.419 50.0957 215.419C55.4319 215.419 60.5734 214.584 65.3965 213.039C73.792 221 85.1339 225.885 97.6172 225.885Z" fill="#F7F7F7"/>
<path d="M97.6172 225.885V226.885H97.6172L97.6172 225.885ZM144.454 179.049H145.454V179.049L144.454 179.049ZM119.197 137.473L118.736 138.36L118.108 138.033L118.207 137.333L119.197 137.473ZM119.514 132.993L120.514 132.993V132.993H119.514ZM87.751 101.23V100.23H87.751L87.751 101.23ZM60.6943 116.352L61.5456 116.876L61.1747 117.478L60.4838 117.329L60.6943 116.352ZM50.0957 115.228L50.0957 114.228H50.0957V115.228ZM0 165.323H-1H0ZM50.0957 215.419V216.419H50.0957L50.0957 215.419ZM65.3965 213.039L65.0914 212.087L65.6551 211.906L66.0846 212.313L65.3965 213.039ZM97.6172 225.885V224.885C122.932 224.885 143.454 204.363 143.454 179.049L144.454 179.049L145.454 179.049C145.454 205.468 124.036 226.885 97.6172 226.885V225.885ZM144.454 179.049H143.454C143.454 161.353 133.424 145.999 118.736 138.36L119.197 137.473L119.659 136.585C134.983 144.556 145.454 160.577 145.454 179.049H144.454ZM119.197 137.473L118.207 137.333C118.407 135.914 118.514 134.465 118.514 132.993H119.514H120.514C120.514 134.562 120.4 136.104 120.187 137.612L119.197 137.473ZM119.514 132.993L118.514 132.993C118.514 116.004 104.741 102.231 87.751 102.23L87.751 101.23L87.751 100.23C105.845 100.231 120.514 114.899 120.514 132.993L119.514 132.993ZM87.751 101.23V102.23C76.673 102.23 66.9632 108.087 61.5456 116.876L60.6943 116.352L59.8431 115.827C65.6094 106.472 75.9501 100.23 87.751 100.23V101.23ZM60.6943 116.352L60.4838 117.329C57.136 116.608 53.6607 116.228 50.0957 116.228V115.228V114.228C53.8034 114.228 57.4199 114.623 60.9049 115.374L60.6943 116.352ZM50.0957 115.228L50.0957 116.228C22.9809 116.228 1 138.208 1 165.323H0H-1C-1 137.104 21.8763 114.228 50.0957 114.228L50.0957 115.228ZM0 165.323H1C1.00003 192.438 22.9809 214.419 50.0957 214.419L50.0957 215.419L50.0957 216.419C21.8763 216.419 -0.999973 193.543 -1 165.323H0ZM50.0957 215.419V214.419C55.3271 214.419 60.3657 213.601 65.0914 212.087L65.3965 213.039L65.7016 213.991C60.7811 215.568 55.5367 216.419 50.0957 216.419V215.419ZM65.3965 213.039L66.0846 212.313C74.3018 220.105 85.4001 224.885 97.6172 224.885L97.6172 225.885L97.6172 226.885C84.8678 226.885 73.2822 221.895 64.7084 213.765L65.3965 213.039Z" fill="#C5C5C5" mask="url(#path-16-inside-2_1558_2367)"/>
<mask id="path-18-inside-3_1558_2367" fill="white">
<path d="M236.67 84.0029C259.338 84.003 279.514 94.6748 292.448 111.268C299.202 107.875 306.829 105.963 314.902 105.963C342.569 105.963 364.999 128.391 364.999 156.059C364.999 183.726 342.57 206.155 314.902 206.155C306.201 206.155 298.019 203.935 290.889 200.033C277.923 215.519 258.447 225.369 236.67 225.369C220.151 225.369 204.955 219.703 192.921 210.207C185.002 215.45 175.509 218.508 165.301 218.508C137.634 218.508 115.205 196.078 115.205 168.411C115.205 140.744 137.634 118.316 165.301 118.315C168.776 118.315 172.168 118.669 175.443 119.343C187.665 98.2164 210.508 84.0029 236.67 84.0029Z"/>
</mask>
<path d="M236.67 84.0029C259.338 84.003 279.514 94.6748 292.448 111.268C299.202 107.875 306.829 105.963 314.902 105.963C342.569 105.963 364.999 128.391 364.999 156.059C364.999 183.726 342.57 206.155 314.902 206.155C306.201 206.155 298.019 203.935 290.889 200.033C277.923 215.519 258.447 225.369 236.67 225.369C220.151 225.369 204.955 219.703 192.921 210.207C185.002 215.45 175.509 218.508 165.301 218.508C137.634 218.508 115.205 196.078 115.205 168.411C115.205 140.744 137.634 118.316 165.301 118.315C168.776 118.315 172.168 118.669 175.443 119.343C187.665 98.2164 210.508 84.0029 236.67 84.0029Z" fill="#FCFCFC"/>
<path d="M236.67 84.0029V83.0029V84.0029ZM292.448 111.268L291.66 111.882L292.164 112.529L292.897 112.161L292.448 111.268ZM314.902 105.963V104.963V105.963ZM364.999 156.059H365.999V156.059L364.999 156.059ZM314.902 206.155V207.155V206.155ZM290.889 200.033L291.369 199.156L290.649 198.762L290.122 199.391L290.889 200.033ZM236.67 225.369V226.369V225.369ZM192.921 210.207L193.54 209.422L192.972 208.974L192.369 209.373L192.921 210.207ZM165.301 218.508L165.301 219.508H165.301V218.508ZM115.205 168.411L114.205 168.411V168.411H115.205ZM165.301 118.315V117.315H165.301L165.301 118.315ZM175.443 119.343L175.242 120.322L175.948 120.467L176.309 119.844L175.443 119.343ZM236.67 84.0029V85.0029C259.017 85.003 278.906 95.5221 291.66 111.882L292.448 111.268L293.237 110.653C280.121 93.8274 259.66 83.003 236.67 83.0029V84.0029ZM292.448 111.268L292.897 112.161C299.515 108.837 306.988 106.963 314.902 106.963V105.963V104.963C306.669 104.963 298.89 106.913 291.999 110.374L292.448 111.268ZM314.902 105.963V106.963C342.017 106.963 363.999 128.944 363.999 156.059L364.999 156.059L365.999 156.059C365.999 127.839 343.122 104.963 314.902 104.963V105.963ZM364.999 156.059H363.999C363.999 183.174 342.017 205.155 314.902 205.155V206.155V207.155C343.122 207.155 365.999 184.278 365.999 156.059H364.999ZM314.902 206.155V205.155C306.373 205.155 298.356 202.98 291.369 199.156L290.889 200.033L290.409 200.91C297.682 204.891 306.029 207.155 314.902 207.155V206.155ZM290.889 200.033L290.122 199.391C277.338 214.66 258.139 224.369 236.67 224.369V225.369V226.369C258.756 226.369 278.508 216.379 291.655 200.675L290.889 200.033ZM236.67 225.369V224.369C220.383 224.369 205.404 218.783 193.54 209.422L192.921 210.207L192.301 210.992C204.506 220.622 219.918 226.369 236.67 226.369V225.369ZM192.921 210.207L192.369 209.373C184.609 214.512 175.307 217.508 165.301 217.508V218.508V219.508C175.712 219.508 185.396 216.389 193.473 211.041L192.921 210.207ZM165.301 218.508L165.301 217.508C138.186 217.508 116.205 195.526 116.205 168.411H115.205H114.205C114.205 196.631 137.081 219.508 165.301 219.508L165.301 218.508ZM115.205 168.411L116.205 168.411C116.205 141.296 138.186 119.316 165.301 119.315L165.301 118.315L165.301 117.315C137.081 117.316 114.205 140.192 114.205 168.411L115.205 168.411ZM165.301 118.315V119.315C168.707 119.315 172.032 119.662 175.242 120.322L175.443 119.343L175.645 118.363C172.303 117.676 168.844 117.315 165.301 117.315V118.315ZM175.443 119.343L176.309 119.844C188.359 99.0135 210.879 85.0029 236.67 85.0029V84.0029V83.0029C210.136 83.0029 186.971 97.4194 174.578 118.842L175.443 119.343Z" fill="#C5C5C5" mask="url(#path-18-inside-3_1558_2367)"/>
<defs>
<clipPath id="clip0_1558_2367">
<rect width="62.4484" height="64.6018" fill="white" transform="translate(248.725 24.7832)"/>
</clipPath>
<clipPath id="clip1_1558_2367">
<rect width="62.4484" height="64.6018" fill="white" transform="translate(263.797 57.085)"/>
</clipPath>
<clipPath id="clip2_1558_2367">
<rect width="62.4484" height="64.6018" fill="white" transform="translate(35.5254 38.7812)"/>
</clipPath>
</defs>
</svg>
