<svg width="422" height="242" viewBox="0 0 422 242" fill="none" xmlns="http://www.w3.org/2000/svg">
<g filter="url(#filter0_dd_1594_2317)">
<rect x="1" y="1" width="420" height="236" rx="14" fill="#FAFAFA" shape-rendering="crispEdges"/>
<rect x="1" y="1" width="420" height="236" rx="14" stroke="#CBCBCB" shape-rendering="crispEdges"/>
<rect x="11" y="11" width="400" height="215" rx="12" fill="#EAEAEA" stroke="#C6C6C6"/>
<path d="M27.5 58V33C27.5 29.6863 30.1863 27 33.5 27H59" stroke="#4785FF"/>
<path d="M27.5 179V204C27.5 207.314 30.1863 210 33.5 210H59" stroke="#4785FF"/>
<path d="M394.5 58V33C394.5 29.6863 391.814 27 388.5 27H363" stroke="#4785FF"/>
<path d="M394.5 179V204C394.5 207.314 391.814 210 388.5 210H363" stroke="#4785FF"/>
<g filter="url(#filter1_d_1594_2317)">
<rect x="152" y="181" width="118" height="25" rx="8" fill="white" shape-rendering="crispEdges"/>
<rect x="160" y="185" width="17" height="17" rx="8.5" fill="#FF9999"/>
<rect x="166" y="191" width="5" height="5" fill="white"/>
<path d="M184.792 198.18C182.452 198.18 181.456 196.212 181.456 193.86C181.456 191.508 182.452 189.528 184.792 189.528C187.132 189.528 188.128 191.508 188.128 193.86C188.128 196.212 187.132 198.18 184.792 198.18ZM184.792 196.992C186.256 196.992 186.736 195.588 186.736 193.86C186.736 192.132 186.256 190.716 184.792 190.716C183.328 190.716 182.836 192.132 182.836 193.86C182.836 195.588 183.328 196.992 184.792 196.992ZM189.901 194.412C189.457 194.412 189.121 194.112 189.121 193.632C189.121 193.164 189.457 192.852 189.901 192.852C190.333 192.852 190.669 193.164 190.669 193.632C190.669 194.112 190.333 194.412 189.901 194.412ZM189.901 198.096C189.457 198.096 189.121 197.796 189.121 197.316C189.121 196.848 189.457 196.536 189.901 196.536C190.333 196.536 190.669 196.848 190.669 197.316C190.669 197.796 190.333 198.096 189.901 198.096ZM195.022 198.18C192.682 198.18 191.686 196.212 191.686 193.86C191.686 191.508 192.682 189.528 195.022 189.528C197.362 189.528 198.358 191.508 198.358 193.86C198.358 196.212 197.362 198.18 195.022 198.18ZM195.022 196.992C196.486 196.992 196.966 195.588 196.966 193.86C196.966 192.132 196.486 190.716 195.022 190.716C193.558 190.716 193.066 192.132 193.066 193.86C193.066 195.588 193.558 196.992 195.022 196.992ZM204.405 198H203.013V196.116H199.089V194.82L203.013 189.708H204.405V194.94H205.569V196.116H204.405V198ZM203.013 191.436L200.325 194.94H203.013V191.436Z" fill="black"/>
<rect x="222" y="185" width="17" height="17" rx="8.5" fill="#4C4C4C"/>
<path d="M233 191.417V195.583C233 195.694 232.952 195.8 232.867 195.878C232.782 195.956 232.666 196 232.545 196H231.409C231.289 196 231.173 195.956 231.088 195.878C231.002 195.8 230.955 195.694 230.955 195.583V191.417C230.955 191.306 231.002 191.2 231.088 191.122C231.173 191.044 231.289 191 231.409 191H232.545C232.666 191 232.782 191.044 232.867 191.122C232.952 191.2 233 191.306 233 191.417ZM229.591 191H228.455C228.334 191 228.218 191.044 228.133 191.122C228.048 191.2 228 191.306 228 191.417V195.583C228 195.694 228.048 195.8 228.133 195.878C228.218 195.956 228.334 196 228.455 196H229.591C229.711 196 229.827 195.956 229.912 195.878C229.998 195.8 230.045 195.694 230.045 195.583V191.417C230.045 191.306 229.998 191.2 229.912 191.122C229.827 191.044 229.711 191 229.591 191Z" fill="white"/>
<path d="M262 188.249V191.75C262 191.904 261.939 192.053 261.831 192.162C261.723 192.271 261.576 192.333 261.423 192.333H257.962C257.847 192.333 257.736 192.299 257.641 192.235C257.546 192.171 257.472 192.08 257.428 191.973C257.385 191.866 257.373 191.749 257.395 191.636C257.418 191.522 257.473 191.418 257.553 191.337L258.779 190.097L258.019 189.394L258.001 189.376C257.199 188.566 256.178 188.012 255.067 187.784C253.956 187.557 252.803 187.665 251.753 188.096C250.702 188.527 249.8 189.262 249.16 190.208C248.52 191.155 248.17 192.271 248.154 193.417C248.137 194.563 248.455 195.689 249.068 196.654C249.68 197.618 250.56 198.379 251.598 198.841C252.636 199.303 253.785 199.445 254.902 199.251C256.02 199.056 257.055 198.532 257.88 197.746C257.935 197.693 258 197.652 258.071 197.625C258.142 197.597 258.217 197.584 258.293 197.586C258.369 197.589 258.443 197.606 258.512 197.637C258.582 197.668 258.644 197.713 258.696 197.769C258.748 197.824 258.789 197.89 258.816 197.962C258.843 198.033 258.856 198.109 258.854 198.186C258.852 198.263 258.835 198.338 258.804 198.408C258.773 198.478 258.728 198.541 258.673 198.594C257.391 199.822 255.69 200.505 253.923 200.5H253.828C252.694 200.484 251.582 200.187 250.588 199.635C249.594 199.082 248.75 198.292 248.129 197.332C247.509 196.373 247.13 195.274 247.028 194.132C246.926 192.99 247.103 191.84 247.543 190.783C247.983 189.727 248.673 188.795 249.552 188.071C250.432 187.348 251.473 186.853 252.586 186.632C253.699 186.41 254.848 186.469 255.933 186.802C257.018 187.135 258.006 187.732 258.809 188.541L259.597 189.27L261.015 187.834C261.096 187.752 261.199 187.696 261.311 187.674C261.423 187.651 261.54 187.663 261.645 187.708C261.751 187.752 261.841 187.828 261.904 187.924C261.967 188.02 262.001 188.134 262 188.249Z" fill="#4C4C4C"/>
</g>
<rect x="252.5" y="53.5" width="114" height="50" rx="11.5" fill="white"/>
<rect x="252.5" y="53.5" width="114" height="50" rx="11.5" stroke="#CECECE"/>
<rect x="259.5" y="61.5" width="100" height="4" rx="2" fill="#F1F1F1"/>
<rect x="259.5" y="71.5" width="59" height="4" rx="2" fill="#F0F0F0"/>
<rect x="259.5" y="81.5" width="84" height="4" rx="2" fill="#F7F7F7"/>
<rect x="259.5" y="91.5" width="100" height="4" rx="2" fill="#EAEAEA"/>
<rect x="252.5" y="108.5" width="114" height="50" rx="11.5" fill="white"/>
<rect x="252.5" y="108.5" width="114" height="50" rx="11.5" stroke="#CECECE"/>
<rect x="259.5" y="116.5" width="100" height="4" rx="2" fill="#F4F4F4"/>
<rect x="259.5" y="126.5" width="71" height="4" rx="2" fill="#F0F0F0"/>
<rect x="259.5" y="136.5" width="44" height="4" rx="2" fill="#D3D3D3"/>
<rect x="259.5" y="146.5" width="76" height="4" rx="2" fill="#F6F6F6"/>
<rect x="54.5" y="53.5" width="193" height="105" rx="11.5" fill="#FAFAFA" stroke="#CECECE"/>
<circle cx="85.5" cy="84.5" r="15" fill="white" stroke="#E3E3E3"/>
<circle cx="129.166" cy="84.5" r="15" fill="white" stroke="#E3E3E3"/>
<circle cx="172.834" cy="84.5" r="15" fill="white" stroke="#E3E3E3"/>
<circle cx="216.5" cy="84.5" r="15" fill="white" stroke="#E3E3E3"/>
<rect x="70" y="110" width="162" height="4" rx="2" fill="#E6E6E6"/>
<rect x="70" y="120" width="135" height="4" rx="2" fill="#F0F0F0"/>
<rect x="70" y="130" width="99" height="4" rx="2" fill="#D3D3D3"/>
<rect x="70" y="140" width="142" height="4" rx="2" fill="#DFDFDF"/>
</g>
<defs>
<filter id="filter0_dd_1594_2317" x="0.5" y="0.5" width="421" height="241" filterUnits="userSpaceOnUse" color-interpolation-filters="sRGB">
<feFlood flood-opacity="0" result="BackgroundImageFix"/>
<feColorMatrix in="SourceAlpha" type="matrix" values="0 0 0 0 0 0 0 0 0 0 0 0 0 0 0 0 0 0 127 0" result="hardAlpha"/>
<feOffset dy="4"/>
<feComposite in2="hardAlpha" operator="out"/>
<feColorMatrix type="matrix" values="0 0 0 0 0.810002 0 0 0 0 0.810002 0 0 0 0 0.810002 0 0 0 1 0"/>
<feBlend mode="normal" in2="BackgroundImageFix" result="effect1_dropShadow_1594_2317"/>
<feColorMatrix in="SourceAlpha" type="matrix" values="0 0 0 0 0 0 0 0 0 0 0 0 0 0 0 0 0 0 127 0" result="hardAlpha"/>
<feOffset dy="2"/>
<feComposite in2="hardAlpha" operator="out"/>
<feColorMatrix type="matrix" values="0 0 0 0 0.899959 0 0 0 0 0.899959 0 0 0 0 0.899959 0 0 0 1 0"/>
<feBlend mode="normal" in2="effect1_dropShadow_1594_2317" result="effect2_dropShadow_1594_2317"/>
<feBlend mode="normal" in="SourceGraphic" in2="effect2_dropShadow_1594_2317" result="shape"/>
</filter>
<filter id="filter1_d_1594_2317" x="152" y="181" width="118" height="27" filterUnits="userSpaceOnUse" color-interpolation-filters="sRGB">
<feFlood flood-opacity="0" result="BackgroundImageFix"/>
<feColorMatrix in="SourceAlpha" type="matrix" values="0 0 0 0 0 0 0 0 0 0 0 0 0 0 0 0 0 0 127 0" result="hardAlpha"/>
<feOffset dy="2"/>
<feComposite in2="hardAlpha" operator="out"/>
<feColorMatrix type="matrix" values="0 0 0 0 0.840783 0 0 0 0 0.840783 0 0 0 0 0.840783 0 0 0 1 0"/>
<feBlend mode="normal" in2="BackgroundImageFix" result="effect1_dropShadow_1594_2317"/>
<feBlend mode="normal" in="SourceGraphic" in2="effect1_dropShadow_1594_2317" result="shape"/>
</filter>
</defs>
</svg>
