<?xml version="1.0" standalone="no"?>
<!DOCTYPE svg PUBLIC "-//W3C//DTD SVG 20010904//EN"
 "http://www.w3.org/TR/2001/REC-SVG-20010904/DTD/svg10.dtd">
<svg version="1.0" xmlns="http://www.w3.org/2000/svg"
 width="512.000000pt" height="512.000000pt" viewBox="0 0 512.000000 512.000000"
 preserveAspectRatio="xMidYMid meet">
<metadata>
Created by potrace 1.14, written by Peter Selinger 2001-2017
</metadata>
<g transform="translate(0.000000,512.000000) scale(0.100000,-0.100000)"
fill="#000000" stroke="none">
<path d="M2365 4549 c-699 -71 -1311 -503 -1615 -1140 -162 -340 -224 -737
-174 -1121 86 -666 509 -1249 1119 -1544 1060 -511 2325 -7 2751 1096 139 361
165 803 69 1198 -119 493 -452 948 -893 1221 -368 229 -825 334 -1257 290z
m425 -303 c307 -41 587 -159 835 -351 185 -143 371 -374 476 -589 49 -100 121
-306 133 -381 l7 -40 -33 1 c-18 1 -39 -3 -46 -9 -9 -7 -11 -6 -7 4 4 10 -4
14 -25 15 -16 1 -30 -2 -30 -7 0 -4 -10 -6 -22 -3 -53 12 -131 10 -144 -4 -12
-11 -14 -11 -14 5 0 10 -4 14 -8 8 -8 -11 -37 -13 -47 -3 -4 4 -15 2 -24 -4
-16 -10 -17 -15 -4 -67 8 -31 17 -131 20 -223 4 -134 2 -187 -12 -265 -49
-274 -164 -494 -364 -694 -153 -154 -304 -247 -504 -314 -457 -151 -962 -35
-1301 298 -193 190 -312 408 -372 682 -23 109 -24 378 -1 489 19 88 12 115
-24 93 -14 -9 -21 -9 -31 1 -6 6 -19 12 -27 12 -14 0 -14 -2 -1 -11 12 -9 11
-10 -5 -4 -27 9 -85 10 -112 1 -12 -4 -38 -3 -58 3 -22 6 -37 6 -41 0 -3 -6
-12 -5 -22 3 -13 11 -14 11 -7 -2 8 -13 7 -13 -8 -1 -14 11 -20 11 -32 1 -11
-9 -15 -9 -15 -1 0 7 -4 10 -9 7 -11 -7 -8 7 30 141 149 529 569 963 1102
1137 100 33 275 71 362 79 100 9 289 5 385 -7z"/>
<path d="M2723 2643 c-70 -33 -82 -131 -22 -174 105 -75 224 53 139 150 -30
35 -76 44 -117 24z"/>
</g>
</svg>
